<svg xmlns="http://www.w3.org/2000/svg" viewBox="0 0 23.69 19.18"><defs><style>.cls-1{fill:#fbebcc;}.cls-2{fill:none;stroke:#089247;stroke-linecap:round;stroke-miterlimit:10;stroke-width:0.46px;}</style></defs><g id="Layer_2" data-name="Layer 2"><g id="Layer_1-2" data-name="Layer 1"><path class="cls-1" d="M23.69,9.42c0-2.51-5.3-4.54-11.85-4.54S0,6.91,0,9.42,5.3,14,11.84,14s11.85-2,11.85-4.55"/><path class="cls-2" d="M12,7.05a17.57,17.57,0,0,0-1.49,2.4,1.63,1.63,0,0,0,1.27,2.07,1.57,1.57,0,0,0,1.7-2.1A15.85,15.85,0,0,0,12,7.05Z"/><path class="cls-2" d="M12.22,10.91a.81.81,0,0,0,.83-.61,1,1,0,0,0,0-.63"/><path class="cls-2" d="M9.58.36,13.72.25A1.89,1.89,0,0,1,15.46,1l1.22,2.05,1.16-.76L15.89,5.91,11.77,6,13,5.23,10.8,1.69a4.79,4.79,0,0,0-.66-.88A3,3,0,0,0,9.56.38Zm1.89,2.4L9.29,6.67,5.53,4.57h0l1.9-3.49A1.81,1.81,0,0,1,9.31.28a1.13,1.13,0,0,1,.36.17M21,12.17l-2,3.61a2,2,0,0,1-1.53,1.12H15l.05,1.39L13,14.76l2-3.59,0,1.46,4.18-.1a5,5,0,0,0,1.09-.11,3.27,3.27,0,0,0,.67-.28Zm-3,.39L15.7,8.68l3.73-2.15h0l2,3.42a1.8,1.8,0,0,1-.28,2,1,1,0,0,1-.33.23M4.64,15.65,2.56,12.07a1.92,1.92,0,0,1-.18-1.89L3.61,8.12,2.38,7.46l4.11,0,2,3.59L7.27,10.3l-2,3.64a4.86,4.86,0,0,0-.46,1,3.38,3.38,0,0,0-.1.71Zm1.2-2.81,4.47.05,0,4.31h-4a1.81,1.81,0,0,1-1.61-1.28,1.25,1.25,0,0,1,0-.4"/></g></g></svg>