<svg xmlns="http://www.w3.org/2000/svg" viewBox="0 0 23.69 18.84"><defs><style>.cls-1{fill:#fbebcc;}.cls-2{fill:none;stroke:#089247;stroke-linecap:round;stroke-miterlimit:10;stroke-width:0.46px;}</style></defs><g id="Layer_2" data-name="Layer 2"><g id="Layer_1-2" data-name="Layer 1"><path class="cls-1" d="M23.69,9.42c0-2.51-5.3-4.54-11.85-4.54S0,6.91,0,9.42,5.3,14,11.84,14s11.85-2,11.85-4.55"/><path class="cls-2" d="M18.68,15.92l.86-1m-2,0,.85-1m.86,2.56a1.89,1.89,0,0,1-2.56.54,1.88,1.88,0,0,1,.15-2.61Zm-2.47.63A9.2,9.2,0,0,1,2.66,9a10.8,10.8,0,0,1,.18-1.42M4.28,3.78,3.55,4.87m2-.26L4.77,5.69M3.62,3.25A1.88,1.88,0,0,1,6.1,2.42,1.87,1.87,0,0,1,6.25,5ZM6,2.31A9.19,9.19,0,0,1,21,8.8c0,.19,0,.39,0,.58M12.7,12.44l3.39-4.32L12.43,8l.74-5.61L7.63,9.92h3.58L9.6,16.38l1.8-2.28Z"/></g></g></svg>