<svg width="30" height="17" viewBox="0 0 30 17" fill="none" xmlns="http://www.w3.org/2000/svg">
<g clip-path="url(#clip0_1309_491)">
<path d="M26.4999 8.2998C26.4999 5.7998 21.1999 3.7998 14.6999 3.7998C8.1999 3.7998 2.8999 5.7998 2.8999 8.2998C2.8999 10.7998 8.1999 12.7998 14.6999 12.7998C21.1999 12.8998 26.4999 10.8998 26.4999 8.2998Z" fill="#FBEBCC"/>
<path d="M14.3998 12.1002L14.4998 15.5002M11.9998 13.0002V16.5002L10.0998 15.5002V13.0002M2.2998 11.0002V9.0002M28.9998 6.1002V6.6002V9.0002V9.5002L11.9998 16.4002L10.0998 15.4002M28.9998 6.1002L17.3998 0.200195L0.399805 7.1002M28.9998 6.1002L12.0998 13.0002L0.399805 7.1002M19.1998 11.1002L19.2998 13.0002M21.7998 9.2002V12.5002L19.3998 13.5002L19.2998 10.2002M26.6998 10.4002L23.4998 8.4002M26.5998 7.2002V10.0002M21.6998 10.2002L28.9998 7.3002M14.4998 13.2002L21.9998 10.1002M14.4998 13.2002L11.9998 14.1002M14.4998 13.2002V12.6002M5.2998 13.0002L7.1998 14.0002V13.5002V11.5002L5.1998 10.5002V13.0002L7.0998 14.0002L9.8998 13.0002M4.4998 10.2002L4.9998 10.4002L2.2998 11.5002M0.399805 7.6002V8.1002L11.9998 14.0002V13.5002M0.399805 7.1002V10.0002M0.299805 10.0002V10.5002L2.1998 11.5002V11.0002M26.9998 5.1002L10.0998 12.0002V12.5002M25.0998 4.1002L8.1998 11.0002V11.5002M23.1998 3.1002L6.0998 10.0002V10.5002M21.1998 2.1002L4.1998 9.0002V9.5002M19.2998 1.2002L2.2998 8.1002V8.6002" stroke="#089247" stroke-width="0.322" stroke-miterlimit="10" stroke-linecap="round"/>
</g>
<defs>
<clipPath id="clip0_1309_491">
<rect width="29.4" height="16.7" fill="white"/>
</clipPath>
</defs>
</svg>
