<svg width="24" height="19" viewBox="0 0 24 19" fill="none" xmlns="http://www.w3.org/2000/svg">
<g clip-path="url(#clip0_1309_487)">
<path d="M23.7 9.3999C23.7 6.8999 18.4 4.8999 11.9 4.8999C5.3 4.8999 0 6.8999 0 9.3999C0 11.8999 5.3 13.9999 11.8 13.9999C18.4 13.9999 23.7 11.8999 23.7 9.3999Z" fill="#FBEBCC"/>
<path d="M9.6002 7.3002C9.7002 7.3002 9.7002 7.3002 9.6002 7.3002ZM9.6002 7.3002C9.9002 7.7002 10.1002 8.2002 10.3002 8.6002M11.4002 7.3002C11.2002 6.7002 10.8002 6.3002 10.7002 6.2002C10.0002 5.5002 9.2002 5.2002 8.9002 5.2002C8.7002 5.5002 8.3002 6.2002 8.3002 7.2002C8.3002 7.6002 8.3002 8.4002 8.8002 9.2002C9.0002 9.5002 9.3002 9.7002 9.6002 9.9002M13.5002 9.1002C13.5002 9.1002 13.5002 9.2002 13.4002 9.2002C12.6002 11.0002 11.0002 12.4002 9.0002 12.9002C8.9002 12.9002 8.9002 12.9002 8.8002 13.0002M16.8002 8.5002C16.9002 8.8002 16.9002 9.1002 16.9002 9.5002C16.9002 12.3002 14.6002 14.6002 11.8002 14.6002C9.0002 14.6002 6.7002 12.3002 6.7002 9.5002C6.7002 8.9002 6.8002 8.3002 7.0002 7.8002M10.4002 4.5002C10.9002 4.4002 11.3002 4.3002 11.8002 4.3002C13.0002 4.3002 14.2002 4.7002 15.1002 5.5002M10.5002 12.4002C10.8002 12.5002 12.3002 13.0002 13.8002 12.2002C15.2002 11.5002 15.6002 10.1002 15.8002 9.6002C16.2002 8.2002 15.9002 7.0002 15.7002 6.6002C15.2002 6.6002 14.0002 6.6002 12.8002 7.3002C12.3002 7.6002 11.2002 8.2002 10.7002 9.5002C10.1002 10.7002 10.4002 12.0002 10.5002 12.4002ZM2.7002 8.1002V10.7002L4.8002 11.0002C5.0002 11.8002 5.3002 12.5002 5.7002 13.2002L4.4002 15.0002L6.2002 16.8002L8.0002 15.5002C8.7002 15.9002 9.4002 16.2002 10.2002 16.4002L10.5002 18.6002H13.1002L13.4002 16.4002C14.2002 16.2002 14.9002 15.9002 15.6002 15.5002L17.4002 16.8002L19.2002 15.0002L17.9002 13.2002C18.3002 12.5002 18.6002 11.8002 18.8002 11.0002L21.0002 10.7002V8.1002L18.8002 7.8002C18.6002 7.0002 18.3002 6.3002 17.9002 5.6002L19.2002 3.8002L17.4002 2.0002L15.6002 3.3002C14.9002 2.9002 14.2002 2.6002 13.4002 2.4002L13.1002 0.200195H10.5002L10.2002 2.4002C9.4002 2.6002 8.7002 2.9002 8.0002 3.3002L6.3002 2.0002L4.4002 3.8002L5.7002 5.6002C5.3002 6.3002 5.0002 7.0002 4.8002 7.8002L2.7002 8.1002Z" stroke="#089247" stroke-width="0.46" stroke-miterlimit="10" stroke-linecap="round"/>
</g>
<defs>
<clipPath id="clip0_1309_487">
<rect width="23.7" height="18.8" fill="white"/>
</clipPath>
</defs>
</svg>
