<svg width="18" height="14" viewBox="0 0 18 14" fill="none" xmlns="http://www.w3.org/2000/svg">
<g clip-path="url(#clip0_1309_495)">
<mask id="mask0_1309_495" style="mask-type:luminance" maskUnits="userSpaceOnUse" x="0" y="0" width="18" height="14">
<path d="M17.4 0H0V13.4H17.4V0Z" fill="white"/>
</mask>
<g mask="url(#mask0_1309_495)">
<path d="M2.7 5.7999C2.7 7.1999 2.7 8.4999 2.7 9.8999C2.7 10.0999 2.8 10.1999 2.9 10.0999C3.1 10.0999 3.3 10.0999 3.4 10.0999C5.1 10.1999 6.6 10.5999 8.1 11.2999C8.4 11.3999 8.4 11.3999 8.4 11.0999C8.4 8.3999 8.4 5.6999 8.4 3.0999C8.4 2.8999 8.3 2.7999 8.2 2.6999C6.6 1.8999 4.8 1.4999 3 1.4999C2.8 1.4999 2.7 1.4999 2.7 1.7999C2.7 3.0999 2.7 4.4999 2.7 5.7999ZM14.7 5.7999C14.7 4.3999 14.7 3.0999 14.7 1.6999C14.7 1.5999 14.7 1.4999 14.5 1.4999C12.6 1.5999 10.9 1.8999 9.2 2.7999C9 2.8999 8.9 2.9999 8.9 3.1999C8.9 5.7999 8.9 8.4999 8.9 11.0999C8.9 11.4999 8.9 11.4999 9.2 11.2999C10.8 10.4999 12.6 10.1999 14.4 10.0999C14.6 10.0999 14.6 9.9999 14.6 9.7999C14.7 8.4999 14.7 7.1999 14.7 5.7999ZM10.7 11.2999C10.9 11.3999 11.1 11.2999 11.3 11.2999C12.8 11.0999 14.2 11.1999 15.7 11.5999C15.9 11.6999 15.9 11.5999 15.9 11.3999C15.9 8.5999 15.9 5.7999 15.9 2.9999C15.9 2.8999 15.8 2.7999 15.9 2.6999C16 2.6999 16.2 2.6999 16.3 2.6999V2.7999C16.3 2.8999 16.3 2.8999 16.3 2.9999C16.3 5.9999 16.3 8.9999 16.3 12.0999C16.3 12.3999 16.3 12.3999 16 12.2999C14.5 11.6999 13 11.5999 11.4 11.6999C10.5 11.7999 9.6 11.9999 8.7 12.3999C8.6 12.4999 8.5 12.3999 8.4 12.3999C6.1 11.4999 3.8 11.3999 1.5 12.1999C1.4 12.1999 1.2 12.2999 1.1 12.3999C1 12.3999 1 12.3999 1 12.2999V12.1999C1 9.1999 1 6.0999 1 3.0999C1 2.8999 1 2.7999 1.1 2.7999C1.2 2.7999 1.4 2.7999 1.5 2.7999C1.6 2.7999 1.5 2.8999 1.5 2.9999C1.5 3.9999 1.5 5.0999 1.5 6.0999C1.5 7.8999 1.5 9.5999 1.5 11.3999C1.5 11.5999 1.6 11.5999 1.7 11.5999C3 11.1999 4.4 11.0999 5.8 11.1999C6 11.1999 6.2 11.2999 6.4 11.2999H6.5C6.5 11.1999 6.4 11.2999 6.4 11.1999C5.7 10.8999 5 10.7999 4.3 10.6999C3.7 10.5999 3.1 10.5999 2.4 10.5999C2.2 10.5999 2.1 10.4999 2.1 10.2999C2.1 7.3999 2.1 4.5999 2.1 1.6999C2.1 1.4999 2.1 1.2999 2.1 1.0999C2.1 0.999902 2.1 0.899902 2.3 0.899902C4.4 0.899902 6.5 1.2999 8.4 2.2999C8.6 2.3999 8.7 2.3999 8.8 2.2999C10.3 1.4999 11.9 1.0999 13.5 0.999902C13.9 0.999902 14.4 0.999902 14.8 0.899902C15 0.899902 15 0.899902 15 1.0999C15 2.0999 15 3.0999 15 4.1999C15 6.1999 15 8.1999 15 10.1999C15 10.3999 14.9 10.4999 14.7 10.4999C13.5 10.5999 12.1 10.7999 10.7 11.2999C10.7 11.1999 10.7 11.1999 10.7 11.2999Z" fill="#DFA21C"/>
</g>
</g>
<defs>
<clipPath id="clip0_1309_495">
<rect width="17.4" height="13.4" fill="white"/>
</clipPath>
</defs>
</svg>
