<svg width="208" height="208" viewBox="0 0 208 208" fill="none" xmlns="http://www.w3.org/2000/svg">
<path d="M208 104C208 161.438 161.438 208 104 208C46.5624 208 0 161.438 0 104C0 46.5624 46.5624 0 104 0C161.438 0 208 46.5624 208 104ZM20.8 104C20.8 149.95 58.0499 187.2 104 187.2C149.95 187.2 187.2 149.95 187.2 104C187.2 58.0499 149.95 20.8 104 20.8C58.0499 20.8 20.8 58.0499 20.8 104Z" fill="#036738"/>
<path d="M104 0C125.963 2.61902e-07 147.362 6.95292 165.13 19.8622C182.898 32.7716 196.123 50.9745 202.91 71.8622C209.697 92.75 209.697 115.25 202.91 136.138C196.123 157.025 182.898 175.228 165.13 188.138C147.362 201.047 125.963 208 104 208C82.0373 208 60.6385 201.047 42.8703 188.138C25.1022 175.228 11.8769 157.025 5.09012 136.138C-1.69671 115.25 -1.69671 92.7499 5.09013 71.8622L24.8721 78.2898C19.4426 94.9999 19.4426 113 24.8721 129.71C30.3016 146.42 40.8817 160.983 55.0963 171.31C69.3108 181.638 86.4299 187.2 104 187.2C121.57 187.2 138.689 181.638 152.904 171.31C167.118 160.983 177.698 146.42 183.128 129.71C188.557 113 188.557 95 183.128 78.2898C177.698 61.5796 167.118 47.0172 152.904 36.6898C138.689 26.3623 121.57 20.8 104 20.8L104 0Z" fill="#036738"/>
<path d="M130.678 116.436L128.23 114.996L143.098 89.1841L145.546 90.6241L130.678 116.436ZM128.086 105.312C126.79 105.312 125.662 105 124.702 104.376C123.766 103.752 123.046 102.864 122.542 101.712C122.062 100.536 121.822 99.1441 121.822 97.5361C121.822 95.1121 122.374 93.2161 123.478 91.8481C124.606 90.4801 126.142 89.7961 128.086 89.7961C129.382 89.7961 130.498 90.1081 131.434 90.7321C132.37 91.3321 133.09 92.2081 133.594 93.3601C134.098 94.5121 134.35 95.9041 134.35 97.5361C134.35 99.1441 134.098 100.536 133.594 101.712C133.114 102.864 132.406 103.752 131.47 104.376C130.534 105 129.406 105.312 128.086 105.312ZM128.086 102.756C129.094 102.756 129.874 102.324 130.426 101.46C131.002 100.596 131.29 99.2881 131.29 97.5361C131.29 95.7841 131.002 94.4761 130.426 93.6121C129.874 92.7481 129.094 92.3161 128.086 92.3161C127.078 92.3161 126.286 92.7481 125.71 93.6121C125.158 94.4521 124.882 95.7601 124.882 97.5361C124.882 99.3121 125.158 100.632 125.71 101.496C126.286 102.336 127.078 102.756 128.086 102.756ZM145.69 115.824C144.394 115.824 143.278 115.524 142.342 114.924C141.406 114.3 140.686 113.412 140.182 112.26C139.702 111.084 139.462 109.68 139.462 108.048C139.462 105.648 140.014 103.764 141.118 102.396C142.222 101.004 143.746 100.308 145.69 100.308C147.01 100.308 148.138 100.62 149.074 101.244C150.01 101.868 150.718 102.756 151.198 103.908C151.702 105.06 151.954 106.44 151.954 108.048C151.954 109.68 151.702 111.084 151.198 112.26C150.718 113.412 150.01 114.3 149.074 114.924C148.138 115.524 147.01 115.824 145.69 115.824ZM145.69 113.304C146.698 113.304 147.478 112.872 148.03 112.008C148.606 111.12 148.894 109.8 148.894 108.048C148.894 106.32 148.606 105.024 148.03 104.16C147.478 103.296 146.698 102.864 145.69 102.864C144.706 102.864 143.926 103.296 143.35 104.16C142.774 105 142.486 106.296 142.486 108.048C142.486 109.824 142.774 111.144 143.35 112.008C143.926 112.872 144.706 113.304 145.69 113.304Z" fill="#051226"/>
<path d="M109.236 115.824C107.268 115.824 105.612 115.32 104.268 114.312C102.924 113.304 101.904 111.84 101.208 109.92C100.512 107.976 100.164 105.6 100.164 102.792C100.164 99.9359 100.512 97.5479 101.208 95.6279C101.904 93.7079 102.924 92.2559 104.268 91.2719C105.612 90.2879 107.268 89.7959 109.236 89.7959C111.228 89.7959 112.896 90.2879 114.24 91.2719C115.584 92.2319 116.592 93.6719 117.264 95.5919C117.96 97.5119 118.308 99.8999 118.308 102.756C118.308 105.564 117.96 107.94 117.264 109.884C116.568 111.828 115.548 113.304 114.204 114.312C112.86 115.32 111.204 115.824 109.236 115.824ZM109.236 112.728C111.084 112.728 112.44 111.924 113.304 110.316C114.192 108.708 114.636 106.188 114.636 102.756C114.636 99.3239 114.192 96.8279 113.304 95.2679C112.44 93.6839 111.084 92.8919 109.236 92.8919C107.412 92.8919 106.056 93.6839 105.168 95.2679C104.28 96.8279 103.836 99.3239 103.836 102.756C103.836 106.188 104.28 108.708 105.168 110.316C106.056 111.924 107.412 112.728 109.236 112.728Z" fill="#051226"/>
<path d="M87.6501 115.824C85.6821 115.824 84.0261 115.32 82.6821 114.312C81.3381 113.304 80.3181 111.84 79.6221 109.92C78.9261 107.976 78.5781 105.6 78.5781 102.792C78.5781 99.9359 78.9261 97.5479 79.6221 95.6279C80.3181 93.7079 81.3381 92.2559 82.6821 91.2719C84.0261 90.2879 85.6821 89.7959 87.6501 89.7959C89.6421 89.7959 91.3101 90.2879 92.6541 91.2719C93.9981 92.2319 95.0061 93.6719 95.6781 95.5919C96.3741 97.5119 96.7221 99.8999 96.7221 102.756C96.7221 105.564 96.3741 107.94 95.6781 109.884C94.9821 111.828 93.9621 113.304 92.6181 114.312C91.2741 115.32 89.6181 115.824 87.6501 115.824ZM87.6501 112.728C89.4981 112.728 90.8541 111.924 91.7181 110.316C92.6061 108.708 93.0501 106.188 93.0501 102.756C93.0501 99.3239 92.6061 96.8279 91.7181 95.2679C90.8541 93.6839 89.4981 92.8919 87.6501 92.8919C85.8261 92.8919 84.4701 93.6839 83.5821 95.2679C82.6941 96.8279 82.2501 99.3239 82.2501 102.756C82.2501 106.188 82.6941 108.708 83.5821 110.316C84.4701 111.924 85.8261 112.728 87.6501 112.728Z" fill="#051226"/>
<path d="M59.4766 115.5V112.368H65.2366V93.2881H67.1086L60.7366 97.2481L59.2246 94.4761L66.3166 90.1201H68.9446V112.368H74.3446V115.5H59.4766Z" fill="#051226"/>
</svg>
