<svg width="208" height="208" viewBox="0 0 208 208" fill="none" xmlns="http://www.w3.org/2000/svg">
<path d="M208 104C208 161.438 161.438 208 104 208C46.5624 208 0 161.438 0 104C0 46.5624 46.5624 0 104 0C161.438 0 208 46.5624 208 104ZM20.8 104C20.8 149.95 58.0499 187.2 104 187.2C149.95 187.2 187.2 149.95 187.2 104C187.2 58.0499 149.95 20.8 104 20.8C58.0499 20.8 20.8 58.0499 20.8 104Z" fill="#D9E2E2"/>
<path d="M208 104C208 127.08 200.322 149.505 186.176 167.742C172.03 185.979 152.219 198.993 129.864 204.733L124.691 184.586C142.575 179.994 158.424 169.584 169.741 154.994C181.058 140.404 187.2 122.464 187.2 104H208Z" fill="#00A058"/>
<path d="M69.1176 115.5V112.728L77.5776 103.656C78.3696 102.792 79.0056 102 79.4856 101.28C79.9656 100.536 80.3136 99.828 80.5296 99.156C80.7696 98.46 80.8896 97.764 80.8896 97.068C80.8896 95.724 80.4816 94.704 79.6656 94.008C78.8496 93.312 77.6496 92.964 76.0656 92.964C74.8416 92.964 73.6776 93.192 72.5736 93.648C71.4936 94.104 70.4616 94.8 69.4776 95.736L68.1456 92.892C69.1056 91.956 70.3296 91.212 71.8176 90.66C73.3056 90.084 74.8536 89.796 76.4616 89.796C78.2136 89.796 79.6896 90.072 80.8896 90.624C82.1136 91.152 83.0376 91.932 83.6616 92.964C84.2856 93.996 84.5976 95.256 84.5976 96.744C84.5976 97.512 84.5016 98.268 84.3096 99.012C84.1416 99.732 83.8656 100.452 83.4816 101.172C83.1216 101.892 82.6536 102.636 82.0776 103.404C81.5256 104.172 80.8536 104.964 80.0616 105.78L72.8256 113.412V112.368H85.6056V115.5H69.1176ZM91.8556 115.5V112.368H97.6156V93.288H99.4876L93.1156 97.248L91.6036 94.476L98.6956 90.12H101.324V112.368H106.724V115.5H91.8556ZM119.885 116.436L117.437 114.996L132.305 89.184L134.753 90.624L119.885 116.436ZM117.293 105.312C115.997 105.312 114.869 105 113.909 104.376C112.973 103.752 112.253 102.864 111.749 101.712C111.269 100.536 111.029 99.144 111.029 97.536C111.029 95.112 111.581 93.216 112.685 91.848C113.813 90.48 115.349 89.796 117.293 89.796C118.589 89.796 119.705 90.108 120.641 90.732C121.577 91.332 122.297 92.208 122.801 93.36C123.305 94.512 123.557 95.904 123.557 97.536C123.557 99.144 123.305 100.536 122.801 101.712C122.321 102.864 121.613 103.752 120.677 104.376C119.741 105 118.613 105.312 117.293 105.312ZM117.293 102.756C118.301 102.756 119.081 102.324 119.633 101.46C120.209 100.596 120.497 99.288 120.497 97.536C120.497 95.784 120.209 94.476 119.633 93.612C119.081 92.748 118.301 92.316 117.293 92.316C116.285 92.316 115.493 92.748 114.917 93.612C114.365 94.452 114.089 95.76 114.089 97.536C114.089 99.312 114.365 100.632 114.917 101.496C115.493 102.336 116.285 102.756 117.293 102.756ZM134.897 115.824C133.601 115.824 132.485 115.524 131.549 114.924C130.613 114.3 129.893 113.412 129.389 112.26C128.909 111.084 128.669 109.68 128.669 108.048C128.669 105.648 129.221 103.764 130.325 102.396C131.429 101.004 132.953 100.308 134.897 100.308C136.217 100.308 137.345 100.62 138.281 101.244C139.217 101.868 139.925 102.756 140.405 103.908C140.909 105.06 141.161 106.44 141.161 108.048C141.161 109.68 140.909 111.084 140.405 112.26C139.925 113.412 139.217 114.3 138.281 114.924C137.345 115.524 136.217 115.824 134.897 115.824ZM134.897 113.304C135.905 113.304 136.685 112.872 137.237 112.008C137.813 111.12 138.101 109.8 138.101 108.048C138.101 106.32 137.813 105.024 137.237 104.16C136.685 103.296 135.905 102.864 134.897 102.864C133.913 102.864 133.133 103.296 132.557 104.16C131.981 105 131.693 106.296 131.693 108.048C131.693 109.824 131.981 111.144 132.557 112.008C133.133 112.872 133.913 113.304 134.897 113.304Z" fill="#051226"/>
</svg>
