<svg width="208" height="208" viewBox="0 0 208 208" fill="none" xmlns="http://www.w3.org/2000/svg">
<path d="M208 104C208 161.438 161.438 208 104 208C46.5624 208 0 161.438 0 104C0 46.5624 46.5624 0 104 0C161.438 0 208 46.5624 208 104ZM20.8 104C20.8 149.95 58.0499 187.2 104 187.2C149.95 187.2 187.2 149.95 187.2 104C187.2 58.0499 149.95 20.8 104 20.8C58.0499 20.8 20.8 58.0499 20.8 104Z" fill="#D9E2E2"/>
<path d="M208 104C208 129.325 198.759 153.78 182.012 172.776C165.264 191.773 142.16 204.006 117.035 207.18L114.428 186.544C134.528 184.005 153.011 174.218 166.409 159.021C179.807 143.824 187.2 124.26 187.2 104H208Z" fill="#00A058"/>
<path d="M69.1176 115.5V112.728L77.5776 103.656C78.3696 102.792 79.0056 102 79.4856 101.28C79.9656 100.536 80.3136 99.828 80.5296 99.156C80.7696 98.46 80.8896 97.764 80.8896 97.068C80.8896 95.724 80.4816 94.704 79.6656 94.008C78.8496 93.312 77.6496 92.964 76.0656 92.964C74.8416 92.964 73.6776 93.192 72.5736 93.648C71.4936 94.104 70.4616 94.8 69.4776 95.736L68.1456 92.892C69.1056 91.956 70.3296 91.212 71.8176 90.66C73.3056 90.084 74.8536 89.796 76.4616 89.796C78.2136 89.796 79.6896 90.072 80.8896 90.624C82.1136 91.152 83.0376 91.932 83.6616 92.964C84.2856 93.996 84.5976 95.256 84.5976 96.744C84.5976 97.512 84.5016 98.268 84.3096 99.012C84.1416 99.732 83.8656 100.452 83.4816 101.172C83.1216 101.892 82.6536 102.636 82.0776 103.404C81.5256 104.172 80.8536 104.964 80.0616 105.78L72.8256 113.412V112.368H85.6056V115.5H69.1176ZM98.0476 115.824C96.9196 115.824 95.8156 115.716 94.7356 115.5C93.6796 115.26 92.6836 114.924 91.7476 114.492C90.8356 114.036 90.0316 113.496 89.3356 112.872L90.6316 109.992C91.7596 110.904 92.9236 111.576 94.1236 112.008C95.3236 112.44 96.5956 112.656 97.9396 112.656C99.0916 112.656 100.064 112.488 100.856 112.152C101.648 111.816 102.236 111.324 102.62 110.676C103.028 110.028 103.232 109.248 103.232 108.336C103.232 106.968 102.776 105.948 101.864 105.276C100.976 104.58 99.6796 104.232 97.9756 104.232H94.0516V101.1H97.6156C98.6476 101.1 99.5236 100.932 100.244 100.596C100.964 100.236 101.516 99.744 101.9 99.12C102.308 98.472 102.512 97.692 102.512 96.78C102.512 95.556 102.104 94.62 101.288 93.972C100.496 93.3 99.3316 92.964 97.7956 92.964C96.4996 92.964 95.2996 93.192 94.1956 93.648C93.0916 94.104 92.0476 94.8 91.0636 95.736L89.7676 92.892C90.7516 91.908 91.9756 91.152 93.4396 90.624C94.9276 90.072 96.4756 89.796 98.0836 89.796C99.7636 89.796 101.204 90.06 102.404 90.588C103.628 91.116 104.552 91.872 105.176 92.856C105.824 93.84 106.148 95.016 106.148 96.384C106.148 97.92 105.716 99.252 104.852 100.38C104.012 101.484 102.848 102.216 101.36 102.576V102.18C102.536 102.372 103.532 102.756 104.348 103.332C105.164 103.908 105.788 104.64 106.22 105.528C106.652 106.416 106.868 107.436 106.868 108.588C106.868 110.076 106.508 111.372 105.788 112.476C105.092 113.556 104.084 114.384 102.764 114.96C101.444 115.536 99.8716 115.824 98.0476 115.824ZM119.885 116.436L117.437 114.996L132.305 89.184L134.753 90.624L119.885 116.436ZM117.293 105.312C115.997 105.312 114.869 105 113.909 104.376C112.973 103.752 112.253 102.864 111.749 101.712C111.269 100.536 111.029 99.144 111.029 97.536C111.029 95.112 111.581 93.216 112.685 91.848C113.813 90.48 115.349 89.796 117.293 89.796C118.589 89.796 119.705 90.108 120.641 90.732C121.577 91.332 122.297 92.208 122.801 93.36C123.305 94.512 123.557 95.904 123.557 97.536C123.557 99.144 123.305 100.536 122.801 101.712C122.321 102.864 121.613 103.752 120.677 104.376C119.741 105 118.613 105.312 117.293 105.312ZM117.293 102.756C118.301 102.756 119.081 102.324 119.633 101.46C120.209 100.596 120.497 99.288 120.497 97.536C120.497 95.784 120.209 94.476 119.633 93.612C119.081 92.748 118.301 92.316 117.293 92.316C116.285 92.316 115.493 92.748 114.917 93.612C114.365 94.452 114.089 95.76 114.089 97.536C114.089 99.312 114.365 100.632 114.917 101.496C115.493 102.336 116.285 102.756 117.293 102.756ZM134.897 115.824C133.601 115.824 132.485 115.524 131.549 114.924C130.613 114.3 129.893 113.412 129.389 112.26C128.909 111.084 128.669 109.68 128.669 108.048C128.669 105.648 129.221 103.764 130.325 102.396C131.429 101.004 132.953 100.308 134.897 100.308C136.217 100.308 137.345 100.62 138.281 101.244C139.217 101.868 139.925 102.756 140.405 103.908C140.909 105.06 141.161 106.44 141.161 108.048C141.161 109.68 140.909 111.084 140.405 112.26C139.925 113.412 139.217 114.3 138.281 114.924C137.345 115.524 136.217 115.824 134.897 115.824ZM134.897 113.304C135.905 113.304 136.685 112.872 137.237 112.008C137.813 111.12 138.101 109.8 138.101 108.048C138.101 106.32 137.813 105.024 137.237 104.16C136.685 103.296 135.905 102.864 134.897 102.864C133.913 102.864 133.133 103.296 132.557 104.16C131.981 105 131.693 106.296 131.693 108.048C131.693 109.824 131.981 111.144 132.557 112.008C133.133 112.872 133.913 113.304 134.897 113.304Z" fill="#051226"/>
</svg>
