<svg width="168" height="168" viewBox="0 0 168 168" fill="none" xmlns="http://www.w3.org/2000/svg">
<g clip-path="url(#clip0_406_382)">
<path d="M167.097 84.3068C167.097 100.797 162.2 116.917 153.027 130.628C143.853 144.338 130.815 155.023 115.561 161.331C100.307 167.639 83.5227 169.287 67.3311 166.066C51.1394 162.845 36.268 154.899 24.5978 143.235C12.9276 131.571 4.98292 116.711 1.76882 100.536C-1.44529 84.3614 0.215518 67.5977 6.54115 52.3657C12.8668 37.1337 23.573 24.1177 37.3057 14.9641C51.0383 5.81054 67.1804 0.930639 83.6901 0.941669C105.826 0.941669 127.055 9.72475 142.707 25.3587C158.359 40.9927 167.152 62.197 167.152 84.3068" fill="white"/>
<path d="M164.844 103.441C175.433 58.6312 147.648 13.7318 102.786 3.15567C57.9234 -7.42047 12.9716 20.3316 2.38308 65.1417C-8.2054 109.952 19.5791 154.851 64.4415 165.427C109.304 176.004 154.256 148.251 164.844 103.441Z" stroke="#179426" stroke-width="0.74" stroke-miterlimit="10"/>
<path d="M164.633 103.436C175.222 58.6254 147.437 13.726 102.575 3.14984C57.7124 -7.4263 12.7606 20.3258 2.17214 65.1359C-8.41634 109.946 19.3681 154.845 64.2305 165.422C109.093 175.998 154.045 148.246 164.633 103.436Z" stroke="#179426" stroke-width="0.74" stroke-miterlimit="10"/>
<path d="M55.9836 79.4001L55.8906 79.2143C57.5688 79.1836 59.2397 78.9844 60.8779 78.6195C64.0042 77.9875 68.3216 76.7607 71.4852 77.56C72.5743 77.8809 73.5658 78.4687 74.3696 79.27C75.7638 80.6883 76.7533 82.4531 77.2354 84.3816H77.1424C77.1299 84.7191 77.0607 85.0521 76.9377 85.3667C76.5811 85.1685 76.2146 84.9886 75.8397 84.8277H75.6909C74.7642 85.0923 73.8072 85.236 72.8437 85.2552C71.9883 85.3016 71.131 85.3016 70.2756 85.2552C66.7076 85.3525 63.193 84.3745 60.1894 82.4485C59.4636 81.9838 58.7006 81.5005 58.0121 80.9615C57.4062 80.3636 56.7315 79.8396 56.0023 79.4001" fill="#4AC72E"/>
<path d="M68.0199 78.4707C69.2769 78.3134 70.5533 78.46 71.7417 78.8982C73.6634 79.6549 75.2218 81.1183 76.0964 82.9875C75.0493 81.6749 73.7528 80.5821 72.2814 79.7718C68.7457 78.2476 65.1541 79.7718 61.5625 79.6417C63.6857 79.1046 65.8432 78.7133 68.0199 78.4707Z" fill="#80DB52"/>
<path d="M67.0331 80.0317C67.533 80.2082 67.991 80.4858 68.3784 80.8472C68.7659 81.2086 69.0745 81.646 69.2849 82.1321C70.2526 82.2993 71.2388 82.5224 72.2251 82.6339C71.946 82.0205 71.1644 81.1655 71.1272 80.5149C71.7229 81.1441 72.1795 81.8914 72.4671 82.7083C74.0649 83.0637 75.6188 83.5935 77.1007 84.2882C77.0883 84.6257 77.0191 84.9588 76.8961 85.2733C76.5395 85.0751 76.173 84.8952 75.7981 84.7343C73.5951 83.8715 71.3053 83.2483 68.9685 82.8756C68.4024 83.6919 67.5423 84.258 66.5679 84.4555C67.3644 84.0099 68.1022 83.4667 68.7638 82.8384C67.424 82.6711 66.1027 82.3551 64.7628 82.1321C64.1054 82.7408 63.2712 83.1249 62.3808 83.2287C63.1058 82.9374 63.7881 82.5498 64.4093 82.0763C62.9161 81.8054 61.4561 81.3755 60.0547 80.7938C61.6536 81.1245 63.2686 81.3727 64.8931 81.5373C64.4153 81.0194 63.8852 80.5522 63.3113 80.1432C63.8778 80.3348 64.3932 80.6526 64.8186 81.0726C64.9275 81.24 65.0456 81.4013 65.1722 81.5558C66.4016 81.7867 67.6449 81.9358 68.8941 82.0019C68.3633 81.2386 67.7381 80.5453 67.0331 79.9387" fill="#038721"/>
<path d="M82.6493 101.928H83.2261C83.1324 102.767 83.0951 103.612 83.1145 104.456C82.8999 106.604 82.9561 108.771 83.282 110.906C83.4122 111.501 83.6541 112.058 83.803 112.653C83.9519 113.248 84.2683 114.121 84.0077 114.512C84.5845 116.185 84.4911 118.017 83.7472 119.623C83.3234 120.559 82.981 121.529 82.7237 122.523C82.6342 123.652 82.6842 124.789 82.8726 125.906C82.8913 126.271 82.8913 126.637 82.8726 127.003C82.8726 127.356 82.8726 127.727 82.8726 128.099C82.6679 129.754 81.8677 131.278 81.5327 132.913C82.5165 130.926 83.2419 128.821 83.6914 126.649C83.9705 127.226 84.3241 127.765 84.6218 128.322C85.3561 129.933 85.5832 131.728 85.2732 133.471C85.1447 134.013 85.107 134.572 85.1615 135.125C85.1898 135.279 85.1898 135.436 85.1615 135.59C85.1799 135.485 85.1799 135.379 85.1615 135.274C85.1615 135.162 84.901 135.088 84.8079 135.051C84.3241 134.921 83.7658 134.921 83.2633 134.828C82.2212 134.642 81.1977 134.382 80.137 134.177C77.2721 133.455 74.29 133.322 71.3721 133.787C68.5621 134.438 66.1987 135.794 63.2026 135.646C61.0675 135.386 59.0087 134.69 57.1546 133.601C56.1629 133.132 55.1363 132.741 54.0841 132.43C52.0624 131.946 49.9829 131.745 47.9058 131.835C46.755 131.876 45.6028 131.814 44.4632 131.649C43.3474 131.497 42.2653 131.157 41.2624 130.646C40.7647 130.288 40.2352 129.977 39.6806 129.716C39.5186 129.108 39.4188 128.486 39.3828 127.858C39.3828 127.486 39.3828 127.133 39.3828 126.761C39.4009 124.765 39.8129 122.791 40.5952 120.954C41.3775 119.117 42.5149 117.452 43.9421 116.055C50.4553 109.586 61.9 108.043 70.6091 108.322C72.2653 108.322 73.9029 108.471 75.5591 108.638C76.6323 108.799 77.713 108.905 78.7971 108.954H78.8902C79.6545 108.392 80.2868 107.67 80.7431 106.838C81.1995 106.007 81.4689 105.086 81.5327 104.14C81.5538 103.559 81.6223 102.981 81.7374 102.411C81.7906 102.301 81.866 102.203 81.9588 102.123C82.0517 102.043 82.16 101.983 82.277 101.947L82.6493 101.928Z" fill="#99471F"/>
<path d="M63.814 126.055H63.9256C64.0261 126.065 64.1232 126.096 64.21 126.148C64.2968 126.199 64.3713 126.269 64.4281 126.352C64.4599 126.422 64.4765 126.498 64.4765 126.575C64.4765 126.652 64.4599 126.728 64.4281 126.798C64.3997 126.906 64.3485 127.007 64.2779 127.094C64.2073 127.18 64.1189 127.251 64.0187 127.3C63.8289 127.299 63.6452 127.234 63.4976 127.114C63.4289 127.052 63.3774 126.973 63.348 126.885C63.3187 126.798 63.3125 126.704 63.3301 126.613C63.3546 126.496 63.4038 126.386 63.4744 126.29C63.545 126.193 63.6354 126.113 63.7395 126.055" fill="#E0DB1C"/>
<path d="M60.1713 129.512C60.3889 129.558 60.5814 129.684 60.711 129.865C60.7484 129.95 60.7677 130.042 60.7677 130.135C60.7677 130.227 60.7484 130.319 60.711 130.404C60.6723 130.518 60.6089 130.622 60.5253 130.709C60.4416 130.796 60.3398 130.863 60.2272 130.906H59.948C59.7652 130.826 59.6192 130.68 59.5386 130.497C59.4978 130.42 59.4766 130.334 59.4766 130.246C59.4766 130.159 59.4978 130.073 59.5386 129.995C59.5921 129.895 59.6661 129.806 59.7559 129.736C59.8456 129.665 59.949 129.614 60.0596 129.586" fill="#E0DB1C"/>
<path d="M75.8582 129.81H76.1001C76.2079 129.813 76.3135 129.84 76.4099 129.888C76.5063 129.936 76.5911 130.004 76.6584 130.088V130.237C76.6336 130.366 76.5808 130.488 76.5036 130.594C76.4264 130.7 76.3268 130.787 76.2118 130.85C76.0703 130.87 75.9261 130.857 75.7906 130.811C75.655 130.766 75.5317 130.691 75.4302 130.59C75.3661 130.521 75.318 130.438 75.2891 130.348C75.2601 130.259 75.2511 130.164 75.2627 130.07C75.2855 129.928 75.3389 129.793 75.4193 129.675C75.4996 129.556 75.605 129.456 75.7279 129.382" fill="#E0DB1C"/>
<path d="M70.6672 125.534H71.0208C71.1788 125.625 71.2979 125.771 71.3557 125.943C71.4194 126.2 71.3863 126.471 71.2627 126.705C71.2003 126.81 71.1168 126.9 71.0175 126.971C70.9181 127.041 70.8052 127.09 70.6858 127.114H70.4811C70.3779 127.074 70.2836 127.014 70.2038 126.938C70.1239 126.861 70.06 126.77 70.0158 126.668C69.9694 126.569 69.9453 126.462 69.9453 126.352C69.9453 126.243 69.9694 126.135 70.0158 126.036C70.0778 125.909 70.1664 125.797 70.2756 125.707C70.3847 125.618 70.5119 125.552 70.6486 125.516" fill="#853B17"/>
<path d="M66.9453 121.278C67.0749 121.259 67.2065 121.259 67.3361 121.278C67.4654 121.296 67.5898 121.339 67.7017 121.406C67.8136 121.474 67.9108 121.563 67.9874 121.668C68.0672 121.787 68.1216 121.921 68.1472 122.062C68.1728 122.202 68.1691 122.347 68.1363 122.486C68.1021 122.657 68.0312 122.819 67.9284 122.96C67.8256 123.101 67.6933 123.219 67.5408 123.304C67.4299 123.322 67.3168 123.322 67.2059 123.304C66.9687 123.279 66.7494 123.167 66.5917 122.988C66.4942 122.863 66.4239 122.719 66.3855 122.565C66.347 122.412 66.3412 122.252 66.3684 122.096C66.3927 121.923 66.4577 121.759 66.5581 121.617C66.6584 121.475 66.7911 121.359 66.9453 121.278Z" fill="#853B17"/>
<path d="M62.4738 113.136H62.9204C63.0472 113.16 63.1676 113.21 63.2734 113.284C63.3793 113.358 63.4683 113.453 63.5345 113.563C63.607 113.678 63.6544 113.807 63.6737 113.942C63.6929 114.076 63.6836 114.214 63.6462 114.344C63.6092 114.515 63.5327 114.674 63.4228 114.81C63.3129 114.945 63.1727 115.053 63.0135 115.125C62.8772 115.134 62.7404 115.134 62.6041 115.125C62.4727 115.1 62.3482 115.048 62.239 114.971C62.1298 114.894 62.0385 114.794 61.9713 114.679C61.8969 114.544 61.8503 114.395 61.8343 114.242C61.8184 114.089 61.8333 113.934 61.8783 113.787C61.9227 113.641 61.9992 113.506 62.1022 113.394C62.2053 113.281 62.3322 113.193 62.4738 113.136Z" fill="#853B17"/>
<path d="M47.0157 122.504C47.1701 122.485 47.3264 122.485 47.4809 122.504C47.6152 122.532 47.7424 122.588 47.855 122.666C47.9675 122.745 48.0631 122.845 48.136 122.961C48.209 123.077 48.2578 123.207 48.2795 123.343C48.3012 123.478 48.2954 123.616 48.2624 123.749C48.2261 123.92 48.1521 124.08 48.0458 124.218C47.9396 124.357 47.8038 124.47 47.6484 124.549C47.4876 124.567 47.3253 124.567 47.1645 124.549C46.9055 124.483 46.6761 124.333 46.5132 124.121C46.3634 123.877 46.3104 123.585 46.3643 123.303C46.4084 123.131 46.4894 122.97 46.6019 122.832C46.7144 122.694 46.8556 122.582 47.0157 122.504Z" fill="#853B17"/>
<path d="M67.0331 125.608C67.1807 125.581 67.3321 125.581 67.4797 125.608C67.6191 125.667 67.7452 125.754 67.8507 125.862C67.9561 125.971 68.0388 126.099 68.0938 126.24C68.1019 126.277 68.1019 126.315 68.0938 126.352C68.1048 126.394 68.1048 126.439 68.0938 126.482C68.0851 126.519 68.0851 126.557 68.0938 126.593V126.705C68.0938 126.705 68.0938 126.798 68.0938 126.835C68.0938 126.872 68.0938 126.835 68.0938 126.947C68.0938 127.058 68.0938 126.947 68.0938 127.058V127.17C68.0165 127.325 67.9067 127.462 67.7719 127.571C67.637 127.68 67.4803 127.758 67.3122 127.802C67.0996 127.814 66.8875 127.769 66.6981 127.671H66.5865H66.4934C66.419 127.579 66.419 127.579 66.3445 127.486V127.374C66.3445 127.374 66.3445 127.374 66.3445 127.263C66.3445 127.151 66.3445 127.263 66.3445 127.151C66.3331 127.121 66.3331 127.088 66.3445 127.058V126.649C66.3445 126.649 66.3445 126.649 66.3445 126.538C66.3445 126.426 66.3445 126.538 66.3445 126.426V126.315C66.4368 126.162 66.5612 126.032 66.709 125.932C66.8568 125.833 67.0246 125.767 67.2006 125.738" fill="#F51200"/>
<path d="M52.2606 127.783C52.5104 127.776 52.7569 127.842 52.9689 127.975C53.1808 128.107 53.3488 128.299 53.4516 128.527C53.4596 128.563 53.4596 128.601 53.4516 128.638C53.4516 128.638 53.4516 128.638 53.4516 128.75C53.4429 128.786 53.4429 128.824 53.4516 128.861C53.4516 128.973 53.4516 128.973 53.4516 129.084C53.4516 129.084 53.4516 129.084 53.4516 129.196C53.3639 129.376 53.239 129.535 53.085 129.663C52.931 129.792 52.7515 129.886 52.5583 129.939C52.3321 129.945 52.1081 129.894 51.907 129.79H51.7953L51.6837 129.698H51.5907V129.586V129.474C51.5796 129.432 51.5796 129.387 51.5907 129.344C51.5826 129.308 51.5826 129.27 51.5907 129.233C51.5485 129.084 51.5366 128.929 51.5558 128.775C51.575 128.622 51.6248 128.474 51.7023 128.341C51.9095 128.063 52.2163 127.877 52.5583 127.82" fill="#F51200"/>
<path d="M55.7799 115.497C55.9886 115.507 56.1924 115.564 56.3754 115.665C56.5511 115.748 56.7059 115.87 56.8282 116.021C56.9506 116.172 57.0375 116.349 57.0825 116.538C57.0906 116.581 57.0906 116.625 57.0825 116.668C57.0825 116.668 57.0825 116.761 57.0825 116.817V116.966C57.0825 116.966 57.0825 116.966 57.0825 117.096C57.0825 117.226 57.0825 117.096 57.0825 117.245C57.0906 117.288 57.0906 117.332 57.0825 117.375V117.505V117.635C56.9653 117.813 56.812 117.965 56.6325 118.08C56.453 118.195 56.2513 118.271 56.0404 118.304C55.773 118.285 55.5127 118.209 55.2774 118.081H55.1658H55.0541V117.969V117.877C55.0445 117.834 55.0445 117.789 55.0541 117.746C55.0487 117.709 55.0487 117.672 55.0541 117.635V117.505C55.0622 117.462 55.0622 117.418 55.0541 117.375C55.0541 117.375 55.0541 117.282 55.0541 117.245C55.0541 117.207 55.0541 117.133 55.0541 117.096V116.947C55.0631 116.904 55.0631 116.86 55.0541 116.817C55.0541 116.817 55.0541 116.817 55.0541 116.668C55.0622 116.625 55.0622 116.581 55.0541 116.538C55.048 116.495 55.048 116.451 55.0541 116.408V116.278C55.1955 115.94 55.4528 115.663 55.7799 115.497Z" fill="#E0DB1C"/>
<path d="M82.6515 101.928C82.7517 104.178 82.2233 106.411 81.1255 108.378C80.8091 108.861 80.0276 109.475 79.9717 110.032C79.5995 110.032 78.5016 110.72 77.9992 110.887C76.8742 111.202 75.7212 111.408 74.5564 111.501C73.5861 111.52 72.634 111.767 71.7773 112.223C70.9205 112.678 70.1831 113.328 69.625 114.121C69.9101 113.519 70.3081 112.976 70.7974 112.523C73.1049 110.274 76.0452 110.664 78.6319 108.973C79.3961 108.41 80.0284 107.688 80.4848 106.857C80.9411 106.025 81.2106 105.105 81.2744 104.158C81.2955 103.578 81.364 103 81.4791 102.43C81.5323 102.32 81.6076 102.221 81.7005 102.141C81.7933 102.061 81.9017 102.001 82.0187 101.965L82.6515 101.928Z" fill="#F2A133"/>
<path d="M83.2243 101.928C83.1306 102.767 83.0933 103.612 83.1127 104.456C82.8981 106.604 82.9543 108.771 83.2801 110.906C83.4104 111.501 83.6523 112.058 83.8012 112.653C83.9501 113.248 84.2664 114.121 84.0059 114.512C83.879 114.833 83.7733 115.162 83.6895 115.497C83.4706 116.225 83.1644 116.924 82.7777 117.579C81.8286 119.103 80.0422 120.144 79.763 122.021C79.67 122.634 79.763 123.248 79.763 123.88C79.5955 125.59 77.902 126.928 76.6924 127.913C77.7153 126.806 78.4782 125.486 78.9256 124.047C78.972 123.64 78.972 123.228 78.9256 122.82C78.8343 122.132 78.9043 121.432 79.1303 120.776C79.8865 119.475 80.7387 118.232 81.6798 117.058C82.0299 116.216 82.2101 115.312 82.2101 114.4C82.2101 113.488 82.0299 112.585 81.6798 111.742C81.1587 112.374 80.5818 112.969 80.0235 113.601C77.6988 115.943 76.2194 118.99 75.8178 122.263C75.7742 123.645 75.8053 125.029 75.9109 126.408C75.776 125.733 75.6889 125.05 75.6503 124.363C75.164 121.566 75.5404 118.688 76.7297 116.11L74.4407 117.244C73.3915 117.848 72.4824 118.667 71.7735 119.647C71.0645 120.628 70.5719 121.747 70.3281 122.932C70.5814 120.363 71.8303 117.995 73.808 116.333C74.7013 115.664 75.6689 115.162 76.5808 114.475C78.0627 113.306 79.2272 111.785 79.9677 110.051C79.9677 109.493 80.8051 108.88 81.1215 108.396C82.2277 106.433 82.7567 104.197 82.6474 101.947L83.2243 101.928Z" fill="#F2BA5C"/>
<path d="M113.188 57.0766C113.083 59.5135 112.683 61.9288 111.997 64.27C110.397 68.8053 108.015 72.9689 103.512 75.1065C102.238 75.7553 100.846 76.1393 99.419 76.2351C97.9924 76.331 96.5612 76.1367 95.2119 75.6641C94.0055 75.2253 92.903 74.5418 91.9739 73.6567C89.4509 75.4192 87.2745 77.6308 85.5537 80.1809C85.2691 80.5884 85.0552 81.0408 84.921 81.5192V81.6865C84.921 84.772 84.921 87.8947 85.0327 90.9803C85.0327 94.6978 85.0327 98.2852 85.0327 101.947C84.4129 101.91 83.7915 101.91 83.1718 101.947H82.0738V94.1216C82.0738 92.839 82.0738 91.5379 82.0738 90.2554C80.7264 88.2605 78.9691 86.575 76.919 85.3111C76.0525 86.3799 74.9593 87.2433 73.7183 87.839C72.4514 88.4943 71.0659 88.8895 69.6436 89.0012C68.2213 89.113 66.791 88.939 65.4372 88.4895C61.2118 86.7853 57.7972 83.5342 55.8906 79.4002C56.6199 79.8397 57.2945 80.3638 57.9005 80.9616C58.589 81.5006 59.3519 81.9839 60.0777 82.4486C63.0813 84.3746 66.596 85.3526 70.1639 85.2553C71.0193 85.3017 71.8766 85.3017 72.7319 85.2553C73.6955 85.2361 74.6526 85.0924 75.5792 84.8278H75.7281C76.103 84.9887 76.4694 85.1686 76.826 85.3668C76.9491 85.0522 77.0183 84.7192 77.0307 84.3817H77.1238C77.7006 84.8278 78.445 85.1252 79.0777 85.5341C80.1607 86.2722 81.1703 87.1125 82.0924 88.0434C81.9994 84.8464 82.0924 81.6307 82.0924 78.4337C82.1666 77.1956 82.1666 75.9542 82.0924 74.7162C81.8838 74.0985 81.5619 73.5249 81.1434 73.0247C78.6125 69.4187 76.3236 68.415 72.825 66.1101C72.9771 65.7502 73.0653 65.3665 73.0855 64.9763C73.109 62.7432 72.4607 60.5546 71.2246 58.6937C69.8538 57.2516 68.0392 56.3093 66.0699 56.0171C66.5353 55.7932 67.0304 55.6367 67.54 55.5524C71.3173 54.5347 75.1902 53.9118 79.0963 53.6937C79.0963 53.5264 78.9289 53.3405 78.8358 53.1732C79.1118 53.1813 79.3875 53.15 79.6546 53.0803C79.8221 53.0803 79.8221 52.9688 79.8779 52.8015C80.0454 53.1732 80.2315 53.545 80.4176 53.9167C82.3594 53.9012 84.2997 54.0255 86.2236 54.2885C86.1864 53.5702 86.1864 52.8506 86.2236 52.1323C86.3397 50.4122 86.9325 48.7582 87.9357 47.3553C89.7966 45.0876 92.6997 44.1397 95.2491 43.0616C97.7659 42.141 100.14 40.8708 102.302 39.2883C102.547 39.841 102.692 40.4325 102.73 41.0356C103.058 43.6029 102.887 46.2093 102.228 48.7122C101.732 50.7969 100.654 52.6984 99.1199 54.1955C98.6174 54.6416 98.0405 54.9948 97.5194 55.4223C98.301 55.7383 99.1571 55.9242 99.9573 56.1844C101.855 56.7916 103.716 57.4607 105.54 58.1919C106.133 58.3928 106.706 58.6479 107.252 58.9539C109.17 58.6263 111.044 58.0774 112.835 57.3182L113.188 57.0766Z" fill="#3D9E29"/>
<path d="M82.6487 101.928C82.5371 98.5269 82.6487 95.0882 82.6487 91.6867V78.5267C82.6487 75.5341 82.6487 72.5044 82.5185 69.4932C82.4073 65.4541 81.8836 61.437 80.9553 57.5042C80.6679 56.7681 80.4195 56.0173 80.2109 55.2551V55.4224C82.7418 61.2775 82.9093 67.746 83.0768 74.01C83.1512 78.471 83.1512 82.932 83.0768 87.393C83.0768 92.2443 83.0768 97.0771 83.0768 101.928H82.4998H82.6487Z" fill="#4AC72E"/>
<path d="M86.5383 56.0171C85.6048 57.1539 84.8171 58.4028 84.1935 59.7346C83.84 60.4409 83.5608 61.1658 83.2073 61.8536C82.7153 59.0555 81.7859 56.3521 80.4531 53.8424C82.3949 53.8269 84.3353 53.9511 86.2592 54.2141C86.2766 54.8414 86.3639 55.4649 86.5197 56.0729" fill="white"/>
<path d="M82.1859 71.4261C79.6996 68.5999 76.6172 66.359 73.1604 64.8647C73.1839 62.6316 72.5356 60.443 71.2995 58.5821C69.8933 57.1662 68.0518 56.2629 66.0703 56.017C66.5357 55.7931 67.0308 55.6367 67.5405 55.5524C71.3177 54.5347 75.1906 53.9117 79.0968 53.6936C79.4876 54.6973 79.897 55.7196 80.2133 56.742C81.5361 61.5877 82.1996 66.5893 82.1859 71.612" fill="white"/>
<path d="M102.299 39.2883C101.387 44.307 100.103 49.4185 95.674 52.4855C93.5404 53.8997 91.1298 54.8438 88.6025 55.255C88.2303 55.7197 87.8953 56.1844 87.5418 56.6677C87.2068 56.5004 86.8904 56.3703 86.7416 55.9985C86.5858 55.3905 86.4984 54.7671 86.481 54.1398C86.4438 53.4215 86.4438 52.7019 86.481 51.9836C86.5971 50.2635 87.1899 48.6095 88.1931 47.2066C90.054 44.9389 92.957 43.991 95.5065 42.9129C97.9242 42.0169 100.209 40.7976 102.299 39.2883Z" fill="#4AC72E"/>
<path d="M96.7192 43.6565C96.6261 43.7866 92.9043 46.0171 92.3646 46.3889C91.813 46.7633 91.296 47.1863 90.82 47.6528C89.8157 48.6748 88.9971 49.8635 88.4008 51.1659C88.1389 51.7203 87.8469 52.2602 87.5262 52.783C87.5233 52.7334 87.5233 52.6838 87.5262 52.6343C87.3693 51.124 87.7587 49.6075 88.6241 48.3591C90.7371 45.9521 93.5798 44.3008 96.7192 43.6565Z" fill="#80DB52"/>
<path d="M97.2196 46.1285C97.6524 45.7342 98.134 45.3969 98.6525 45.1247C98.1528 45.6701 97.5977 46.1622 96.9963 46.5931C97.4219 46.7656 97.8274 46.9838 98.2059 47.2437C97.68 47.1706 97.1739 46.9937 96.7172 46.7233C96.1217 47.2251 95.5448 47.7642 94.9865 48.3032C95.5478 48.6172 96.0775 48.9845 96.5683 49.3999C95.9254 49.1893 95.3027 48.9218 94.7074 48.6006C93.963 49.4742 93.0139 50.1805 92.2137 50.9984C92.8083 51.3435 93.3745 51.735 93.9072 52.1694C93.2003 52.0033 92.5139 51.7602 91.8602 51.4445C90.725 52.6899 89.5712 53.9166 88.5291 55.2549C88.1569 55.7196 87.8034 56.2029 87.4684 56.6862C87.1148 56.5003 86.7612 56.3702 86.5938 55.9798C87.3009 55.0505 88.0639 54.1211 88.8641 53.2847C89.6529 52.4131 90.4851 51.5818 91.3577 50.7939C91.1158 50.0133 90.725 49.2883 90.5575 48.4891C91.044 49.0879 91.4564 49.7432 91.7857 50.4408C92.5673 49.6601 93.4605 48.9538 94.3166 48.2474C94.2608 47.5794 94.2608 46.908 94.3166 46.24C94.3166 46.147 94.3166 46.1285 94.3166 46.0727C94.5545 46.6675 94.7049 47.2936 94.7632 47.9314C95.5445 47.4416 96.2795 46.8817 96.9591 46.2586C97.0506 45.7876 97.1687 45.3222 97.3127 44.8645C97.3127 45.2734 97.3126 45.6638 97.2196 46.0727" fill="#038721"/>
<path d="M112.737 57.3733C111.402 61.7321 108.922 65.6539 105.554 68.7303C104.267 69.8902 102.811 70.849 101.237 71.5742C98.7914 72.6832 96.0776 73.064 93.4209 72.6708C92.9252 72.9586 92.4467 73.2751 91.988 73.6188C91.6563 73.3768 91.3671 73.0816 91.132 72.7452C90.7396 70.3126 91.2849 67.8219 92.6579 65.7749C95.2446 61.7042 99.2828 60.5332 103.712 59.7339C104.884 59.5109 106.075 59.3622 107.229 59.1019C109.147 58.7743 111.02 58.2254 112.812 57.4662" fill="#4AC72E"/>
<path d="M92.2289 71.9467C92.0689 71.221 92.0187 70.4754 92.08 69.7348C92.5487 67.424 93.8791 65.3775 95.8019 64.0098C98.1935 62.2504 101.177 61.4904 104.12 61.8909C102.12 62.2456 100.199 62.9504 98.4443 63.9727L98.1838 64.1214L97.9419 64.2887L97.6814 64.456L97.4395 64.6418L97.2161 64.8277L96.9743 65.0136L96.7509 65.1994L96.5276 65.4039L96.3043 65.6084L96.081 65.8314L95.8763 66.0359L95.6716 66.2589L95.4669 66.5006L95.2808 66.7236C95.2143 66.8006 95.1522 66.8813 95.0947 66.9653L94.8528 67.1697L94.6853 67.4114L94.5178 67.653L94.3503 67.9132C94.2899 67.9934 94.2399 68.0808 94.2014 68.1735L94.034 68.4337C94.034 68.4337 93.9409 68.601 93.9037 68.6939C93.8665 68.7868 93.8107 68.8798 93.7548 68.9541L93.6246 69.2329C93.5889 69.3293 93.5453 69.4226 93.4943 69.5118L93.3826 69.7906L93.271 70.0694C93.2317 70.1593 93.2005 70.2527 93.178 70.3482L93.0663 70.6456C93.0743 70.7384 93.0743 70.8316 93.0663 70.9244V71.2218C93.0579 71.3146 93.0579 71.4079 93.0663 71.5006C92.8863 71.6535 92.6933 71.7903 92.4894 71.9096" fill="#80DB52"/>
<path d="M104.048 64.9759C103.872 64.0548 103.872 63.1088 104.048 62.1877C104.178 63.0242 104.29 63.8792 104.476 64.6971C105.751 64.1488 106.993 63.5282 108.197 62.8383C107.166 63.7023 106.078 64.4971 104.941 65.2175L106.485 66.2212C105.797 66.0734 105.138 65.8161 104.531 65.4592C103.899 65.7937 103.322 66.2212 102.671 66.6116C102.019 67.0019 101.145 67.5224 100.437 68.0428C101.089 68.4889 101.852 68.8421 102.447 69.3439C101.565 69.0987 100.716 68.7492 99.9164 68.303C99.2278 68.8607 98.4462 69.3439 97.7019 69.8458C96.2503 70.7938 94.7802 71.7046 93.3845 72.7269C92.8888 73.0147 92.4103 73.3312 91.9516 73.6748C91.6286 73.4129 91.3518 73.0988 91.1328 72.7455L92.2121 72.0391C92.416 71.9199 92.6091 71.783 92.7891 71.6302C93.552 71.2213 94.2964 70.738 95.0408 70.2547C94.9475 69.0852 95.0227 67.9084 95.2641 66.7603C95.3757 67.8012 95.4874 68.8607 95.5804 69.9016C97.032 69.028 98.502 68.2101 99.9536 67.3179C99.8467 66.0818 99.8156 64.8403 99.8605 63.6004C100.102 64.7342 100.233 65.9052 100.419 67.0577C101.573 66.3142 102.838 65.738 104.029 65.0316" fill="#038721"/>
<path d="M107.215 59.0095C106.062 59.2697 104.871 59.4184 103.698 59.6415C99.2692 60.4408 95.231 61.6118 92.663 65.6824C91.2592 67.7513 90.7123 70.2828 91.137 72.7457C90.4298 73.3219 89.5738 73.7308 88.8295 74.2699C87.4054 75.354 86.0847 76.5674 84.8843 77.8945C84.6424 75.3108 84.6424 72.7085 84.4563 70.1249C84.2342 68.7717 84.0975 67.4059 84.0469 66.0356C84.1509 65.4044 84.3065 64.7827 84.5121 64.1768C85.2016 61.587 86.1751 59.0811 87.4151 56.7047H87.5454C89.1898 57.1511 90.9064 57.2676 92.5961 57.0475C94.2857 56.8273 95.915 56.2749 97.3897 55.4221C98.1712 55.7381 99.0273 55.924 99.8275 56.1842C101.726 56.7914 103.587 57.4606 105.41 58.1917C106.003 58.3926 106.576 58.6477 107.122 58.9538" fill="white"/>
<path d="M85.1964 135.014C89.8115 135.274 91.9516 132.876 96.0456 131.835C97.9618 131.432 99.9123 131.214 101.87 131.185C104.243 131.096 106.592 130.677 108.849 129.939C111.144 129.073 113.377 128.048 115.529 126.872C116.958 126.069 118.445 125.373 119.977 124.79C121.266 124.287 122.647 124.061 124.029 124.128C125.412 124.195 126.764 124.554 127.998 125.181C128.072 126.115 128.072 127.053 127.998 127.987C127.886 128.694 127.812 129.419 127.644 130.106C127.037 132.571 125.598 134.75 123.569 136.278C122.199 137.278 120.599 137.917 118.916 138.136C117.167 138.304 115.343 138.136 113.575 138.136H52.3325C51.0089 138.192 49.683 138.136 48.3688 137.969C46.9109 137.734 45.5158 137.207 44.2683 136.417C43.0207 135.628 41.9467 134.594 41.1112 133.378C40.3394 132.253 39.7899 130.991 39.4922 129.66C40.0468 129.921 40.5763 130.232 41.074 130.59C42.0769 131.101 43.159 131.441 44.2748 131.593C45.4145 131.758 46.5667 131.82 47.7175 131.779C49.7946 131.689 51.874 131.89 53.8957 132.374C54.9479 132.685 55.9746 133.076 56.9663 133.545C58.8204 134.634 60.8791 135.33 63.0143 135.59C66.0104 135.683 68.3551 134.326 71.1837 133.731C74.1051 133.251 77.0939 133.371 79.9672 134.084C81.028 134.289 82.0515 134.549 83.0936 134.735C83.596 134.828 84.1543 134.828 84.6382 134.958C84.6382 134.958 84.9359 135.069 84.9918 135.181C85.0102 135.285 85.0102 135.392 84.9918 135.497C85.0201 135.343 85.0201 135.186 84.9918 135.032L85.1964 135.014Z" fill="#853B17"/>
<path d="M115.461 131.445H115.703C115.88 131.526 116.02 131.672 116.093 131.854V132.226C116.028 132.318 115.946 132.397 115.85 132.458C115.754 132.519 115.647 132.56 115.535 132.579C115.43 132.589 115.324 132.589 115.219 132.579C115.074 132.515 114.956 132.403 114.884 132.263C114.847 132.184 114.828 132.098 114.828 132.012C114.828 131.925 114.847 131.839 114.884 131.761C114.945 131.646 115.029 131.545 115.132 131.465C115.235 131.385 115.353 131.328 115.479 131.296" fill="#F51200"/>
<path d="M99.6577 131.779H99.9183C99.9739 131.889 100.003 132.01 100.003 132.132C100.003 132.255 99.9739 132.376 99.9183 132.486C99.867 132.635 99.7813 132.77 99.6682 132.879C99.555 132.989 99.4176 133.071 99.267 133.118H98.932C98.715 133.046 98.5347 132.893 98.4296 132.69C98.3464 132.475 98.3464 132.236 98.4296 132.021C98.5412 131.649 98.7831 131.519 99.0995 131.352" fill="#F51200"/>
<path d="M120.91 129.921C121.113 129.876 121.322 129.876 121.524 129.921C121.673 129.991 121.805 130.091 121.911 130.216C122.017 130.342 122.095 130.488 122.139 130.646C122.147 130.683 122.147 130.721 122.139 130.758C122.139 130.758 122.139 130.758 122.139 130.888V131.148C122.139 131.148 122.139 131.148 122.139 131.278C122.139 131.408 122.139 131.278 122.139 131.408V131.538V131.65C122.046 131.798 121.923 131.925 121.779 132.024C121.635 132.123 121.473 132.192 121.301 132.226C121.134 132.212 120.97 132.167 120.817 132.096C120.486 131.954 120.225 131.687 120.092 131.353C119.98 131.078 119.98 130.772 120.092 130.498C120.183 130.328 120.31 130.18 120.464 130.064C120.618 129.948 120.796 129.868 120.985 129.828" fill="#DECC87"/>
<path d="M85.0898 101.946C85.224 102.007 85.3444 102.094 85.4436 102.203C85.5428 102.311 85.6187 102.439 85.6666 102.578C85.7969 103.08 85.7783 103.619 85.8714 104.139C85.9837 105.151 86.3232 106.125 86.8645 106.987C87.4058 107.85 88.135 108.579 88.9977 109.121C89.1176 109.211 89.2585 109.268 89.4071 109.288C90.6539 109.028 91.8821 108.731 93.129 108.582C95.6674 108.291 98.225 108.204 100.777 108.322C107.422 108.279 113.952 110.046 119.666 113.433C123.388 115.85 126.812 119.121 127.761 123.619C127.869 124.16 127.949 124.706 128.003 125.255C126.774 124.616 125.425 124.245 124.042 124.165C122.66 124.084 121.276 124.298 119.982 124.79C118.452 125.348 116.965 126.019 115.534 126.798C113.382 127.974 111.149 128.999 108.854 129.865C106.597 130.604 104.248 131.023 101.875 131.11C99.9173 131.14 97.9668 131.358 96.0506 131.761C91.9566 132.801 89.8165 135.199 85.2014 134.939C85.1469 134.385 85.1846 133.826 85.3131 133.285C85.6231 131.542 85.396 129.747 84.6617 128.136C84.364 127.578 84.0104 127.039 83.7313 126.463C83.2633 128.71 82.4999 130.885 81.4609 132.932C81.7959 131.296 82.5961 129.772 82.8008 128.117C82.8008 127.746 82.8008 127.374 82.8008 127.021C82.8008 126.668 82.8008 126.277 82.8008 125.905C82.6121 124.794 82.5621 123.664 82.652 122.541C82.9092 121.547 83.2516 120.577 83.6754 119.641C84.4193 118.035 84.5127 116.203 83.936 114.53C84.1965 114.195 83.8429 113.099 83.7313 112.671C83.6196 112.244 83.3405 111.519 83.2102 110.924C82.8844 108.789 82.8281 106.622 83.0427 104.474C83.0234 103.63 83.0607 102.785 83.1544 101.946C83.7741 101.909 84.3956 101.909 85.0153 101.946" fill="#99471F"/>
<path d="M107.694 122.932C107.829 122.907 107.968 122.907 108.103 122.932C108.286 123.012 108.432 123.158 108.513 123.341C108.577 123.508 108.577 123.694 108.513 123.861C108.466 123.978 108.393 124.082 108.299 124.166C108.206 124.25 108.094 124.311 107.973 124.345H107.824C107.703 124.332 107.587 124.292 107.483 124.227C107.38 124.163 107.293 124.076 107.229 123.973C107.191 123.888 107.172 123.796 107.172 123.703C107.172 123.611 107.191 123.519 107.229 123.434C107.271 123.308 107.341 123.194 107.435 123.101C107.529 123.007 107.643 122.937 107.768 122.895" fill="#E0DB1C"/>
<path d="M109.856 116.241H110.135C110.26 116.251 110.381 116.288 110.49 116.349C110.599 116.41 110.694 116.493 110.768 116.594C110.83 116.675 110.874 116.768 110.896 116.868C110.919 116.967 110.92 117.07 110.898 117.17C110.864 117.329 110.797 117.479 110.701 117.611C110.605 117.742 110.482 117.852 110.34 117.932C110.266 117.943 110.191 117.943 110.117 117.932C109.933 117.92 109.761 117.84 109.633 117.709C109.542 117.61 109.475 117.492 109.436 117.363C109.397 117.234 109.388 117.098 109.41 116.965C109.421 116.81 109.467 116.66 109.544 116.525C109.621 116.389 109.728 116.273 109.856 116.185" fill="#853B17"/>
<path d="M97.9083 125.349C98.0374 125.323 98.1701 125.323 98.2991 125.349C98.2991 125.349 98.2991 125.349 98.2991 125.442C98.3536 125.555 98.3818 125.679 98.3818 125.804C98.3818 125.93 98.3536 126.053 98.2991 126.167C98.2303 126.282 98.1388 126.383 98.0301 126.463C97.9214 126.543 97.7977 126.6 97.6664 126.631H97.4803C97.2639 126.56 97.0793 126.416 96.9593 126.222C96.9089 126.111 96.8828 125.991 96.8828 125.869C96.8828 125.747 96.9089 125.627 96.9593 125.516C97.0122 125.371 97.0963 125.239 97.2056 125.13C97.3149 125.021 97.4468 124.937 97.592 124.884" fill="#853B17"/>
<path d="M116.98 116.538C117.104 116.519 117.229 116.519 117.352 116.538C117.562 116.625 117.733 116.783 117.836 116.984C117.836 116.984 117.836 116.984 117.836 117.077C117.834 117.108 117.834 117.139 117.836 117.17C117.836 117.17 117.836 117.17 117.836 117.282C117.777 117.455 117.659 117.602 117.503 117.697C117.346 117.792 117.161 117.829 116.98 117.802C116.884 117.782 116.792 117.742 116.712 117.684C116.632 117.626 116.565 117.553 116.515 117.468C116.438 117.358 116.388 117.232 116.368 117.1C116.349 116.967 116.361 116.832 116.403 116.706C116.434 116.559 116.499 116.423 116.593 116.306C116.687 116.19 116.807 116.098 116.943 116.036" fill="#853B17"/>
<path d="M113.469 122.932C113.656 122.96 113.838 123.016 114.008 123.099H114.12H114.232C114.232 123.099 114.232 123.099 114.325 123.192C114.33 123.229 114.33 123.266 114.325 123.303V123.415C114.331 123.458 114.331 123.502 114.325 123.545C114.336 123.588 114.336 123.632 114.325 123.675C114.37 123.818 114.381 123.969 114.359 124.118C114.336 124.266 114.28 124.407 114.195 124.53C114.109 124.662 113.994 124.773 113.858 124.854C113.723 124.934 113.57 124.983 113.413 124.995C113.246 125.013 113.078 125.013 112.911 124.995C112.768 124.943 112.638 124.861 112.529 124.756C112.42 124.65 112.334 124.522 112.278 124.381C112.213 124.245 112.18 124.096 112.18 123.945C112.18 123.793 112.213 123.644 112.278 123.508C112.415 123.323 112.595 123.174 112.803 123.074C113.01 122.974 113.239 122.925 113.469 122.932Z" fill="#F51200"/>
<path d="M103.456 116.184C103.635 116.156 103.817 116.156 103.996 116.184C104.244 116.256 104.462 116.406 104.618 116.612C104.773 116.818 104.857 117.069 104.857 117.327C104.857 117.585 104.773 117.837 104.618 118.043C104.462 118.249 104.244 118.399 103.996 118.471C103.812 118.508 103.622 118.508 103.437 118.471H103.326H103.214H103.121H103.01V118.378H102.916V118.266C102.848 118.117 102.812 117.956 102.812 117.792C102.812 117.628 102.848 117.467 102.916 117.318C102.986 117.14 103.093 116.98 103.232 116.848C103.37 116.716 103.535 116.617 103.717 116.556" fill="#DECC87"/>
<path d="M85.0833 101.947C85.2176 102.007 85.338 102.094 85.4372 102.203C85.5364 102.312 85.6123 102.439 85.6602 102.579C85.7905 103.08 85.7719 103.619 85.865 104.14C85.9773 105.152 86.3168 106.125 86.8581 106.988C87.3994 107.85 88.1286 108.579 88.9913 109.121C89.1112 109.211 89.2521 109.269 89.4007 109.289C93.1225 111.147 95.3742 110.274 98.2028 114.159C94.7787 111.073 93.5692 112.058 89.5868 110.999C89.0522 110.866 88.5386 110.659 88.0608 110.385C87.9492 110.385 87.8748 110.255 87.7259 110.274C87.6142 109.902 86.9815 109.53 86.7023 109.251C85.0709 107.219 84.2432 104.66 84.3762 102.058H83.2969C83.3351 102.279 83.3351 102.506 83.2969 102.727C83.2969 102.486 83.2969 102.244 83.2969 102.021C83.9166 101.984 84.538 101.984 85.1578 102.021" fill="#F58F21"/>
<path d="M83.9858 114.53C84.2463 114.196 83.8927 113.099 83.7811 112.672C83.6694 112.244 83.3903 111.519 83.26 110.924C82.9342 108.79 82.878 106.623 83.0926 104.474C83.0732 103.63 83.1105 102.786 83.2042 101.947C83.2042 102.17 83.2042 102.411 83.2042 102.653C83.2424 102.431 83.2424 102.205 83.2042 101.984H84.2649C84.1475 104.586 84.9809 107.143 86.6097 109.177C86.8889 109.456 87.5216 109.828 87.6332 110.199C88.4696 111.682 89.6345 112.953 91.0387 113.917C91.8761 114.475 92.8997 114.846 93.7185 115.348H93.8859L94.0534 115.46L94.2209 115.553L94.3884 115.683L94.5558 115.794L94.7047 115.924L94.8536 116.036L95.0211 116.166C95.0659 116.22 95.1158 116.27 95.17 116.315C95.218 116.353 95.2616 116.397 95.3002 116.445L95.4491 116.594L95.5794 116.724L95.7096 116.891C95.7625 116.931 95.8068 116.982 95.8399 117.04C95.8927 117.08 95.937 117.131 95.9702 117.188L96.1004 117.356L96.2121 117.504L96.3237 117.672L96.4354 117.839L96.547 118.025C96.585 118.076 96.6162 118.133 96.6401 118.192L96.7517 118.359C96.7486 118.421 96.7486 118.483 96.7517 118.545C96.7583 118.607 96.7583 118.669 96.7517 118.731C96.7621 118.793 96.7621 118.855 96.7517 118.917L96.8448 119.103C96.8403 119.165 96.8403 119.227 96.8448 119.289V119.475V119.66V119.865V120.051C96.8448 120.051 96.8448 120.181 96.8448 120.255C97.0768 120.988 97.1898 121.754 97.1797 122.523C96.98 121.309 96.5314 120.149 95.8622 119.116C95.193 118.083 94.3174 117.199 93.2904 116.519C92.856 116.254 92.3943 116.036 91.9134 115.869C93.0144 117.903 93.4749 120.223 93.2346 122.523C93.1244 122.124 93.0742 121.71 93.0857 121.296C92.9454 120.024 92.5216 118.799 91.8454 117.712C91.1691 116.625 90.2576 115.703 89.1778 115.014C88.8502 116.584 88.7128 118.188 88.7684 119.791C88.8502 120.19 89.022 120.565 89.2708 120.887C89.7175 121.538 90.3315 122.058 90.8154 122.746C92.2719 124.886 92.8881 127.486 92.5461 130.051C92.4117 129.32 92.3246 128.581 92.2855 127.839C92.2211 127.436 92.1278 127.039 92.0064 126.649C91.8914 126.262 91.7483 125.883 91.5784 125.516C90.6851 123.452 89.2894 122.727 88.1171 120.98C87.596 123.136 87.0935 124.698 88.3217 126.779C88.7457 127.434 89.2185 128.055 89.7361 128.638C88.4442 127.498 87.6164 125.924 87.4099 124.214C87.0191 121.073 89.2708 117.281 87.4099 114.363C86.864 113.617 86.2402 112.932 85.549 112.318V112.411V112.579C86.1927 115.453 85.7971 118.462 84.4324 121.073C84.0545 121.849 83.8212 122.686 83.7439 123.545C83.7541 124.548 84.0164 125.533 84.5069 126.408C84.9008 127.084 85.249 127.786 85.549 128.508C86.011 130.661 85.902 132.897 85.2326 134.995C85.1781 134.441 85.2159 133.882 85.3443 133.341C85.664 131.599 85.4365 129.8 84.693 128.192C84.3952 127.635 84.0417 127.095 83.7625 126.519C83.2946 128.766 82.5312 130.941 81.4922 132.988C81.8272 131.352 82.6274 129.828 82.8321 128.174C82.8321 127.802 82.8321 127.43 82.8321 127.077C82.8321 126.724 82.8321 126.333 82.8321 125.962C82.6433 124.851 82.5933 123.721 82.6831 122.597C82.9404 121.603 83.2829 120.633 83.7067 119.698C84.4506 118.091 84.5439 116.26 83.9672 114.586" fill="#F2A133"/>
<path d="M73.1197 64.8457C73.0994 65.2359 73.0112 65.6196 72.8591 65.9796C72.5592 66.5088 72.1136 66.9411 71.5751 67.2249C68.9086 68.6088 65.815 68.9277 62.9218 68.1171C61.5816 67.7111 60.3429 67.0256 59.2875 66.106C58.2321 65.1865 57.384 64.0537 56.7994 62.7825C56.5016 62.1691 56.2225 61.5557 55.962 60.9238C55.2312 59.0053 54.7557 56.9993 54.5477 54.9572C54.4737 54.6141 54.4737 54.2593 54.5477 53.9163H54.6593C57.7764 55.0988 61.0765 55.7279 64.4106 55.775C64.9502 55.775 65.5457 55.9609 66.0854 55.9237C68.0565 56.2018 69.8778 57.131 71.2588 58.5631C72.4948 60.424 73.1431 62.6127 73.1197 64.8457Z" fill="#75C4C2"/>
<path d="M79.973 52.7078C79.973 52.8751 79.973 52.9308 79.7496 53.0052C79.4775 53.0344 79.203 53.0344 78.9308 53.0052C78.2563 53.0702 77.577 53.0702 76.9024 53.0052C74.4534 52.9964 72.0239 52.5689 69.7193 51.7412C68.2386 51.1239 66.8964 50.2173 65.7715 49.0746C64.6466 47.9318 63.7617 46.576 63.1688 45.0869C61.593 41.1187 61.3001 36.7574 62.3314 32.6146C62.4944 31.8807 62.7122 31.16 62.9827 30.4585C62.9827 30.3284 62.9827 30.3655 63.0944 30.3284L63.2991 30.5328C64.4896 31.6206 65.7722 32.6032 67.1326 33.4697C68.4166 34.2503 69.7193 34.9753 71.0405 35.663C73.7947 37.15 77.1072 38.6742 78.8936 41.3508C79.8772 42.9235 80.4409 44.7217 80.5312 46.5739C80.7092 48.6148 80.5329 50.671 80.0101 52.652" fill="#75C4C2"/>
<path d="M78.8371 53.0804C78.1625 53.1454 77.4832 53.1454 76.8086 53.0804C74.3594 53.0731 71.9297 52.6455 69.6255 51.8164C68.1448 51.1991 66.8026 50.2925 65.6777 49.1498C64.5528 48.007 63.668 46.6512 63.0751 45.1621C61.4992 41.1939 61.2064 36.8326 62.2376 32.6898C62.4007 31.9559 62.6184 31.2352 62.889 30.5337C62.889 30.4036 62.889 30.4407 63.0006 30.4036L63.2053 30.608C63.2645 31.8605 63.4389 33.1049 63.7264 34.3255C64.5253 39.392 66.8867 44.0833 70.4815 47.7457C72.3699 49.4677 74.5759 50.8061 76.9762 51.6863C77.362 51.8973 77.7753 52.0537 78.2043 52.151C78.4085 52.4816 78.5949 52.8228 78.7626 53.1733" fill="#3D9E29"/>
<path d="M79.9666 52.7085C79.9666 52.8758 79.9666 52.9316 79.7433 53.0059C79.4712 53.0351 79.1967 53.0351 78.9245 53.0059C78.7568 52.6555 78.5705 52.3142 78.3663 51.9836C77.9373 51.8863 77.5239 51.73 77.1381 51.5189C74.7377 50.6387 72.5318 49.3003 70.6434 47.5784C67.0486 43.916 64.6871 39.2247 63.8882 34.1582C63.6008 32.9376 63.4264 31.6932 63.3672 30.4407C64.5576 31.5284 65.8403 32.5111 67.2007 33.3775C68.4848 34.1582 69.7874 34.8831 71.1086 35.5708C73.8628 37.0578 77.1752 38.582 78.9617 41.2586C79.9453 42.8314 80.5091 44.6296 80.5993 46.4817C80.7774 48.5226 80.6011 50.5789 80.0783 52.5598" fill="#4AC72E"/>
<path d="M70.3125 37.1506C70.8531 37.2934 71.377 37.4928 71.8757 37.7454C74.0547 38.5575 75.9804 39.9296 77.4584 41.7232C78.7253 43.5645 79.3409 45.7755 79.2077 48.0058C79.1739 48.6305 79.093 49.2519 78.9658 49.8645C78.9658 49.8645 78.9658 49.8645 78.9658 49.9946C78.7335 49.2017 78.5533 48.3946 78.4262 47.5782C78.0445 45.9911 77.4166 44.4734 76.5652 43.0801C75.5785 41.5433 74.3168 40.2012 72.8434 39.1209C71.9386 38.5891 71.0905 37.9662 70.3125 37.2622" fill="#80DB52"/>
<path d="M68.4476 39.827C67.5358 38.7861 66.5867 37.7824 65.6562 36.7415C67.0892 37.8381 68.3174 39.2136 69.6572 40.459C69.5443 39.7897 69.4945 39.1114 69.5084 38.4329C69.8727 39.2452 70.0568 40.1266 70.0481 41.0166C70.8855 41.7973 71.8159 42.8753 72.7092 43.5073C72.7342 42.8353 72.7964 42.1651 72.8953 41.4999C73.0381 42.3348 73.1065 43.1808 73.0999 44.0278C73.956 44.92 74.7934 45.8308 75.6122 46.7601C75.6728 45.9447 75.8547 45.1428 76.1519 44.3809C76.2487 45.3226 76.2174 46.273 76.0588 47.2062C77.4291 48.9753 78.6728 50.8387 79.7806 52.7825C79.7806 52.9498 79.7807 53.0056 79.5573 53.0613C79.2902 53.131 79.0145 53.1623 78.7385 53.1542C78.5708 52.8038 78.3845 52.4625 78.1803 52.1319C77.2808 50.6105 76.2798 49.1511 75.1842 47.7639C74.1352 47.8261 73.0827 47.795 72.0392 47.6709C72.9656 47.4487 73.9151 47.3364 74.8678 47.3364C73.9986 46.1334 73.034 45.0021 71.9834 43.9534C71.0493 43.9346 70.1172 43.8601 69.192 43.7304C69.9585 43.568 70.736 43.4624 71.5181 43.4144C70.7098 42.3214 69.8002 41.307 68.8012 40.3846C68.018 40.1198 67.2533 39.8031 66.5123 39.4366C67.1799 39.5094 67.8399 39.64 68.4848 39.827" fill="#038721"/>
<path d="M73.1587 64.8643C73.1385 65.2545 73.0503 65.6382 72.8982 65.9981C72.5983 66.5274 72.1527 66.9596 71.6142 67.2435C68.9478 68.6273 65.8541 68.9463 62.9609 68.1357C61.6206 67.7296 60.382 67.0442 59.3266 66.1246C58.2712 65.205 57.4232 64.0722 56.8385 62.8011C56.5407 62.1877 56.243 61.5743 56.001 60.9423C55.2616 59.0265 54.7858 57.0193 54.5867 54.9757C54.5128 54.6327 54.5128 54.2778 54.5867 53.9348H54.6984C57.8155 55.1174 61.1156 55.7464 64.4496 55.7936C64.9893 55.7936 65.5848 55.9794 66.1245 55.9423C68.0956 56.2204 69.9168 57.1496 71.2978 58.5817C72.5339 60.4426 73.1822 62.6312 73.1587 64.8643Z" fill="#4AC72E"/>
<path d="M63.5571 57.0762C65.7123 56.8332 67.8836 57.3671 69.6796 58.5817C71.2364 59.8912 72.2128 61.7616 72.3965 63.7863L71.5963 62.5595L71.373 62.2435C70.6057 60.9983 69.5752 59.9356 68.3537 59.1297C67.1323 58.3239 65.7492 57.7943 64.3015 57.578C63.3338 57.4107 62.3475 57.3736 61.3984 57.2063C62.1056 57.2063 62.8314 57.0947 63.5571 57.0762Z" fill="#80DB52"/>
<path d="M60.6538 59.4554C59.8956 58.9345 59.1686 58.3697 58.4766 57.7639C58.8487 57.9498 59.1837 58.21 59.5372 58.4145C60.2233 58.8423 60.9457 59.2093 61.6959 59.5111C61.4546 59.1562 61.2666 58.768 61.1377 58.3587C61.4055 58.7816 61.7106 59.1798 62.0495 59.5483C63.2272 60.2864 64.4736 60.9089 65.7713 61.4071C65.548 60.5335 65.1573 59.697 64.9898 58.8234C65.4997 59.6874 65.8998 60.6115 66.1808 61.5744L69.3257 63.0428C69.3257 62.671 69.1768 62.2993 69.0838 61.9461C68.9907 61.5929 68.3953 60.3662 68.5255 60.0874C68.9722 60.3476 69.456 61.816 69.5863 62.3365C69.6554 62.6616 69.7051 62.9906 69.7351 63.3216C70.7959 63.9432 71.8893 64.5079 73.0104 65.0131C72.9901 65.4032 72.9019 65.7869 72.7498 66.1469C72.1168 65.6758 71.4217 65.2943 70.6842 65.0131C69.2699 64.2696 67.8556 63.5075 66.4041 62.8011C66.0071 63.2857 65.5207 63.6895 64.9712 63.9907C65.3272 63.5327 65.7192 63.1039 66.1436 62.7082C65.3434 62.2621 64.4873 61.8718 63.6871 61.4071C62.983 61.9032 62.195 62.2684 61.361 62.4851C62.0032 62.0129 62.6886 61.6021 63.408 61.2584C62.4896 60.823 61.5951 60.3391 60.7283 59.8085C60.3014 59.9816 59.8485 60.0821 59.3884 60.1059C59.7584 59.9259 60.1372 59.7646 60.5235 59.6227" fill="#038721"/>
<path d="M72.8826 65.9796C72.5826 66.5088 72.137 66.9411 71.5985 67.2249C68.9321 68.6088 65.8385 68.9277 62.9452 68.1171C61.605 67.7111 60.3663 67.0256 59.3109 66.106C58.2555 65.1865 57.4075 64.0537 56.8228 62.7825C56.525 62.1691 56.2273 61.5557 55.9854 60.9238C55.2459 59.008 54.7701 57.0008 54.5711 54.9572C54.4971 54.6141 54.4971 54.2593 54.5711 53.9163H54.6827C56.6553 58.2286 59.0745 62.671 63.7641 64.4182C66.0281 65.2812 68.5026 65.4304 70.8542 64.8457C71.5917 65.127 72.2867 65.5085 72.9198 65.9796" fill="#3D9E29"/>
</g>
<defs>
<clipPath id="clip0_406_382">
<rect width="168" height="168" fill="white"/>
</clipPath>
</defs>
</svg>
