<svg width="169" height="168" viewBox="0 0 169 168" fill="none" xmlns="http://www.w3.org/2000/svg">
<path d="M167.925 83.9286C167.925 100.417 163.03 116.534 153.859 130.244C144.688 143.953 131.653 154.638 116.402 160.948C101.151 167.258 84.3699 168.909 68.1797 165.692C51.9896 162.475 37.118 154.535 25.4456 142.877C13.7732 131.218 5.82416 116.364 2.60375 100.192C-0.616667 84.0211 1.03615 67.2591 7.35322 52.0261C13.6703 36.7932 24.3679 23.7733 38.0932 14.613C51.8185 5.45277 67.9551 0.563477 84.4623 0.563477C106.598 0.563477 127.827 9.34656 143.479 24.9806C159.131 40.6145 167.925 61.8188 167.925 83.9286Z" fill="white"/>
<path d="M84.4623 167.294C130.557 167.294 167.925 129.97 167.925 83.9286C167.925 37.8873 130.557 0.563477 84.4623 0.563477C38.3673 0.563477 1 37.8873 1 83.9286C1 129.97 38.3673 167.294 84.4623 167.294Z" stroke="#179426" stroke-width="0.74" stroke-miterlimit="10"/>
<path d="M118.068 57.3861L117.677 58.334C117.509 58.7244 118.254 59.0032 118.421 59.0961L119.11 59.4493C119.11 59.4493 119.724 58.3712 119.612 58.0738C119.501 57.7764 118.514 57.3675 118.291 57.3117C118.068 57.2559 118.068 57.3117 118.068 57.3117M105.153 58.966L104.837 59.4865L111.964 56.6983L112.262 56.2522L105.153 58.966ZM85.3155 55.9548C84.9433 56.4009 83.4546 58.7801 84.7014 59.6723C84.7014 59.6723 85.6132 59.8582 85.6318 58.5943L85.5388 58.4642C85.5388 58.4642 84.8689 59.5794 84.5897 58.4642C84.5585 58.0423 84.6207 57.6188 84.7719 57.2236C84.9231 56.8285 85.1595 56.4715 85.4644 56.1779C85.4644 56.1779 85.7249 55.6017 85.3155 56.0292M78.6348 56.0292C78.2067 56.6983 79.0815 57.4604 79.0815 57.4604H79.2489C79.589 58.0352 79.8282 58.6638 79.956 59.3192C79.956 59.5422 79.956 59.7653 80.1607 59.5794C80.3654 59.3935 80.6445 57.4233 80.8493 56.7727C81.054 56.1221 81.7612 56.9028 81.7612 56.9028L82.0589 56.1593C82.0589 56.1593 81.6495 54.9511 81.1098 55.6017C80.6646 56.4744 80.375 57.4178 80.2539 58.3898V58.5013C80.0673 57.728 79.8054 56.9747 79.4722 56.2522C79.0256 55.4158 78.7093 56.1221 78.7093 56.1221M70.2421 59.3935L69.9256 59.8954L76.8856 57.1816L77.2019 56.7169L70.2421 59.3935ZM67.5251 57.0515C67.5251 57.0515 67.2832 57.6277 67.1529 58.018C67.0226 58.4084 68.2881 58.966 68.6045 59.1333C68.6045 59.1333 69.2186 58.0366 69.0883 57.7392C68.9581 57.4418 67.9717 57.0329 67.7484 56.9771C67.5251 56.9214 67.5251 56.9771 67.5251 56.9771M64.9384 58.2597C64.8081 58.5571 65.1245 58.7615 65.1245 58.7615L66.1108 59.4121C66.3527 59.5608 66.4643 59.7281 66.7993 59.0775C67.1343 58.427 66.7994 57.9995 66.2969 57.7764C65.9554 57.5768 65.637 57.3399 65.3479 57.0701C65.3479 57.0701 65.0687 57.9437 64.9384 58.2597ZM58.6113 37.3673L58.9463 36.5123C58.9463 36.5123 58.4996 35.1368 57.8669 35.8617C57.3559 36.856 57.0223 37.9315 56.8807 39.0402V39.1703C56.6623 38.2813 56.3568 37.4159 55.9687 36.5866C55.4477 35.6387 55.0942 36.4379 55.0942 36.4379C54.6289 37.1814 55.6151 38.055 55.6151 38.055H55.8199C56.2121 38.7027 56.4892 39.4134 56.6387 40.1554C56.6387 40.4156 56.6388 40.6759 56.8807 40.4528C57.1226 40.2298 57.4203 37.9621 57.6436 37.2372C57.8669 36.5123 58.6857 37.4231 58.6857 37.4231M56.434 43.687C56.434 42.9435 57.9042 43.0179 57.9042 43.0179L58.2577 42.2372C57.2342 40.5272 56.8434 41.0662 56.3968 41.6796C55.9502 42.293 56.3968 42.0699 56.3968 42.0699C57.4203 41.5309 57.2528 42.1815 57.2528 42.1815C56.8229 42.3842 56.4737 42.7253 56.2611 43.1499C56.0485 43.5746 55.9848 44.0584 56.0804 44.5235C56.2851 45.3042 56.7689 48.9101 56.7689 49.412C56.7689 49.9139 56.8807 50.0068 56.8807 50.0068C56.8624 47.8917 56.7007 45.7803 56.3968 43.687M63.2264 41.8283C62.3696 41.7056 61.5052 41.6435 60.6397 41.6424C60.3789 42.1131 60.1428 42.597 59.9325 43.0923C59.8022 43.464 59.9325 43.4268 60.0442 43.2595C60.1558 43.0922 60.2303 43.1294 60.2303 43.1294C60.8528 43.0855 61.4784 43.123 62.0912 43.241C61.5091 43.7268 60.8866 44.1621 60.2303 44.5421C59.7465 44.8209 60.2303 44.8209 60.2303 44.8209C61.023 44.776 61.7735 44.4499 62.3467 43.9012C62.9199 43.3526 63.2781 42.6174 63.3567 41.8283M65.0687 38.6127V38.4826C65.0687 38.4826 64.3987 39.5978 64.1196 38.4826C64.0849 38.0636 64.1418 37.6421 64.2864 37.2474C64.431 36.8526 64.6599 36.4939 64.957 36.1963C64.957 36.1963 65.2548 35.6201 64.957 36.0662C64.6593 36.5123 63.0962 38.8915 64.3244 39.7837C64.3244 39.7837 65.2362 40.0067 65.2362 38.7242M80.9051 36.7167L81.5937 35.6572L65.4222 41.884L64.6965 43.0365L80.9051 36.7167ZM68.5672 45.7131C68.2322 44.5421 69.5163 43.3525 69.5163 43.3525C69.5163 43.3525 69.8326 42.7949 69.386 43.241C68.9394 43.6871 67.2832 46.122 68.6789 46.9585C68.6789 46.9585 69.7024 47.1815 69.721 45.8432V45.7317C69.721 45.7317 68.9766 46.8283 68.6602 45.7317M78.3184 41.4194C78.3184 41.4194 78.0207 42.2744 77.8904 42.609C77.7602 42.9436 78.0765 43.1108 78.0765 43.1108L79.0628 43.7614C79.3048 43.8729 79.4164 44.0588 79.77 43.4268C80.1236 42.7948 79.77 42.3302 79.2861 42.1443C78.9309 41.9496 78.605 41.7055 78.3184 41.4194ZM81.5379 43.3897C81.5379 43.3897 82.1519 42.293 82.0216 42.0142C81.8914 41.7354 80.9051 41.3078 80.6818 41.2521C80.4585 41.1963 80.4585 41.2521 80.4585 41.2521C80.4585 41.2521 80.2166 41.8097 80.0863 42.2001C79.9561 42.5904 80.6446 42.8692 80.8307 42.9807L81.5379 43.3339M80.5143 50.1741C80.1235 49.5607 79.6769 48.1852 80.2724 47.8507C80.8679 47.5161 81.7053 49.0588 81.7053 49.0588C81.3958 49.514 80.989 49.895 80.5143 50.1741ZM70.7258 52.0329C70.7258 52.0329 72.1587 49.2819 73.5172 48.7243C74.151 48.4059 74.8795 48.3304 75.5652 48.5119C76.2509 48.6934 76.8463 49.1194 77.2391 49.7094C76.3725 50.5411 75.3384 51.1785 74.2056 51.5792C73.0728 51.9798 71.8675 52.1345 70.6701 52.0329M84.4409 38.371C84.1432 37.5903 82.9894 35.3413 82.9894 35.3413L82.6171 36.9212C82.6171 36.9212 82.8591 37.0885 82.9894 38.0364C83.1196 38.9844 84.292 45.0997 84.5897 46.7168C85.1108 49.728 85.1295 49.6351 85.2411 50.6202C85.0566 50.9305 84.8058 51.1963 84.5067 51.3988C84.2075 51.6012 83.8674 51.7352 83.5105 51.7912C83.0624 51.886 82.5971 51.8602 82.1623 51.7165C81.7274 51.5728 81.3385 51.3164 81.0354 50.9734C81.4402 50.7206 81.7573 50.3496 81.9437 49.9107C82.1301 49.4717 82.1768 48.9862 82.0775 48.5198C81.6495 46.9585 80.9424 45.8618 79.9003 46.3451C78.8582 46.8284 79.6956 50.2299 79.9003 50.5645C78.6981 51.2978 77.3643 51.7902 75.9736 52.0143C76.738 51.5576 77.3773 50.919 77.8346 50.1555C77.9769 49.8952 78.0625 49.6078 78.0856 49.3121C78.1087 49.0164 78.0688 48.7191 77.9686 48.4399C77.8684 48.1607 77.7101 47.9059 77.5042 47.6922C77.2982 47.4785 77.0493 47.3108 76.7738 47.2001C75.8248 46.754 73.815 45.9361 71.5075 49.4678C71.0215 50.1992 70.5863 50.9631 70.2048 51.7541C69.7346 51.5252 69.3688 51.1266 69.1813 50.6388C69.5349 50.044 69.6094 49.6165 69.1813 49.9139C68.3768 50.7024 67.3629 51.2443 66.2597 51.4752C65.6825 51.5907 65.083 51.4738 64.5916 51.1501C64.1003 50.8264 63.7567 50.322 63.6357 49.7466C63.1519 48.4641 61.9796 48.0923 60.9002 50.267C60.575 50.7779 60.3592 51.3504 60.2663 51.9486C60.1734 52.5468 60.2056 53.1577 60.3606 53.7429C59.0448 53.9046 57.8072 54.4547 56.8062 55.3229C54.7592 56.8842 52.3214 59.2077 50.9071 58.2225C49.4928 57.2374 51.8189 53.7615 53.9404 51.6239C54.1079 51.4566 54.2009 51.3265 54.3126 51.2336C54.7034 51.1407 55.1686 50.7875 55.1872 49.7466L55.0569 49.5793C55.0569 49.5793 54.0521 51.1407 53.6241 49.5793C53.1961 48.018 54.908 46.3265 54.908 46.3265C54.908 46.3265 55.3361 45.5458 54.7592 46.1592C54.1823 46.7726 51.8561 50.0998 53.7729 51.2894H53.959C52.8868 52.2445 51.9701 53.3608 51.242 54.5979C49.8463 57.163 49.6416 58.8545 51.242 59.598C52.8424 60.3415 55.764 57.5348 56.5456 56.9771C57.3272 56.4195 59.4859 55.0069 60.6397 55.3229C61.7998 55.8752 62.8474 56.6378 63.7289 57.5719L64.0824 55.8619C63.4413 55.2706 62.7705 54.7123 62.0726 54.189C61.1235 53.5013 60.1 52.4232 60.8816 51.2522C61.6632 50.0812 62.8914 49.821 63.2264 51.4381C63.3306 51.7806 63.5092 52.0959 63.7494 52.3616C63.9896 52.6273 64.2855 52.8368 64.616 52.9753C64.9466 53.1137 65.3035 53.1777 65.6616 53.1626C66.0196 53.1475 66.37 53.0537 66.6877 52.8879C67.4315 52.579 68.0755 52.0708 68.5486 51.4195C68.7191 52.0641 69.0827 52.6413 69.5907 53.0738C69.4508 53.4085 69.412 53.7768 69.479 54.1333C69.59 53.8486 69.7271 53.5749 69.8885 53.3154C70.3539 53.5526 70.8742 53.6617 71.3958 53.6314C74.5219 53.9575 77.6658 53.2102 80.3096 51.5124C80.3096 51.5124 81.2773 53.6872 83.2313 53.3712C85.1853 53.0552 86.0227 51.0849 85.5947 48.4083C85.1667 45.7317 83.7338 38.0922 83.7338 38.0922L84.2548 38.6312C84.2548 38.6312 84.7387 39.1517 84.4223 38.3896M93.0942 39.8209C93.0942 39.8209 92.8708 39.9696 91.6798 39.5792C91.7409 39.2624 91.8608 38.9598 92.0334 38.687C92.2816 38.7885 92.5049 38.9424 92.688 39.1381C92.8711 39.3338 93.0096 39.5667 93.0942 39.8209ZM91.5124 39.3747C91.3153 39.4811 91.0853 39.5095 90.8682 39.4544C90.651 39.3993 90.4625 39.2647 90.34 39.0773C90.34 39.0773 90.9727 37.832 91.4752 38.6312C91.4752 38.6312 91.6426 39.1889 91.4752 39.3747M91.6985 37.6275C90.0422 36.8283 90.2655 38.5755 90.2655 38.5755L90.1167 39.003C89.0002 40.267 90.9169 40.3599 90.9169 40.3599C90.9169 40.9175 89.6143 41.9398 88.2744 42.9064L87.4928 38.3152L88.0511 38.8171C88.0511 38.8171 88.3675 39.1703 88.0511 38.5755C87.6407 37.505 87.1491 36.4673 86.5809 35.4714L86.3204 36.9955C86.5263 37.3062 86.6481 37.6648 86.6739 38.0364C86.767 38.5569 87.2509 41.4937 87.5486 43.3711C86.1529 44.3562 84.8316 45.2298 84.8316 45.2298C85.3507 45.0521 85.86 44.8473 86.3576 44.6164C86.8016 44.4042 87.2306 44.162 87.6417 43.8915C87.7533 44.5792 87.8092 45.0625 87.8092 45.0625C87.8092 45.0625 88.9443 51.7912 88.9443 54.1147C88.9443 55.7318 89.4095 54.8396 89.3723 52.2559C89.3353 50.7938 89.211 49.3352 89.0001 47.8878C88.7582 46.4752 88.4791 44.9138 88.2372 43.4454C89.3808 42.5793 90.4177 41.581 91.3263 40.4714L92.3498 40.5829C94.0061 40.713 93.2803 38.5197 91.6054 37.7019M90.6563 46.754C90.6563 46.754 90.34 47.609 90.2097 47.925C90.0795 48.241 90.3958 48.4269 90.3958 48.4269L91.3821 49.0774C91.6241 49.189 91.7171 49.3748 92.0707 48.7243C92.4242 48.0737 92.0706 47.6462 91.5868 47.4603C91.2534 47.2571 90.9416 47.0205 90.6563 46.754ZM107.684 38.2037L108.372 37.1628L92.2196 43.3711L91.4565 44.5049L107.684 38.2037ZM92.7965 46.6425C92.7965 46.6425 92.5545 47.2187 92.4242 47.5904C92.294 47.9622 92.9826 48.2782 93.1687 48.3711L93.8572 48.7243C93.8572 48.7243 94.4526 47.6648 94.3596 47.3488C94.2665 47.0328 93.2431 46.6425 93.0198 46.5867C92.7964 46.531 92.7965 46.5867 92.7965 46.5867M99.5888 46.3823C99.2538 45.2112 100.538 44.0216 100.538 44.0216C100.538 44.0216 100.873 43.4268 100.426 43.8729C99.9796 44.319 98.2861 46.7726 99.7004 47.5904C99.7004 47.5904 100.724 47.7949 100.724 46.4752V46.3265C100.724 46.3265 99.961 47.4975 99.6633 46.3265M108.521 41.0476L108.819 40.3227C108.819 40.3227 108.41 39.1145 107.87 39.7651C107.415 40.6271 107.124 41.5663 107.014 42.5346C106.82 41.761 106.552 41.0078 106.214 40.2855C105.767 39.4491 105.469 40.1554 105.469 40.1554C105.041 40.8246 105.916 41.5681 105.916 41.5681H106.083C106.415 42.1468 106.654 42.774 106.791 43.4268C106.791 43.6499 106.791 43.8915 106.995 43.7056C107.2 43.5198 107.479 41.5309 107.684 40.8989C107.889 40.2669 108.596 41.0105 108.596 41.0105M106.604 46.4752C106.604 45.8246 107.907 45.899 107.907 45.899L108.186 45.2112C107.293 43.7242 106.939 44.1703 106.586 44.7094C106.232 45.2484 106.586 45.0625 106.586 45.0625C107.498 44.5793 107.33 45.0625 107.33 45.0625C106.963 45.2429 106.666 45.5391 106.484 45.9054C106.302 46.2716 106.246 46.6875 106.325 47.0886C106.493 47.7763 106.902 50.9176 106.902 51.3637C106.902 51.8098 107.014 51.8842 107.014 51.8842C107.018 50.0178 106.881 48.1537 106.604 46.3079M111.033 53.9846C110.478 53.8556 109.977 53.5567 109.601 53.1295C110.903 52.386 111.033 53.9846 111.033 53.9846ZM102.492 53.4827L101.617 52.8321C102.285 52.6338 102.996 52.6338 103.664 52.8321L102.492 53.4827ZM111.033 51.4381C110.029 51.0291 109.173 52.7392 109.173 52.7392C109.173 52.7392 108.744 52.9622 108.428 53.5384C108.232 53.9643 107.921 54.3271 107.529 54.5864C107.138 54.8457 106.683 54.9913 106.214 55.0069C105.245 54.9337 104.305 54.6481 103.46 54.1704C104.034 53.8437 104.624 53.546 105.227 53.2782L105.674 51.9028C104.631 51.4012 103.48 51.1658 102.324 51.2177C101.168 51.2696 100.043 51.6072 99.0491 52.2001L98.6212 53.557C99.0604 53.3561 99.5538 53.3055 100.025 53.413C100.496 53.5205 100.918 53.7802 101.226 54.1518C100.753 54.5628 100.199 54.8708 99.6 55.0564C99.0009 55.242 98.3696 55.3011 97.7465 55.2299C95.29 54.8396 95.5134 53.7429 94.5271 52.7392C93.5408 51.7355 92.3311 53.0366 91.9031 53.7429C91.3314 54.7665 90.8459 55.8359 90.4517 56.94C89.9864 58.3154 89.4467 58.7987 88.4046 57.8693C87.3625 56.94 87.5859 54.0403 87.5859 53.5756C87.5859 53.1109 87.5858 52.4604 87.3997 53.1109C87.2136 53.7615 87.0275 57.5348 88.3302 58.8545C89.6328 60.1742 90.4702 58.8545 90.768 58.334C91.2041 57.1691 91.7138 56.033 92.294 54.9325C93.0197 53.8358 93.8758 53.8359 94.1549 54.4864C94.4663 55.1526 94.9525 55.7222 95.5619 56.1345C96.1714 56.5469 96.8813 56.7867 97.6162 56.8284C99.2857 56.5771 100.855 55.8767 102.157 54.8024C103.288 55.8761 104.752 56.5319 106.307 56.6612C107.609 56.6612 108.651 54.3749 108.651 54.3749C109.285 54.8751 109.972 55.3051 110.699 55.6574C111.573 55.992 111.983 55.1556 112.094 54.6351C112.206 54.1147 112.094 51.9399 110.996 51.531M115.909 37.9249L115.816 37.8134C115.816 37.8134 115.146 38.9101 114.867 37.8134C114.835 37.3931 114.895 36.9708 115.042 36.5759C115.19 36.181 115.423 35.8231 115.723 35.5271C115.723 35.5271 116.002 34.9695 115.593 35.4156C115.183 35.8617 113.732 38.2037 114.979 39.1331C114.979 39.1331 115.89 39.3561 115.909 38.055M124.358 37.7019L124.786 37.0327L114.532 40.9733L114.067 41.6982L124.358 37.7019ZM115.965 43.8915C116.837 45.2807 117.187 46.9342 116.951 48.557C116.951 48.9473 116.951 48.9473 116.951 48.9473C116.951 48.9473 118.235 45.8618 116.114 42.2744L115.965 43.8915ZM119.985 43.4826C119.445 44.1703 120.543 44.9882 120.543 44.9882H120.747C121.159 45.5439 121.457 46.1757 121.622 46.8469C121.622 47.0886 121.715 47.3302 121.883 47.1257C122.05 46.9213 122.478 44.8209 122.72 44.1332C122.962 43.4454 123.818 44.2447 123.818 44.2447L124.19 43.464C124.19 43.464 123.706 42.1629 123.036 42.8506C122.49 43.7558 122.13 44.7604 121.976 45.806L121.883 45.9176C121.646 45.0864 121.321 44.2826 120.915 43.5198C120.357 42.6647 119.985 43.5198 119.985 43.5198M122.348 52.8135C122.348 52.8135 119.947 53.9102 119.222 54.3563C118.611 54.7896 117.914 55.0854 117.179 55.2234C116.443 55.3614 115.686 55.3383 114.96 55.1556C114.96 55.1556 114.774 53.966 114.662 53.557C114.551 53.1481 114.662 51.4938 115.983 51.6983C118.139 51.8872 120.27 52.2856 122.348 52.8879M124.6 53.4083L124.804 52.0514C121.947 51.3031 119.044 50.7381 116.114 50.36C113.881 50.36 114.141 53.7615 114.346 54.505L114.476 55.0069C114.476 55.0069 113.471 54.5608 113.229 52.3488C113.229 52.3488 112.057 39.951 111.033 35.0996L110.643 36.5123C111.07 38.5527 111.35 40.6213 111.48 42.7019C111.852 45.899 112.671 52.3489 112.671 52.5347C112.932 54.8953 113.657 55.9177 114.532 56.4567H114.662C114.662 56.9586 114.793 57.6835 114.793 57.6835C114.793 57.6835 114.941 57.9437 114.997 57.6835C115.024 57.3308 115.024 56.9766 114.997 56.624C115.406 56.7802 115.846 56.8375 116.281 56.7913H116.616C117.673 56.5693 118.678 56.1465 119.575 55.5459C121.129 54.6319 122.784 53.9021 124.507 53.3712M124.507 58.2039C124.395 58.334 123.632 58.8917 123.632 58.8917C122.367 59.7281 121.771 59.0589 122.664 58.334C123.557 57.6091 123.148 57.4418 123.148 57.4418C122.311 57.0515 121.752 57.9623 121.752 57.9623L122.292 57.8508C122.359 57.8205 122.432 57.8048 122.506 57.8048C122.58 57.8048 122.653 57.8205 122.72 57.8508C121.287 59.1891 121.901 59.4865 121.901 59.4865C123.074 60.0255 124.004 58.9288 124.544 58.3712C125.083 57.8136 124.544 58.1667 124.544 58.1667" fill="#005299"/>
<path d="M102.809 128.111C102.92 128.194 103.011 128.301 103.075 128.423C103.139 128.545 103.176 128.68 103.181 128.818C103.181 129.264 102.902 129.487 102.344 129.487C101.574 129.419 100.853 129.075 100.316 128.52V127.833H99.9619V129.952H100.316V129.413C100.958 129.682 101.647 129.821 102.344 129.822C103.001 129.879 103.659 129.709 104.205 129.338C104.415 129.194 104.584 128.999 104.698 128.771C104.812 128.544 104.867 128.291 104.856 128.037C104.856 127.275 104.261 126.606 103.107 125.992C102.656 125.775 102.232 125.507 101.841 125.193C101.744 125.111 101.665 125.008 101.611 124.893C101.556 124.778 101.527 124.652 101.525 124.524C101.525 124.041 101.786 123.818 102.307 123.818C102.828 123.818 103.405 124.208 103.963 124.952V125.565H104.298V123.223H104.037V123.836C103.502 123.611 102.925 123.503 102.344 123.52C101.729 123.485 101.121 123.655 100.613 124.004C100.404 124.141 100.233 124.329 100.116 124.55C99.9991 124.771 99.9396 125.018 99.9433 125.268C99.9433 125.974 100.409 126.569 101.358 127.126C101.905 127.427 102.434 127.763 102.939 128.13M96.2401 123.762H93.0207V124.097H94.2303V129.375H93.0207V129.729H97.7474V129.375H96.0912V127.294C96.0647 126.666 96.1401 126.038 96.3145 125.435C96.575 124.766 96.9286 124.413 97.4125 124.413C97.8963 124.413 98.3057 124.803 98.529 125.546C98.616 125.848 98.6537 126.162 98.6406 126.476H99.0129V123.26H98.6406V123.948C98.3969 123.886 98.1476 123.848 97.8963 123.836C97.5027 123.838 97.1177 123.952 96.7877 124.167C96.4576 124.381 96.1965 124.686 96.0354 125.045L96.2401 123.762ZM88.3125 125.992V125.621C88.3026 125.145 88.439 124.678 88.7034 124.282C88.8467 124.141 89.0192 124.033 89.2089 123.966C89.3986 123.898 89.6008 123.873 89.8013 123.892C90.8062 123.892 91.3087 124.505 91.3087 125.751C91.3087 125.862 91.3087 125.955 91.3087 126.048L88.3125 125.992ZM87.196 124.487C86.8874 124.778 86.6421 125.13 86.4756 125.52C86.3091 125.91 86.2249 126.33 86.2283 126.755C86.2232 127.172 86.3049 127.585 86.4683 127.969C86.6317 128.353 86.8731 128.699 87.1774 128.985C87.8434 129.571 88.71 129.877 89.5966 129.84C90.7253 129.836 91.815 129.427 92.6672 128.688V127.944H92.4625C92.1544 128.419 91.733 128.811 91.236 129.084C90.7391 129.356 90.1821 129.501 89.6152 129.506C89.4121 129.53 89.2061 129.502 89.0171 129.424C88.828 129.346 88.6622 129.22 88.5359 129.059C88.3004 128.47 88.2111 127.832 88.2754 127.201C88.2754 126.81 88.2754 126.513 88.2754 126.253H92.4625C92.4735 125.876 92.4082 125.5 92.2708 125.149C92.1333 124.798 91.9263 124.478 91.6622 124.208C91.38 123.956 91.0505 123.762 90.6928 123.637C90.335 123.513 89.9561 123.46 89.578 123.483C88.6853 123.478 87.8253 123.818 87.1774 124.431M81.8552 123.706H77.7612V124.041H78.7289L81.7622 130.007L82.7112 127.888C83.268 126.557 83.9275 125.27 84.6837 124.041H85.6701V123.706H82.7298V124.041H83.4742C83.4391 125.222 83.1336 126.379 82.581 127.424L80.7201 124.041H81.6877V123.706H81.8552ZM76.9982 123.706H73.2949V124.041H74.4859V129.32H73.2949V129.673H77.6122V129.32H76.3841V124.041H76.8866L76.9982 123.706ZM75.77 122.758C75.714 121.224 75.9153 119.691 76.3655 118.223H74.8395C75.2926 119.69 75.4878 121.225 75.4164 122.758H75.77ZM66.5956 108.502C66.7343 110.898 66.5274 113.302 65.9815 115.639C65.8346 116.089 65.5653 116.489 65.2038 116.794C64.8422 117.099 64.4028 117.298 63.9345 117.368C63.4386 117.194 62.9152 117.113 62.3899 117.126C62.466 115.877 62.6277 114.635 62.8738 113.409H64.53V113.056H59.5428V113.576H61.0129C61.2599 114.803 61.4278 116.045 61.5153 117.294H61.0501C60.499 117.158 60.0082 116.845 59.6544 116.401C59.0031 115.602 58.6494 113.52 58.6494 110.119C58.6494 109.152 58.6495 107.981 58.7984 106.587C58.8352 105.703 58.9223 104.822 59.0589 103.948C59.2249 103.138 59.6816 102.418 60.3429 101.922C61.0474 101.42 61.8978 101.166 62.7621 101.197C63.3896 101.137 64.0203 101.269 64.5716 101.574C65.1229 101.879 65.5689 102.344 65.8512 102.907C66.4271 104.706 66.6546 106.599 66.5212 108.483M66.8562 115.918C68.4551 114.072 69.2814 111.683 69.1637 109.245C69.2342 107.069 68.5796 104.931 67.3028 103.167C66.8101 102.422 66.1419 101.808 65.3568 101.38C64.5717 100.953 63.6936 100.724 62.7994 100.713C62.0234 100.686 61.2502 100.821 60.5292 101.109C59.8083 101.397 59.1554 101.832 58.6123 102.386C57.785 103.275 57.1513 104.326 56.7514 105.472C56.2884 106.709 56.0489 108.018 56.0442 109.338C55.9756 111.728 56.8206 114.054 58.4075 115.844C59.0118 116.489 59.7395 117.008 60.5476 117.368C59.653 117.684 58.8214 118.156 58.0912 118.762L58.3331 119.059C58.774 118.688 59.2893 118.414 59.8444 118.257C60.3996 118.1 60.9819 118.063 61.5525 118.149C61.5525 119.282 61.6641 120.491 61.6641 121.866C61.811 123.744 61.6156 125.634 61.0872 127.442C60.7559 128.095 60.229 128.628 59.5799 128.966C58.9087 129.339 58.152 129.532 57.384 129.524C56.9296 129.586 56.467 129.513 56.0535 129.315C55.6401 129.117 55.2939 128.802 55.0579 128.409C54.7056 127.108 54.5797 125.756 54.6857 124.413V113.576H56.2489V113.223H50.9453V113.576H52.4898V124.598C52.4633 125.5 52.5636 126.401 52.7876 127.275C52.9822 127.879 53.3281 128.423 53.7925 128.855C54.7936 129.697 56.0769 130.129 57.384 130.063C58.4278 130.102 59.4552 129.795 60.3057 129.19C61.094 128.621 61.6283 127.767 61.7944 126.81C61.9956 125.145 62.0951 123.469 62.0922 121.792C62.0922 120.546 62.0921 119.487 62.241 118.483C63.1867 118.769 64.032 119.317 64.6788 120.063L64.3439 120.398L64.5486 120.658C65.9093 119.493 67.4171 118.512 69.0334 117.74L68.9031 117.386C67.9954 117.803 67.124 118.294 66.2979 118.855C65.7303 118.392 65.1047 118.004 64.437 117.702C65.3848 117.366 66.2437 116.82 66.9492 116.104M71.2107 124.338C71.0335 124.114 70.8071 123.934 70.5489 123.811C70.2908 123.689 70.0077 123.627 69.722 123.632C68.9218 123.632 68.196 124.152 67.5261 125.23V123.818H64.437V124.152H65.6465V129.431H64.437V129.784H68.7542V129.431H67.5261V126.067C68.1216 124.729 68.7543 124.041 69.387 124.041C69.6661 124.041 69.7964 124.338 69.7964 124.97V129.784H72.8855V129.431H71.7318V126.178C71.7867 125.514 71.5945 124.852 71.192 124.32M75.0814 116.271C74.8933 116.575 74.6438 116.835 74.349 117.037C74.0542 117.239 73.7206 117.377 73.3694 117.442C73.1275 117.442 72.9971 117.182 72.9413 116.662C72.8388 115.779 72.8955 114.885 73.1088 114.022C73.3694 113.446 74.6348 113.762 74.9698 113.892V116.271H75.0814ZM78.6172 116.81L78.3567 116.624C77.9224 117.145 77.5689 117.405 77.2959 117.405C77.0726 117.405 76.9423 117.052 76.9423 116.346V114.041C76.9705 113.587 76.9073 113.132 76.7563 112.702C76.4213 111.94 75.5838 111.55 74.244 111.55C73.3811 111.553 72.5251 111.704 71.7132 111.996V113.13H71.9737C72.2523 112.705 72.6431 112.366 73.1029 112.149C73.5628 111.933 74.0736 111.848 74.5789 111.903C74.7683 111.91 74.9561 111.941 75.1373 111.996V113.576C74.5876 113.384 73.9978 113.337 73.4244 113.438C72.851 113.538 72.3131 113.785 71.8621 114.152C71.6203 114.337 71.4186 114.569 71.2692 114.834C71.1197 115.099 71.0256 115.391 70.9926 115.694C70.9595 115.996 70.9882 116.302 71.0769 116.593C71.1655 116.884 71.3124 117.154 71.5085 117.386C71.9069 117.726 72.4178 117.905 72.9413 117.888C73.3638 117.875 73.7788 117.773 74.16 117.591C74.5412 117.408 74.8803 117.149 75.1558 116.829C75.2502 117.161 75.4587 117.449 75.7445 117.643C76.0303 117.836 76.3754 117.923 76.719 117.888C77.1078 117.878 77.4886 117.776 77.8311 117.592C78.1736 117.408 78.4683 117.147 78.6916 116.829M83.53 117.386C83.741 117.238 83.9124 117.04 84.0292 116.81C84.1459 116.58 84.2047 116.325 84.2 116.067C84.2 115.323 83.6231 114.654 82.4507 114.022C81.9974 113.799 81.5673 113.531 81.1667 113.223C81.0684 113.142 80.9903 113.04 80.9386 112.923C80.8869 112.807 80.863 112.681 80.8689 112.554C80.8689 112.089 81.1295 111.847 81.6319 111.847C81.9803 111.893 82.3131 112.019 82.6039 112.216C82.8948 112.413 83.1354 112.675 83.3067 112.981V113.576H83.6416V111.253H83.3625V111.717C82.8147 111.49 82.2247 111.382 81.6319 111.401C81.0243 111.377 80.4247 111.546 79.9198 111.885C79.7127 112.027 79.5447 112.219 79.4309 112.443C79.3172 112.667 79.2613 112.916 79.2685 113.167C79.2685 113.873 79.7337 114.487 80.6828 115.026C81.2346 115.313 81.7634 115.642 82.2646 116.011C82.3728 116.095 82.4608 116.202 82.522 116.324C82.5833 116.446 82.616 116.581 82.6181 116.717C82.6181 117.163 82.339 117.386 81.7993 117.386C81.0266 117.327 80.3038 116.982 79.771 116.42V115.732H79.3988V117.851H79.771V117.294C80.4122 117.568 81.1016 117.714 81.7993 117.721C82.4557 117.766 83.1088 117.596 83.6602 117.238M89.7082 117.238C89.9193 117.089 90.0907 116.891 90.2074 116.661C90.3242 116.431 90.3829 116.176 90.3783 115.918C90.3783 115.175 89.7827 114.505 88.6104 113.873C88.1597 113.645 87.73 113.378 87.3263 113.074C87.2312 112.991 87.1552 112.888 87.1038 112.772C87.0524 112.657 87.0267 112.531 87.0285 112.405C87.0285 111.94 87.2891 111.699 87.8102 111.699C88.3312 111.699 88.908 112.089 89.4663 112.833V113.576H89.8199V111.253H89.5222V111.717C88.987 111.491 88.4094 111.384 87.8287 111.401C87.2205 111.372 86.6193 111.541 86.1167 111.885C85.9074 112.026 85.7366 112.218 85.6196 112.441C85.5027 112.665 85.4433 112.915 85.4468 113.167C85.4468 113.873 85.912 114.487 86.8611 115.026C87.4156 115.308 87.9447 115.638 88.4428 116.011C88.5535 116.094 88.6443 116.2 88.7087 116.322C88.7731 116.444 88.8094 116.579 88.815 116.717C88.815 117.163 88.5173 117.386 87.9776 117.386C87.2063 117.321 86.4852 116.978 85.9493 116.42V115.732H85.5957V117.851H85.9493V117.294C86.5905 117.568 87.2798 117.714 87.9776 117.721C88.634 117.766 89.2871 117.596 89.8385 117.238M94.1745 106.085H92.6485C93.0924 107.554 93.2874 109.087 93.2254 110.621H93.5604C93.5013 109.085 93.7091 107.55 94.1745 106.085ZM91.197 117.498H95.5143V117.294H94.2675V112.033H94.5095V111.717H90.7876V112.052H91.9786V117.294H90.7876L91.197 117.498ZM105.489 117.498H108.615V117.294H107.387V113.576C107.419 113.02 107.232 112.473 106.866 112.052C106.708 111.856 106.506 111.7 106.277 111.596C106.047 111.493 105.796 111.445 105.545 111.457C105.036 111.5 104.55 111.685 104.142 111.99C103.734 112.296 103.421 112.71 103.237 113.186C103.032 112.033 102.418 111.457 101.376 111.457C100.891 111.504 100.427 111.678 100.032 111.962C99.6362 112.246 99.3231 112.63 99.1245 113.074V111.717H96.0354V112.052H97.2264V117.294H96.0354V117.647H100.092V117.294H98.8641V114.134C98.9999 113.578 99.2753 113.066 99.6642 112.647C100.129 112.145 100.52 111.903 100.818 111.903C101.116 111.903 101.079 112.145 101.079 112.628V117.628H104.168V117.294H102.977V114.022C103.209 113.466 103.529 112.951 103.926 112.498C104.16 112.183 104.506 111.97 104.893 111.903C105.117 111.903 105.21 112.145 105.21 112.628V117.647L105.489 117.498ZM108.801 118.149H107.275C107.644 119.694 107.732 121.293 107.536 122.87H107.889C107.818 121.335 108.02 119.799 108.485 118.334M105.526 129.766H109.843V129.413H108.615V124.134H109.136V123.818H105.526V124.152H106.717V129.431H105.526V129.766ZM113.379 128.892C113.352 128.602 113.352 128.309 113.379 128.019V124.152C113.689 124.114 114.003 124.176 114.275 124.33C114.546 124.484 114.761 124.722 114.887 125.007H115.222V123.818H113.361V117.665H111.5V123.818H110.253V124.152H111.5V127.87C111.443 128.382 111.54 128.9 111.779 129.357C111.974 129.553 112.211 129.703 112.471 129.797C112.732 129.89 113.011 129.924 113.286 129.896C113.643 129.883 113.993 129.795 114.313 129.638C114.634 129.481 114.918 129.259 115.147 128.985L114.98 128.818C114.664 129.194 114.22 129.439 113.733 129.506C113.472 129.506 113.323 129.282 113.286 128.874M123.112 130.732C122.935 130.015 122.866 129.276 122.907 128.539V123.873H119.799V124.208H120.972V128.093C120.469 129.041 119.874 129.506 119.111 129.506C118.85 129.506 118.664 129.506 118.608 129.282C118.555 128.888 118.555 128.488 118.608 128.093V123.873H115.519V124.208H116.841V127.368C116.786 128.001 116.881 128.638 117.12 129.227C117.315 129.5 117.581 129.715 117.889 129.849C118.197 129.983 118.536 130.031 118.869 129.989C119.298 129.99 119.721 129.891 120.105 129.701C120.49 129.51 120.824 129.234 121.083 128.892V130.565C121.119 131.111 121.056 131.659 120.897 132.182C120.801 132.362 120.655 132.51 120.477 132.609C120.299 132.708 120.096 132.753 119.892 132.74C119.448 132.668 119.034 132.468 118.701 132.164C118.368 131.988 118.095 131.716 117.92 131.383H117.752L117.213 132.145C117.869 132.705 118.713 132.998 119.576 132.963C120.35 132.966 121.11 132.751 121.768 132.343C122.426 131.936 122.956 131.352 123.298 130.658" fill="#005299"/>
<path d="M108.318 88.6496V88.7797C108.43 88.8912 108.486 88.7797 108.43 88.7797C108.538 89.0468 108.711 89.2831 108.932 89.4674C108.932 89.4674 108.932 89.3745 108.932 89.3001H108.765C108.728 89.181 108.665 89.0712 108.582 88.9782C108.498 88.8852 108.396 88.8112 108.281 88.7611M105.508 86.7165C105.285 86.5864 104.634 86.3261 104.913 86.5863C105.192 86.8466 105.62 87.1997 106.029 87.5157L107.072 88.2035L107.295 88.4451C107.295 88.3336 107.127 88.2035 107.034 88.0734C106.941 87.9432 106.532 87.8875 106.271 87.6644C106.011 87.4414 106.383 87.4971 106.271 87.46C106.064 87.3541 105.87 87.223 105.694 87.0696C105.564 87.0696 105.694 86.7536 105.508 86.7165ZM107.369 87.6272C107.369 87.6272 107.369 87.6272 107.537 87.6272L107.332 87.4042C107.343 87.4595 107.343 87.5162 107.332 87.5715M106.997 87.144L106.867 87.051C106.882 87.0994 106.882 87.1514 106.867 87.1997C106.867 87.1068 106.867 87.1997 106.867 87.1997M100.54 88.5195V88.6867C100.651 88.6867 100.707 88.6867 100.651 88.6867C100.757 88.955 100.93 89.1918 101.154 89.3745C101.154 89.3745 101.154 89.263 101.154 89.2072H100.986C100.986 88.8912 100.726 88.7797 100.502 88.631M89.3369 96.3262L89.43 96.1775H89.2811M88.9089 96.5679C88.8942 96.5933 88.8865 96.6222 88.8865 96.6515C88.8865 96.6809 88.8942 96.7097 88.9089 96.7352L89.1322 96.5307H88.9834M88.4064 96.3077C88.3333 96.3966 88.2452 96.4721 88.146 96.5307L88.5367 96.2705C88.7228 96.1589 88.7228 95.7872 88.9461 95.5084C89.1694 95.2296 89.095 95.6013 89.1322 95.5084C89.2472 95.2946 89.3779 95.0896 89.523 94.895C89.523 94.802 89.8394 94.895 89.8952 94.7091C89.9511 94.5232 90.2674 93.8541 90.0069 94.1329C89.7463 94.4117 89.3928 94.8578 89.0764 95.2481C88.7601 95.6385 88.6483 95.9545 88.4064 96.3077ZM87.7551 97.6459C87.4931 97.7718 87.259 97.9487 87.0666 98.1664C87.0666 98.1664 87.1783 98.1664 87.2341 98.1664C87.2312 98.1107 87.2312 98.0548 87.2341 97.9991C87.4946 97.9991 87.6435 97.7203 87.7924 97.4973H87.6435C87.5318 97.6088 87.6435 97.6645 87.6435 97.6088M81.5024 96.0288L81.6141 95.9173H81.4652M81.0558 96.2519C81.0558 96.2519 81.0558 96.2519 81.0558 96.382L81.2791 96.1589C81.2674 96.1882 81.2466 96.2129 81.2199 96.2297C81.1931 96.2464 81.1617 96.2541 81.1302 96.2519M80.5347 96.0288L80.2928 96.2519L80.6836 95.9916C80.8697 95.8615 80.8512 95.5084 81.0745 95.211C81.2978 94.9136 81.2419 95.3225 81.2791 95.211C81.3853 94.9979 81.5164 94.7982 81.6699 94.6162C81.6699 94.5047 81.9862 94.6162 82.0421 94.4303C82.0979 94.2444 82.4143 93.5567 82.1724 93.8355C81.9304 94.1143 81.5955 94.5604 81.2605 94.9507C80.9256 95.3411 80.7953 95.6757 80.5347 96.0288ZM79.9021 97.3671C79.6347 97.4751 79.3981 97.6476 79.2136 97.869C79.2136 97.869 79.3252 97.869 79.3996 97.869V97.7017C79.6601 97.7017 79.809 97.4229 79.9579 97.1998H79.8089C79.6787 97.3114 79.8089 97.3671 79.8089 97.3114M65.7219 75.5082V75.3781C65.6102 75.2665 65.5543 75.3781 65.6101 75.3781C65.502 75.1109 65.3294 74.8747 65.1077 74.6903C65.1077 74.6903 65.1077 74.7833 65.1077 74.8762H65.2566C65.2566 75.1364 65.5357 75.2666 65.759 75.3967M68.5318 77.4413C68.7551 77.59 69.4064 77.8316 69.1086 77.59C68.8109 77.3483 68.3829 76.9766 68.0108 76.6606L66.95 75.9729C66.8703 75.8908 66.7957 75.8039 66.7267 75.7127C66.8073 75.8409 66.8943 75.9649 66.9873 76.0844C67.0989 76.2889 67.4711 76.2889 67.7502 76.4933C68.0293 76.6978 67.6572 76.6606 67.7502 76.6978C67.9681 76.8059 68.174 76.9367 68.3643 77.0881C68.4574 77.0881 68.3643 77.4041 68.5318 77.4413ZM66.6708 76.5491C66.6708 76.5491 66.6709 76.5491 66.5034 76.5491L66.7081 76.7721C66.6975 76.7169 66.6975 76.6601 66.7081 76.6048M67.0244 77.0324L67.1733 77.1439V76.9766M73.519 75.6011V75.4524C73.4074 75.4524 73.3515 75.4524 73.4074 75.4524C73.3158 75.1765 73.1402 74.936 72.905 74.7647C72.905 74.7647 72.905 74.8576 72.905 74.9134H73.0538C73.0538 75.1922 73.333 75.3223 73.5563 75.471M84.7218 67.8501V67.9802C84.7641 67.9661 84.8098 67.9661 84.8521 67.9802M85.2243 67.5713C85.2243 67.5713 85.2243 67.4784 85.2243 67.404L85.001 67.6085H85.1684M85.7639 67.8315C85.827 67.7333 85.9176 67.6557 86.0245 67.6085L85.6336 67.8687C85.4289 67.9616 85.4476 68.352 85.2429 68.6308C85.0382 68.9096 85.094 68.6308 85.0381 68.6308C84.9336 68.8465 84.809 69.0518 84.666 69.2442C84.666 69.3371 84.3311 69.2442 84.2938 69.4301C84.2566 69.6159 83.903 70.2851 84.1822 70.0063C84.4613 69.7275 84.7591 69.2814 85.1126 68.891C85.3009 68.5209 85.5186 68.1666 85.7639 67.8315ZM86.3967 66.4932C86.662 66.3814 86.8977 66.2096 87.0852 65.9914C87.0852 65.9914 87.0852 65.8984 86.9177 65.9914C86.9238 66.0469 86.9238 66.1031 86.9177 66.1587C86.6572 66.1587 86.5269 66.4375 86.3781 66.6605H86.527C86.527 66.549 86.527 66.4932 86.527 66.549M92.668 68.1847L92.575 68.3148H92.7424M93.1146 67.9059C93.1146 67.9059 93.1146 67.9059 93.1146 67.7572L92.8913 67.943H93.0587M93.6357 68.1661C93.7094 68.0777 93.7973 68.0022 93.8961 67.943L93.4868 68.2033C93.3007 68.3334 93.3007 68.7051 93.096 68.9839C92.8913 69.2628 92.9471 68.8724 92.8913 68.9839C92.7981 69.1999 92.6726 69.4004 92.5191 69.5788C92.5191 69.6903 92.1841 69.5788 92.1469 69.746C92.1097 69.9133 91.7561 70.6197 92.0166 70.3409C92.2771 70.062 92.6307 69.6159 92.9657 69.2256C93.3006 68.8353 93.3752 68.5379 93.6357 68.1661ZM94.2683 66.8278C94.5414 66.7302 94.7805 66.5559 94.9569 66.3259C94.9569 66.3259 94.8639 66.3259 94.7895 66.3259V66.4932C94.6678 66.5314 94.5561 66.5963 94.4627 66.6831C94.3693 66.77 94.2965 66.8766 94.2497 66.9951H94.3986C94.3986 66.865 94.3986 66.8092 94.3986 66.865M75.1753 77.5156L75.3055 77.6086C75.3055 77.6086 75.3055 77.5156 75.3055 77.4785M99.4975 86.9953H99.3673C99.389 87.0489 99.389 87.1089 99.3673 87.1626C99.3673 87.0696 99.3673 87.1626 99.3673 87.1626M100.93 82.7945L100.298 83.4265C99.3835 84.188 98.5253 85.0142 97.7296 85.8986C97.3575 85.5083 96.9854 85.1365 96.6504 84.7648C96.6504 84.7648 96.5201 84.7648 96.4829 84.7648C96.5028 84.7108 96.5028 84.6515 96.4829 84.5975L96.3153 84.393V84.2258L96.4456 84.3373L95.999 83.854H95.8873C95.7757 83.761 95.6268 83.6867 95.6454 83.538C96.5862 82.5636 97.6003 81.6626 98.6787 80.8428C99.0509 81.1774 99.4045 81.5491 99.7581 81.9209C100.205 82.3217 100.691 82.6766 101.21 82.9804M97.2458 79.4673C96.092 79.8205 95.3849 81.0844 94.3427 82.0324C93.0587 80.5826 91.7375 79.2815 90.3605 77.7759C89.6161 76.9394 88.9089 76.1216 88.2762 75.3037C88.2762 75.1364 88.4623 74.9691 88.5739 74.8019C88.6856 74.6346 89.2438 74.2256 89.4858 73.984C89.8309 73.6275 90.1366 73.2349 90.3976 72.813C90.0812 73.1848 89.8579 73.5007 89.4671 73.9282C89.0763 74.3558 89.4671 73.5379 89.5788 73.3335C89.6904 73.129 89.9138 73.3334 89.951 73.1661C90.1045 72.9841 90.2357 72.7844 90.3418 72.5714C90.3418 72.4598 90.5279 72.5714 90.5465 72.5714V72.4412C91.1048 73.6866 92.6122 74.4859 93.5054 75.6569C93.7796 76.0002 94.0848 76.3175 94.4173 76.6048C95.2843 77.6127 96.2101 78.5685 97.19 79.4673M88.3506 73.5751C88.259 73.7283 88.1127 73.8412 87.9412 73.8911C87.9655 73.801 88.0188 73.7214 88.0927 73.6643C88.1666 73.6072 88.2572 73.5759 88.3506 73.5751ZM91.9422 81.7908C92.3939 82.1914 92.8796 82.5521 93.3938 82.8688C93.1891 83.0733 93.0029 83.2964 92.7796 83.4822C91.0838 85.0277 89.4688 86.6593 87.9412 88.3708C86.4338 86.512 84.666 85.2109 82.9725 83.4079C82.5289 83.0028 82.0422 82.6475 81.5211 82.3484C81.7258 82.1253 81.9304 81.9209 82.1537 81.7164C83.848 80.1755 85.457 78.5436 86.9736 76.8279C88.4623 78.6866 90.2488 79.9692 91.9422 81.7908ZM85.8756 75.6569L83.4191 78.0361C82.5259 78.8354 81.5582 79.5789 80.7767 80.3038L80.0881 80.88C79.8738 80.7068 79.6502 80.5455 79.4182 80.3967C79.619 80.5821 79.8302 80.7559 80.0509 80.9171C80.0034 80.9872 79.9395 81.0446 79.8648 81.0845C79.8648 80.9915 79.8649 80.8428 79.7718 80.8242C79.5798 80.6751 79.3742 80.5444 79.1577 80.4339C79.0646 80.4339 79.1577 80.248 79.1577 80.2294C79.1577 80.2108 78.5064 80.025 78.3947 79.8577C78.2831 79.6904 78.2086 79.5788 78.1528 79.4673L77.9667 79.2629L77.7992 79.1699C77.5945 79.0584 77.4084 78.9097 77.2224 78.7982C77.2917 78.7131 77.3663 78.6324 77.4457 78.5565C78.1342 77.813 78.8413 77.0323 79.6229 76.2703C80.0453 75.7876 80.4193 75.2646 80.7394 74.7089C81.0185 74.3743 81.4094 74.1327 81.6514 73.8725C82.005 73.5234 82.3115 73.1298 82.5632 72.7015C82.2468 73.0918 82.0235 73.3892 81.6327 73.8167C81.2419 74.2442 81.6327 73.4264 81.763 73.2405C81.8933 73.0546 82.0794 73.2405 82.1166 73.0732C82.2659 72.8815 82.3966 72.6761 82.5073 72.4598C82.5073 72.4598 82.6934 72.4598 82.712 72.4598V72.3483C83.2889 73.5751 84.7777 74.4115 85.6709 75.564L85.7825 75.6755M80.479 73.4636C80.4311 73.5392 80.3686 73.6045 80.2951 73.6556C80.2216 73.7066 80.1385 73.7425 80.0509 73.761C80.0882 73.677 80.1478 73.6049 80.2233 73.5525C80.2988 73.5 80.3872 73.4693 80.479 73.4636ZM77.0548 79.1885C76.994 79.1345 76.9249 79.0906 76.8501 79.0584H76.9432L77.0548 79.1885ZM76.8129 79.1885L77.9109 80.3224C77.9109 80.3224 78.0411 80.3224 78.0597 80.3224V80.4711L78.2645 80.6755C78.2645 80.6755 78.2645 80.7871 78.2645 80.8242H78.1528L78.5994 81.3075L78.6924 81.4004C78.8413 81.4004 78.9716 81.5863 78.9716 81.7164C77.9956 82.4891 76.9699 83.197 75.9011 83.8354C75.5475 83.5008 75.1939 83.1291 74.8403 82.7573C74.3869 82.3561 73.8944 82.0011 73.3702 81.6978L74.0029 81.0658C74.9195 80.3269 75.7723 79.5124 76.5523 78.6309M77.3526 85.248C78.525 84.8949 79.3066 83.6309 80.237 82.683C81.5397 84.1328 82.8609 85.4339 84.2379 86.9581C84.9637 87.7759 85.6709 88.5938 86.3222 89.4302L86.0058 89.9135C85.7081 90.2295 85.3359 90.4898 85.094 90.7314C84.7447 91.0843 84.4386 91.4773 84.1822 91.9024C84.4985 91.5306 84.7218 91.2332 85.1126 90.8057C85.5034 90.3782 85.1126 91.1775 84.9637 91.3819C84.8149 91.5864 84.6474 91.3819 84.5915 91.5678C84.4485 91.7602 84.3239 91.9656 84.2193 92.1812C84.2193 92.2742 84.0333 92.1812 84.0146 92.1812C84.0059 92.2116 84.0059 92.2438 84.0146 92.2741C83.4378 91.0474 81.9491 90.2295 81.0558 89.0771C80.8139 88.7611 80.4604 88.4637 80.144 88.1291C79.3044 87.1028 78.39 86.1399 77.4084 85.248M86.2292 91.1403C86.3331 90.9864 86.4935 90.8796 86.6758 90.8429C86.6323 90.926 86.5687 90.9968 86.4906 91.0487C86.4126 91.1007 86.3226 91.1322 86.2292 91.1403ZM88.7042 89.0399C89.523 88.2592 90.3045 87.4786 91.1978 86.6607C92.091 85.8429 92.9657 85.1179 93.8404 84.4116C94.0823 84.2257 94.3056 84.0213 94.5289 83.8168C94.7432 83.99 94.9668 84.1513 95.1988 84.3001C94.9785 84.132 94.7486 83.9768 94.5103 83.8354L94.6963 83.6681C94.6963 83.7796 94.6963 83.8912 94.6963 83.9283C94.8847 84.0733 95.0838 84.2038 95.2918 84.3187C95.2918 84.3187 95.2918 84.5045 95.2918 84.5231C95.2918 84.5417 95.9246 84.7276 96.0362 84.9321C96.1479 85.1365 96.2224 85.1923 96.2968 85.3038C96.3493 85.3801 96.4118 85.4488 96.4829 85.5083L96.6318 85.6198C96.8365 85.7128 97.0226 85.8614 97.2273 85.973L97.004 86.2146C96.3154 86.9767 95.6082 87.7388 94.8452 88.5009C94.4215 88.9869 94.0417 89.5094 93.7101 90.0622C93.4123 90.3968 93.0402 90.657 92.7983 90.8987C92.4446 91.2524 92.1324 91.6453 91.8678 92.0697C92.1842 91.6793 92.4075 91.3819 92.7983 90.9544C93.1891 90.5269 92.7982 91.3448 92.6494 91.5492C92.5005 91.7537 92.333 91.5492 92.2771 91.7165C92.1341 91.9089 92.0095 92.1143 91.9049 92.3299C91.9049 92.4414 91.7189 92.3299 91.7003 92.3299C91.6917 92.3729 91.6917 92.4171 91.7003 92.46C91.142 91.2147 89.6347 90.3968 88.7415 89.2444C88.7586 89.1899 88.7586 89.1315 88.7415 89.0771M94.045 91.3076C94.0941 91.2292 94.1592 91.1621 94.2362 91.1108C94.3132 91.0595 94.4003 91.0252 94.4916 91.0102C94.4497 91.0944 94.3863 91.1661 94.308 91.2183C94.2296 91.2705 94.139 91.3013 94.045 91.3076ZM97.4692 85.6012L97.6552 85.7127C97.6624 85.7433 97.6624 85.7751 97.6552 85.8057H97.525L97.4692 85.6012ZM108.411 76.6792C107.425 76.6792 107.295 77.274 106.085 77.9432C106.792 77.59 105.825 78.854 104.857 79.1142C103.592 79.4302 102.791 80.7313 101.805 81.735C101.098 80.9171 100.391 80.1737 99.6651 79.4302C100.223 78.8725 100.837 78.2034 101.228 77.813C101.768 76.7535 100.744 76.5305 100.651 76.5491C99.6464 76.5491 99.5347 77.1625 98.3251 77.813C98.6415 77.6643 98.6229 77.813 98.3251 78.0919L97.7669 77.4599C96.9667 76.5677 96.2223 75.6011 95.5151 74.8204C94.2125 73.1847 92.7424 71.9951 91.57 70.3037C91.7189 70.0249 91.905 69.7646 92.0725 69.5044C91.8879 69.7258 91.6514 69.8982 91.3839 70.0063C91.5142 70.0063 91.5328 70.0063 91.3839 70.1178V69.9877C91.4318 69.8991 91.498 69.8218 91.5783 69.7608C91.6585 69.6999 91.7509 69.6569 91.8492 69.6345V69.4672C91.8492 69.4672 91.9794 69.4672 92.0166 69.4672L92.1097 69.3185C91.9349 69.3584 91.7659 69.4209 91.6072 69.5044C91.4956 69.6345 91.3653 69.7461 91.2723 69.8762C91.1792 70.0063 91.2723 69.8761 91.2723 69.7646C90.5756 68.8987 89.8035 68.0963 88.9648 67.3668C88.8532 67.2835 88.7214 67.2314 88.5829 67.2161C88.4444 67.2007 88.3043 67.2226 88.1772 67.2795C88.05 67.3363 87.9404 67.4261 87.8596 67.5395C87.7789 67.6529 87.7299 67.7858 87.7179 67.9245C87.7179 68.9468 88.2948 69.0397 88.9648 70.3037C88.6484 69.6717 89.5788 70.3037 89.9883 71.1773L89.8021 71.326V71.4189H89.6533V71.5305L89.1694 71.9765V72.0881C89.1694 72.1996 88.9834 72.3483 88.8531 72.3483H88.76L88.4064 72.6643L87.6807 73.3148L87.048 73.8911C85.875 72.7311 84.7867 71.4888 83.7913 70.1735C83.9402 69.9133 84.1263 69.6345 84.2938 69.3929C84.1063 69.6111 83.8706 69.7829 83.6053 69.8947C83.717 69.8947 83.7356 69.8947 83.6053 69.8947V69.7832C83.6521 69.6919 83.7177 69.6116 83.7979 69.5475C83.8781 69.4834 83.9711 69.437 84.0705 69.4115V69.2442C84.0705 69.2442 84.2007 69.2442 84.2379 69.2442V69.0955C84.0647 69.1405 83.8964 69.2028 83.7356 69.2814C83.6053 69.3929 83.5123 69.523 83.382 69.6345V69.5416C82.6856 68.6698 81.9134 67.8612 81.0745 67.1252C80.9617 67.0362 80.8265 66.9799 80.6838 66.9626C80.541 66.9454 80.3963 66.9678 80.2655 67.0273C80.1347 67.0869 80.0229 67.1813 79.9424 67.3002C79.8619 67.4192 79.8156 67.558 79.8089 67.7014C79.8089 68.7052 80.4231 68.8167 81.093 70.0435C80.7766 69.4115 81.7072 70.0435 82.1166 70.9171L81.9304 71.0843H81.763V71.1773V71.0658L81.2605 71.5119V71.6234C81.2605 71.7535 81.0745 71.8836 80.9442 71.865L80.5906 72.181L79.8462 72.8316C78.4319 74.0769 77.2037 75.3595 75.7894 76.6792C75.473 76.4747 75.1753 76.2889 74.8776 76.0658C74.7792 76.0028 74.7015 75.9123 74.6543 75.8056C74.7324 75.9413 74.8193 76.0717 74.9147 76.1959C74.9147 76.4004 75.3986 76.3818 75.6591 76.6048C75.9197 76.8279 75.6591 76.735 75.6591 76.7907C75.5463 76.9264 75.4147 77.0453 75.2683 77.1439C74.4123 77.9246 73.5935 78.6495 72.7375 79.3186L72.0489 79.8949C71.8346 79.7217 71.611 79.5603 71.379 79.4116C71.5798 79.597 71.791 79.7708 72.0117 79.932C71.9544 79.9928 71.8922 80.0488 71.8256 80.0993C71.8256 80.0064 71.8256 79.8577 71.714 79.8391C71.5284 79.6903 71.329 79.5595 71.1185 79.4487C71.1185 79.4487 71.1185 79.2815 71.1185 79.2443C71.1185 79.2071 70.4672 79.0584 70.3742 78.854C70.2811 78.6495 70.1881 78.5751 70.1136 78.4636L69.9275 78.2591L69.76 78.1662C69.3369 77.9215 68.9268 77.6547 68.5318 77.3669C68.7535 77.5513 68.9261 77.7876 69.0342 78.0547C69.0342 77.9246 69.0342 77.9431 69.0342 78.0547V78.2034C68.7997 78.091 68.6191 77.8905 68.5318 77.6457H68.3643C68.3643 77.6457 68.3643 77.5342 68.3643 77.4785L68.2154 77.3855C68.2605 77.5586 68.3228 77.7267 68.4015 77.8874C68.9039 78.3893 69.3692 78.8539 69.8158 79.3372C69.8158 79.3372 69.9275 79.3372 69.9833 79.3372C69.9647 79.385 69.9647 79.4381 69.9833 79.4859L70.1694 79.6904C70.1694 79.6904 70.1694 79.8019 70.1694 79.8391H70.0577L70.5043 80.3409C70.6346 80.3409 70.7649 80.5268 70.7649 80.6569C69.719 81.7671 68.5589 82.7639 67.3036 83.6309C66.4423 84.3334 65.6451 85.111 64.9216 85.9544C64.3633 86.9953 65.4055 87.2183 65.4799 87.1997C66.5034 87.1997 66.5964 86.605 67.8246 85.9358C67.0988 86.289 68.0852 85.025 69.0529 84.7648C70.3183 84.4488 71.1185 83.1291 72.1048 82.1254C72.812 82.906 73.5377 83.6867 74.2634 84.4302C73.6865 84.9878 73.091 85.657 72.7188 86.0473C72.1792 87.1068 73.2028 87.3113 73.2772 87.3113C74.3007 87.3113 74.3937 86.6979 75.6219 86.0287C75.2869 86.196 75.3055 86.0287 75.6219 85.7685C75.808 85.973 76.0127 86.1774 76.1988 86.4005C76.9803 87.2927 77.7434 88.1477 78.4505 89.0399C79.7345 90.657 81.2233 91.8652 82.3957 93.5567C82.2282 93.8169 82.042 94.0771 81.8932 94.3373C82.0877 94.1267 82.3217 93.9563 82.5818 93.8355C82.4329 93.8355 82.4516 93.8355 82.5818 93.8355V93.947C82.4841 94.1332 82.317 94.2734 82.1166 94.3373V94.5047C82.0931 94.5243 82.0634 94.5351 82.0328 94.5351C82.0021 94.5351 81.9725 94.5243 81.9491 94.5047L81.8374 94.6162C82.0199 94.5822 82.1957 94.5195 82.3584 94.4303L82.6935 94.0771V94.1701C83.3913 95.0466 84.1701 95.8556 85.0196 96.5865C85.1324 96.6704 85.2659 96.7223 85.4058 96.7368C85.5457 96.7513 85.6869 96.7278 85.8146 96.6688C85.9423 96.6098 86.0516 96.5175 86.1311 96.4016C86.2106 96.2857 86.2574 96.1505 86.2664 96.0102C86.2664 95.0065 85.6523 94.895 85.0196 93.6496C85.336 94.2816 84.4054 93.6496 83.996 92.776L84.1822 92.6087H84.3125V92.7202L84.7963 92.2741V92.1812C84.8894 92.0511 84.9824 91.921 85.1313 91.921L85.5034 91.5864L86.2292 90.9359L86.8619 90.3596C88.0343 91.5201 89.1226 92.7624 90.1185 94.0771L89.616 94.8578C89.7867 94.6299 90.0192 94.4558 90.2859 94.356C90.1557 94.356 90.1371 94.3559 90.2859 94.263L90.3791 94.3745C90.2757 94.556 90.1106 94.6945 89.9139 94.7649C89.9109 94.8206 89.9109 94.8764 89.9139 94.9322C89.9139 94.9322 89.7835 94.9322 89.7463 94.9322L89.6533 95.0623C89.8266 95.0172 89.9948 94.955 90.1557 94.8764C90.2673 94.7463 90.3977 94.6348 90.4907 94.5047C90.482 94.5413 90.482 94.5795 90.4907 94.6162C91.1825 95.4863 91.9551 96.2892 92.7983 97.014C92.9079 97.104 93.0405 97.1617 93.1811 97.1805C93.3218 97.1994 93.4649 97.1787 93.5945 97.1208C93.724 97.0628 93.8348 96.97 93.9144 96.8526C93.994 96.7352 94.0393 96.598 94.045 96.4563C94.045 95.434 93.431 95.3411 92.7983 94.1143C93.1146 94.7277 92.1842 94.1143 91.7561 93.2221L91.9422 93.0362C91.9422 93.0362 92.0353 93.0362 92.0911 93.0362V92.9433V93.0734L92.5563 92.6273C92.5563 92.6273 92.5563 92.5344 92.5563 92.5158C92.5563 92.4972 92.7238 92.2556 92.8727 92.2556L93.2449 91.921L93.9707 91.2704C95.385 90.0251 96.6318 88.7425 98.0275 87.4414C98.3252 87.6458 98.6415 87.8131 98.9393 88.0362C99.0242 88.1134 99.0991 88.2008 99.1626 88.2964C99.0695 88.1849 98.9951 88.0362 98.902 87.9061C98.809 87.776 98.4182 87.7202 98.1391 87.4971C97.86 87.2741 98.2321 87.3484 98.1391 87.2927L98.5298 86.9395C98.5298 86.9395 98.5298 86.9395 98.6415 86.9395C99.4789 86.1774 100.316 85.4525 101.172 84.7648C101.377 84.5603 101.638 84.3744 101.861 84.17C102.071 84.3492 102.295 84.5108 102.531 84.6533C102.308 84.4488 102.103 84.3001 101.898 84.1328L102.084 83.9655C102.084 84.0771 102.084 84.2072 102.177 84.2258C102.369 84.3748 102.575 84.5055 102.791 84.6161C102.884 84.6161 102.791 84.802 102.791 84.8205C102.791 84.8391 103.443 85.025 103.536 85.2295L103.796 85.6012C103.849 85.6775 103.911 85.7462 103.982 85.8057L104.15 85.9172L105.378 86.6979C105.151 86.5189 104.977 86.281 104.876 86.0101C104.876 86.1403 104.876 86.1588 104.764 86.0101V85.6942C104.881 85.7409 104.985 85.8138 105.069 85.9073C105.153 86.0008 105.214 86.1123 105.248 86.2332H105.415C105.415 86.3261 105.415 86.3633 105.415 86.4191L105.546 86.512C105.514 86.3376 105.458 86.1686 105.378 86.0101C104.876 85.5083 104.41 85.0436 103.964 84.5603C103.964 84.5603 103.833 84.5603 103.796 84.5603C103.8 84.5046 103.8 84.4487 103.796 84.393L103.592 84.1886V84.0399H103.499L103.07 83.5566C103.07 83.5566 103.07 83.5566 102.959 83.5566C102.847 83.5566 102.698 83.3893 102.717 83.2406C103.762 82.1297 104.922 81.1328 106.178 80.2666C107.05 79.5627 107.854 78.7786 108.579 77.9246C109.1 77.0138 108.076 76.7907 107.983 76.7907M74.3193 77.0881C74.3193 77.0881 74.3193 77.0881 74.1518 77.0881L74.3565 77.2926C74.3459 77.2436 74.3459 77.1929 74.3565 77.1439M99.237 87.4971C99.237 87.4971 99.237 87.4971 99.3673 87.4971L99.1626 87.2741C99.181 87.3283 99.181 87.3871 99.1626 87.4414" fill="#00A6AB"/>
<path d="M88.9238 80.3594H85.2578V84.0211H88.9238V80.3594Z" fill="#005299"/>
</svg>
