<svg width="167" height="168" viewBox="0 0 167 168" fill="none" xmlns="http://www.w3.org/2000/svg">
<path d="M166.925 84.0526C166.925 100.541 162.03 116.658 152.859 130.368C143.688 144.077 130.653 154.762 115.402 161.072C100.151 167.382 83.3699 169.033 67.1797 165.816C50.9896 162.599 36.118 154.659 24.4456 143.001C12.7732 131.342 4.82416 116.488 1.60375 100.316C-1.61667 84.1451 0.0361531 67.3831 6.35322 52.1502C12.6703 36.9172 23.3679 23.8973 37.0932 14.7371C50.8185 5.57678 66.9551 0.6875 83.4623 0.6875C105.598 0.6875 126.827 9.47058 142.479 25.1046C158.131 40.7386 166.925 61.9428 166.925 84.0526Z" fill="white"/>
<path d="M41.37 93.9232C42.5796 91.8042 44.1986 90.3916 45.0918 90.3916C47.5296 90.3916 48.9439 92.8823 48.9625 96.7299H40.8675C40.548 97.5057 40.0032 98.1681 39.3034 98.6319C38.6036 99.0957 37.7808 99.3396 36.941 99.3322C36.3164 99.3093 35.703 99.1599 35.1379 98.8931C34.5728 98.6263 34.0679 98.2477 33.6538 97.7801C33.2396 97.3126 32.9249 96.7659 32.7286 96.1732C32.5323 95.5805 32.4587 94.9541 32.512 94.3321V92.2131C32.512 91.86 32.2887 91.7299 31.4141 91.7299V91.2094H33.8519V94.425C33.8519 97.9381 35.415 98.9046 36.941 98.9046C38.467 98.9046 40.0301 97.9381 40.0301 94.425V92.1202C40.0301 91.767 40.0301 91.6555 39.3602 91.4325L41.37 91.0607V93.9232ZM47.6041 96.1537C47.6041 92.7336 46.4503 90.8934 45.2034 90.8934C43.6031 90.8934 41.4816 94.7039 41.2397 96.1537H47.6041ZM44.8871 87.8822C44.8871 88.0893 44.8048 88.2879 44.6583 88.4343C44.5117 88.5807 44.3129 88.6629 44.1056 88.6629C44.0022 88.6655 43.8994 88.647 43.8034 88.6087C43.7075 88.5704 43.6203 88.5129 43.5472 88.4399C43.4741 88.3669 43.4166 88.2799 43.3782 88.184C43.3398 88.0881 43.3213 87.9855 43.3239 87.8822C43.3239 87.6752 43.4063 87.4766 43.5529 87.3302C43.6995 87.1838 43.8983 87.1016 44.1056 87.1016C44.3129 87.1016 44.5117 87.1838 44.6583 87.3302C44.8048 87.4766 44.8871 87.6752 44.8871 87.8822Z" fill="#144221"/>
<path d="M52.4554 91.079C52.4554 90.7073 52.4554 90.6143 51.7669 90.3913L53.7767 90.0195V93.737C53.797 94.546 53.7408 95.355 53.6092 96.1534H55.8237V96.6553H53.5161C53.4091 97.4572 52.9982 98.1876 52.3681 98.6959C51.7379 99.2043 50.9367 99.4519 50.1292 99.3877H49.0312C50.0879 99.2178 51.0367 98.6433 51.676 97.786C52.3153 96.9288 52.5949 95.8564 52.4554 94.7965V91.079Z" fill="#144221"/>
<path d="M58.0406 96.1533C58.5457 96.1379 59.0438 96.0308 59.5106 95.8373C58.8785 95.0585 58.3587 94.1951 57.9662 93.2723C57.6628 92.7517 57.3205 92.2546 56.9426 91.7853L56.6262 91.3577L56.8123 91.209C57.8461 90.5478 59.0303 90.1578 60.2551 90.0752C62.116 90.0752 63.4744 91.0603 63.4744 92.7704C63.4744 94.4804 61.9672 95.1868 60.6459 95.8931C60.7697 95.9941 60.9125 96.0692 61.0659 96.1139C61.2194 96.1586 61.3804 96.172 61.5391 96.1533H65.447V96.6552H61.7252C61.1291 96.7221 60.5276 96.5915 60.0131 96.2834C59.5228 96.5677 58.9603 96.7033 58.3941 96.6738H55.5469V96.1161L58.0406 96.1533ZM57.7986 91.4321C58.2954 92.0371 58.7084 92.706 59.0268 93.421C59.342 94.1159 59.7287 94.7762 60.1807 95.3912C60.7281 95.1837 61.1992 94.8147 61.5316 94.3333C61.864 93.8519 62.0419 93.2808 62.0416 92.696C62.0416 91.5436 61.4646 90.7258 60.3295 90.7258C59.4579 90.7484 58.6064 90.9914 57.8545 91.4321" fill="#144221"/>
<path d="M65.2422 96.1535H65.8004C67.5497 96.1535 67.8847 94.9453 68.2382 93.6999C68.5918 92.4546 68.964 91.0791 71.1785 91.0791C71.9693 91.1986 72.6866 91.6094 73.1893 92.2307C73.6919 92.8521 73.9435 93.6388 73.8945 94.4361C73.8455 95.2335 73.4994 95.9836 72.9244 96.5388C72.3494 97.094 71.5872 97.4141 70.7877 97.436C70.2972 97.4396 69.8133 97.3229 69.3785 97.096C68.9437 96.8691 68.5714 96.5391 68.2941 96.1349C68.0722 96.3533 67.8066 96.5225 67.5148 96.6314C67.223 96.7403 66.9115 96.7864 66.6006 96.7669H65.2422V96.1535ZM70.9739 91.5066C70.0062 91.5066 69.6898 92.6033 69.392 93.7743C69.2576 94.3646 69.0579 94.9382 68.7965 95.4843L68.9454 95.6702C69.1532 95.9874 69.427 96.2562 69.7481 96.4583C70.0692 96.6604 70.4301 96.791 70.8063 96.8412C71.7554 96.8412 72.6672 95.726 72.6672 94.3319C72.6672 92.9379 72.1276 91.5438 71.0296 91.5066H70.9739Z" fill="#144221"/>
<path d="M35.5995 104.09C37.9629 104.09 38.4467 108.867 38.4467 112.12V112.622H31.5799L30.9844 111.897H36.5671V109.536C36.5671 106.227 36.3252 104.685 35.3389 104.685C34.6504 104.685 33.6455 105.949 32.5103 107.584L32.1754 106.079C32.6592 106.079 32.9942 105.949 33.8316 105.001C34.0364 104.731 34.297 104.508 34.5956 104.348C34.8943 104.187 35.2239 104.093 35.5622 104.071L35.5995 104.09Z" fill="#EF3837"/>
<path d="M41.8282 115.95C42.7345 115.843 43.588 115.467 44.2781 114.87C44.9681 114.274 45.4631 113.484 45.699 112.604H43.4845C42.7149 112.572 41.9855 112.252 41.4409 111.708C40.8963 111.164 40.5762 110.436 40.5442 109.667C40.5115 108.93 40.6343 108.195 40.9046 107.509C41.1748 106.822 41.5865 106.2 42.113 105.683C42.6394 105.166 43.2688 104.766 43.9604 104.507C44.6519 104.249 45.39 104.139 46.1269 104.184H47.5971V108.886C47.6095 109.904 47.566 110.922 47.4669 111.935H49.9419V112.66H47.2807C47.1241 113.681 46.586 114.606 45.7747 115.247C44.9634 115.888 43.939 116.199 42.9076 116.117H41.3444L41.8282 115.95ZM45.9223 104.797H45.7176C44.0241 104.797 42.219 106.656 42.219 109.574C42.219 110.689 42.8145 111.953 43.9124 111.953H45.885C45.8961 111.761 45.8961 111.569 45.885 111.377L45.9223 104.797Z" fill="#EF3837"/>
<path d="M52.6241 111.878H49.6094V112.584H52.6241V111.878Z" fill="#EF3837"/>
<path d="M55.2881 111.878H52.2734V112.584H55.2881V111.878Z" fill="#EF3837"/>
<path d="M54.9512 111.897H60.7759C61.7808 111.897 62.1902 111.154 62.1902 110.038V109.016C62.0043 109.513 61.6677 109.94 61.2273 110.236C60.7869 110.533 60.2647 110.685 59.7338 110.67C58.9582 110.633 58.2256 110.304 57.6835 109.748C57.1414 109.193 56.83 108.453 56.8121 107.678C56.8121 104.314 59.1383 103.05 62.3949 103.05H63.8278V110.094C63.8553 110.438 63.8059 110.784 63.683 111.106C63.5602 111.428 63.3669 111.719 63.1175 111.958C62.8681 112.196 62.5686 112.376 62.2409 112.485C61.9131 112.593 61.5653 112.627 61.2226 112.585H54.9141L54.9512 111.897ZM62.1716 103.682H61.9669C61.4682 103.669 60.9727 103.765 60.5147 103.962C60.0567 104.16 59.6471 104.454 59.3143 104.826C58.9816 105.197 58.7336 105.636 58.5875 106.112C58.4415 106.589 58.4008 107.091 58.4684 107.585C58.4684 108.7 59.0453 110.038 60.1619 110.094C61.2784 110.15 62.1716 108.7 62.1716 107.195V103.682ZM62.1716 100.299C62.1716 100.56 62.0677 100.81 61.8828 100.995C61.6978 101.18 61.4469 101.284 61.1854 101.284C60.9238 101.284 60.6729 101.18 60.488 100.995C60.303 100.81 60.199 100.56 60.199 100.299C60.199 100.169 60.2245 100.041 60.2741 99.9216C60.3237 99.8021 60.3964 99.6935 60.488 99.602C60.5796 99.5105 60.6883 99.438 60.8079 99.3885C60.9276 99.339 61.0558 99.3135 61.1854 99.3135C61.3149 99.3135 61.4431 99.339 61.5628 99.3885C61.6825 99.438 61.7912 99.5105 61.8828 99.602C61.9743 99.6935 62.0469 99.8021 62.0965 99.9216C62.1461 100.041 62.1716 100.169 62.1716 100.299Z" fill="#EF3837"/>
<path d="M80.8906 112.603H73.782C72.1444 112.603 70.9161 112.027 70.9161 110.206V106.674C70.9161 106.209 70.637 106.061 69.5391 106.061V105.41L72.6096 105.28V110.28C72.6096 111.302 73.0749 111.823 73.8937 111.897H78.9181C78.1737 110.038 77.6899 109.09 77.3736 108.384C76.9626 107.761 76.7486 107.03 76.7595 106.284C76.8646 105.639 77.2073 105.056 77.7202 104.65C78.2332 104.244 78.8794 104.045 79.5322 104.09C80.1231 104.073 80.7079 104.214 81.2257 104.499H81.449C81.4648 104.395 81.4648 104.288 81.449 104.183H82.4166V106.971H81.4862C81.3001 105.819 80.7604 104.629 79.6252 104.629C79.2596 104.63 78.9063 104.762 78.6297 105C78.353 105.239 78.1714 105.569 78.1179 105.931C78.0932 106.059 78.0932 106.192 78.1179 106.321C78.5087 107.194 79.8114 110.224 80.7419 112.548M75.6429 115.243C75.643 115.371 75.6173 115.499 75.5675 115.617C75.5177 115.736 75.4448 115.843 75.353 115.933C75.2611 116.023 75.1522 116.094 75.0327 116.141C74.9131 116.189 74.7852 116.212 74.6566 116.209C74.4607 116.209 74.2693 116.151 74.1068 116.042C73.9442 115.933 73.8178 115.778 73.7437 115.597C73.6697 115.416 73.6512 115.217 73.6908 115.025C73.7304 114.834 73.8262 114.658 73.966 114.521C74.1058 114.384 74.2834 114.292 74.4759 114.256C74.6684 114.22 74.8672 114.242 75.0471 114.32C75.227 114.397 75.3796 114.526 75.4857 114.691C75.5918 114.855 75.6466 115.047 75.6429 115.243ZM78.3971 115.243C78.3995 115.369 78.3768 115.494 78.3302 115.611C78.2836 115.729 78.2141 115.835 78.1257 115.925C78.0373 116.015 77.9319 116.087 77.8155 116.136C77.6992 116.184 77.5742 116.209 77.448 116.209C77.3084 116.229 77.1662 116.218 77.0311 116.178C76.8961 116.138 76.7712 116.069 76.665 115.976C76.5587 115.884 76.4734 115.77 76.4151 115.642C76.3567 115.514 76.3266 115.374 76.3266 115.234C76.3266 115.093 76.3567 114.954 76.4151 114.826C76.4734 114.697 76.5587 114.583 76.665 114.491C76.7712 114.398 76.8961 114.33 77.0311 114.289C77.1662 114.249 77.3084 114.238 77.448 114.258C77.5766 114.255 77.7044 114.279 77.8233 114.328C77.9421 114.377 78.0496 114.45 78.1388 114.542C78.228 114.635 78.297 114.745 78.3414 114.866C78.3859 114.986 78.4048 115.115 78.3971 115.243Z" fill="#144221"/>
<path d="M88.3027 104.09C90.666 104.09 91.1498 108.867 91.1498 112.12V112.622H84.283L83.6875 111.897H89.2703V109.536C89.2703 106.227 89.0098 104.685 88.0421 104.685C87.0744 104.685 86.3486 105.949 85.2135 107.584L84.8785 106.079C85.3437 106.079 85.6973 105.949 86.5161 105.001C86.7263 104.732 86.9907 104.511 87.292 104.35C87.5933 104.19 87.9249 104.095 88.2654 104.071L88.3027 104.09Z" fill="#144221"/>
<path d="M94.5314 115.95C95.4344 115.839 96.2837 115.462 96.9702 114.866C97.6567 114.269 98.1489 113.482 98.3835 112.604H96.1876C95.4181 112.572 94.6887 112.252 94.1441 111.708C93.5995 111.164 93.2794 110.436 93.2473 109.667C93.2147 108.93 93.3375 108.195 93.6077 107.509C93.878 106.822 94.2897 106.2 94.8161 105.683C95.3426 105.166 95.972 104.766 96.6635 104.507C97.3551 104.249 98.0932 104.139 98.8301 104.184H100.282V108.886C100.294 109.904 100.251 110.922 100.151 111.935H102.626V112.66H99.9839C99.8402 113.688 99.3103 114.623 98.5016 115.276C97.693 115.928 96.6661 116.249 95.6294 116.173H94.0475L94.5314 115.95ZM98.6254 104.797H98.4021C96.7273 104.797 94.9222 106.656 94.9222 109.574C94.9222 110.689 95.5177 111.953 96.6156 111.953H98.5882C98.5993 111.761 98.5993 111.569 98.5882 111.377L98.6254 104.797Z" fill="#144221"/>
<path d="M105.327 111.878H102.312V112.584H105.327V111.878Z" fill="#144221"/>
<path d="M108.044 111.879C108.683 111.861 109.313 111.729 109.905 111.488C109.138 110.495 108.512 109.4 108.044 108.236C107.65 107.589 107.214 106.968 106.741 106.377C106.616 106.189 106.48 106.009 106.332 105.838L106.593 105.652C107.897 104.809 109.397 104.316 110.947 104.221C113.292 104.221 115.004 105.466 115.004 107.622C115.004 109.481 113.143 110.689 111.412 111.581C111.736 111.829 112.143 111.942 112.548 111.897H117.498V112.622H112.827C112.068 112.704 111.302 112.534 110.649 112.139C110.027 112.493 109.318 112.667 108.602 112.641H104.992V111.916L108.044 111.879ZM107.839 105.949C108.457 106.715 108.97 107.559 109.365 108.459C109.773 109.335 110.266 110.169 110.836 110.949C111.514 110.679 112.095 110.208 112.5 109.601C112.905 108.994 113.117 108.278 113.106 107.548C113.106 106.098 112.38 105.039 110.966 105.039C109.863 105.073 108.788 105.386 107.839 105.949Z" fill="#144221"/>
<path d="M120.179 111.878H117.164V112.584H120.179V111.878Z" fill="#144221"/>
<path d="M119.82 111.878H120.267C121.309 111.878 121.756 111.172 121.756 110.019V106.692C121.756 106.265 121.756 106.19 120.9 105.911L123.431 105.447V109.313C123.561 110.465 124.268 111.952 125.459 111.952C126.65 111.952 126.985 111.228 126.985 110.094V105.949C126.985 105.54 126.985 105.465 126.129 105.187L128.678 104.703V108.904C128.678 110.112 129.423 111.915 130.744 111.915C132.065 111.915 132.27 111.19 132.27 110.057V105.391C132.27 104.926 132.27 104.796 131.451 104.536L133.963 104.053V110.112C133.966 110.468 133.893 110.82 133.748 111.144C133.604 111.469 133.391 111.759 133.125 111.995C132.859 112.231 132.545 112.408 132.205 112.512C131.865 112.617 131.506 112.648 131.153 112.603C130.607 112.613 130.069 112.464 129.607 112.173C129.144 111.882 128.776 111.463 128.548 110.967C128.324 111.474 127.951 111.901 127.48 112.193C127.008 112.485 126.46 112.628 125.905 112.603C125.38 112.638 124.855 112.533 124.384 112.298C123.912 112.062 123.513 111.706 123.226 111.265C122.973 111.716 122.594 112.084 122.134 112.322C121.674 112.56 121.154 112.658 120.639 112.603H119.82V111.878Z" fill="#144221"/>
<path d="M32.1715 78.1977H32.6739C32.6739 78.4951 32.6739 78.6624 32.6739 78.7182C32.6235 79.8727 33.0162 81.0029 33.7719 81.8781C34.1021 82.2577 34.5113 82.5609 34.9709 82.7664C35.4305 82.9718 35.9295 83.0746 36.433 83.0677C36.8993 83.0933 37.3653 83.011 37.7947 82.8273C38.224 82.6435 38.605 82.3632 38.908 82.0082C39.4655 81.3468 39.7748 80.5121 39.7827 79.6475C39.7787 79.3064 39.7222 78.9678 39.6152 78.6438C39.4479 78.0987 39.1619 77.5972 38.7778 77.1754L37.1774 75.3167C36.2918 74.4455 35.4824 73.5003 34.7582 72.4913C34.4171 71.9302 34.2309 71.2889 34.2185 70.6326C34.2371 69.54 34.6616 68.4933 35.4095 67.6958C35.8608 67.2329 36.4075 66.8736 37.0115 66.6425C37.6156 66.4114 38.2627 66.3142 38.908 66.3575C39.6236 66.36 40.3339 66.4793 41.0109 66.7106C41.4356 66.8609 41.871 66.979 42.3135 67.0638C42.4386 67.0709 42.5638 67.0532 42.682 67.0117C42.8001 66.9702 42.9089 66.9058 43.002 66.8221C43.1694 66.6847 43.314 66.5216 43.4301 66.3389H44.0255L42.909 71.4876H42.4624C42.4755 70.5682 42.3178 69.6544 41.9972 68.7924C41.7395 68.298 41.3394 67.892 40.8484 67.6269C40.3575 67.3619 39.7983 67.2499 39.243 67.3054C38.4953 67.2702 37.7625 67.5231 37.196 68.0117C36.9321 68.2413 36.7245 68.5282 36.589 68.8504C36.4535 69.1727 36.3938 69.5216 36.4144 69.8705C36.4055 70.382 36.5272 70.8874 36.768 71.3389C37.1678 71.9318 37.6226 72.4856 38.1264 72.9932L40.4526 75.5025C40.8811 75.9681 41.2385 76.4942 41.5133 77.0639C41.8157 77.6889 41.9625 78.3775 41.9413 79.0713C41.948 80.3985 41.4414 81.6771 40.527 82.6401C40.0573 83.1547 39.4811 83.5609 38.8384 83.8305C38.1956 84.1001 37.5018 84.2267 36.8052 84.2015C35.9592 84.1664 35.1268 83.9774 34.3488 83.6439C33.8484 83.4265 33.3235 83.2704 32.7856 83.1792C32.6658 83.1653 32.5445 83.1763 32.4292 83.2115C32.3139 83.2467 32.2072 83.3053 32.1157 83.3836C31.9599 83.5777 31.8401 83.798 31.7621 84.0342H31.2969L32.1715 78.1977Z" fill="#144221"/>
<path d="M52.907 73.0675C52.636 72.7952 52.2679 72.6415 51.8835 72.64C50.4878 72.64 49.2038 73.6809 48.0128 75.7998C47.085 77.2308 46.5404 78.8756 46.431 80.5768C46.3791 81.1089 46.5321 81.6406 46.859 82.0639C46.9982 82.2088 47.1659 82.3233 47.3517 82.4001C47.5375 82.4769 47.7373 82.5143 47.9384 82.5099C49.2038 82.5099 50.432 81.5062 51.6602 79.443C52.68 77.9512 53.272 76.2094 53.3722 74.4058C53.4155 73.9234 53.2687 73.4433 52.9629 73.0675M53.3722 72.5842C53.5777 72.7934 53.7307 73.0482 53.8188 73.3277V73.495L54.0794 72.4913C54.1048 72.4147 54.1359 72.3401 54.1724 72.2682C54.1724 72.2682 54.1725 72.2682 54.3586 72.2682L55.81 72.1009C55.852 72.0853 55.8983 72.0853 55.9403 72.1009C55.9587 72.1552 55.9587 72.214 55.9403 72.2682C55.9403 72.3797 55.9403 72.4541 55.9403 72.5284C55.9403 72.6028 55.9403 72.6771 55.9403 72.7887L54.6749 77.3054C54.4144 78.2906 54.1725 79.1642 53.9864 79.8519C53.7845 80.5849 53.6291 81.3299 53.5211 82.0824C53.5016 82.1197 53.4914 82.1612 53.4914 82.2033C53.4914 82.2453 53.5016 82.2868 53.5211 82.3241C53.5931 82.3512 53.6725 82.3512 53.7444 82.3241C53.8307 82.3383 53.9187 82.3383 54.005 82.3241L54.3399 82.101L54.5632 81.9151L54.8052 81.7107L55.1215 81.4133L55.9589 80.614L56.2566 80.8742C55.6348 81.7397 54.9029 82.5208 54.0794 83.1977C53.6444 83.5608 53.1013 83.7699 52.5348 83.7925C52.3947 83.8006 52.2548 83.7762 52.1257 83.7214C51.9966 83.6666 51.8819 83.5828 51.7905 83.4765C51.6161 83.2398 51.5245 82.9524 51.5299 82.6587C51.5451 82.2207 51.6011 81.7851 51.6974 81.3575C51.809 80.7813 51.9208 80.298 52.0324 79.9263C51.7975 80.305 51.5428 80.671 51.2694 81.0229C50.8793 81.5384 50.4366 82.0119 49.9482 82.4356C49.4027 82.929 48.7722 83.3194 48.0873 83.588C47.6809 83.7323 47.253 83.8077 46.8217 83.8111C46.4708 83.8061 46.1247 83.7293 45.8046 83.5854C45.4846 83.4415 45.1973 83.2337 44.9608 82.9746C44.6688 82.6543 44.4443 82.2786 44.3005 81.8699C44.1566 81.4612 44.0964 81.0278 44.1235 80.5954C44.2374 78.5078 45.0955 76.5298 46.5427 75.0192C47.1205 74.1687 47.8817 73.4584 48.7706 72.9405C49.6594 72.4227 50.6533 72.1103 51.6788 72.0266C52.247 71.9966 52.8054 72.1825 53.242 72.547" fill="#144221"/>
<path d="M59.8976 74.3506V74.109C59.8976 74.109 59.8976 73.9603 59.8976 73.8859C59.8976 73.8116 59.7859 73.3097 59.5626 73.2168C59.1731 73.1226 58.7719 73.085 58.3716 73.1053V72.7521L60.2325 72.3803L62.261 72.0086C62.2971 71.9958 62.3365 71.9958 62.3727 72.0086C62.3857 72.0345 62.3925 72.0632 62.3925 72.0922C62.3925 72.1213 62.3857 72.1499 62.3727 72.1759V72.3803L59.8976 80.8934C59.8976 81.1165 59.8604 81.2838 59.7859 81.3953C59.7714 81.4814 59.7714 81.5694 59.7859 81.6555C59.7799 81.8173 59.8328 81.9758 59.9348 82.1016C59.9937 82.1587 60.0638 82.2031 60.1407 82.2319C60.2175 82.2607 60.2995 82.2733 60.3814 82.2689C60.8839 82.2689 61.5166 81.8228 62.2424 80.9492C62.9852 80.0832 63.6631 79.1637 64.2707 78.1982C64.8212 77.2857 65.3063 76.3354 65.7223 75.3543C66.0014 74.7038 66.3922 73.6629 66.9133 72.2502H68.7742L66.2805 81.2094C66.2805 81.3767 66.2805 81.544 66.1689 81.6741C66.155 81.7914 66.155 81.91 66.1689 82.0273C66.1498 82.1255 66.1498 82.2265 66.1689 82.3247C66.2006 82.3622 66.2408 82.3918 66.286 82.4112C66.3312 82.4306 66.3803 82.4391 66.4294 82.4362C66.5737 82.4372 66.7131 82.3841 66.8202 82.2875C66.999 82.152 67.167 82.0029 67.3227 81.8414C67.3227 81.7485 67.5646 81.5626 67.8065 81.2466L68.495 80.4102L68.8486 80.6518C68.4984 81.24 68.0934 81.7939 67.639 82.3061C67.3736 82.6853 67.0308 83.004 66.633 83.2411C66.2352 83.4782 65.7916 83.6283 65.3315 83.6816C65.007 83.6971 64.6885 83.5911 64.4382 83.3842C64.3121 83.2626 64.2149 83.1143 64.1537 82.9503C64.0925 82.7862 64.0689 82.6106 64.0847 82.4362C64.0684 82.201 64.0684 81.965 64.0847 81.7299C64.0847 81.4696 64.1963 81.1722 64.2893 80.8377C64.3824 80.5031 64.6616 79.518 64.9035 78.6258L65.2384 77.4361H65.1454C64.3758 78.939 63.5119 80.3917 62.5587 81.7856C62.1874 82.3488 61.6997 82.8259 61.1284 83.185C60.557 83.5441 59.9153 83.7768 59.2463 83.8674C58.9767 83.8689 58.71 83.8118 58.4646 83.7001C58.2482 83.5718 58.0722 83.3852 57.957 83.1617C57.8419 82.9382 57.7921 82.6867 57.8134 82.4362C57.8018 82.2939 57.8018 82.151 57.8134 82.0087C57.8134 81.8972 57.8133 81.7485 57.9064 81.544L59.8976 74.3506Z" fill="#144221"/>
<path d="M72.6891 81.9521C72.8195 82.1486 73.001 82.306 73.2141 82.4075C73.4271 82.509 73.6638 82.5508 73.8987 82.5284C75.1083 82.5284 76.2621 81.5618 77.3787 79.6287C78.3754 78.0906 78.9349 76.311 78.9977 74.48C79.0091 74.0383 78.92 73.5997 78.7371 73.1974C78.6356 73.0218 78.484 72.8803 78.3017 72.7909C78.1195 72.7016 77.9148 72.6684 77.7136 72.6956C76.4296 72.6956 75.1828 73.7364 73.9918 75.7997C73.0472 77.2403 72.4838 78.8966 72.3541 80.6138C72.3516 81.0833 72.4736 81.5451 72.7077 81.9521M79.0163 72.6584C79.2243 72.9365 79.3587 73.2625 79.407 73.6063L80.8957 68.439C80.9094 68.3093 80.9094 68.1784 80.8957 68.0487C80.9037 67.9497 80.9037 67.8502 80.8957 67.7513C80.9112 67.6417 80.9025 67.53 80.8704 67.4241C80.8382 67.3181 80.7834 67.2205 80.7097 67.1379C80.5539 67.041 80.3717 66.9955 80.1887 67.0078H79.7792H79.2953V66.5802C80.2444 66.4687 81.5843 66.2457 83.2778 65.9297L83.3894 66.0598V66.1899L80.8957 75.2792L79.1837 81.2644C79.1837 81.4131 79.1837 81.5246 79.1837 81.6362C79.1676 81.7409 79.1676 81.8474 79.1837 81.9521C79.1837 82.2 79.2396 82.3487 79.3512 82.3982C79.437 82.4644 79.5407 82.5033 79.6489 82.5098C80.06 82.417 80.4274 82.1877 80.691 81.8592C80.9702 81.599 81.3238 81.1901 81.789 80.651L82.0681 80.9298L81.9007 81.1901C81.5423 81.6974 81.1373 82.1704 80.691 82.6027C80.0909 83.3095 79.2481 83.7669 78.3277 83.8853C78.1115 83.8871 77.8989 83.8292 77.7136 83.718C77.5331 83.6063 77.3883 83.4456 77.296 83.2547C77.2037 83.0637 77.1678 82.8505 77.1925 82.6399C77.1732 82.3614 77.1732 82.0819 77.1925 81.8034C77.1925 81.4193 77.2669 80.9918 77.4158 80.5209C76.8488 81.4281 76.1386 82.2378 75.3129 82.9187C74.6162 83.5104 73.7339 83.8393 72.8194 83.8481C72.1205 83.842 71.4521 83.5616 70.9585 83.0674C70.6584 82.7455 70.4302 82.3637 70.289 81.9471C70.1478 81.5305 70.097 81.0887 70.1396 80.651C70.2805 78.544 71.1872 76.561 72.6891 75.0748C73.2585 74.2717 73.993 73.5992 74.8434 73.1024C75.6938 72.6056 76.6407 72.2957 77.6206 72.1937C77.877 72.1722 78.135 72.2041 78.3784 72.2873C78.6218 72.3704 78.8453 72.5031 79.0348 72.677" fill="#144221"/>
<path d="M87.3315 68.9594C87.0921 68.6906 86.9598 68.3433 86.9598 67.9836C86.9598 67.6238 87.0921 67.2766 87.3315 67.0077C87.4402 66.8771 87.5769 66.7725 87.7315 66.7017C87.8861 66.631 88.0546 66.5958 88.2247 66.5988C88.3912 66.601 88.5553 66.6386 88.7061 66.7091C88.8569 66.7797 88.991 66.8814 89.0993 67.0077C89.3401 67.2796 89.4729 67.63 89.4729 67.9929C89.4729 68.3558 89.3401 68.7062 89.0993 68.978C88.9872 69.1033 88.8494 69.203 88.6952 69.2703C88.5411 69.3377 88.3744 69.3711 88.2061 69.3684C88.039 69.3699 87.8735 69.334 87.7222 69.2632C87.5708 69.1924 87.4373 69.0886 87.3315 68.9594ZM88.5225 72.1193C88.5352 72.1554 88.5352 72.1948 88.5225 72.2308L85.9544 81.2458C85.8779 81.5275 85.8158 81.8128 85.7683 82.1008C85.7472 82.2113 85.7472 82.3249 85.7683 82.4354C85.8022 82.4869 85.8497 82.528 85.9055 82.5542C85.9614 82.5805 86.0233 82.5908 86.0847 82.5841C86.3824 82.5841 86.7546 82.3425 87.2384 81.8406C87.604 81.4396 87.9458 81.0176 88.2619 80.5766L88.5782 80.8555L88.4666 81.0413C87.993 81.7046 87.4639 82.3264 86.8848 82.9001C86.4022 83.4279 85.7372 83.7533 85.0239 83.8109C84.8484 83.8118 84.6754 83.7699 84.5197 83.689C84.3641 83.608 84.2306 83.4903 84.1307 83.3462C83.8854 83.0479 83.7535 82.6727 83.7585 82.2867C83.7367 82.0704 83.7367 81.8524 83.7585 81.6361C83.7585 81.4688 83.8515 81.19 83.9446 80.8369L85.8055 74.3498V74.071C85.8147 73.9907 85.8147 73.9096 85.8055 73.8294C85.8055 73.5134 85.6938 73.3275 85.4705 73.2531C85.0375 73.2077 84.6009 73.2077 84.1679 73.2531V72.8256L85.6566 72.6398L86.587 72.4911L87.7223 72.268C87.9195 72.1995 88.1276 72.168 88.3363 72.1751" fill="#144221"/>
<path d="M94.1784 68.7735L89.7681 87.361C89.0754 90.6988 87.9428 93.9302 86.3998 96.9708C85.2646 98.941 84.0922 99.9262 82.8826 99.9076C82.5439 99.9023 82.2165 99.7846 81.9522 99.573C81.8277 99.4387 81.7321 99.2804 81.6713 99.1078C81.6105 98.9351 81.5857 98.7518 81.5986 98.5693C81.6133 98.1182 81.7013 97.6725 81.8592 97.2496C82.0547 96.8251 82.1865 96.3742 82.25 95.9113C82.2697 95.726 82.2343 95.5391 82.1482 95.3738C82.0622 95.2085 81.9293 95.0722 81.7661 94.9819C81.5108 94.7862 81.1943 94.6874 80.8729 94.7031C80.576 94.6745 80.2767 94.7248 80.0055 94.8488C79.7343 94.9728 79.5007 95.1662 79.3283 95.4094C78.9709 95.9076 78.7819 96.5066 78.7887 97.1195C78.7506 97.7009 78.8593 98.2825 79.105 98.8109C79.3008 99.2225 79.5871 99.5846 79.9425 99.8704C80.2773 100.138 80.6636 100.334 81.0776 100.447C81.4653 100.556 81.8659 100.612 82.2686 100.614C83.6336 100.631 84.9577 100.149 85.9905 99.257C87.2523 98.1943 88.3387 96.9398 89.2098 95.5395C90.2719 93.799 91.1691 91.9633 91.8896 90.0562C92.6519 87.959 93.2858 85.8175 93.7877 83.6435L97.1931 68.7735H102.553V68.0485H97.3048L98.0306 64.9444C98.2353 64.0522 98.5888 62.8998 99.0354 61.5057C99.5115 60.0906 100.103 58.7167 100.803 57.3979C101.496 56.1025 102.388 54.9234 103.446 53.9034C103.898 53.4534 104.435 53.0983 105.026 52.8589C105.617 52.6195 106.251 52.5006 106.889 52.5094C107.288 52.5122 107.68 52.6212 108.024 52.8253C108.203 52.9581 108.343 53.1373 108.429 53.3436C108.514 53.55 108.541 53.7757 108.508 53.9964C108.496 54.2461 108.439 54.4916 108.34 54.7213C108.23 54.9459 108.106 55.1632 107.968 55.3718C107.829 55.6056 107.705 55.8477 107.596 56.0968C107.471 56.3843 107.408 56.6944 107.41 57.0075C107.401 57.1956 107.432 57.3833 107.499 57.5592C107.566 57.735 107.669 57.8952 107.8 58.0299C108.168 58.3553 108.65 58.5224 109.14 58.4945C109.455 58.5295 109.772 58.4661 110.049 58.3129C110.326 58.1597 110.548 57.9244 110.685 57.6395C110.974 57.0954 111.127 56.4896 111.131 55.8737C111.146 54.9056 110.816 53.9637 110.201 53.2157C109.839 52.8043 109.404 52.4639 108.917 52.212C108.34 51.9236 107.702 51.777 107.056 51.7844C105.742 51.7899 104.454 52.1564 103.334 52.8439C102.003 53.6385 100.819 54.6572 99.8357 55.8551C98.666 57.246 97.6721 58.7755 96.8768 60.4091C95.9825 62.1852 95.2897 64.0555 94.8112 65.9853L94.1784 68.7735Z" fill="#EF3837"/>
<path d="M100.603 82.5843C100.788 82.8126 101.024 82.994 101.293 83.1135C101.561 83.233 101.854 83.2874 102.148 83.272C103.506 83.272 104.734 82.2311 105.87 80.1679C106.695 78.6587 107.16 76.9792 107.228 75.2608C107.25 74.7417 107.168 74.2235 106.986 73.7366C106.878 73.3989 106.66 73.1072 106.367 72.9083C106.073 72.7094 105.721 72.6149 105.367 72.6399C104.083 72.6399 102.873 73.6065 101.738 75.521C100.742 77.1187 100.196 78.9552 100.157 80.837C100.129 81.4613 100.313 82.0766 100.678 82.5843M108.512 73.2905C109.098 74.0585 109.406 75.0018 109.387 75.9671C109.295 77.951 108.45 79.8254 107.023 81.2088C106.397 82.001 105.608 82.6498 104.709 83.1115C103.81 83.5732 102.822 83.8371 101.813 83.8854C101.304 83.9117 100.795 83.8365 100.316 83.6642C99.8367 83.4918 99.3966 83.2258 99.0214 82.8817C98.6543 82.5088 98.3701 82.0628 98.1873 81.5728C98.0045 81.0827 97.9273 80.5597 97.9607 80.0378C98.0256 78.0368 98.8741 76.1412 100.324 74.7589C100.954 73.9809 101.743 73.3462 102.639 72.8975C103.534 72.4487 104.515 72.1961 105.516 72.1567C106.069 72.1011 106.628 72.1746 107.148 72.3714C107.668 72.5681 108.135 72.8828 108.512 73.2905Z" fill="#144221"/>
<path d="M113.088 82.5843C113.271 82.81 113.504 82.9898 113.769 83.1092C114.034 83.2286 114.324 83.2844 114.614 83.272C115.991 83.272 117.201 82.2311 118.336 80.1679C119.17 78.6621 119.635 76.9806 119.694 75.2608C119.712 74.7435 119.636 74.2272 119.471 73.7366C119.361 73.4007 119.142 73.1109 118.849 72.9124C118.556 72.714 118.205 72.6182 117.852 72.6399C116.568 72.6399 115.358 73.6065 114.13 75.521C113.129 77.1176 112.576 78.9537 112.53 80.837C112.508 81.4635 112.698 82.079 113.07 82.5843M120.885 73.2905C121.478 74.0549 121.787 75.0007 121.76 75.9671C121.676 77.9528 120.83 79.8299 119.397 81.2088C118.773 82.0037 117.984 82.6544 117.085 83.1164C116.185 83.5784 115.196 83.8407 114.186 83.8854C113.159 83.9323 112.156 83.5715 111.395 82.8817C111.031 82.5072 110.75 82.0605 110.57 81.5705C110.391 81.0805 110.317 80.5583 110.353 80.0378C110.418 78.0408 111.259 76.1478 112.697 74.7589C113.327 73.9809 114.116 73.3462 115.012 72.8975C115.907 72.4487 116.888 72.1961 117.889 72.1567C118.442 72.1011 119.001 72.1746 119.521 72.3714C120.041 72.5681 120.508 72.8828 120.885 73.2905Z" fill="#144221"/>
<path d="M125.463 81.9521C125.588 82.1486 125.766 82.3064 125.977 82.4081C126.187 82.5098 126.421 82.5515 126.654 82.5284C127.863 82.5284 129.036 81.5618 130.133 79.6287C131.13 78.0906 131.69 76.311 131.752 74.48C131.766 74.0381 131.677 73.5991 131.492 73.1974C131.389 73.0235 131.237 72.8834 131.055 72.7943C130.873 72.7051 130.669 72.6708 130.468 72.6956C129.166 72.6956 127.919 73.7364 126.747 75.7997C125.801 77.2385 125.244 78.8967 125.128 80.6138C125.111 81.085 125.234 81.5505 125.481 81.9521M131.771 72.6584C131.979 72.9365 132.114 73.2625 132.162 73.6063L133.632 68.439C133.646 68.3093 133.646 68.1784 133.632 68.0487C133.632 67.9371 133.632 67.8256 133.632 67.7513C133.632 67.6769 133.632 67.2122 133.446 67.1379C133.29 67.041 133.108 66.9955 132.925 67.0078H132.516H132.032V66.5802C132.999 66.4501 134.321 66.2457 136.014 65.9297L136.126 66.0598V66.1899L133.632 75.2606L131.92 81.2644C131.913 81.3882 131.913 81.5123 131.92 81.6362C131.912 81.7413 131.912 81.847 131.92 81.9521C131.909 82.0345 131.918 82.1184 131.947 82.1963C131.977 82.2742 132.025 82.3436 132.087 82.3982C132.175 82.4617 132.278 82.5002 132.385 82.5098C132.646 82.5098 132.981 82.2867 133.446 81.8592C133.911 81.4317 134.06 81.1901 134.525 80.6324L134.823 80.9112L134.637 81.1715C134.285 81.6893 133.879 82.169 133.427 82.6027C132.832 83.3055 131.996 83.7625 131.083 83.8853C130.827 83.8826 130.579 83.7979 130.375 83.6436C130.198 83.5288 130.056 83.3676 129.964 83.1775C129.872 82.9873 129.834 82.7757 129.854 82.5655C129.854 82.3982 129.854 82.1008 129.854 81.7291C129.854 81.3573 129.985 80.9112 130.096 80.4466C129.524 81.3496 128.814 82.1585 127.993 82.8443C127.295 83.4458 126.403 83.7758 125.481 83.7737C124.783 83.7657 124.115 83.4856 123.62 82.993C123.324 82.6727 123.097 82.2938 122.956 81.8808C122.815 81.4678 122.763 81.0299 122.801 80.5953C122.939 78.4874 123.846 76.5032 125.351 75.019C125.925 74.1961 126.672 73.5085 127.54 73.0044C128.408 72.5003 129.376 72.1919 130.375 72.1007C130.632 72.0793 130.89 72.1111 131.133 72.1943C131.377 72.2775 131.6 72.4102 131.79 72.584" fill="#144221"/>
<path d="M103.019 93.5693H103.28V93.8482C103.246 94.4886 103.467 95.1165 103.894 95.5954C104.073 95.8101 104.298 95.9818 104.552 96.0976C104.807 96.2135 105.084 96.2705 105.364 96.2645C105.624 96.2763 105.883 96.2289 106.121 96.1258C106.36 96.0228 106.572 95.8668 106.741 95.6697C107.049 95.3056 107.22 94.8454 107.225 94.3686C107.253 94.1838 107.253 93.9958 107.225 93.811C107.13 93.5084 106.971 93.2296 106.76 92.9931L105.866 92.008C105.37 91.5122 104.921 90.9708 104.527 90.3909C104.338 90.069 104.236 89.7042 104.229 89.3314C104.233 89.0009 104.305 88.6748 104.44 88.3733C104.575 88.0717 104.771 87.801 105.015 87.578C105.26 87.355 105.547 87.1844 105.86 87.0768C106.173 86.9691 106.504 86.9267 106.834 86.9522C107.225 86.9609 107.614 87.0235 107.988 87.1381C108.224 87.225 108.467 87.2934 108.714 87.3425C108.855 87.3425 108.992 87.2969 109.104 87.2124C109.19 87.1289 109.265 87.0353 109.328 86.9336H109.663L109.086 89.7961H108.825C108.835 89.2883 108.746 88.7835 108.565 88.3091C108.426 88.0309 108.206 87.8017 107.933 87.6522C107.66 87.5027 107.348 87.4401 107.039 87.4726C106.628 87.4587 106.227 87.6054 105.922 87.8816C105.779 88.0025 105.665 88.1537 105.588 88.324C105.511 88.4944 105.472 88.6797 105.476 88.8667C105.47 89.1526 105.541 89.4348 105.68 89.6845C105.9 90.0103 106.149 90.3152 106.425 90.5953L107.727 91.9894C107.957 92.2471 108.151 92.5347 108.304 92.8444C108.476 93.1906 108.559 93.5737 108.546 93.9597C108.549 94.6978 108.269 95.4091 107.765 95.9485C107.501 96.2347 107.178 96.4595 106.817 96.6073C106.457 96.755 106.069 96.822 105.68 96.8036C105.209 96.8047 104.742 96.7164 104.303 96.5433C104.028 96.4263 103.741 96.3391 103.447 96.2831C103.379 96.2749 103.311 96.2824 103.246 96.3049C103.181 96.3275 103.123 96.3645 103.075 96.4132C102.98 96.5136 102.91 96.6345 102.87 96.7664H102.461L103.019 93.5693Z" fill="#144221"/>
<path d="M111.171 87.1009H111.897H112.381L113.274 86.9336H113.385C113.398 86.9497 113.404 86.9692 113.404 86.9894C113.404 87.0095 113.398 87.029 113.385 87.0451L111.766 93.1047C112.193 92.4526 112.666 91.8314 113.181 91.2459C113.403 90.9562 113.684 90.7158 114.004 90.5398C114.324 90.3638 114.678 90.2562 115.042 90.2236C115.269 90.2195 115.492 90.2915 115.674 90.4281C115.785 90.5203 115.871 90.6377 115.926 90.7704C115.981 90.9031 116.003 91.0471 115.991 91.1901C115.997 91.3078 115.997 91.4257 115.991 91.5433C115.991 91.6734 115.991 91.8035 115.898 91.9151L114.967 95.2608C114.967 95.3537 114.967 95.4467 114.967 95.5396C114.958 95.6137 114.958 95.6886 114.967 95.7627C114.955 95.7921 114.949 95.8237 114.949 95.8556C114.949 95.8875 114.955 95.9191 114.967 95.9485C115.021 95.9703 115.081 95.9703 115.135 95.9485C115.234 95.9344 115.329 95.9008 115.416 95.8498C115.502 95.7987 115.577 95.7312 115.637 95.6511C115.767 95.521 115.991 95.2422 116.326 94.8147L116.493 94.982C116.26 95.3696 115.985 95.731 115.674 96.0601C115.355 96.4066 114.916 96.6191 114.446 96.6549C114.36 96.6595 114.273 96.6453 114.193 96.6132C114.113 96.5811 114.04 96.5319 113.981 96.469C113.912 96.4057 113.857 96.3279 113.822 96.2411C113.787 96.1543 113.771 96.0607 113.776 95.9671C113.776 95.9671 113.776 95.8556 113.776 95.7999C113.769 95.7381 113.769 95.6757 113.776 95.614L114.837 91.5247C114.837 91.5247 114.837 91.5247 114.837 91.3946C114.846 91.3579 114.846 91.3197 114.837 91.2831C114.839 91.2314 114.83 91.1799 114.811 91.1319C114.791 91.0839 114.762 91.0404 114.725 91.0043C114.645 90.9439 114.547 90.9113 114.446 90.9113C113.974 90.9988 113.554 91.2652 113.274 91.6548C112.821 92.1282 112.416 92.645 112.064 93.1976C111.863 93.5271 111.694 93.8758 111.562 94.2385C111.45 94.5731 111.227 95.3166 110.91 96.4876H109.812L112.176 88.0117C112.176 88.0117 112.176 87.9001 112.176 87.8444V87.7329C112.176 87.5284 112.176 87.4169 111.99 87.3797C111.744 87.3351 111.491 87.3351 111.245 87.3797L111.171 87.1009Z" fill="#144221"/>
<path d="M118.709 95.9492C118.81 96.0779 118.94 96.1805 119.089 96.2484C119.238 96.3164 119.401 96.3476 119.565 96.3395C120.328 96.3395 120.998 95.7633 121.593 94.6109C122.054 93.7782 122.309 92.8479 122.338 91.8971C122.352 91.6123 122.308 91.3276 122.207 91.0607C122.146 90.8747 122.026 90.714 121.864 90.6031C121.703 90.4923 121.51 90.4375 121.314 90.4473C120.607 90.4473 119.937 90.9863 119.304 92.0458C118.749 92.933 118.446 93.9549 118.43 95.0012C118.416 95.3392 118.514 95.6723 118.709 95.9492ZM123.045 90.7818C123.375 91.1988 123.546 91.7191 123.529 92.2503C123.488 93.3546 123.021 94.4005 122.226 95.1685C121.88 95.6083 121.443 95.9687 120.946 96.2253C120.448 96.4818 119.901 96.6286 119.341 96.6555C119.055 96.6779 118.767 96.6379 118.497 96.5384C118.227 96.4389 117.982 96.2821 117.779 96.079C117.575 95.8759 117.418 95.6311 117.319 95.3617C117.219 95.0922 117.179 94.8043 117.201 94.5179C117.243 93.4084 117.709 92.3571 118.504 91.5811C118.858 91.1542 119.297 90.8062 119.794 90.5597C120.291 90.3131 120.834 90.1735 121.388 90.1499C121.695 90.1093 122.008 90.1458 122.297 90.2562C122.586 90.3665 122.843 90.5472 123.045 90.7818Z" fill="#144221"/>
<path d="M132.739 92.5664C132.471 93.0258 132.173 93.4667 131.846 93.8861L130.636 95.4474C129.966 96.2653 129.594 96.6556 129.464 96.6556C129.451 96.5134 129.451 96.3703 129.464 96.2281L129.054 91.86L126.003 96.6556H125.835V94.927C125.835 94.5552 125.835 94.1463 125.742 93.7374C125.649 93.3285 125.742 92.9567 125.742 92.6593C125.717 92.1318 125.611 91.6113 125.426 91.1165C125.366 91.015 125.277 90.933 125.172 90.8802C125.066 90.8275 124.948 90.8063 124.83 90.8191H124.477V90.5217L125.035 90.4288L125.612 90.2987L126.263 90.1314C126.43 90.1314 126.579 90.8006 126.747 92.1203C126.84 92.8452 126.914 93.6816 126.989 94.611L129.743 90.2615C129.735 90.231 129.735 90.1991 129.743 90.1686C129.754 90.2112 129.754 90.256 129.743 90.2987L130.208 95.3545L130.99 94.3694L131.753 93.3842C132.021 93.0147 132.258 92.623 132.46 92.2132C132.532 92.0491 132.57 91.872 132.572 91.6928C132.58 91.6311 132.58 91.5685 132.572 91.5069C132.543 91.4355 132.499 91.3718 132.441 91.321L132.237 91.0794C132.177 91.0193 132.126 90.9504 132.088 90.8749C132.066 90.7958 132.066 90.7124 132.088 90.6333C132.097 90.5057 132.142 90.3834 132.218 90.2801C132.268 90.2112 132.336 90.1574 132.415 90.1246C132.494 90.0918 132.58 90.0813 132.665 90.0942C132.85 90.1048 133.027 90.1767 133.167 90.2987C133.251 90.3908 133.315 90.4998 133.353 90.6184C133.392 90.737 133.404 90.8625 133.39 90.9864C133.336 91.5392 133.144 92.0695 132.832 92.5292" fill="#144221"/>
<path d="M47.381 68.5877C47.5663 68.5844 47.7493 68.5466 47.9206 68.4762C48.0145 68.4189 48.0958 68.3432 48.1597 68.2538C48.2237 68.1644 48.269 68.063 48.2928 67.9557L49.5396 63.4204C49.1 63.3926 48.6589 63.4429 48.237 63.5691C47.9159 63.8051 47.6599 64.1184 47.4927 64.4799H47.3438L47.6973 63.1602H52.2194L51.8285 64.5542H51.6797V64.2568C51.695 64.0451 51.6357 63.8347 51.5122 63.662C51.309 63.5118 51.0559 63.4453 50.805 63.4761H50.3584L49.1488 67.7327C49.1427 67.8193 49.1427 67.9063 49.1488 67.9929C49.141 68.0795 49.141 68.1666 49.1488 68.2531C49.1488 68.4204 49.1488 68.5134 49.3163 68.5505C49.5126 68.5928 49.7156 68.5928 49.9118 68.5505V68.7736H47.381V68.5877Z" fill="#144221"/>
<path d="M52.6636 63.1975H53.1102H53.4081L53.9291 63.0859L52.8869 66.8034C53.1466 66.4009 53.4326 66.0159 53.743 65.651C53.8708 65.4842 54.0302 65.3441 54.2122 65.2389C54.3942 65.1336 54.5953 65.0652 54.8037 65.0376C54.9447 65.0376 55.0817 65.0833 55.1945 65.1677C55.2585 65.2262 55.3085 65.2984 55.3408 65.3789C55.373 65.4593 55.3866 65.546 55.3806 65.6324C55.3864 65.7005 55.3864 65.7689 55.3806 65.8369C55.3896 65.911 55.3896 65.9859 55.3806 66.0599L54.8224 68.0674V68.2161V68.3648C54.8137 68.4015 54.8137 68.4397 54.8224 68.4763C54.8589 68.4867 54.8975 68.4867 54.934 68.4763C55.0512 68.4493 55.156 68.3838 55.2317 68.2905L55.6412 67.7886L55.7528 67.9001C55.5993 68.1214 55.4314 68.3325 55.2504 68.5321C55.1568 68.6384 55.0426 68.7246 54.9146 68.7853C54.7866 68.846 54.6475 68.88 54.5059 68.8853C54.4542 68.8871 54.4027 68.8781 54.3546 68.8589C54.3066 68.8397 54.2631 68.8107 54.2269 68.7737C54.1874 68.7355 54.1569 68.689 54.1376 68.6375C54.1183 68.5861 54.1107 68.5311 54.1152 68.4763C54.1038 68.4464 54.1038 68.4133 54.1152 68.3834C54.1065 68.3467 54.1065 68.3085 54.1152 68.2719L54.7479 65.8183V65.6138C54.7663 65.5596 54.7663 65.5008 54.7479 65.4466C54.6932 65.4305 54.6351 65.4305 54.5804 65.4466C54.2965 65.4999 54.0436 65.6595 53.8733 65.8927C53.6085 66.184 53.3659 66.4946 53.1475 66.822C53.033 67.0188 52.9336 67.2238 52.8498 67.4354C52.8498 67.6399 52.6451 68.086 52.459 68.7923H51.7891L53.2219 63.6993C53.2148 63.6688 53.2148 63.637 53.2219 63.6064C53.2219 63.4763 53.2219 63.4019 53.0916 63.3833C52.9436 63.3603 52.793 63.3603 52.645 63.3833L52.6636 63.1975Z" fill="#144221"/>
<path d="M58.4112 66.3946C58.5535 66.2899 58.6718 66.1562 58.7584 66.0024C58.845 65.8486 58.8979 65.6781 58.9136 65.5024C58.9437 65.4246 58.9437 65.3384 58.9136 65.2607C58.8791 65.2428 58.8408 65.2334 58.8019 65.2334C58.7631 65.2334 58.7248 65.2428 58.6903 65.2607C58.4898 65.2696 58.2988 65.3485 58.1506 65.4838C57.9765 65.6392 57.8204 65.8138 57.6854 66.0042C57.5426 66.2132 57.424 66.4377 57.3318 66.6734C57.268 66.7911 57.218 66.9159 57.1829 67.0451C57.6626 66.9911 58.1157 66.7972 58.4856 66.4875M57.1272 65.9299C57.3345 65.6717 57.5943 65.4603 57.8894 65.3097C58.1845 65.1592 58.5082 65.0728 58.8392 65.0563C59.0242 65.0495 59.2067 65.1015 59.3603 65.205C59.4264 65.2577 59.478 65.3262 59.5106 65.4042C59.5431 65.4821 59.5554 65.5671 59.5463 65.6511C59.5355 65.8727 59.4638 66.0871 59.3391 66.2707C59.2143 66.4543 59.0414 66.6 58.8392 66.692C58.3829 66.9633 57.8766 67.1403 57.3505 67.2124H57.1085C57.1085 67.3239 57.1085 67.4169 57.1085 67.4912C57.1085 67.5656 57.1085 67.6399 57.1085 67.7514C57.1033 67.8594 57.1223 67.9672 57.1642 68.0669C57.206 68.1666 57.2697 68.2557 57.3505 68.3277C57.5134 68.4602 57.7172 68.5324 57.9273 68.5321C58.164 68.5196 58.394 68.4494 58.5973 68.3277L59.1741 67.8816L59.2858 67.9745C59.1331 68.1687 58.951 68.3381 58.7462 68.4764C58.3819 68.7544 57.9391 68.9105 57.4807 68.9225C57.3249 68.9236 57.1706 68.8915 57.0281 68.8284C56.8856 68.7654 56.7583 68.6728 56.6544 68.5567C56.5506 68.4407 56.4726 68.3039 56.4258 68.1554C56.379 68.007 56.3643 67.8502 56.3827 67.6957C56.3878 67.3451 56.4646 66.9994 56.6087 66.6797C56.7527 66.36 56.9608 66.0731 57.2202 65.8369" fill="#144221"/>
</svg>
