<svg width="208" height="208" viewBox="0 0 208 208" fill="none" xmlns="http://www.w3.org/2000/svg">
<path d="M208 104C208 161.438 161.438 208 104 208C46.5624 208 0 161.438 0 104C0 46.5624 46.5624 0 104 0C161.438 0 208 46.5624 208 104ZM20.8 104C20.8 149.95 58.0499 187.2 104 187.2C149.95 187.2 187.2 149.95 187.2 104C187.2 58.0499 149.95 20.8 104 20.8C58.0499 20.8 20.8 58.0499 20.8 104Z" fill="#D9E2E2"/>
<path d="M52.1513 13.8462C75.5712 0.377043 103.313 -3.44971 129.505 3.176C155.697 9.8017 178.283 26.3598 192.481 49.3451C206.679 72.3304 211.375 99.9388 205.575 126.326C199.776 152.713 183.935 175.807 161.407 190.72C138.879 205.633 111.432 211.195 84.8758 206.227C58.3196 201.258 34.739 186.151 19.1256 164.103C3.51228 142.054 -2.90825 114.795 1.22321 88.0962C5.35466 61.3971 19.7138 37.3536 41.261 21.0554L53.8088 37.6443C36.571 50.6828 25.0837 69.9177 21.7786 91.2769C18.4734 112.636 23.6098 134.443 36.1005 152.082C48.5912 169.721 67.4557 181.807 88.7006 185.781C109.946 189.756 131.903 185.307 149.926 173.376C167.948 161.446 180.621 142.97 185.26 121.861C189.9 100.751 186.143 78.6643 174.785 60.2761C163.426 41.8878 145.358 28.6414 124.404 23.3408C103.451 18.0402 81.257 21.1016 62.521 31.8769L52.1513 13.8462Z" fill="#53AE80"/>
<path d="M75.0206 115.824C74.1566 115.824 73.2686 115.716 72.3566 115.5C71.4686 115.26 70.6286 114.912 69.8366 114.456C69.0446 114 68.3486 113.472 67.7486 112.872L69.0446 110.028C69.9326 110.892 70.8926 111.552 71.9246 112.008C72.9566 112.44 74.0006 112.656 75.0566 112.656C76.1846 112.656 77.1806 112.452 78.0446 112.044C78.9086 111.636 79.6286 111.024 80.2046 110.208C80.8046 109.392 81.2486 108.384 81.5366 107.184C81.8486 105.96 82.0046 104.556 82.0046 102.972V99.912H82.3646C82.1966 101.184 81.7886 102.3 81.1406 103.26C80.5166 104.22 79.7006 104.952 78.6926 105.456C77.7086 105.96 76.5926 106.212 75.3446 106.212C73.8806 106.212 72.5726 105.864 71.4206 105.168C70.2926 104.472 69.3926 103.512 68.7206 102.288C68.0726 101.064 67.7486 99.684 67.7486 98.148C67.7486 96.516 68.0966 95.076 68.7926 93.828C69.5126 92.556 70.4846 91.572 71.7086 90.876C72.9326 90.156 74.3486 89.796 75.9566 89.796C78.0206 89.796 79.7606 90.288 81.1766 91.272C82.5926 92.232 83.6726 93.648 84.4166 95.52C85.1846 97.392 85.5686 99.636 85.5686 102.252C85.5686 105.156 85.1486 107.616 84.3086 109.632C83.4686 111.648 82.2686 113.184 80.7086 114.24C79.1486 115.296 77.2526 115.824 75.0206 115.824ZM76.2086 103.152C77.1686 103.152 78.0206 102.936 78.7646 102.504C79.5086 102.072 80.0846 101.472 80.4926 100.704C80.9246 99.912 81.1406 99 81.1406 97.968C81.1406 96.96 80.9246 96.072 80.4926 95.304C80.0846 94.512 79.5086 93.9 78.7646 93.468C78.0206 93.012 77.1686 92.784 76.2086 92.784C75.2246 92.784 74.3606 93.012 73.6166 93.468C72.8966 93.9 72.3206 94.512 71.8886 95.304C71.4806 96.072 71.2766 96.96 71.2766 97.968C71.2766 99 71.4806 99.912 71.8886 100.704C72.3206 101.472 72.8966 102.072 73.6166 102.504C74.3606 102.936 75.2246 103.152 76.2086 103.152ZM98.4426 115.824C95.5386 115.824 93.2706 115.2 91.6386 113.952C90.0306 112.704 89.2266 110.964 89.2266 108.732C89.2266 107.532 89.4666 106.476 89.9466 105.564C90.4266 104.628 91.0986 103.872 91.9626 103.296C92.8266 102.72 93.8226 102.36 94.9506 102.216V102.864C93.9186 102.648 93.0186 102.252 92.2506 101.676C91.4826 101.076 90.8826 100.344 90.4506 99.48C90.0426 98.592 89.8386 97.62 89.8386 96.564C89.8386 94.452 90.6186 92.796 92.1786 91.596C93.7386 90.396 95.8266 89.796 98.4426 89.796C101.083 89.796 103.183 90.396 104.743 91.596C106.303 92.796 107.083 94.452 107.083 96.564C107.083 97.62 106.867 98.592 106.435 99.48C106.027 100.344 105.439 101.076 104.671 101.676C103.903 102.252 103.003 102.636 101.971 102.828V102.216C103.123 102.36 104.119 102.732 104.959 103.332C105.799 103.908 106.459 104.652 106.939 105.564C107.419 106.476 107.659 107.532 107.659 108.732C107.659 110.964 106.843 112.704 105.211 113.952C103.603 115.2 101.347 115.824 98.4426 115.824ZM98.4426 112.872C100.339 112.872 101.767 112.512 102.727 111.792C103.687 111.048 104.167 109.944 104.167 108.48C104.167 107.016 103.687 105.924 102.727 105.204C101.767 104.484 100.339 104.124 98.4426 104.124C96.5706 104.124 95.1426 104.484 94.1586 105.204C93.1986 105.924 92.7186 107.016 92.7186 108.48C92.7186 109.944 93.1986 111.048 94.1586 111.792C95.1426 112.512 96.5706 112.872 98.4426 112.872ZM98.4426 101.172C100.051 101.172 101.299 100.8 102.187 100.056C103.099 99.288 103.555 98.244 103.555 96.924C103.555 95.628 103.099 94.608 102.187 93.864C101.299 93.12 100.051 92.748 98.4426 92.748C96.8346 92.748 95.5866 93.12 94.6986 93.864C93.8106 94.608 93.3666 95.628 93.3666 96.924C93.3666 98.244 93.8106 99.288 94.6986 100.056C95.5866 100.8 96.8346 101.172 98.4426 101.172ZM119.885 116.436L117.437 114.996L132.305 89.184L134.753 90.624L119.885 116.436ZM117.293 105.312C115.997 105.312 114.869 105 113.909 104.376C112.973 103.752 112.253 102.864 111.749 101.712C111.269 100.536 111.029 99.144 111.029 97.536C111.029 95.112 111.581 93.216 112.685 91.848C113.813 90.48 115.349 89.796 117.293 89.796C118.589 89.796 119.705 90.108 120.641 90.732C121.577 91.332 122.297 92.208 122.801 93.36C123.305 94.512 123.557 95.904 123.557 97.536C123.557 99.144 123.305 100.536 122.801 101.712C122.321 102.864 121.613 103.752 120.677 104.376C119.741 105 118.613 105.312 117.293 105.312ZM117.293 102.756C118.301 102.756 119.081 102.324 119.633 101.46C120.209 100.596 120.497 99.288 120.497 97.536C120.497 95.784 120.209 94.476 119.633 93.612C119.081 92.748 118.301 92.316 117.293 92.316C116.285 92.316 115.493 92.748 114.917 93.612C114.365 94.452 114.089 95.76 114.089 97.536C114.089 99.312 114.365 100.632 114.917 101.496C115.493 102.336 116.285 102.756 117.293 102.756ZM134.897 115.824C133.601 115.824 132.485 115.524 131.549 114.924C130.613 114.3 129.893 113.412 129.389 112.26C128.909 111.084 128.669 109.68 128.669 108.048C128.669 105.648 129.221 103.764 130.325 102.396C131.429 101.004 132.953 100.308 134.897 100.308C136.217 100.308 137.345 100.62 138.281 101.244C139.217 101.868 139.925 102.756 140.405 103.908C140.909 105.06 141.161 106.44 141.161 108.048C141.161 109.68 140.909 111.084 140.405 112.26C139.925 113.412 139.217 114.3 138.281 114.924C137.345 115.524 136.217 115.824 134.897 115.824ZM134.897 113.304C135.905 113.304 136.685 112.872 137.237 112.008C137.813 111.12 138.101 109.8 138.101 108.048C138.101 106.32 137.813 105.024 137.237 104.16C136.685 103.296 135.905 102.864 134.897 102.864C133.913 102.864 133.133 103.296 132.557 104.16C131.981 105 131.693 106.296 131.693 108.048C131.693 109.824 131.981 111.144 132.557 112.008C133.133 112.872 133.913 113.304 134.897 113.304Z" fill="#051226"/>
</svg>
