<svg width="208" height="208" viewBox="0 0 208 208" fill="none" xmlns="http://www.w3.org/2000/svg">
<path d="M208 104C208 161.438 161.438 208 104 208C46.5624 208 0 161.438 0 104C0 46.5624 46.5624 0 104 0C161.438 0 208 46.5624 208 104ZM20.8 104C20.8 149.95 58.0499 187.2 104 187.2C149.95 187.2 187.2 149.95 187.2 104C187.2 58.0499 149.95 20.8 104 20.8C58.0499 20.8 20.8 58.0499 20.8 104Z" fill="#D9E2E2"/>
<path d="M36.0497 25.2678C56.7166 7.43111 83.5682 -1.56423 110.809 0.223147C138.05 2.01052 163.496 14.4373 181.655 34.8215C199.814 55.2056 209.23 81.9126 207.871 109.178C206.512 136.444 194.486 162.082 174.39 180.559C154.293 199.036 127.738 208.87 100.454 207.94C73.1702 207.009 47.3465 195.387 28.556 175.584C9.76564 155.78 -0.484582 129.382 0.0175973 102.087C0.519777 74.7919 11.7341 48.7889 31.2402 29.6897L45.7922 44.5518C30.1873 59.8311 21.2158 80.6336 20.8141 102.47C20.4123 124.305 28.6125 145.424 43.6448 161.267C58.6772 177.11 79.3361 186.407 101.163 187.152C122.99 187.896 144.235 180.029 160.312 165.247C176.389 150.466 186.009 129.955 187.097 108.143C188.184 86.33 180.651 64.9645 166.124 48.6572C151.597 32.3498 131.24 22.4084 109.447 20.9785C87.6545 19.5486 66.1733 26.7449 49.6398 41.0142L36.0497 25.2678Z" fill="#00A058"/>
<path d="M119.885 116.436L117.437 114.996L132.305 89.1841L134.753 90.6241L119.885 116.436ZM117.293 105.312C115.997 105.312 114.869 105 113.909 104.376C112.973 103.752 112.253 102.864 111.749 101.712C111.269 100.536 111.029 99.1441 111.029 97.5361C111.029 95.1121 111.581 93.2161 112.685 91.8481C113.813 90.4801 115.349 89.7961 117.293 89.7961C118.589 89.7961 119.705 90.1081 120.641 90.7321C121.577 91.3321 122.297 92.2081 122.801 93.3601C123.305 94.5121 123.557 95.9041 123.557 97.5361C123.557 99.1441 123.305 100.536 122.801 101.712C122.321 102.864 121.613 103.752 120.677 104.376C119.741 105 118.613 105.312 117.293 105.312ZM117.293 102.756C118.301 102.756 119.081 102.324 119.633 101.46C120.209 100.596 120.497 99.2881 120.497 97.5361C120.497 95.7841 120.209 94.4761 119.633 93.6121C119.081 92.7481 118.301 92.3161 117.293 92.3161C116.285 92.3161 115.493 92.7481 114.917 93.6121C114.365 94.4521 114.089 95.7601 114.089 97.5361C114.089 99.3121 114.365 100.632 114.917 101.496C115.493 102.336 116.285 102.756 117.293 102.756ZM134.897 115.824C133.601 115.824 132.485 115.524 131.549 114.924C130.613 114.3 129.893 113.412 129.389 112.26C128.909 111.084 128.669 109.68 128.669 108.048C128.669 105.648 129.221 103.764 130.325 102.396C131.429 101.004 132.953 100.308 134.897 100.308C136.217 100.308 137.345 100.62 138.281 101.244C139.217 101.868 139.925 102.756 140.405 103.908C140.909 105.06 141.161 106.44 141.161 108.048C141.161 109.68 140.909 111.084 140.405 112.26C139.925 113.412 139.217 114.3 138.281 114.924C137.345 115.524 136.217 115.824 134.897 115.824ZM134.897 113.304C135.905 113.304 136.685 112.872 137.237 112.008C137.813 111.12 138.101 109.8 138.101 108.048C138.101 106.32 137.813 105.024 137.237 104.16C136.685 103.296 135.905 102.864 134.897 102.864C133.913 102.864 133.133 103.296 132.557 104.16C131.981 105 131.693 106.296 131.693 108.048C131.693 109.824 131.981 111.144 132.557 112.008C133.133 112.872 133.913 113.304 134.897 113.304Z" fill="#051226"/>
<path d="M96.6079 115.824C95.7439 115.824 94.8559 115.716 93.9439 115.5C93.0559 115.26 92.2159 114.912 91.4239 114.456C90.6319 114 89.9359 113.472 89.3359 112.872L90.6319 110.028C91.5199 110.892 92.4799 111.552 93.5119 112.008C94.5439 112.44 95.5879 112.656 96.6439 112.656C97.7719 112.656 98.7679 112.452 99.6319 112.044C100.496 111.636 101.216 111.024 101.792 110.208C102.392 109.392 102.836 108.384 103.124 107.184C103.436 105.96 103.592 104.556 103.592 102.972V99.9119H103.952C103.784 101.184 103.376 102.3 102.728 103.26C102.104 104.22 101.288 104.952 100.28 105.456C99.2959 105.96 98.1799 106.212 96.9319 106.212C95.4679 106.212 94.1599 105.864 93.0079 105.168C91.8799 104.472 90.9799 103.512 90.3079 102.288C89.6599 101.064 89.3359 99.6839 89.3359 98.1479C89.3359 96.5159 89.6839 95.0759 90.3799 93.8279C91.0999 92.5559 92.0719 91.5719 93.2959 90.8759C94.5199 90.1559 95.9359 89.7959 97.5439 89.7959C99.6079 89.7959 101.348 90.2879 102.764 91.2719C104.18 92.2319 105.26 93.6479 106.004 95.5199C106.772 97.3919 107.156 99.6359 107.156 102.252C107.156 105.156 106.736 107.616 105.896 109.632C105.056 111.648 103.856 113.184 102.296 114.24C100.736 115.296 98.8399 115.824 96.6079 115.824ZM97.7959 103.152C98.7559 103.152 99.6079 102.936 100.352 102.504C101.096 102.072 101.672 101.472 102.08 100.704C102.512 99.9119 102.728 98.9999 102.728 97.9679C102.728 96.9599 102.512 96.0719 102.08 95.3039C101.672 94.5119 101.096 93.8999 100.352 93.4679C99.6079 93.0119 98.7559 92.7839 97.7959 92.7839C96.8119 92.7839 95.9479 93.0119 95.2039 93.4679C94.4839 93.8999 93.9079 94.5119 93.4759 95.3039C93.0679 96.0719 92.8639 96.9599 92.8639 97.9679C92.8639 98.9999 93.0679 99.9119 93.4759 100.704C93.9079 101.472 94.4839 102.072 95.2039 102.504C95.9479 102.936 96.8119 103.152 97.7959 103.152Z" fill="#051226"/>
<path d="M75.022 115.824C74.158 115.824 73.27 115.716 72.358 115.5C71.47 115.26 70.63 114.912 69.838 114.456C69.046 114 68.35 113.472 67.75 112.872L69.046 110.028C69.934 110.892 70.894 111.552 71.926 112.008C72.958 112.44 74.002 112.656 75.058 112.656C76.186 112.656 77.182 112.452 78.046 112.044C78.91 111.636 79.63 111.024 80.206 110.208C80.806 109.392 81.25 108.384 81.538 107.184C81.85 105.96 82.006 104.556 82.006 102.972V99.9119H82.366C82.198 101.184 81.79 102.3 81.142 103.26C80.518 104.22 79.702 104.952 78.694 105.456C77.71 105.96 76.594 106.212 75.346 106.212C73.882 106.212 72.574 105.864 71.422 105.168C70.294 104.472 69.394 103.512 68.722 102.288C68.074 101.064 67.75 99.6839 67.75 98.1479C67.75 96.5159 68.098 95.0759 68.794 93.8279C69.514 92.5559 70.486 91.5719 71.71 90.8759C72.934 90.1559 74.35 89.7959 75.958 89.7959C78.022 89.7959 79.762 90.2879 81.178 91.2719C82.594 92.2319 83.674 93.6479 84.418 95.5199C85.186 97.3919 85.57 99.6359 85.57 102.252C85.57 105.156 85.15 107.616 84.31 109.632C83.47 111.648 82.27 113.184 80.71 114.24C79.15 115.296 77.254 115.824 75.022 115.824ZM76.21 103.152C77.17 103.152 78.022 102.936 78.766 102.504C79.51 102.072 80.086 101.472 80.494 100.704C80.926 99.9119 81.142 98.9999 81.142 97.9679C81.142 96.9599 80.926 96.0719 80.494 95.3039C80.086 94.5119 79.51 93.8999 78.766 93.4679C78.022 93.0119 77.17 92.7839 76.21 92.7839C75.226 92.7839 74.362 93.0119 73.618 93.4679C72.898 93.8999 72.322 94.5119 71.89 95.3039C71.482 96.0719 71.278 96.9599 71.278 97.9679C71.278 98.9999 71.482 99.9119 71.89 100.704C72.322 101.472 72.898 102.072 73.618 102.504C74.362 102.936 75.226 103.152 76.21 103.152Z" fill="#051226"/>
</svg>
