<svg width="53" height="48" viewBox="0 0 53 48" fill="none" xmlns="http://www.w3.org/2000/svg">
<path d="M46.034 25.4607C46.034 21.4644 37.6029 18.21 27.1146 18.21C16.6264 18.21 8.19531 21.4644 8.19531 25.4607C8.19531 29.457 16.6264 32.7283 27.1146 32.7283C37.6029 32.7283 46.034 29.4739 46.034 25.4607Z" fill="#FBEBCC"/>
<path d="M51.364 14.0791L46.103 12.1906L43.6411 17.519M13.6434 43.3855C17.2729 45.4426 21.3761 46.5178 25.548 46.505C28.609 46.5496 31.6486 45.9903 34.4932 44.8589C37.3377 43.7276 39.9313 42.0465 42.1254 39.9118C44.3196 37.7771 46.0714 35.2308 47.2805 32.4184C48.4896 29.6061 49.1323 26.5829 49.1719 23.5219C49.1749 19.9282 48.307 16.3873 46.6426 13.2023M1.33398 33.5212L6.57811 35.4098L9.1243 30.0813M39.0378 4.21477C35.4088 2.15624 31.3052 1.08094 27.1331 1.09528C20.9611 1.01418 15.0091 3.38506 10.5832 7.6876C6.15738 11.9902 3.61932 17.8728 3.52606 24.0447C3.52307 27.6384 4.39094 31.1793 6.05539 34.3643M31.2137 23.8086V34.7015C31.2137 34.7015 13.2555 36.7756 15.2284 19.1884C18.6854 18.6241 22.2321 19.1857 25.3457 20.7903M31.298 34.7859C31.298 34.7859 45.496 23.9098 31.298 12.8651C17.117 23.9098 31.3149 34.7859 31.3149 34.7859H31.298Z" stroke="#089247" stroke-width="1.5" stroke-linecap="round" stroke-linejoin="round"/>
</svg>
