<svg width="47" height="45" viewBox="0 0 47 45" fill="none" xmlns="http://www.w3.org/2000/svg">
<path d="M45.9753 22.4769C45.9753 17.8479 35.8996 14.0859 23.4685 14.0859C11.0374 14.0859 0.945312 17.8479 0.945312 22.4769C0.945312 27.1058 11.021 30.8679 23.4685 30.8679C35.9159 30.8679 45.9753 27.1222 45.9753 22.4769Z" fill="#FBEBCC"/>
<path d="M20.1289 22.4606C21.1495 23.6313 22.0483 24.9027 22.8114 26.2554C23.7432 23.726 25.3023 21.4747 27.3422 19.7127M35.7005 16.8339C35.6773 16.6123 35.5754 16.4062 35.4134 16.2532C35.2514 16.1002 35.0399 16.0102 34.8172 15.9997L30.7281 15.8198C30.4991 15.8198 29.2887 9.81689 23.5148 9.81689C17.7408 9.81689 16.5141 15.7544 16.2851 15.8198L12.1959 15.9997C11.9733 16.0102 11.7618 16.1002 11.5998 16.2532C11.4377 16.4062 11.3359 16.6123 11.3127 16.8339C11.3127 16.9975 10.9365 16.7358 12.2286 21.7409C12.8909 24.7838 14.2567 27.6293 16.2166 30.0493C18.1765 32.4694 20.6759 34.3967 23.5148 35.6768C26.3541 34.3762 28.8485 32.4274 30.7973 29.9871C32.7462 27.5468 34.0951 24.6831 34.7355 21.6264C36.0276 16.7194 35.7005 16.9975 35.7005 16.8339Z" stroke="#089247" stroke-width="1.5" stroke-linecap="round" stroke-linejoin="round"/>
<path d="M12.9033 43.7242H1.35547V32.5035M45.6331 32.5035V43.7242H34.0689M34.0689 1.19678H45.6494V12.4338M1.35547 12.4665V1.22947H12.936" stroke="#089247" stroke-width="1.5" stroke-linecap="round" stroke-linejoin="round"/>
</svg>
