<svg width="46" height="41" viewBox="0 0 46 41" fill="none" xmlns="http://www.w3.org/2000/svg">
<g clip-path="url(#clip0_177_419)">
<path d="M23.2245 25.8572V30.7034M23.2245 25.8572L29.5991 16.6494M23.2245 25.8572L19.9067 21.0855L17.9309 18.2896M12.4509 32.0082C15.6569 30.4052 17.3345 29.4732 24.1937 31.0016C25.7943 31.5503 27.4906 31.764 29.1772 31.6293C30.8639 31.4946 32.5048 31.0145 33.998 30.2188M29.2263 19.5198H27.5861M27.9589 20.9737L26.4304 21.1601M17.9309 18.2896L14.3894 13.2197M17.9309 18.2896L14.203 17.544M16.5143 20.4145L20.0185 21.0855M19.6085 24.2915C16.8051 23.6381 14.3616 21.929 12.7865 19.5198C11.9827 18.0037 11.4896 16.3424 11.336 14.6333C11.1823 12.9242 11.3713 11.2016 11.8918 9.56641C13.6219 9.65126 15.3177 10.0808 16.8797 10.8297C18.4417 11.5787 19.8383 12.6321 20.9878 13.928C22.6336 16.2 23.3654 19.0075 23.0381 21.7938M23.56 22.1666C23.5439 20.5274 24.0106 18.9198 24.902 17.544C26.5605 15.6449 28.8523 14.4129 31.3512 14.0771C31.886 16.5348 31.5153 19.103 30.3074 21.3092C29.3987 22.4994 28.1891 23.4259 26.8032 23.9933" stroke="#DFA21C" stroke-width="1.2" stroke-linecap="round" stroke-linejoin="round"/>
<path d="M44.7341 26.3048L42.1992 22.2042L38.2476 25.0001M3.72758 24.0308C4.50619 28.6689 6.95066 32.8634 10.6022 35.8272C14.2538 38.7909 18.8615 40.3202 23.5605 40.1281C28.2595 39.9359 32.7269 38.0355 36.1243 34.7834C39.5217 31.5314 41.6155 27.1513 42.0128 22.4651M0.708008 15.4567L3.20568 19.5201L7.15722 16.7242M41.6773 17.6935C40.8987 13.0554 38.4542 8.86089 34.8026 5.89712C31.151 2.93334 26.5434 1.40405 21.8443 1.59622C17.1453 1.78839 12.6779 3.68882 9.28054 6.94086C5.88316 10.1929 3.78936 14.573 3.39207 19.2592" stroke="#DFA21C" stroke-width="1.2" stroke-linecap="round" stroke-linejoin="round"/>
</g>
<defs>
<clipPath id="clip0_177_419">
<rect width="45.2563" height="40" fill="white" transform="translate(0 0.880859)"/>
</clipPath>
</defs>
</svg>
