<svg width="27" height="33" viewBox="0 0 27 33" fill="none" xmlns="http://www.w3.org/2000/svg">
<g clip-path="url(#clip0_117_168)">
<path d="M13.4991 33.0451C13.2944 33.0456 13.0972 32.9661 12.9476 32.8228C12.7979 32.6796 12.707 32.4833 12.6934 32.2738V0.81637C12.6934 0.597201 12.7783 0.387009 12.9294 0.232033C13.0805 0.0770573 13.2854 -0.0100072 13.4991 -0.0100072C13.6026 -0.0102783 13.705 0.0113419 13.7999 0.0535013C13.8949 0.0956607 13.9803 0.157453 14.0509 0.235014C14.1215 0.312574 14.1757 0.404236 14.2102 0.504267C14.2446 0.604298 14.2586 0.710547 14.2512 0.81637V32.2187C14.2586 32.3245 14.2446 32.4308 14.2102 32.5308C14.1757 32.6308 14.1215 32.7225 14.0509 32.8001C13.9803 32.8776 13.8949 32.9394 13.7999 32.9816C13.705 33.0237 13.6026 33.0454 13.4991 33.0451Z" fill="#DFA21C"/>
<path d="M13.5002 33.0452C13.3104 33.1219 13.0992 33.1219 12.9093 33.0452C12.8379 32.9733 12.7811 32.8876 12.7423 32.793C12.7036 32.6984 12.6836 32.5969 12.6836 32.4942C12.6836 32.3916 12.7036 32.2901 12.7423 32.1955C12.7811 32.1009 12.8379 32.0151 12.9093 31.9433L25.1573 19.4926C25.3079 19.3412 25.5104 19.2563 25.7213 19.2563C25.9322 19.2563 26.1347 19.3412 26.2854 19.4926C26.3568 19.5644 26.4136 19.6501 26.4524 19.7447C26.4911 19.8393 26.5111 19.9409 26.5111 20.0435C26.5111 20.1461 26.4911 20.2477 26.4524 20.3423C26.4136 20.4369 26.3568 20.5226 26.2854 20.5944L14.0374 33.0452C13.8645 33.113 13.6732 33.113 13.5002 33.0452Z" fill="#DFA21C"/>
<path d="M13.5001 33.0452C13.415 33.0815 13.3237 33.1003 13.2315 33.1003C13.1393 33.1003 13.048 33.0815 12.9629 33.0452L0.50011 20.5944C0.367974 20.4429 0.294922 20.2468 0.294922 20.0435C0.294922 19.8402 0.367974 19.6441 0.50011 19.4926C0.650735 19.3412 0.853243 19.2563 1.06416 19.2563C1.27508 19.2563 1.47758 19.3412 1.62821 19.4926L14.0373 31.6679C14.1162 31.7351 14.1797 31.8193 14.2233 31.9145C14.2668 32.0097 14.2894 32.1136 14.2894 32.2188C14.2894 32.324 14.2668 32.4279 14.2233 32.5231C14.1797 32.6183 14.1162 32.7025 14.0373 32.7697C13.9522 32.8061 13.8609 32.8248 13.7687 32.8248C13.6765 32.8248 13.5852 32.8061 13.5001 32.7697" fill="#DFA21C"/>
</g>
<defs>
<clipPath id="clip0_117_168">
<rect width="26" height="33" fill="white" transform="translate(0.5 -0.0100098)"/>
</clipPath>
</defs>
</svg>
