<svg width="47" height="72" viewBox="0 0 47 72" fill="none" xmlns="http://www.w3.org/2000/svg">
<path d="M42.1012 23.5861C42.1012 19.5338 33.5881 16.2478 22.9978 16.2478C12.4076 16.2478 3.89453 19.5338 3.89453 23.5861C3.89453 27.6383 12.4076 30.9073 22.9978 30.9073C33.5881 30.9073 42.1012 27.6042 42.1012 23.5861Z" fill="#FBEBCC"/>
<path d="M39.2911 23.0243C39.2944 26.1466 38.3716 29.1998 36.6394 31.7976C34.9071 34.3954 32.4433 36.421 29.5596 37.6182C26.6759 38.8154 23.5019 39.1304 20.4391 38.5233C17.3764 37.9162 14.5625 36.4144 12.3534 34.2077C10.1444 32.0011 8.63951 29.1888 8.02913 26.1267C7.41875 23.0646 7.73032 19.8902 8.92441 17.0052C10.1185 14.1203 12.1415 11.6542 14.7374 9.9192C17.3333 8.18417 20.3855 7.25807 23.5078 7.25807C25.5797 7.25583 27.6317 7.66198 29.5465 8.45331C31.4613 9.24463 33.2014 10.4056 34.6672 11.8699C36.133 13.3341 37.2959 15.0729 38.0893 16.9869C38.8827 18.9008 39.2911 20.9524 39.2911 23.0243Z" stroke="#089247" stroke-width="1.5" stroke-linecap="round" stroke-linejoin="round"/>
<path d="M34.0307 44.6303L42.2203 62.0991H35.1204L30.5403 67.4794L23.5596 52.5986M25.9603 47.4907L14.8593 71.0378L10.2792 65.6576H3.17934L13.0204 44.6303M29.9104 18.989L22.0102 26.838L17.9069 22.7517M46.0341 22.922C46.0341 24.6246 44.3315 26.0037 43.9569 27.5531C43.5823 29.1025 44.5018 31.1967 43.8037 32.661C43.1056 34.1252 40.9092 34.6871 39.9047 35.947C38.9002 37.2069 38.8321 39.4544 37.5551 40.4589C36.2781 41.4635 34.1499 41.0378 32.6175 41.7359C31.0852 42.434 30.1317 44.426 28.5313 44.7836C26.9308 45.1411 25.126 43.796 23.5085 43.796C21.8911 43.796 20.1033 45.1411 18.5029 44.7836C16.9024 44.426 15.8638 42.434 14.4166 41.7359C12.9694 41.0378 10.7389 41.4635 9.47901 40.4589C8.21908 39.4544 8.13395 37.2069 7.12941 35.947C6.12486 34.6871 3.92849 34.0741 3.23042 32.6099C2.53235 31.1456 3.43474 29.2047 3.07719 27.502C2.71964 25.7994 1 24.5565 1 22.905C1 21.2534 2.70261 19.8062 3.07719 18.2569C3.45176 16.7075 2.53235 14.6133 3.23042 13.149C3.92849 11.6848 6.10784 11.157 7.12941 9.89702C8.15097 8.63709 8.20205 6.38964 9.47901 5.47023C10.756 4.55082 12.8842 4.89134 14.4166 4.19327C15.9489 3.4952 16.9024 1.41801 18.5029 1.06046C20.1033 0.702911 21.9081 2.04798 23.5085 2.04798C25.109 2.04798 26.9138 0.702911 28.5313 1.06046C30.1487 1.41801 31.1703 3.41007 32.6175 4.10814C34.0647 4.80621 36.2952 4.38056 37.5551 5.3851C38.815 6.38964 38.8831 8.63709 39.9047 9.89702C40.9263 11.157 43.0886 11.7188 43.8037 13.1831C44.5188 14.6473 43.5994 16.5883 43.9569 18.2909C44.3145 19.9935 46.0341 21.2364 46.0341 22.905V22.922Z" stroke="#089247" stroke-width="1.5" stroke-linecap="round" stroke-linejoin="round"/>
</svg>
