<svg width="35" height="15" viewBox="0 0 35 15" fill="none" xmlns="http://www.w3.org/2000/svg">
<mask id="mask0_157_1007" style="mask-type:luminance" maskUnits="userSpaceOnUse" x="0" y="0" width="35" height="15">
<path d="M34.8 0H0V14.5H34.8V0Z" fill="white"/>
</mask>
<g mask="url(#mask0_157_1007)">
<path d="M5.3 10H2.3C2.1 10 2 10.1 2 10.3V10.7C2 10.8 2.1 10.9 2.2 10.9H3.3V14.3C3.3 14.4 3.4 14.5 3.5 14.5H4C4.1 14.5 4.2 14.4 4.2 14.3V10.9H5.3C5.4 10.9 5.5 10.8 5.5 10.7V10.3C5.5 10.1 5.4 10 5.3 10Z" fill="#036738"/>
<path d="M6.99961 12.1V12C6.99961 11.3 7.39961 10.9 7.89961 10.9C8.59961 10.9 8.79961 11.5 8.79961 12V12.1C8.49961 12.2 8.19961 12.3 7.89961 12.3C7.59961 12.3 7.29961 12.2 6.99961 12.1ZM7.89961 10C6.69961 10 6.09961 11 6.09961 12V14.3C6.09961 14.4 6.19961 14.5 6.29961 14.5H6.79961C6.89961 14.5 6.99961 14.4 6.99961 14.3V13C7.29961 13.1 7.59961 13.2 7.89961 13.2C8.19961 13.2 8.49961 13.1 8.79961 13.1V14.4C8.79961 14.5 8.89961 14.6 8.99961 14.6H9.49961C9.59961 14.6 9.69961 14.5 9.69961 14.4V12.1C9.69961 11 9.09961 10 7.89961 10Z" fill="#036738"/>
<path d="M25.1998 12.1V12C25.1998 11.3 25.5998 10.9 26.0998 10.9C26.7998 10.9 26.9998 11.5 26.9998 12V12.1C26.6998 12.2 26.3998 12.3 26.0998 12.3C25.7998 12.3 25.4998 12.2 25.1998 12.1ZM26.0998 10C24.8998 10 24.2998 11 24.2998 12V14.3C24.2998 14.4 24.3998 14.5 24.4998 14.5H24.9998C25.0998 14.5 25.1998 14.4 25.1998 14.3V13C25.4998 13.1 25.7998 13.2 26.0998 13.2C26.3998 13.2 26.6998 13.1 26.9998 13.1V14.4C26.9998 14.5 27.0998 14.6 27.1998 14.6H27.6998C27.7998 14.6 27.8998 14.5 27.8998 14.4V12.1C27.8998 11 27.2998 10 26.0998 10Z" fill="#036738"/>
<path d="M14.6996 10H14.2996C14.1996 10 14.0996 10.1 14.0996 10.2V12.9L11.8996 10.1C11.8996 10.1 11.7996 10 11.6996 10H11.2996C11.1996 10 11.0996 10.1 11.0996 10.2V14.2C11.0996 14.3 11.1996 14.4 11.2996 14.4H11.6996C11.7996 14.4 11.8996 14.3 11.8996 14.2V11.5L14.0996 14.3C14.0996 14.3 14.1996 14.4 14.2996 14.4H14.6996C14.7996 14.4 14.8996 14.3 14.8996 14.2V10.2C14.8996 10.1 14.7996 10 14.6996 10Z" fill="#036738"/>
<path d="M20.5004 10H20.0004C19.9004 10 19.8004 10 19.8004 10.1L18.5004 12.3L17.2004 10.1C17.2004 10 17.1004 10 17.0004 10H16.6004C16.5004 10 16.4004 10.1 16.4004 10.2V14.2C16.4004 14.3 16.5004 14.4 16.6004 14.4H17.0004C17.1004 14.4 17.2004 14.3 17.2004 14.2V11.8L18.1004 13.3C18.1004 13.3 18.2004 13.4 18.3004 13.4H18.6004C18.7004 13.4 18.8004 13.3 18.8004 13.3L19.7004 11.8V14.2C19.7004 14.3 19.8004 14.4 19.9004 14.4H20.3004C20.4004 14.4 20.5004 14.3 20.5004 14.2V10.2C20.7004 10.1 20.6004 10 20.5004 10Z" fill="#036738"/>
<path d="M22.7 10H22.2C22.1 10 22 10.1 22 10.2V14.2C22 14.3 22.1 14.4 22.2 14.4H22.7C22.8 14.4 22.9 14.3 22.9 14.2V10.2C23 10.1 22.9 10 22.7 10Z" fill="#036738"/>
<path d="M32.7002 10H32.2002C32.1002 10 32.0002 10.1 32.0002 10.2V11.8H30.1002V10.2C30.1002 10.1 30.0002 10 29.9002 10H29.4002C29.3002 10 29.2002 10.1 29.2002 10.2V14.2C29.2002 14.3 29.3002 14.4 29.4002 14.4H29.9002C30.0002 14.4 30.1002 14.3 30.1002 14.2V12.6H32.0002V14.2C32.0002 14.3 32.1002 14.4 32.2002 14.4H32.7002C32.8002 14.4 32.9002 14.3 32.9002 14.2V10.2C32.9002 10.1 32.8002 10 32.7002 10Z" fill="#036738"/>
<path d="M2.7 1.09969C2.7 1.39969 2.5 1.69969 2.1 1.69969C1.8 1.69969 1.5 1.49969 1.5 1.09969C1.5 0.799693 1.7 0.599693 2.1 0.599693C2.4 0.499693 2.7 0.799693 2.7 1.09969Z" fill="#036738"/>
<path d="M4.1 1.09969C4.1 1.39969 3.9 1.69969 3.5 1.69969C3.2 1.59969 3 1.39969 3 1.09969C3 0.799693 3.2 0.599693 3.6 0.599693C3.8 0.499693 4.1 0.799693 4.1 1.09969Z" fill="#036738"/>
<path d="M27.7 1.09969C27.7 1.39969 27.5 1.69969 27.1 1.69969C26.8 1.69969 26.5 1.49969 26.5 1.09969C26.5 0.799693 26.7 0.599693 27.1 0.599693C27.5 0.499693 27.7 0.799693 27.7 1.09969Z" fill="#036738"/>
<path d="M23.9002 1.09969C23.9002 1.39969 23.7002 1.69969 23.3002 1.69969C23.0002 1.69969 22.7002 1.49969 22.7002 1.09969C22.7002 0.799693 22.9002 0.599693 23.3002 0.599693C23.6002 0.499693 23.9002 0.799693 23.9002 1.09969Z" fill="#036738"/>
<path d="M29.2 1.09969C29.2 1.39969 29 1.69969 28.6 1.69969C28.3 1.69969 28 1.49969 28 1.09969C28 0.799693 28.2 0.599693 28.6 0.599693C28.9 0.499693 29.2 0.799693 29.2 1.09969Z" fill="#036738"/>
<path d="M34.6002 0H33.8002C33.7002 0 33.7002 -9.68575e-08 33.7002 0.0999999V7.7C33.7002 7.8 33.7002 7.8 33.8002 7.8H34.6002C34.7002 7.8 34.7002 7.8 34.7002 7.7V0.0999999C34.8002 -9.68575e-08 34.7002 0 34.6002 0Z" fill="#036738"/>
<path d="M8.89981 8.2002C8.59981 8.2002 8.2998 8.4002 8.2998 8.8002C8.2998 9.2002 8.49981 9.4002 8.89981 9.4002C9.19981 9.4002 9.4998 9.2002 9.4998 8.8002C9.4998 8.4002 9.19981 8.2002 8.89981 8.2002Z" fill="#036738"/>
<path d="M10.3002 8.2002C10.0002 8.2002 9.7002 8.4002 9.7002 8.8002C9.7002 9.2002 9.9002 9.4002 10.3002 9.4002C10.6002 9.4002 10.9002 9.2002 10.9002 8.8002C10.9002 8.4002 10.6002 8.2002 10.3002 8.2002Z" fill="#036738"/>
<path d="M16.5 6.9C15.5 6.9 14.7 6.1 14.7 5.1C14.7 4.1 15.5 3.3 16.5 3.3C17.5 3.3 18.2 4.1 18.2 5.1C18.2 6.1 17.5 6.9 16.5 6.9ZM2.8 6.9C1.8 6.9 1.1 6.1 1.1 5.1C1.1 4.1 1.9 3.3 2.8 3.3C3.8 3.3 4.6 4.1 4.6 5.1C4.5 6.1 3.8 6.9 2.8 6.9ZM32.8 0H32C31.9 0 31.9 -9.68575e-08 31.9 0.0999999V5.1C31.9 6.1 31.1 6.9 30.2 6.9C29.2 6.9 28.5 6.1 28.5 5.1V2.2C28.5 2.1 28.5 2.1 28.4 2.1H27.6C27.5 2.1 27.5 2.1 27.5 2.2V5.1C27.5 6.1 26.7 6.9 25.8 6.9C24.8 6.9 24.1 6.1 24.1 5.2V2.2C24.1 2.1 24.1 2.1 24 2.1H23.2C23.1 2.1 23.1 2.1 23.1 2.2V5.1C23.1 6.1 22.3 6.8 21.4 6.8C20.4 6.8 19.7 6 19.7 5C19.7 3.5 18.4 2.2 16.9 2.2C15.4 2.2 14.1 3.4 14.1 5C14.1 6 13.3 6.8 12.4 6.8C11.4 6.8 10.7 6 10.7 5V2.2C10.7 2.1 10.7 2.1 10.6 2.1H9.2C9.1 2.1 9.1 2.1 9.1 2.2V5.1C9.1 6.1 8.3 6.9 7.4 6.9C6.4 6.9 5.7 6.1 5.7 5.2C5.7 3.7 4.4 2.4 2.9 2.4C1.3 2.3 0 3.6 0 5.1C0 6.6 1.3 7.9 2.8 7.9C3.7 7.9 4.6 7.4 5.1 6.7C5.6 7.4 6.4 7.9 7.4 7.9C8.4 7.9 9.2 7.4 9.7 6.7C10.2 7.4 11 7.9 12 7.9C13 7.9 13.8 7.4 14.3 6.7C14.8 7.4 15.6 7.9 16.6 7.9C17.5 7.9 18.4 7.4 18.9 6.7C19.4 7.4 20.2 7.9 21.2 7.9C22.1 7.9 23 7.4 23.5 6.7C24 7.4 24.8 7.9 25.8 7.9C26.7 7.9 27.6 7.4 28.1 6.7C28.6 7.4 29.4 7.9 30.4 7.9C31.9 7.9 33.2 6.7 33.2 5.2V0.2C33 0.1 32.9 0 32.8 0Z" fill="#036738"/>
</g>
</svg>
