<svg width="43" height="28" viewBox="0 0 43 28" fill="none" xmlns="http://www.w3.org/2000/svg">
<g clip-path="url(#clip0_117_201)">
<path d="M1.70615 26.3064H41.521V1.69355H1.70615V26.3064ZM42.1466 28.2258H0.852976C0.718939 28.2306 0.58564 28.2041 0.463896 28.1482C0.342152 28.0923 0.235393 28.0088 0.152283 27.9043C0.0691726 27.7998 0.0120531 27.6773 -0.0144403 27.5469C-0.0409336 27.4164 -0.0360545 27.2815 -0.000198914 27.1532V0.846774C-0.000198914 0.622196 0.0896889 0.406815 0.24969 0.248014C0.409691 0.0892135 0.6267 0 0.852976 0L42.1466 0C42.3729 0 42.5899 0.0892135 42.7499 0.248014C42.9099 0.406815 42.9998 0.622196 42.9998 0.846774V27.1532C43.0357 27.2815 43.0405 27.4164 43.014 27.5469C42.9876 27.6773 42.9304 27.7998 42.8473 27.9043C42.7642 28.0088 42.6575 28.0923 42.5357 28.1482C42.414 28.2041 42.2807 28.2306 42.1466 28.2258Z" fill="#DFA21C"/>
<path d="M21.4996 14.8467C21.3533 14.9033 21.1909 14.9033 21.0446 14.8467L0.397777 1.58053C0.190255 1.47195 0.032995 1.28803 -0.0411892 1.06715C-0.115373 0.846265 -0.10075 0.605482 -0.000371188 0.395042C0.0530281 0.278041 0.130956 0.173688 0.228213 0.0889494C0.32547 0.00421038 0.439819 -0.0589663 0.563628 -0.0963647C0.687437 -0.133763 0.817859 -0.144523 0.946191 -0.127926C1.07452 -0.111329 1.19781 -0.0677578 1.30783 -0.000119105L21.9547 13.3225C22.0947 13.426 22.1994 13.5697 22.2546 13.7342C22.3098 13.8987 22.3127 14.076 22.2631 14.2422C22.2135 14.4084 22.1137 14.5555 21.9771 14.6636C21.8406 14.7717 21.6739 14.8356 21.4996 14.8467Z" fill="#DFA21C"/>
<path d="M21.4998 14.8467C21.3255 14.8356 21.1588 14.7717 21.0223 14.6636C20.8858 14.5555 20.7859 14.4084 20.7363 14.2422C20.6867 14.076 20.6897 13.8987 20.7448 13.7343C20.8 13.5698 20.9047 13.4261 21.0448 13.3225L41.6916 -4.59552e-05C41.8903 -0.109476 42.123 -0.141192 42.344 -0.0889614C42.565 -0.0367305 42.7584 0.09567 42.886 0.282212C43.0301 0.446591 43.1094 0.657102 43.1094 0.874954C43.1094 1.09281 43.0301 1.30332 42.886 1.4677L21.9548 14.7338C21.8085 14.7905 21.6461 14.7905 21.4998 14.7338" fill="#DFA21C"/>
</g>
<defs>
<clipPath id="clip0_117_201">
<rect width="43" height="28" fill="white"/>
</clipPath>
</defs>
</svg>
