<svg width="121" height="121" viewBox="0 0 121 121" fill="none" xmlns="http://www.w3.org/2000/svg">
<g opacity="0.64">
<mask id="mask0_73_112" style="mask-type:luminance" maskUnits="userSpaceOnUse" x="14" y="72" width="93" height="39">
<path d="M106.051 72.8147H14.7266V110.36H106.051V72.8147Z" fill="white"/>
</mask>
<g mask="url(#mask0_73_112)">
<path d="M104.019 91.5876C104.019 82.3434 84.4743 74.8464 60.3987 74.8464C36.3231 74.8464 16.7578 82.3434 16.7578 91.5876C16.7578 100.832 36.3027 108.329 60.3987 108.329C84.4946 108.329 104.019 100.832 104.019 91.5876Z" fill="#FBEBCC"/>
</g>
</g>
<path d="M64.3599 109.852C64.3599 110.143 64.2443 110.423 64.0385 110.628C63.8328 110.834 63.5537 110.95 63.2627 110.95H56.9645C56.6735 110.95 56.3944 110.834 56.1887 110.628C55.9829 110.423 55.8674 110.143 55.8674 109.852C55.8674 109.562 55.9829 109.282 56.1887 109.077C56.3944 108.871 56.6735 108.755 56.9645 108.755H63.2831C63.574 108.755 63.8531 108.871 64.0588 109.077C64.2646 109.282 64.3802 109.562 64.3802 109.852M64.3802 101.197C64.3802 101.488 64.2646 101.768 64.0588 101.973C63.8531 102.179 63.574 102.295 63.2831 102.295H56.9645C56.6735 102.295 56.3944 102.179 56.1887 101.973C55.9829 101.768 55.8674 101.488 55.8674 101.197C55.8674 100.907 55.9829 100.627 56.1887 100.422C56.3944 100.216 56.6735 100.1 56.9645 100.1H63.2831C63.4271 100.1 63.5698 100.129 63.7029 100.184C63.836 100.239 63.957 100.32 64.0588 100.422C64.1607 100.524 64.2415 100.645 64.2967 100.778C64.3518 100.911 64.3802 101.053 64.3802 101.197ZM64.3802 92.5221C64.3802 92.8131 64.2646 93.0921 64.0588 93.2979C63.8531 93.5036 63.574 93.6192 63.2831 93.6192H56.9645C56.8093 93.6405 56.6513 93.6283 56.5012 93.5834C56.3511 93.5385 56.2124 93.462 56.0943 93.359C55.9763 93.256 55.8816 93.129 55.8168 92.9864C55.752 92.8438 55.7184 92.6889 55.7184 92.5323C55.7184 92.3756 55.752 92.2208 55.8168 92.0782C55.8816 91.9356 55.9763 91.8085 56.0943 91.7055C56.2124 91.6026 56.3511 91.526 56.5012 91.4811C56.6513 91.4363 56.8093 91.424 56.9645 91.4453H63.2831C63.5705 91.4453 63.8466 91.558 64.0517 91.7594C64.2569 91.9608 64.3748 92.2347 64.3802 92.5221ZM60.2965 82.5059C45.1197 82.5059 42.0112 73.546 41.6658 72.0629L43.5553 61.9044C44.8458 63.7833 46.2503 65.5814 47.7609 67.2885C50.8491 70.8033 54.3436 74.2368 60.2965 74.2368C66.2493 74.2368 69.7235 70.8033 72.8117 67.2885C74.3337 65.5715 75.7452 63.7596 77.0377 61.8638L78.9271 72.0223C78.5208 73.4445 75.3513 82.4652 60.2965 82.4652M33.8844 30.535C34.9731 27.8921 36.8912 25.6746 39.3497 24.2164C39.4512 29.9052 39.8373 49.9174 40.5484 55.2202C40.7975 56.5602 41.2641 57.8504 41.9299 59.0398C41.9144 59.0997 41.9144 59.1626 41.9299 59.2226L39.6747 71.4128C37.0538 72.7334 28.2769 77.2844 20.1907 81.8964C21.5926 67.4307 28.8864 41.4452 33.9657 30.6163M36.7897 17.3493C43.6365 20.0514 59.5447 20.0921 60.398 20.0921C61.2514 20.0921 77.1392 20.0921 83.9861 17.3493C85.3365 20.0633 86.2029 22.9923 86.546 26.0043C85.0875 23.8394 82.8684 22.3019 80.329 21.6971C79.6239 21.8037 78.939 22.0161 78.2973 22.327C66.8967 26.9868 54.1228 26.9868 42.7223 22.327C42.0806 22.0161 41.3956 21.8037 40.6906 21.6971C38.1554 22.2992 35.9417 23.8379 34.4939 26.0043C34.8302 22.9935 35.6897 20.0645 37.0335 17.3493M60.2965 2.57887C64.1244 2.59071 67.9039 3.43445 71.3735 5.05168C74.843 6.66892 77.9195 9.021 80.3899 11.945C77.5659 12.9812 70.8816 14.1595 60.2965 14.1595C49.7113 14.1595 43.0067 12.9812 40.1827 11.945C42.6553 9.01839 45.7351 6.66477 49.2084 5.04744C52.6816 3.4301 56.4651 2.58776 60.2965 2.57887ZM82.8483 15.4192C79.4351 16.5773 71.6943 17.8572 60.2965 17.8572C52.6858 18.0973 45.078 17.2976 37.6837 15.4801C38.0494 14.8706 38.4354 14.2814 38.8417 13.7126C44.4492 16.2522 58.346 16.3538 60.2965 16.3538C62.2469 16.3538 76.1437 16.3538 81.7309 13.7126C82.1337 14.261 82.5067 14.8307 82.8483 15.4192ZM42.6004 54.956C41.9096 49.8565 41.5236 29.9255 41.422 24.2571H41.6252C53.5229 29.1071 66.8465 29.1071 78.7443 24.2571H78.9474C78.9474 29.9255 78.4598 49.8565 77.7691 54.956C77.4643 57.3331 74.9653 61.3965 71.0645 65.8256C67.6309 69.7468 64.7459 72.0223 60.1949 72.0223C55.6439 72.0223 52.7385 69.7468 49.305 65.8256C45.4244 61.3965 42.9051 57.3331 42.6004 54.956ZM99.9552 81.6119C91.9909 77.0812 83.4781 72.6724 80.9182 71.4534L78.6427 59.2632C79.3045 58.0977 79.7583 56.8258 79.9836 55.5046C80.6947 50.2018 81.0807 30.2303 81.1823 24.5212C83.6403 25.9707 85.5589 28.1817 86.6476 30.8195C91.93 42.0751 98.594 67.776 99.9958 81.8557M102.312 83.1763C101.235 69.2998 94.1852 41.7297 88.6386 29.9052C88.6425 29.8511 88.6425 29.7968 88.6386 29.7427C88.7652 29.5718 88.8362 29.3661 88.8418 29.1535C88.8309 24.774 87.8088 20.4562 85.8552 16.5366C86.1834 16.3401 86.4597 16.0678 86.6612 15.7427C86.8626 15.4175 86.9834 15.0488 87.0133 14.6675C87.0133 13.7329 86.3835 12.9405 85.1441 12.27C85.0189 12.2027 84.8815 12.1608 84.74 12.1469C84.5985 12.1329 84.4556 12.1471 84.3196 12.1887C84.1835 12.2302 84.0571 12.2983 83.9476 12.389C83.838 12.4797 83.7475 12.5912 83.6813 12.717C83.9901 12.3678 84.1694 11.9231 84.1892 11.4574C84.1892 10.5837 83.6203 9.83201 82.4826 9.2225C82.2467 9.10071 81.9746 9.06859 81.7168 9.1321C81.4591 9.19561 81.233 9.35047 81.0807 9.56791C78.4222 6.75491 75.2176 4.51406 71.663 2.98257C68.1084 1.45107 64.2787 0.661133 60.4082 0.661133C56.5377 0.661133 52.708 1.45107 49.1534 2.98257C45.5988 4.51406 42.3942 6.75491 39.7357 9.56791C39.5833 9.35047 39.3573 9.19561 39.0996 9.1321C38.8418 9.06859 38.5697 9.10071 38.3338 9.2225C37.1961 9.83201 36.6272 10.5837 36.6272 11.4574C36.647 11.9231 36.8263 12.3678 37.1351 12.717C36.9974 12.4614 36.7639 12.2709 36.4859 12.1871C36.2079 12.1033 35.908 12.1331 35.652 12.27C34.4126 12.9405 33.7828 13.7329 33.7828 14.6675C33.8127 15.0488 33.9334 15.4175 34.1349 15.7427C34.3364 16.0678 34.6127 16.3401 34.9409 16.5366C32.9817 20.4542 31.9593 24.7733 31.9543 29.1535C31.9599 29.3661 32.0309 29.5718 32.1574 29.7427C32.1191 29.7939 32.0851 29.8483 32.0559 29.9052C26.7328 41.2624 18.992 69.117 17.9559 83.4201C11.8608 87.0366 6.39552 90.4904 5.15618 92.2987C1.56008 96.9512 -0.288768 113.306 0.0566206 119.625C0.0722156 119.905 0.194653 120.169 0.398737 120.362C0.60282 120.554 0.873023 120.662 1.15374 120.661C1.44295 120.64 1.71273 120.508 1.90608 120.292C2.09942 120.076 2.2012 119.793 2.1899 119.503C1.8242 112.819 3.87621 97.3372 6.619 93.2942C8.6507 90.3076 27.1391 80.1287 39.756 73.6476C41.036 76.8374 45.6682 84.7001 60.073 84.7001C74.4777 84.7001 79.1506 76.8374 80.3899 73.6476C93.0271 80.1287 111.475 90.3076 113.527 93.2942C116.27 97.3576 118.342 112.819 117.976 119.503C117.96 119.791 118.057 120.074 118.247 120.29C118.437 120.507 118.705 120.64 118.992 120.661C119.273 120.662 119.543 120.554 119.747 120.362C119.951 120.169 120.074 119.905 120.089 119.625C120.435 113.306 118.586 96.9512 115.274 92.0549C113.994 90.206 108.427 86.6302 102.048 82.9325" fill="#089247"/>
</svg>
