<svg width="19" height="19" viewBox="0 0 19 19" fill="none" xmlns="http://www.w3.org/2000/svg">
<path d="M2.75 6.7793V13.752C2.75 14.5808 3.42125 15.252 4.25 15.252H14.7492C15.578 15.252 16.2493 14.5808 16.2493 13.752V6.7793" stroke="#706CE0" stroke-linecap="round" stroke-linejoin="round"/>
<path fill-rule="evenodd" clip-rule="evenodd" d="M3.41644 5.53469L8.66194 2.00594C9.16969 1.66469 9.83344 1.66469 10.3412 2.00594L15.5867 5.53469C16.4702 6.12944 16.4702 7.42919 15.5867 8.02394L11.1812 10.9879C10.1657 11.6712 8.83819 11.6712 7.82269 10.9879L3.41719 8.02394C2.53294 7.42919 2.53294 6.12869 3.41644 5.53469Z" stroke="#706CE0" stroke-linecap="round" stroke-linejoin="round"/>
<path d="M7.33891 10.6621L3.19141 14.8096" stroke="#706CE0" stroke-linecap="round" stroke-linejoin="round"/>
<path d="M15.8077 14.8096L11.6602 10.6621" stroke="#706CE0" stroke-linecap="round" stroke-linejoin="round"/>
</svg>
