<svg width="99" height="95" viewBox="0 0 99 95" fill="none" xmlns="http://www.w3.org/2000/svg">
<path d="M32.7659 0.886719C33.5147 0.891956 34.2636 0.897192 35.0352 0.902588C35.844 0.905811 36.6529 0.909033 37.4863 0.912354C38.3365 0.920732 39.1866 0.929111 40.0625 0.937744C40.9165 0.942256 41.7705 0.946768 42.6504 0.951416C44.767 0.96324 46.8835 0.981176 49 1.00024C47.6434 4.68266 45.9727 7.82988 43.8477 11.1252C43.236 12.0792 42.6243 13.0331 41.9941 14.0159C41.3567 15.0007 40.7193 15.9856 40.0625 17.0002C38.8029 18.9582 37.5437 20.9166 36.2852 22.8752C35.7271 23.7389 35.169 24.6026 34.594 25.4924C33.0189 27.9705 31.4995 30.4758 30 33.0002C30.9152 33.133 31.8305 33.2658 32.7734 33.4026C33.962 33.5792 35.1505 33.7558 36.375 33.9377C37.5584 34.1118 38.7417 34.2858 39.9609 34.4651C43 35.0002 43 35.0002 45 36.0002C44.67 37.3202 44.34 38.6402 44 40.0002C43.01 39.8352 42.02 39.6702 41 39.5002C34.2823 38.5774 29.056 38.3667 23 42.0002C22.1758 39.1657 21.8133 37.5181 22.8281 34.7034C23.2973 33.8938 23.7666 33.0843 24.25 32.2502C24.7966 31.3054 25.3431 30.3605 25.9062 29.387C28.9344 24.4889 32.0464 19.647 35.2158 14.8391C35.6757 14.1408 36.1356 13.4424 36.6094 12.7229C37.2276 11.791 37.2276 11.791 37.8584 10.8403C39.0347 8.94436 40.0328 7.00979 41 5.00024C37.6598 4.97282 37.6598 4.97282 34 6.00024C32.0596 8.2703 30.787 10.1168 29.375 12.6877C28.9668 13.3867 28.5585 14.0857 28.1379 14.8059C27.237 16.3509 26.3456 17.9016 25.4624 19.4568C23.8985 22.1768 22.2781 24.8567 20.6445 27.5354C5.5 55 5 52 6 69.0002C8.02911 76.9224 11.5434 82.046 18.625 86.2502C25.9536 90.0502 32.8008 89.8598 40.625 87.5002C42.088 87.0141 43.5483 86.5192 45 86.0002C44.0072 84.0013 43.0052 82.0101 41.9648 80.0354C41.6258 79.3844 41.2868 78.7334 40.9375 78.0627C40.4251 77.0901 40.4251 77.0901 39.9023 76.0979C36.493 68.1722 36.7174 57.4204 39.8555 49.4534C44.5988 39.2868 50.2808 29.6415 56 20.0002C56.5689 19.021 57.1378 18.0418 57.7239 17.033C61.6399 10.531 66.0441 4.47819 73 1.00024C75.2073 0.929316 77.4167 0.916094 79.625 0.937744C80.8135 0.946768 82.002 0.955791 83.2266 0.965088C84.1418 0.976689 85.057 0.988291 86 1.00024C84.6434 4.68266 82.9727 7.82988 80.8477 11.1252C80.236 12.0792 79.6243 13.0331 78.9941 14.0159C78.3567 15.0007 77.7193 15.9856 77.0625 17.0002C75.8029 18.9582 74.5437 20.9166 73.2852 22.8752C72.7271 23.7389 72.169 24.6026 71.594 25.4924C70.0189 27.9705 68.4995 30.4758 67 33.0002C67.8224 33.075 68.6448 33.1498 69.4922 33.2268C78.6742 34.3083 85.9796 36.2743 92.1367 43.512C97.1085 50.42 98.1813 55.1004 98.1875 63.4377C98.1997 64.2969 98.212 65.1561 98.2246 66.0413C98.2265 66.8721 98.2285 67.7029 98.2305 68.5588C98.2346 69.3148 98.2387 70.0707 98.2429 70.8496C97.9694 73.2713 97.2029 74.898 96 77.0002C94.68 77.0002 93.36 77.0002 92 77.0002C92.165 75.969 92.33 74.9377 92.5 73.8752C93.633 64.0441 94.6183 55.4371 88.707 46.9924C84.2573 41.7994 78.7923 39.4549 72.0234 38.8127C67.327 38.6677 63.4457 39.5183 59 41.0002C58.3416 39.2761 58.3416 39.2761 58 37.0002C58.9846 34.8689 58.9846 34.8689 60.5352 32.5862C61.0978 31.7418 61.6605 30.8975 62.2402 30.0276C63.1423 28.7147 63.1423 28.7147 64.0625 27.3752C65.2218 25.6551 66.3794 23.9337 67.5352 22.2112C68.1077 21.3614 68.6802 20.5116 69.27 19.636C71.9817 15.5046 74.5011 11.2628 77 7.00024C74.7116 6.58037 74.7116 6.58037 72 7.00024C67.8587 10.3652 65.2065 14.515 62.5312 19.0667C62.1285 19.7414 61.7257 20.4161 61.3107 21.1113C60.4633 22.5354 59.6198 23.9617 58.7798 25.3901C57.5142 27.5386 56.2327 29.6769 54.9492 31.8147C42.5 50.5 39.9023 55.5 43 69.0002C45.0291 76.9224 48.5434 82.046 55.625 86.2502C60.6804 88.8715 64.6106 89.1261 70.1875 89.0627C70.9371 89.0582 71.6867 89.0537 72.459 89.0491C74.306 89.0373 76.153 89.0194 78 89.0002C78.33 90.3202 78.66 91.6402 79 93.0002C70.0568 94.9876 61.2912 94.9978 53 91.0002C50.5 89.3127 50.5 89.3127 49 88.0002C48.5746 88.4604 48.1492 88.9206 47.7109 89.3948C42.3156 94.4575 35.1629 94.475 28.1797 94.2815C20.1781 93.5737 13.7789 90.6151 8 85.0002C2.89179 78.5048 0.713511 72.0391 0.6875 63.7502C0.670742 62.5282 0.653984 61.3062 0.636719 60.0471C1.10836 51.2252 4.87579 43.77 9.3125 36.3127C9.82724 35.4301 10.342 34.5474 10.8723 33.6379C29.9653 1.06676 29.9653 1.06677 32.7659 0.886719Z" fill="#EFF5F2"/>
</svg>
