<svg width="48" height="49" viewBox="0 0 48 49" fill="none" xmlns="http://www.w3.org/2000/svg">
<path d="M44.4088 20.0126C44.4088 15.8298 35.5844 12.4236 24.6068 12.4236C13.6291 12.4236 4.80469 15.8298 4.80469 20.0126C4.80469 24.1954 13.6291 27.6193 24.6068 27.6193C35.5844 27.6193 44.4088 24.2131 44.4088 20.0126Z" fill="#FBEBCC"/>
<path d="M12.4968 40.2912C13.486 40.3328 14.4531 39.9915 15.1971 39.3382C15.2801 39.2592 15.3793 39.1991 15.4878 39.1621C15.5963 39.1251 15.7115 39.1121 15.8256 39.1238C15.9396 39.1355 16.0497 39.1718 16.1484 39.2301C16.2471 39.2885 16.3319 39.3675 16.3972 39.4617C16.6335 39.742 16.9322 39.963 17.2694 40.107C17.6065 40.2511 17.9727 40.3142 18.3386 40.2912C19.0385 40.3032 19.7303 40.1394 20.3505 39.8147C20.5039 39.723 20.6842 39.6869 20.861 39.7126C21.0378 39.7383 21.2004 39.8243 21.3212 39.9559L21.6742 40.2912M3.33699 34.4671H2.48984C2.37941 34.4671 2.27008 34.4451 2.16828 34.4023C2.06647 34.3595 1.97423 34.2968 1.89697 34.2179C1.81971 34.139 1.75898 34.0455 1.71835 33.9428C1.67771 33.8401 1.65799 33.7303 1.66034 33.6199V6.12292C1.65691 5.1331 1.94663 4.16444 2.49295 3.33905C3.03928 2.51365 3.81776 1.86851 4.73024 1.48493C5.64272 1.10136 6.64834 0.996517 7.6203 1.18367C8.59227 1.37082 9.48707 1.84157 10.1919 2.53656C10.8967 3.23154 11.3799 4.11964 11.5807 5.08888C11.7815 6.05813 11.6908 7.0651 11.32 7.98287C10.9493 8.90064 10.3151 9.68811 9.4975 10.246C8.67986 10.8038 7.71535 11.1071 6.72558 11.1176H41.6704C42.9951 11.1176 44.2655 10.5913 45.2022 9.65467C46.1389 8.71799 46.6651 7.44758 46.6651 6.12292C46.6651 4.79826 46.1389 3.52785 45.2022 2.59117C44.2655 1.65449 42.9951 1.12827 41.6704 1.12827H6.72558M25.151 32.8257H12.4968M30.1457 27.8311H12.4968M35.158 22.8364H12.4968M17.5091 16.1652H30.834M41.6704 16.8005V11.1529M41.6704 32.8081V46.1683C41.6704 46.6083 41.4956 47.0303 41.1845 47.3414C40.8734 47.6525 40.4514 47.8273 40.0114 47.8273H8.33163C7.89164 47.8273 7.46967 47.6525 7.15854 47.3414C6.84742 47.0303 6.67263 46.6083 6.67263 46.1683V7.78192C6.67263 7.34193 6.84742 6.91997 7.15854 6.60885C7.46967 6.29772 7.89164 6.12292 8.33163 6.12292M43.3471 26.1191L40.0467 22.5894M25.9276 40.2383L27.6925 34.9436L39.482 23.1541L42.4293 20.2068C42.8974 19.7387 43.5323 19.4757 44.1942 19.4757C44.8562 19.4757 45.491 19.7387 45.9591 20.2068C46.4272 20.6748 46.6902 21.3097 46.6902 21.9717C46.6902 22.6336 46.4272 23.2685 45.9591 23.7366L31.2223 38.4734L25.9276 40.2383Z" stroke="#089247" stroke-width="1.5" stroke-linecap="round" stroke-linejoin="round"/>
</svg>
