<svg width="75" height="74" viewBox="0 0 75 74" fill="none" xmlns="http://www.w3.org/2000/svg">
<path d="M56.9286 37.017C56.9286 32.9877 48.4639 29.7203 37.9337 29.7203C27.4036 29.7203 18.9219 32.9877 18.9219 37.017C18.9219 41.0462 27.3866 44.2966 37.9337 44.2966C48.4808 44.2966 56.9286 41.0292 56.9286 37.017Z" fill="#FBEBCC"/>
<path d="M46.515 51.7119L48.7835 54.1159M44.8051 33.1911V23.9645H51.0182V39.4211M27.3169 39.4211V25.8775H33.53V33.2588M36.0695 32.3276V20.3585H42.2995V32.3276M19.377 21.6113H28.1634V12.3508M19.377 21.6113V60.0751H47.2429M19.377 21.6113L28.1634 12.3508M28.1634 12.3508H56.4357V55.301M30.8721 50.5607L33.4284 43.7889L36.5435 49.8836L40.742 39.7259L44.1279 44.6185L47.0736 36.9663M55.5553 61.2094C55.8314 60.8994 55.9839 60.4987 55.9839 60.0836C55.9839 59.6685 55.8314 59.2678 55.5553 58.9578L50.9674 54.1159C50.8297 53.9688 50.6632 53.8516 50.4783 53.7714C50.2933 53.6912 50.0939 53.6499 49.8924 53.6499C49.6909 53.6499 49.4915 53.6912 49.3065 53.7714C49.1216 53.8516 48.9551 53.9688 48.8174 54.1159C48.5413 54.426 48.3888 54.8266 48.3888 55.2417C48.3888 55.6569 48.5413 56.0575 48.8174 56.3675L53.4222 61.2094C53.5593 61.3486 53.7226 61.4592 53.9028 61.5347C54.083 61.6101 54.2765 61.649 54.4718 61.649C54.6672 61.649 54.8606 61.6101 55.0408 61.5347C55.221 61.4592 55.3844 61.3486 55.5215 61.2094H55.5553ZM28.739 43.9752C28.6708 46.8057 29.7291 49.5475 31.6814 51.5982C33.6336 53.6489 36.3201 54.8407 39.1506 54.9116C41.9789 54.8004 44.6543 53.5986 46.6161 51.5582C48.5778 49.5178 49.6735 46.7972 49.6735 43.9667C49.6735 41.1362 48.5778 38.4156 46.6161 36.3752C44.6543 34.3348 41.9789 33.133 39.1506 33.0218C37.7476 33.0569 36.3653 33.3681 35.0827 33.9377C33.8 34.5072 32.6421 35.3239 31.6752 36.3411C30.7083 37.3584 29.9514 38.5561 29.4475 39.866C28.9437 41.1759 28.7029 42.5722 28.739 43.9752Z" stroke="#089247" stroke-width="1.5" stroke-linecap="round" stroke-linejoin="round"/>
</svg>
