<svg width="144" height="144" viewBox="0 0 144 144" fill="none" xmlns="http://www.w3.org/2000/svg">
<circle cx="72" cy="72" r="72" fill="#EFBA30"/>
<path d="M49.7727 69.2727C49.7045 68.697 49.428 68.25 48.9432 67.9318C48.4583 67.6136 47.8636 67.4545 47.1591 67.4545C46.6439 67.4545 46.1932 67.5379 45.8068 67.7045C45.4242 67.8712 45.125 68.1004 44.9091 68.392C44.697 68.6837 44.5909 69.0152 44.5909 69.3864C44.5909 69.697 44.6648 69.964 44.8125 70.1875C44.964 70.4072 45.1572 70.5909 45.392 70.7386C45.6269 70.8826 45.8731 71.0019 46.1307 71.0966C46.3883 71.1875 46.625 71.2614 46.8409 71.3182L48.0227 71.6364C48.3258 71.7159 48.6629 71.8258 49.0341 71.9659C49.4091 72.1061 49.767 72.2973 50.108 72.5398C50.4527 72.7784 50.7367 73.0852 50.9602 73.4602C51.1837 73.8352 51.2955 74.2955 51.2955 74.8409C51.2955 75.4697 51.1307 76.0379 50.8011 76.5455C50.4754 77.053 49.9981 77.4564 49.3693 77.7557C48.7443 78.0549 47.9848 78.2045 47.0909 78.2045C46.2576 78.2045 45.536 78.0701 44.9261 77.8011C44.3201 77.5322 43.8428 77.1572 43.4943 76.6761C43.1496 76.1951 42.9545 75.6364 42.9091 75H44.3636C44.4015 75.4394 44.5492 75.803 44.8068 76.0909C45.0682 76.375 45.3977 76.5871 45.7955 76.7273C46.197 76.8636 46.6288 76.9318 47.0909 76.9318C47.6288 76.9318 48.1117 76.8447 48.5398 76.6705C48.9678 76.4924 49.3068 76.2462 49.5568 75.9318C49.8068 75.6136 49.9318 75.2424 49.9318 74.8182C49.9318 74.4318 49.8239 74.1174 49.608 73.875C49.392 73.6326 49.108 73.4356 48.7557 73.2841C48.4034 73.1326 48.0227 73 47.6136 72.8864L46.1818 72.4773C45.2727 72.2159 44.553 71.8428 44.0227 71.358C43.4924 70.8731 43.2273 70.2386 43.2273 69.4545C43.2273 68.803 43.4034 68.2348 43.7557 67.75C44.1117 67.2614 44.589 66.8826 45.1875 66.6136C45.7898 66.3409 46.4621 66.2045 47.2045 66.2045C47.9545 66.2045 48.6212 66.339 49.2045 66.608C49.7879 66.8731 50.25 67.2367 50.5909 67.6989C50.9356 68.161 51.1174 68.6856 51.1364 69.2727H49.7727ZM56.9759 78.1818C56.1577 78.1818 55.4531 77.9886 54.8622 77.6023C54.2713 77.2159 53.8168 76.6837 53.4986 76.0057C53.1804 75.3277 53.0213 74.553 53.0213 73.6818C53.0213 72.7955 53.1842 72.0133 53.5099 71.3352C53.8395 70.6534 54.2978 70.1212 54.8849 69.7386C55.4759 69.3523 56.1652 69.1591 56.9531 69.1591C57.5668 69.1591 58.1198 69.2727 58.6122 69.5C59.1046 69.7273 59.508 70.0455 59.8224 70.4545C60.1368 70.8636 60.3319 71.3409 60.4077 71.8864H59.0668C58.9645 71.4886 58.7372 71.1364 58.3849 70.8295C58.0365 70.5189 57.5668 70.3636 56.9759 70.3636C56.4531 70.3636 55.9948 70.5 55.6009 70.7727C55.2107 71.0417 54.9058 71.4223 54.6861 71.9148C54.4702 72.4034 54.3622 72.9773 54.3622 73.6364C54.3622 74.3106 54.4683 74.8977 54.6804 75.3977C54.8963 75.8977 55.1993 76.286 55.5895 76.5625C55.9834 76.839 56.4455 76.9773 56.9759 76.9773C57.3243 76.9773 57.6406 76.9167 57.9247 76.7955C58.2088 76.6742 58.4493 76.5 58.6463 76.2727C58.8433 76.0455 58.9834 75.7727 59.0668 75.4545H60.4077C60.3319 75.9697 60.1444 76.4337 59.8452 76.8466C59.5497 77.2557 59.1577 77.5814 58.669 77.8239C58.1842 78.0625 57.6198 78.1818 56.9759 78.1818ZM65.9134 78.1818C65.1255 78.1818 64.4342 77.9943 63.8395 77.6193C63.2486 77.2443 62.7865 76.7197 62.4531 76.0455C62.1236 75.3712 61.9588 74.5833 61.9588 73.6818C61.9588 72.7727 62.1236 71.9792 62.4531 71.3011C62.7865 70.6231 63.2486 70.0966 63.8395 69.7216C64.4342 69.3466 65.1255 69.1591 65.9134 69.1591C66.7012 69.1591 67.3906 69.3466 67.9815 69.7216C68.5762 70.0966 69.0384 70.6231 69.3679 71.3011C69.7012 71.9792 69.8679 72.7727 69.8679 73.6818C69.8679 74.5833 69.7012 75.3712 69.3679 76.0455C69.0384 76.7197 68.5762 77.2443 67.9815 77.6193C67.3906 77.9943 66.7012 78.1818 65.9134 78.1818ZM65.9134 76.9773C66.5118 76.9773 67.0043 76.8239 67.3906 76.517C67.777 76.2102 68.063 75.8068 68.2486 75.3068C68.4342 74.8068 68.527 74.2652 68.527 73.6818C68.527 73.0985 68.4342 72.5549 68.2486 72.0511C68.063 71.5473 67.777 71.1402 67.3906 70.8295C67.0043 70.5189 66.5118 70.3636 65.9134 70.3636C65.3149 70.3636 64.8224 70.5189 64.4361 70.8295C64.0497 71.1402 63.7637 71.5473 63.5781 72.0511C63.3925 72.5549 63.2997 73.0985 63.2997 73.6818C63.2997 74.2652 63.3925 74.8068 63.5781 75.3068C63.7637 75.8068 64.0497 76.2102 64.4361 76.517C64.8224 76.8239 65.3149 76.9773 65.9134 76.9773ZM71.9148 81.2727V69.2727H73.2102V70.6591H73.3693C73.4678 70.5076 73.6042 70.3144 73.7784 70.0795C73.9564 69.8409 74.2102 69.6288 74.5398 69.4432C74.8731 69.2538 75.3239 69.1591 75.892 69.1591C76.6269 69.1591 77.2746 69.3428 77.8352 69.7102C78.3958 70.0777 78.8333 70.5985 79.1477 71.2727C79.4621 71.947 79.6193 72.7424 79.6193 73.6591C79.6193 74.5833 79.4621 75.3845 79.1477 76.0625C78.8333 76.7367 78.3977 77.2595 77.8409 77.6307C77.2841 77.9981 76.642 78.1818 75.9148 78.1818C75.3542 78.1818 74.9053 78.089 74.5682 77.9034C74.2311 77.714 73.9716 77.5 73.7898 77.2614C73.608 77.0189 73.4678 76.8182 73.3693 76.6591H73.2557V81.2727H71.9148ZM73.233 73.6364C73.233 74.2955 73.3295 74.8769 73.5227 75.3807C73.7159 75.8807 73.9981 76.2727 74.3693 76.5568C74.7405 76.8371 75.1951 76.9773 75.733 76.9773C76.2936 76.9773 76.7614 76.8295 77.1364 76.5341C77.5152 76.2348 77.7992 75.8333 77.9886 75.3295C78.1818 74.822 78.2784 74.2576 78.2784 73.6364C78.2784 73.0227 78.1837 72.4697 77.9943 71.9773C77.8087 71.4811 77.5265 71.089 77.1477 70.8011C76.7727 70.5095 76.3011 70.3636 75.733 70.3636C75.1875 70.3636 74.7292 70.5019 74.358 70.7784C73.9867 71.0511 73.7064 71.4337 73.517 71.9261C73.3277 72.4148 73.233 72.9848 73.233 73.6364ZM85.3239 78.1818C84.483 78.1818 83.7576 77.9962 83.1477 77.625C82.5417 77.25 82.0739 76.7273 81.7443 76.0568C81.4186 75.3826 81.2557 74.5985 81.2557 73.7045C81.2557 72.8106 81.4186 72.0227 81.7443 71.3409C82.0739 70.6553 82.5322 70.1212 83.1193 69.7386C83.7102 69.3523 84.3996 69.1591 85.1875 69.1591C85.642 69.1591 86.0909 69.2348 86.5341 69.3864C86.9773 69.5379 87.3807 69.7841 87.7443 70.125C88.108 70.4621 88.3977 70.9091 88.6136 71.4659C88.8295 72.0227 88.9375 72.7083 88.9375 73.5227V74.0909H82.2102V72.9318H87.5739C87.5739 72.4394 87.4754 72 87.2784 71.6136C87.0852 71.2273 86.8087 70.9223 86.4489 70.6989C86.0928 70.4754 85.6723 70.3636 85.1875 70.3636C84.6534 70.3636 84.1913 70.4962 83.8011 70.7614C83.4148 71.0227 83.1174 71.3636 82.9091 71.7841C82.7008 72.2045 82.5966 72.6553 82.5966 73.1364V73.9091C82.5966 74.5682 82.7102 75.1269 82.9375 75.5852C83.1686 76.0398 83.4886 76.3864 83.8977 76.625C84.3068 76.8598 84.7822 76.9773 85.3239 76.9773C85.6761 76.9773 85.9943 76.928 86.2784 76.8295C86.5663 76.7273 86.8144 76.5758 87.0227 76.375C87.2311 76.1705 87.392 75.9167 87.5057 75.6136L88.8011 75.9773C88.6648 76.4167 88.4356 76.803 88.1136 77.1364C87.7917 77.4659 87.3939 77.7235 86.9205 77.9091C86.447 78.0909 85.9148 78.1818 85.3239 78.1818ZM99.5455 66.3636V78H98.1364V67.8409H98.0682L95.2273 69.7273V68.2955L98.1364 66.3636H99.5455Z" fill="white"/>
</svg>
