<svg width="100" height="100" viewBox="0 0 100 100" fill="none" xmlns="http://www.w3.org/2000/svg">
<circle cx="50" cy="50" r="50" fill="#036738"/>
<path d="M28.8011 47.3636C28.7415 46.8598 28.4995 46.4688 28.0753 46.1903C27.651 45.9119 27.1307 45.7727 26.5142 45.7727C26.0634 45.7727 25.669 45.8456 25.331 45.9915C24.9962 46.1373 24.7344 46.3378 24.5455 46.593C24.3598 46.8482 24.267 47.1383 24.267 47.4631C24.267 47.7348 24.3317 47.9685 24.4609 48.1641C24.5935 48.3563 24.7625 48.517 24.968 48.6463C25.1735 48.7723 25.389 48.8767 25.6143 48.9595C25.8397 49.0391 26.0469 49.1037 26.2358 49.1534L27.2699 49.4318C27.535 49.5014 27.83 49.5975 28.1548 49.7202C28.483 49.8428 28.7962 50.0102 29.0945 50.2223C29.3961 50.4311 29.6446 50.6996 29.8402 51.0277C30.0357 51.3558 30.1335 51.7585 30.1335 52.2358C30.1335 52.786 29.9893 53.2831 29.701 53.7273C29.416 54.1714 28.9983 54.5244 28.4482 54.7862C27.9013 55.0481 27.2367 55.179 26.4545 55.179C25.7254 55.179 25.094 55.0613 24.5604 54.826C24.0301 54.5907 23.6125 54.2625 23.3075 53.8416C23.0059 53.4207 22.8352 52.9318 22.7955 52.375H24.0682C24.1013 52.7595 24.2306 53.0777 24.456 53.3295C24.6847 53.5781 24.973 53.7637 25.321 53.8864C25.6723 54.0057 26.0502 54.0653 26.4545 54.0653C26.9252 54.0653 27.3478 53.9891 27.7223 53.8366C28.0968 53.6809 28.3935 53.4654 28.6122 53.1903C28.831 52.9119 28.9403 52.5871 28.9403 52.2159C28.9403 51.8778 28.8459 51.6027 28.657 51.3906C28.468 51.1785 28.2195 51.0062 27.9112 50.8736C27.603 50.741 27.2699 50.625 26.9119 50.5256L25.6591 50.1676C24.8636 49.9389 24.2339 49.6125 23.7699 49.1882C23.3059 48.764 23.0739 48.2088 23.0739 47.5227C23.0739 46.9527 23.228 46.4555 23.5362 46.0312C23.8478 45.6037 24.2654 45.2723 24.7891 45.0369C25.3161 44.7983 25.9044 44.679 26.554 44.679C27.2102 44.679 27.7936 44.7966 28.304 45.032C28.8144 45.264 29.2188 45.5821 29.517 45.9865C29.8187 46.3909 29.9777 46.8499 29.9943 47.3636H28.8011ZM35.1039 55.1591C34.388 55.1591 33.7715 54.9901 33.2544 54.652C32.7374 54.3139 32.3397 53.8482 32.0613 53.255C31.7828 52.6617 31.6436 51.9839 31.6436 51.2216C31.6436 50.446 31.7862 49.7616 32.0712 49.1683C32.3596 48.5717 32.7606 48.1061 33.2743 47.7713C33.7914 47.4332 34.3946 47.2642 35.084 47.2642C35.6209 47.2642 36.1048 47.3636 36.5357 47.5625C36.9666 47.7614 37.3195 48.0398 37.5946 48.3977C37.8697 48.7557 38.0404 49.1733 38.1067 49.6506H36.9334C36.8439 49.3026 36.6451 48.9943 36.3368 48.7259C36.0319 48.4541 35.6209 48.3182 35.1039 48.3182C34.6465 48.3182 34.2454 48.4375 33.9007 48.6761C33.5594 48.9115 33.2926 49.2446 33.1003 49.6754C32.9114 50.103 32.8169 50.6051 32.8169 51.1818C32.8169 51.7718 32.9097 52.2855 33.0953 52.723C33.2843 53.1605 33.5494 53.5002 33.8908 53.7422C34.2355 53.9841 34.6399 54.1051 35.1039 54.1051C35.4088 54.1051 35.6855 54.0521 35.9341 53.946C36.1827 53.84 36.3932 53.6875 36.5655 53.4886C36.7379 53.2898 36.8605 53.0511 36.9334 52.7727H38.1067C38.0404 53.2235 37.8764 53.6295 37.6145 53.9908C37.356 54.3487 37.013 54.6338 36.5854 54.8459C36.1612 55.0547 35.6673 55.1591 35.1039 55.1591ZM42.9242 55.1591C42.2348 55.1591 41.6299 54.995 41.1096 54.6669C40.5925 54.3388 40.1882 53.8797 39.8965 53.2898C39.6081 52.6998 39.464 52.0104 39.464 51.2216C39.464 50.4261 39.6081 49.7318 39.8965 49.1385C40.1882 48.5452 40.5925 48.0845 41.1096 47.7564C41.6299 47.4283 42.2348 47.2642 42.9242 47.2642C43.6136 47.2642 44.2168 47.4283 44.7338 47.7564C45.2542 48.0845 45.6586 48.5452 45.9469 49.1385C46.2386 49.7318 46.3844 50.4261 46.3844 51.2216C46.3844 52.0104 46.2386 52.6998 45.9469 53.2898C45.6586 53.8797 45.2542 54.3388 44.7338 54.6669C44.2168 54.995 43.6136 55.1591 42.9242 55.1591ZM42.9242 54.1051C43.4479 54.1051 43.8787 53.9709 44.2168 53.7024C44.5549 53.4339 44.8051 53.081 44.9675 52.6435C45.1299 52.206 45.2111 51.732 45.2111 51.2216C45.2111 50.7112 45.1299 50.2356 44.9675 49.7947C44.8051 49.3539 44.5549 48.9976 44.2168 48.7259C43.8787 48.4541 43.4479 48.3182 42.9242 48.3182C42.4005 48.3182 41.9696 48.4541 41.6316 48.7259C41.2935 48.9976 41.0433 49.3539 40.8809 49.7947C40.7185 50.2356 40.6373 50.7112 40.6373 51.2216C40.6373 51.732 40.7185 52.206 40.8809 52.6435C41.0433 53.081 41.2935 53.4339 41.6316 53.7024C41.9696 53.9709 42.4005 54.1051 42.9242 54.1051ZM48.1754 57.8636V47.3636H49.3089V48.5767H49.4482C49.5343 48.4441 49.6536 48.2751 49.8061 48.0696C49.9619 47.8608 50.1839 47.6752 50.4723 47.5128C50.764 47.3471 51.1584 47.2642 51.6555 47.2642C52.2985 47.2642 52.8653 47.425 53.3558 47.7464C53.8464 48.0679 54.2292 48.5237 54.5043 49.1136C54.7794 49.7036 54.9169 50.3996 54.9169 51.2017C54.9169 52.0104 54.7794 52.7114 54.5043 53.3047C54.2292 53.8946 53.848 54.352 53.3608 54.6768C52.8736 54.9983 52.3118 55.1591 51.6754 55.1591C51.1849 55.1591 50.7921 55.0779 50.4972 54.9155C50.2022 54.7498 49.9751 54.5625 49.8161 54.3537C49.657 54.1416 49.5343 53.9659 49.4482 53.8267H49.3487V57.8636H48.1754ZM49.3288 51.1818C49.3288 51.7585 49.4134 52.2673 49.5824 52.7081C49.7514 53.1456 49.9983 53.4886 50.3232 53.7372C50.648 53.9825 51.0457 54.1051 51.5163 54.1051C52.0069 54.1051 52.4162 53.9759 52.7443 53.7173C53.0758 53.4555 53.3243 53.1042 53.4901 52.6634C53.6591 52.2192 53.7436 51.7254 53.7436 51.1818C53.7436 50.6449 53.6607 50.161 53.495 49.7301C53.3326 49.2959 53.0857 48.9529 52.7543 48.701C52.4261 48.4458 52.0135 48.3182 51.5163 48.3182C51.0391 48.3182 50.638 48.4392 50.3132 48.6811C49.9884 48.9197 49.7431 49.2545 49.5774 49.6854C49.4117 50.1129 49.3288 50.6117 49.3288 51.1818ZM59.9084 55.1591C59.1726 55.1591 58.5379 54.9967 58.0043 54.6719C57.474 54.3438 57.0646 53.8864 56.7763 53.2997C56.4912 52.7098 56.3487 52.0237 56.3487 51.2415C56.3487 50.4593 56.4912 49.7699 56.7763 49.1733C57.0646 48.5734 57.4657 48.1061 57.9794 47.7713C58.4964 47.4332 59.0997 47.2642 59.7891 47.2642C60.1868 47.2642 60.5795 47.3305 60.9673 47.4631C61.3551 47.5956 61.7081 47.8111 62.0263 48.1094C62.3445 48.4044 62.598 48.7955 62.7869 49.2827C62.9759 49.7699 63.0703 50.3698 63.0703 51.0824V51.5795H57.1839V50.5653H61.8771C61.8771 50.1345 61.791 49.75 61.6186 49.4119C61.4496 49.0739 61.2076 48.8071 60.8928 48.6115C60.5812 48.416 60.2133 48.3182 59.7891 48.3182C59.3217 48.3182 58.9174 48.4342 58.576 48.6662C58.2379 48.8949 57.9777 49.1932 57.7955 49.5611C57.6132 49.929 57.522 50.3234 57.522 50.7443V51.4205C57.522 51.9972 57.6214 52.486 57.8203 52.8871C58.0225 53.2848 58.3026 53.5881 58.6605 53.7969C59.0185 54.0024 59.4344 54.1051 59.9084 54.1051C60.2166 54.1051 60.495 54.062 60.7436 53.9759C60.9955 53.8864 61.2126 53.7538 61.3949 53.5781C61.5772 53.3991 61.718 53.1771 61.8175 52.9119L62.951 53.2301C62.8317 53.6146 62.6312 53.9527 62.3494 54.2443C62.0677 54.5327 61.7197 54.758 61.3054 54.9205C60.8911 55.0795 60.4254 55.1591 59.9084 55.1591ZM68.7727 55V54.1051L72.1335 50.4261C72.5279 49.9953 72.8527 49.6207 73.108 49.3026C73.3632 48.9811 73.5521 48.6795 73.6747 48.3977C73.8007 48.1127 73.8636 47.8144 73.8636 47.5028C73.8636 47.1449 73.7775 46.835 73.6051 46.5732C73.4361 46.3113 73.2041 46.1091 72.9091 45.9666C72.6141 45.8241 72.2827 45.7528 71.9148 45.7528C71.5237 45.7528 71.1823 45.834 70.8906 45.9964C70.6023 46.1555 70.3786 46.3793 70.2195 46.6676C70.0637 46.956 69.9858 47.294 69.9858 47.6818H68.8125C68.8125 47.0852 68.95 46.5616 69.2251 46.1108C69.5002 45.66 69.8748 45.3087 70.3487 45.0568C70.826 44.8049 71.3613 44.679 71.9545 44.679C72.5511 44.679 73.0798 44.8049 73.5405 45.0568C74.0012 45.3087 74.3625 45.6484 74.6243 46.076C74.8861 46.5036 75.017 46.9792 75.017 47.5028C75.017 47.8774 74.9491 48.2436 74.8132 48.6016C74.6806 48.9562 74.4486 49.3523 74.1172 49.7898C73.7891 50.224 73.3333 50.7543 72.75 51.3807L70.4631 53.8267V53.9062H75.196V55H68.7727Z" fill="white"/>
</svg>
