<?xml version="1.0" encoding="UTF-8"?>
<svg version="1.1" xmlns="http://www.w3.org/2000/svg" width="126" height="121">
<path d="M0 0 C41.58 0 83.16 0 126 0 C126 39.93 126 79.86 126 121 C84.42 121 42.84 121 0 121 C0 81.07 0 41.14 0 0 Z " fill="#046739" transform="translate(0,0)"/>
<path d="M0 0 C0.74886475 0.00523682 1.49772949 0.01047363 2.26928711 0.01586914 C3.07817383 0.0190918 3.88706055 0.02231445 4.72045898 0.02563477 C5.5705957 0.03401367 6.42073242 0.04239258 7.29663086 0.05102539 C8.15063477 0.05553711 9.00463867 0.06004883 9.88452148 0.06469727 C12.00108749 0.07652166 14.11761771 0.0944577 16.23413086 0.11352539 C14.87755839 3.79594527 13.20686901 6.94315754 11.08178711 10.23852539 C10.47012695 11.19243164 9.8584668 12.14633789 9.22827148 13.12915039 C8.59083008 14.11399414 7.95338867 15.09883789 7.29663086 16.11352539 C6.03700031 18.07152689 4.77786872 20.02984948 3.51928711 21.98852539 C2.96120361 22.85219727 2.40312012 23.71586914 1.828125 24.60571289 C0.25302491 27.08379961 -1.26641689 29.58908456 -2.76586914 32.11352539 C-1.41041992 32.2952832 -1.41041992 32.2952832 -0.02758789 32.48071289 C1.1519043 32.64829102 2.33139648 32.81586914 3.54663086 32.98852539 C4.71838867 33.15094727 5.89014648 33.31336914 7.09741211 33.48071289 C10.23413086 34.11352539 10.23413086 34.11352539 13.23413086 36.11352539 C13.7072168 35.30197998 14.18030273 34.49043457 14.66772461 33.65429688 C16.4530655 30.60760221 18.25109363 27.56915528 20.05786133 24.53515625 C20.83282452 23.22794873 21.60281627 21.9177792 22.36743164 20.60449219 C31.87450384 4.2933389 31.87450384 4.2933389 40.23413086 0.11352539 C42.44142316 0.04259697 44.65080538 0.02937514 46.85913086 0.05102539 C48.04764648 0.06004883 49.23616211 0.06907227 50.46069336 0.07836914 C51.37592773 0.0899707 52.29116211 0.10157227 53.23413086 0.11352539 C51.87755839 3.79594527 50.20686901 6.94315754 48.08178711 10.23852539 C47.47012695 11.19243164 46.8584668 12.14633789 46.22827148 13.12915039 C45.59083008 14.11399414 44.95338867 15.09883789 44.29663086 16.11352539 C43.03700031 18.07152689 41.77786872 20.02984948 40.51928711 21.98852539 C39.96120361 22.85219727 39.40312012 23.71586914 38.828125 24.60571289 C37.25302491 27.08379961 35.73358311 29.58908456 34.23413086 32.11352539 C35.05655273 32.18829102 35.87897461 32.26305664 36.72631836 32.34008789 C45.90837569 33.42157732 53.21375656 35.38756437 59.37084961 42.62524414 C64.34261949 49.5332814 65.4154043 54.21365956 65.42163086 62.55102539 C65.43387695 63.41018555 65.44612305 64.2693457 65.45874023 65.15454102 C65.46067383 65.9853418 65.46260742 66.81614258 65.46459961 67.67211914 C65.4687085 68.42807373 65.47281738 69.18402832 65.47705078 69.96289062 C65.20351605 72.38456641 64.43707453 74.01127928 63.23413086 76.11352539 C61.91413086 76.11352539 60.59413086 76.11352539 59.23413086 76.11352539 C59.39913086 75.08227539 59.56413086 74.05102539 59.73413086 72.98852539 C60.86714886 63.15741537 61.852423 54.55037131 55.94116211 46.10571289 C51.49141361 40.91264256 46.02645627 38.56813333 39.25756836 37.92602539 C34.56112612 37.78096154 30.67982578 38.63162709 26.23413086 40.11352539 C25.57568359 38.3894043 25.57568359 38.3894043 25.23413086 36.11352539 C26.21875 33.98217773 26.21875 33.98217773 27.76928711 31.69946289 C28.33196289 30.85512695 28.89463867 30.01079102 29.47436523 29.14086914 C30.37638672 27.82795898 30.37638672 27.82795898 31.29663086 26.48852539 C32.4559743 24.76837721 33.61353015 23.04702286 34.76928711 21.32446289 C35.34179199 20.47464844 35.91429688 19.62483398 36.50415039 18.74926758 C39.21581143 14.61786867 41.73519964 10.37603863 44.23413086 6.11352539 C41.94576864 5.69365593 41.94576864 5.69365593 39.23413086 6.11352539 C35.09283248 9.47852988 32.4406235 13.62828152 29.76538086 18.17993164 C29.36258911 18.85467026 28.95979736 19.52940887 28.5447998 20.22459412 C27.69746892 21.64867197 26.85389963 23.07499405 26.01391602 24.50341797 C24.74835289 26.65188159 23.46685608 28.79019814 22.18334961 30.92797852 C11.71448338 48.30832761 11.71448338 48.30832761 10.23413086 68.11352539 C12.26323803 76.03567787 15.77751158 81.15927984 22.85913086 85.36352539 C27.91449054 87.984823 31.84475116 88.23934368 37.42163086 88.17602539 C38.1712207 88.17151367 38.92081055 88.16700195 39.69311523 88.16235352 C41.54015469 88.15058893 43.38715299 88.13265405 45.23413086 88.11352539 C45.56413086 89.43352539 45.89413086 90.75352539 46.23413086 92.11352539 C37.29094996 94.10089892 28.52536272 94.11108361 20.23413086 90.11352539 C17.73413086 88.42602539 17.73413086 88.42602539 16.23413086 87.11352539 C15.80874023 87.5737207 15.38334961 88.03391602 14.94506836 88.50805664 C9.54973227 93.57080351 2.39702507 93.58830537 -4.58618164 93.39477539 C-12.5877313 92.68702161 -18.98696712 89.72839744 -24.76586914 84.11352539 C-29.87408305 77.61805542 -32.05235819 71.15234769 -32.07836914 62.86352539 C-32.09512695 61.64149414 -32.11188477 60.41946289 -32.12915039 59.16040039 C-31.65751143 50.33843234 -27.89007658 42.88323802 -23.45336914 35.42602539 C-22.93863037 34.54333984 -22.4238916 33.6606543 -21.89355469 32.7512207 C-2.80059933 0.18004683 -2.80059933 0.18004683 0 0 Z " fill="#07693B" transform="translate(46.765869140625,12.886474609375)"/>
<path d="M0 0 C0.74886475 0.00523682 1.49772949 0.01047363 2.26928711 0.01586914 C3.07817383 0.0190918 3.88706055 0.02231445 4.72045898 0.02563477 C5.5705957 0.03401367 6.42073242 0.04239258 7.29663086 0.05102539 C8.15063477 0.05553711 9.00463867 0.06004883 9.88452148 0.06469727 C12.00108749 0.07652166 14.11761771 0.0944577 16.23413086 0.11352539 C14.87755839 3.79594527 13.20686901 6.94315754 11.08178711 10.23852539 C10.47012695 11.19243164 9.8584668 12.14633789 9.22827148 13.12915039 C8.59083008 14.11399414 7.95338867 15.09883789 7.29663086 16.11352539 C6.03700031 18.07152689 4.77786872 20.02984948 3.51928711 21.98852539 C2.96120361 22.85219727 2.40312012 23.71586914 1.828125 24.60571289 C0.25302491 27.08379961 -1.26641689 29.58908456 -2.76586914 32.11352539 C-1.85063477 32.24629883 -0.93540039 32.37907227 0.00756836 32.51586914 C1.19608398 32.6924707 2.38459961 32.86907227 3.60913086 33.05102539 C4.79249023 33.22504883 5.97584961 33.39907227 7.19506836 33.57836914 C10.23413086 34.11352539 10.23413086 34.11352539 12.23413086 35.11352539 C11.90413086 36.43352539 11.57413086 37.75352539 11.23413086 39.11352539 C10.24413086 38.94852539 9.25413086 38.78352539 8.23413086 38.61352539 C1.51641882 37.69068818 -3.70988959 37.47993766 -9.76586914 41.11352539 C-10.59009702 38.27898562 -10.95258827 36.63140676 -9.93774414 33.81665039 C-9.46852539 33.00711914 -8.99930664 32.19758789 -8.51586914 31.36352539 C-7.96930664 30.41864258 -7.42274414 29.47375977 -6.85961914 28.50024414 C-3.83149438 23.60213935 -0.71941948 18.76029196 2.44995117 13.95239258 C2.90982422 13.25404297 3.36969727 12.55569336 3.84350586 11.83618164 C4.46177246 10.9043103 4.46177246 10.9043103 5.0925293 9.95361328 C6.26880111 8.05764222 7.26697444 6.12306767 8.23413086 4.11352539 C4.89390621 4.08610421 4.89390621 4.08610421 1.23413086 5.11352539 C-0.70624751 7.3835797 -1.97884673 9.23011104 -3.39086914 11.80102539 C-3.79909912 12.50001953 -4.2073291 13.19901367 -4.62792969 13.91918945 C-5.52886229 15.46421939 -6.42024305 17.0148472 -7.3034668 18.57006836 C-8.86736031 21.29004208 -10.48775904 23.97002107 -12.12133789 26.64868164 C-24.54789025 45.90836407 -24.54789025 45.90836407 -26.76586914 68.11352539 C-24.73676197 76.03567787 -21.22248842 81.15927984 -14.14086914 85.36352539 C-6.81229265 89.16352801 0.03489322 88.97303944 7.85913086 86.61352539 C9.32213381 86.12735826 10.78241856 85.63243532 12.23413086 85.11352539 C11.24131319 83.11453376 10.23934396 81.12342044 9.19897461 79.14868164 C8.85995117 78.49770508 8.52092773 77.84672852 8.17163086 77.17602539 C7.65922852 76.20342773 7.65922852 76.20342773 7.13647461 75.21118164 C3.72708187 67.28545047 3.95148996 56.53372329 7.08959961 48.56665039 C11.83291302 38.40009469 17.51492755 28.75479557 23.23413086 19.11352539 C23.80301025 18.13432129 24.37188965 17.15511719 24.95800781 16.14624023 C28.87401111 9.64430229 33.27824586 3.59146789 40.23413086 0.11352539 C42.44142316 0.04259697 44.65080538 0.02937514 46.85913086 0.05102539 C48.04764648 0.06004883 49.23616211 0.06907227 50.46069336 0.07836914 C51.37592773 0.0899707 52.29116211 0.10157227 53.23413086 0.11352539 C51.87755839 3.79594527 50.20686901 6.94315754 48.08178711 10.23852539 C47.47012695 11.19243164 46.8584668 12.14633789 46.22827148 13.12915039 C45.59083008 14.11399414 44.95338867 15.09883789 44.29663086 16.11352539 C43.03700031 18.07152689 41.77786872 20.02984948 40.51928711 21.98852539 C39.96120361 22.85219727 39.40312012 23.71586914 38.828125 24.60571289 C37.25302491 27.08379961 35.73358311 29.58908456 34.23413086 32.11352539 C35.05655273 32.18829102 35.87897461 32.26305664 36.72631836 32.34008789 C45.90837569 33.42157732 53.21375656 35.38756437 59.37084961 42.62524414 C64.34261949 49.5332814 65.4154043 54.21365956 65.42163086 62.55102539 C65.43387695 63.41018555 65.44612305 64.2693457 65.45874023 65.15454102 C65.46067383 65.9853418 65.46260742 66.81614258 65.46459961 67.67211914 C65.4687085 68.42807373 65.47281738 69.18402832 65.47705078 69.96289062 C65.20351605 72.38456641 64.43707453 74.01127928 63.23413086 76.11352539 C61.91413086 76.11352539 60.59413086 76.11352539 59.23413086 76.11352539 C59.39913086 75.08227539 59.56413086 74.05102539 59.73413086 72.98852539 C60.86714886 63.15741537 61.852423 54.55037131 55.94116211 46.10571289 C51.49141361 40.91264256 46.02645627 38.56813333 39.25756836 37.92602539 C34.56112612 37.78096154 30.67982578 38.63162709 26.23413086 40.11352539 C25.57568359 38.3894043 25.57568359 38.3894043 25.23413086 36.11352539 C26.21875 33.98217773 26.21875 33.98217773 27.76928711 31.69946289 C28.33196289 30.85512695 28.89463867 30.01079102 29.47436523 29.14086914 C30.37638672 27.82795898 30.37638672 27.82795898 31.29663086 26.48852539 C32.4559743 24.76837721 33.61353015 23.04702286 34.76928711 21.32446289 C35.34179199 20.47464844 35.91429688 19.62483398 36.50415039 18.74926758 C39.21581143 14.61786867 41.73519964 10.37603863 44.23413086 6.11352539 C41.94576864 5.69365593 41.94576864 5.69365593 39.23413086 6.11352539 C35.09283248 9.47852988 32.4406235 13.62828152 29.76538086 18.17993164 C29.36258911 18.85467026 28.95979736 19.52940887 28.5447998 20.22459412 C27.69746892 21.64867197 26.85389963 23.07499405 26.01391602 24.50341797 C24.74835289 26.65188159 23.46685608 28.79019814 22.18334961 30.92797852 C11.71448338 48.30832761 11.71448338 48.30832761 10.23413086 68.11352539 C12.26323803 76.03567787 15.77751158 81.15927984 22.85913086 85.36352539 C27.91449054 87.984823 31.84475116 88.23934368 37.42163086 88.17602539 C38.1712207 88.17151367 38.92081055 88.16700195 39.69311523 88.16235352 C41.54015469 88.15058893 43.38715299 88.13265405 45.23413086 88.11352539 C45.56413086 89.43352539 45.89413086 90.75352539 46.23413086 92.11352539 C37.29094996 94.10089892 28.52536272 94.11108361 20.23413086 90.11352539 C17.73413086 88.42602539 17.73413086 88.42602539 16.23413086 87.11352539 C15.80874023 87.5737207 15.38334961 88.03391602 14.94506836 88.50805664 C9.54973227 93.57080351 2.39702507 93.58830537 -4.58618164 93.39477539 C-12.5877313 92.68702161 -18.98696712 89.72839744 -24.76586914 84.11352539 C-29.87408305 77.61805542 -32.05235819 71.15234769 -32.07836914 62.86352539 C-32.09512695 61.64149414 -32.11188477 60.41946289 -32.12915039 59.16040039 C-31.65751143 50.33843234 -27.89007658 42.88323802 -23.45336914 35.42602539 C-22.93863037 34.54333984 -22.4238916 33.6606543 -21.89355469 32.7512207 C-2.80059933 0.18004683 -2.80059933 0.18004683 0 0 Z " fill="#EFF5F2" transform="translate(46.765869140625,12.886474609375)"/>
</svg>
