<svg width="83" height="60" viewBox="0 0 83 60" fill="none" xmlns="http://www.w3.org/2000/svg">
<g clip-path="url(#clip0_73_121)">
<path d="M73.0295 30.9814C73.0295 23.2441 56.6863 16.9546 36.5147 16.9546C16.3432 16.9546 0 23.2441 0 30.9814C0 38.7187 16.3432 45.0404 36.5147 45.0404C56.6863 45.0404 73.0295 38.7669 73.0295 31.0297" fill="#FBF0D1"/>
<path d="M72.4824 54.9653H78.8202M70.5199 20.1878L66.1607 18.0163C65.6103 17.7304 64.969 17.6749 64.3777 17.862C63.7865 18.049 63.2937 18.4632 63.0079 19.0136C62.722 19.5639 62.6665 20.2053 62.8536 20.7965C63.0406 21.3878 63.4549 21.8806 64.0052 22.1664L67.5602 24.1289M74.5736 25.1262L73.1098 29.1637C72.9317 29.5667 72.6728 29.9289 72.3491 30.2277C72.0253 30.5266 71.6437 30.7557 71.2277 30.901L66.2411 32.6383C65.8688 32.7938 65.4683 32.8706 65.0648 32.864C64.6613 32.8573 64.2635 32.7674 63.8965 32.5997C63.5294 32.432 63.201 32.1903 62.9318 31.8897C62.6627 31.589 62.4585 31.236 62.3323 30.8527C61.7532 29.2442 62.8148 27.8929 64.4878 27.3139L68.1553 26.0431L72.3859 18.9975C72.6372 18.43 73.0474 17.9474 73.5668 17.6078C74.0863 17.2681 74.6929 17.086 75.3135 17.0833M72.4341 30.145L73.3671 54.9653M78.788 54.9653L79.2384 40.4881C79.2384 38.1557 80.4449 36.724 80.4449 34.5846V22.1986C80.4795 21.5608 80.3872 20.9224 80.1732 20.3206C79.9593 19.7187 79.628 19.1654 79.1985 18.6925C78.7691 18.2197 78.25 17.8368 77.6715 17.5661C77.093 17.2954 76.4664 17.1422 75.8282 17.1155M54.0803 48.724C57.1366 48.724 59.1634 50.0753 59.1634 51.8286V57.2656M52.7291 48.8849C51.7167 48.9326 50.7103 49.0671 49.721 49.287C48.7778 49.3958 47.9 49.8235 47.233 50.4992C46.566 51.175 46.1498 52.0583 46.0534 53.0029V58.7777M40.4395 59.0511V52.0377C40.323 51.312 39.9477 50.6531 39.3828 50.1829C38.8179 49.7127 38.1019 49.463 37.3671 49.4801H33.3939H29.4207C28.686 49.463 27.9699 49.7127 27.4051 50.1829C26.8402 50.6531 26.4648 51.312 26.3484 52.0377V59.0511M12.595 48.6919C9.53871 48.6919 7.5119 50.0431 7.5119 51.7964V57.2334M13.9462 48.8527C14.9586 48.9004 15.9649 49.0349 16.9543 49.2549C17.8975 49.3636 18.7753 49.7913 19.4423 50.467C20.1093 51.1428 20.5254 52.0261 20.6218 52.9707V58.7455M40.0213 17.2281V14.7669C39.9124 14.0824 39.559 13.4606 39.0265 13.0169C38.4941 12.5732 37.8188 12.3377 37.1258 12.3541H33.3939H29.662C28.9691 12.3377 28.2938 12.5732 27.7613 13.0169C27.2289 13.4606 26.8754 14.0824 26.7666 14.7669V17.2281M51.2813 13.3353C48.402 13.3353 46.4556 14.6061 46.4556 16.2629V17.598M52.5199 13.4801C53.4726 13.531 54.4195 13.6601 55.351 13.8661C56.2412 13.9681 57.0696 14.3716 57.6988 15.0095C58.3279 15.6474 58.7198 16.4814 58.8095 17.3728V20.1718M15.5065 13.3353C18.3859 13.3353 20.3323 14.6061 20.3323 16.2629V17.598M14.1714 13.4801C13.2187 13.531 12.2719 13.6601 11.3403 13.8661C10.4502 13.9681 9.62173 14.3716 8.9926 15.0095C8.36346 15.6474 7.97152 16.4814 7.88187 17.3728V20.1718M66.8846 35.2763C65.3272 37.4312 63.1667 39.0768 60.6754 40.0055M44.5896 43.9305C43.6406 44.027 42.6754 44.1235 41.6942 44.1878M25.0937 43.9144C24.1285 43.8018 23.1795 43.6892 22.2465 43.5444M6.67544 38.7187C3.82825 36.9975 2.1875 35.0833 2.1875 32.96C2.1875 26.6383 16.8256 21.4908 34.8738 21.4908C45.5065 21.4908 54.9489 23.2763 60.9167 26.0431M70.166 11.4854C70.1692 12.611 70.5059 13.7103 71.1335 14.6447C71.7612 15.579 72.6516 16.3063 73.6924 16.7349C74.7332 17.1634 75.8776 17.2739 76.9812 17.0523C78.0847 16.8308 79.0978 16.2872 79.8926 15.4902C80.6874 14.6932 81.2281 13.6785 81.4465 12.5744C81.6649 11.4702 81.5512 10.3261 81.1198 9.28651C80.6883 8.24694 79.9584 7.35855 79.0224 6.73355C78.0863 6.10855 76.986 5.77498 75.8604 5.77498C74.3613 5.78768 72.9277 6.39102 71.8707 7.45407C70.8137 8.51713 70.2185 9.95413 70.2143 11.4533L70.166 11.4854ZM58.8738 42.7884C58.877 43.9892 58.5236 45.1639 57.8585 46.1636C57.1934 47.1633 56.2464 47.9431 55.1376 48.4041C54.0289 48.8651 52.8082 48.9865 51.6304 48.7531C50.4525 48.5196 49.3704 47.9417 48.5214 47.0926C47.6723 46.2435 47.0944 45.1615 46.8609 43.9836C46.6274 42.8057 46.7489 41.5851 47.2099 40.4763C47.6708 39.3675 48.4506 38.4206 49.4504 37.7555C50.4501 37.0903 51.6248 36.7369 52.8256 36.7401C54.4297 36.7401 55.9681 37.3774 57.1023 38.5116C58.2366 39.6459 58.8738 41.1843 58.8738 42.7884ZM7.91404 42.7884C7.91404 43.9846 8.26877 45.154 8.93336 46.1486C9.59795 47.1432 10.5426 47.9185 11.6477 48.3762C12.7529 48.834 13.969 48.9538 15.1423 48.7204C16.3155 48.4871 17.3932 47.911 18.2391 47.0652C19.0849 46.2193 19.661 45.1416 19.8943 43.9683C20.1277 42.7951 20.0079 41.579 19.5502 40.4738C19.0924 39.3686 18.3172 38.424 17.3225 37.7594C16.3279 37.0949 15.1585 36.7401 13.9623 36.7401C12.3582 36.7401 10.8198 37.3774 9.68553 38.5116C8.55127 39.6459 7.91404 41.1843 7.91404 42.7884ZM39.4422 43.4318C39.439 44.6274 39.0816 45.7951 38.4151 46.7877C37.7485 47.7802 36.8028 48.5529 35.6974 49.0082C34.5919 49.4635 33.3763 49.581 32.2041 49.3458C31.032 49.1106 29.9558 48.5333 29.1115 47.6868C28.2673 46.8403 27.6928 45.7626 27.4607 44.5898C27.2287 43.417 27.3494 42.2017 27.8076 41.0975C28.2659 39.9932 29.0411 39.0496 30.0354 38.3857C31.0297 37.7218 32.1984 37.3675 33.3939 37.3675C34.1896 37.3675 34.9774 37.5244 35.7122 37.8294C36.4471 38.1344 37.1146 38.5813 37.6764 39.1447C38.2382 39.708 38.6834 40.3766 38.9864 41.1123C39.2894 41.848 39.4443 42.6362 39.4422 43.4318ZM46.8256 7.7857C46.8287 8.91125 47.1654 10.0106 47.7931 10.9449C48.4207 11.8792 49.3111 12.6066 50.3519 13.0351C51.3927 13.4637 52.5371 13.5741 53.6407 13.3526C54.7442 13.1311 55.7574 12.5875 56.5521 11.7905C57.3469 10.9935 57.8876 9.97879 58.106 8.87463C58.3245 7.77047 58.2108 6.62635 57.7793 5.58678C57.3478 4.5472 56.618 3.65881 55.6819 3.03382C54.7458 2.40882 53.6455 2.07525 52.5199 2.07525C51.0224 2.09644 49.5938 2.70844 48.5453 3.77799C47.4969 4.84753 46.9134 6.288 46.9221 7.7857H46.8256ZM39.0883 6.6597C39.0851 7.78525 38.7485 8.88461 38.1208 9.81893C37.4932 10.7532 36.6027 11.4806 35.5619 11.9091C34.5212 12.3377 33.3767 12.4481 32.2732 12.2266C31.1697 12.0051 30.1565 11.4615 29.3618 10.6645C28.567 9.86745 28.0262 8.85278 27.8078 7.74862C27.5894 6.64447 27.7031 5.50034 28.1346 4.46077C28.566 3.4212 29.2959 2.53281 30.232 1.90781C31.1681 1.28281 32.2684 0.949246 33.3939 0.949242C34.1437 0.947106 34.8864 1.09347 35.5793 1.37989C36.2722 1.66631 36.9015 2.08711 37.4309 2.61802C37.9603 3.14892 38.3794 3.77941 38.6638 4.4731C38.9483 5.1668 39.0926 5.90996 39.0883 6.6597ZM19.7854 7.7857C19.7821 8.91465 19.4432 10.0171 18.812 10.9531C18.1807 11.8891 17.2855 12.6163 16.24 13.0423C15.1945 13.4684 14.046 13.5741 12.9403 13.3459C11.8347 13.1178 10.8218 12.5662 10.0303 11.7611C9.23885 10.956 8.70456 9.93389 8.49531 8.8245C8.28606 7.71511 8.41129 6.56855 8.85511 5.53049C9.29892 4.49243 10.0413 3.60972 10.9879 2.99449C11.9345 2.37927 13.0426 2.05931 14.1714 2.07525C14.9212 2.07311 15.6639 2.21948 16.3568 2.5059C17.0497 2.79232 17.679 3.21312 18.2084 3.74402C18.7378 4.27493 19.1568 4.90542 19.4413 5.59911C19.7258 6.2928 19.87 7.03596 19.8658 7.7857H19.7854Z" stroke="#089247" stroke-width="1.19" stroke-miterlimit="10" stroke-linecap="round"/>
</g>
<defs>
<clipPath id="clip0_73_121">
<rect width="82.5523" height="60" fill="white"/>
</clipPath>
</defs>
</svg>
