<svg width="114" height="121" viewBox="0 0 114 121" fill="none" xmlns="http://www.w3.org/2000/svg">
<g opacity="0.64">
<mask id="mask0_73_103" style="mask-type:luminance" maskUnits="userSpaceOnUse" x="7" y="73" width="99" height="41">
<path d="M105.568 73.7319H7.99219V113.848H105.568V73.7319Z" fill="white"/>
</mask>
<g mask="url(#mask0_73_103)">
<path d="M103.397 93.7897C103.397 83.9127 82.5138 75.9026 56.7685 75.9026C31.0232 75.9026 10.1621 83.9127 10.1621 93.7897C10.1621 103.667 31.0232 111.677 56.7685 111.677C82.5138 111.677 103.397 103.667 103.397 93.7897Z" fill="#FBEBCC"/>
</g>
</g>
<path d="M90.002 92.0099C82.8602 99.1951 73.07 109.072 56.7675 109.072C40.4651 109.072 30.7183 99.1951 23.5548 92.0099C20.0816 88.4932 17.2162 85.6495 14.3725 84.7595C18.0656 82.1249 22.0589 79.9388 26.2683 78.2472C28.591 80.8738 37.9687 89.9476 56.7675 89.9476C57.6358 89.9476 58.439 89.9476 59.2639 89.9476H59.4593C76.4998 89.1011 85.096 80.787 87.2885 78.2472C91.4912 79.9386 95.4773 82.1248 99.1626 84.7595C96.3406 85.6712 93.4752 88.5149 90.002 92.0316M33.562 69.7812C39.6785 75.8903 47.4522 80.0715 55.9209 81.8073C53.7773 83.7321 51.4995 85.5022 49.1047 87.104C41.1115 86.1334 33.6745 82.5104 27.9832 76.8145C29.495 74.214 31.3739 71.8452 33.562 69.7812ZM56.7675 9.95489C59.3731 10.1157 61.9169 10.8163 64.2375 12.0121C66.558 13.2078 68.6048 14.8728 70.248 16.9013C72.665 19.8665 74.3993 23.3277 75.3276 27.0388C73.5159 23.6416 70.8529 20.7731 67.5993 18.7145C64.3458 16.6558 60.6133 15.4775 56.7675 15.295C52.9293 15.4748 49.2034 16.6474 45.954 18.6982C42.7046 20.7491 40.0429 23.608 38.2292 26.9954C39.1997 23.2918 40.9706 19.8462 43.4173 16.9013C45.0572 14.8744 47.1003 13.2103 49.4171 12.0145C51.7339 10.8187 54.2739 10.1174 56.8761 9.95489M56.8761 67.3934C43.3739 64.1806 38.9238 49.8536 37.5563 38.3051C37.5563 27.4513 46.782 17.6394 56.8761 17.6394C66.9701 17.6394 76.1742 27.4947 76.1959 38.3051C74.85 49.8536 70.4 64.1806 56.8761 67.3934ZM34.2567 18.0736C41.2466 3.57284 53.2509 2.44404 56.7675 2.44404C60.2842 2.44404 72.3102 3.57284 79.3001 18.0736C86.7458 33.486 78.9745 66.8073 78.7574 67.7841C75.6532 78.2255 66.3406 84.9332 59.2205 87.5815C58.439 87.5815 57.6576 87.5815 56.811 87.5815C55.3783 87.5815 54.0324 87.5815 52.7082 87.4079C55.0583 85.6919 57.2852 83.8132 59.3725 81.7856L59.481 81.677C68.5982 72.7335 72.8746 62.3789 76.0005 50.1792C77.2136 46.3417 78.0426 42.3933 78.4752 38.3919C78.9812 34.3058 78.6658 30.1598 77.5475 26.1972C76.4291 22.2346 74.5305 18.5354 71.9629 15.3167C70.1103 13.0335 67.8023 11.1613 65.1861 9.81957C62.5699 8.47781 59.7027 7.69588 56.7675 7.52363H56.6156C53.6804 7.69588 50.8133 8.47781 48.197 9.81957C45.5808 11.1613 43.2728 13.0335 41.4202 15.3167C38.8717 18.5437 36.9926 22.2467 35.893 26.209C34.7934 30.1713 34.4954 34.3131 35.0165 38.3919C37.0787 56.1488 44.481 66.9592 56.4202 69.651H56.659H56.8978C61.8829 68.5438 66.3581 65.8098 69.6185 61.8796C66.9995 68.5303 63.0556 74.579 58.0266 79.6582C49.1428 78.2885 40.9572 74.0317 34.7343 67.5453C33.9962 64.2892 27.0932 32.8131 34.2567 18.0736ZM85.5085 76.7928C80.2486 82.0646 73.4697 85.5566 66.1235 86.7783C72.5596 82.9821 77.5531 77.1563 80.3204 70.2154C82.3173 72.1421 84.041 74.3332 85.4434 76.7277M105.393 86.6047L105.262 86.4527V86.3225C105.2 86.2475 105.127 86.1817 105.045 86.1271C104.764 85.8631 104.467 85.6166 104.155 85.389C99.1769 81.4886 93.6461 78.3501 87.7444 76.0764C86.0184 72.9903 83.8212 70.1925 81.2321 67.7841C82.3826 62.7262 88.8298 32.4006 81.4709 17.1401C73.8081 1.31524 60.6315 0.0996094 56.7675 0.0996094C52.9036 0.0996094 39.727 1.31524 32.151 17.0533C24.7921 32.2487 31.2393 62.6394 32.3898 67.6973C29.8005 70.1054 27.6032 72.9032 25.8775 75.9896C20.0195 78.2945 14.5392 81.4627 9.61848 85.389C9.26592 85.6313 8.93212 85.8998 8.61993 86.1922L8.44627 86.3442V86.4744V86.6264C3.54359 96.7135 0.674299 107.667 0.00198723 118.862C-0.0159318 119.17 0.0878857 119.472 0.290993 119.703C0.494101 119.935 0.780178 120.077 1.08737 120.1C1.38379 120.1 1.6695 119.989 1.887 119.788C2.1045 119.586 2.23763 119.31 2.25958 119.014C2.86633 108.276 5.48019 97.7472 9.96581 87.9723C10.1395 87.8203 10.4217 87.5815 10.8124 87.2993C11.3009 86.9489 11.8829 86.7523 12.4839 86.7349C14.9369 86.7349 17.9542 89.7957 21.7748 93.638C29.2205 101.149 39.4014 111.417 56.659 111.417C73.9166 111.417 84.1192 101.149 91.5649 93.638C95.3855 89.7957 98.4028 86.7566 100.856 86.7349C101.464 86.752 102.053 86.9483 102.549 87.2993L103.396 87.9723C107.877 97.7486 110.491 108.277 111.102 119.014C111.124 119.31 111.257 119.586 111.474 119.788C111.692 119.989 111.978 120.1 112.274 120.1C112.581 120.077 112.867 119.935 113.07 119.703C113.274 119.472 113.377 119.17 113.359 118.862C112.778 107.707 110.028 96.7724 105.262 86.6698" fill="#089247"/>
</svg>
