<svg xmlns="http://www.w3.org/2000/svg" viewBox="0 0 17.54 6.52"><defs><style>.cls-1{fill:#f26222;}</style></defs><g id="Layer_2" data-name="Layer 2"><g id="Layer_1-2" data-name="Layer 1"><path class="cls-1" d="M3.5,1.52,3.43,2,1.25,4.33a3.73,3.73,0,0,1,2.22,1A2.71,2.71,0,0,0,7,5.06l.45.46s-2,2.22-4.87,0A2.6,2.6,0,0,0,1.43,5H0l.08-.44L2.29,2.23H.64l.17-.7,2.65,0"/><path class="cls-1" d="M5.69,2.08c.44.14.62.78.41,1.44s-.74,1.08-1.17.94S4.31,3.67,4.52,3,5.26,1.94,5.69,2.08Zm-.42-.63a2.22,2.22,0,0,0-1.69,1.9,1.55,1.55,0,0,0,2.5,1.46,2.12,2.12,0,0,0,.51-3.06A1.5,1.5,0,0,0,5.27,1.45Z"/><path class="cls-1" d="M10.57,2.64c-.18,1.15-2.27.91-2.27.91a.67.67,0,0,0,0,.4c.57,1,1.77.26,1.77.26l.07.65c-.27.25-2.91.75-2.68-1.29A2.21,2.21,0,0,1,9.4,1.41,1,1,0,0,1,10.57,2.64Zm-1-.55s-.86-.32-1.22.84c0,0,1.55.18,1.45-.56A.38.38,0,0,0,9.6,2.09Z"/><path class="cls-1" d="M11.1,1.56s-.12.62-.12.62h.48l-.32,1.74s-.27,1.09.55,1.19.82-.09.82-.09l0-.64S11.85,4.6,12,4s.34-1.78.34-1.78h.79l.16-.66h-.82L12.6.6l-.9.26a5.31,5.31,0,0,1-.1.68Z"/><ellipse class="cls-1" cx="14.5" cy="0.51" rx="0.52" ry="0.47" transform="matrix(0.56, -0.83, 0.83, 0.56, 5.97, 12.24)"/><polygon class="cls-1" points="13.91 1.52 13.25 5.02 14.11 5.02 14.76 1.53 13.91 1.52"/><path class="cls-1" d="M17.31,4c0,.09,0,.14,0,.14-.44,1.54-2.52.82-2.52.82l.25-.6a2.55,2.55,0,0,0,.47.14c.93.16,1.12-.56.54-.94a1,1,0,0,0-.21-.1l-.2-.1a.91.91,0,0,1-.42-.92l0-.07c.4-1.4,2.32-.74,2.32-.74l-.23.55A2.85,2.85,0,0,0,16.87,2c-.76-.13-1,.37-.64.73a.87.87,0,0,0,.34.22,1.12,1.12,0,0,1,.75.94A.18.18,0,0,1,17.31,4Z"/></g></g></svg>