<svg xmlns="http://www.w3.org/2000/svg" viewBox="0 0 30.33 30.33"><defs><style>.cls-1{fill:#f1f1ef;}.cls-2{fill:#dfa21c;opacity:0.2;}.cls-3{fill:#036936;}</style></defs><g id="Layer_2" data-name="Layer 2"><g id="Layer_1-2" data-name="Layer 1"><circle class="cls-1" cx="15.17" cy="15.17" r="15.17"/><path class="cls-2" d="M20.88,14.43c0-1.47-3.1-2.66-6.92-2.66S7,13,7,14.43s3.1,2.65,6.92,2.65,6.92-1.19,6.92-2.65"/><path class="cls-3" d="M10.07,8.79a.31.31,0,0,1-.16-.4c.09-.25.32-.2.5-.21L8.69,6.42h5.23l-1.7,1.73,0,0h.19a.33.33,0,0,1,.33.22.29.29,0,0,1-.11.35s0,0-.06.05a5.46,5.46,0,0,1,2.83,1.78,1.48,1.48,0,0,1,1.94.13A1.42,1.42,0,0,1,19,10.42a1.4,1.4,0,0,1,.82,1.49,1.39,1.39,0,0,1,.9.64,2.45,2.45,0,0,1,.2.51c0,.07,0,.1.12.12a.78.78,0,0,1,.71.86v.7a.77.77,0,0,1-.69.82l-.11,0V21a.32.32,0,0,0,.09.23l1,1,.12.12H4.88l0,0,.62-.6c.16-.15.31-.31.47-.47A.24.24,0,0,0,6,21c0-2.37,0-4.73,0-7.09A5.28,5.28,0,0,1,10,8.85l.08,0S10.05,8.81,10.07,8.79Zm7,13.22a.65.65,0,0,0-.11-.12l-.53-.53a.26.26,0,0,1-.09-.22V14a5,5,0,0,0,0-.67,4.8,4.8,0,0,0-1.12-2.55,4.84,4.84,0,0,0-5-1.65A5,5,0,0,0,6.34,14v7.16a.24.24,0,0,1-.09.21L5.61,22l0,0Zm4.32,0,0,0c-.21-.21-.41-.41-.63-.61a.32.32,0,0,1-.09-.23V15.59h-4a.2.2,0,0,0,0,.07v5.39a.33.33,0,0,0,.08.18c.23.23.46.45.68.68a.34.34,0,0,0,.26.11h3.71Zm-4.73-6.76H21a.47.47,0,0,0,.47-.49c0-.25,0-.51,0-.76a.48.48,0,0,0-.53-.53h-4.3ZM9.46,6.73l0,.06,1.37,1.35a.21.21,0,0,0,.14,0h.64a.31.31,0,0,0,.18-.07l.81-.8.58-.58Zm10.06,5.15,0-.05a1.14,1.14,0,0,0-1.83-1c-.15.12-.15.12-.07.3s0,.07,0,.11c0,.22.07.44.11.64l.73.42A1.45,1.45,0,0,1,19.52,11.88Zm-3.1.43s0,0,0,0a1.42,1.42,0,0,1,.93-.41c.08,0,.09-.05.09-.11a1.14,1.14,0,0,0-.65-1.09,1.11,1.11,0,0,0-1.15.12Zm2.14.86a1.11,1.11,0,0,0-.8-.93,1.1,1.1,0,0,0-1.15.33,3.38,3.38,0,0,1,.16.48c0,.1.06.12.16.12h1.63Zm2.09,0a1.12,1.12,0,0,0-1.94-.59c.05.17.11.33.15.49s.05.11.13.11h1.66Z"/><path class="cls-3" d="M11.34,10.57a8,8,0,0,1,.68.79A1.33,1.33,0,0,1,11.85,13c-.16.17-.34.33-.52.51-.3-.34-.7-.59-.82-1.07a1.29,1.29,0,0,1,.19-1.13A8.2,8.2,0,0,1,11.34,10.57Z"/><path class="cls-3" d="M9.57,17.19a1.59,1.59,0,0,1,1.34.74,1.52,1.52,0,0,1,.26.88v.8s0,.09,0,.15a1.62,1.62,0,0,1-1.59-1.62C9.56,17.83,9.57,17.52,9.57,17.19Z"/><path class="cls-3" d="M11.49,19.75a5.44,5.44,0,0,1,.11-1.51,1.58,1.58,0,0,1,1.48-1,.19.19,0,0,1,0,.08c0,.32,0,.65,0,1a1.6,1.6,0,0,1-1.51,1.51Z"/><path class="cls-3" d="M13.11,15a11.11,11.11,0,0,1-.06,1.3,1.58,1.58,0,0,1-1.48,1.26h-.06a.45.45,0,0,1,0-.11,10.4,10.4,0,0,1,0-1.12A1.58,1.58,0,0,1,13,14.94Z"/><path class="cls-3" d="M11.17,15.25a1.59,1.59,0,0,1-1.6-1.66V12.7a1.06,1.06,0,0,1,.56.09,1.58,1.58,0,0,1,1,1.49C11.17,14.6,11.17,14.91,11.17,15.25Z"/><path class="cls-3" d="M9.57,14.94a1.61,1.61,0,0,1,1.59,1.57c0,.29,0,.58,0,.87,0,.11,0,.13-.14.12a1.6,1.6,0,0,1-1.46-1.62Z"/><path class="cls-3" d="M11.47,15.24a11.59,11.59,0,0,1,.09-1.34A1.55,1.55,0,0,1,13,12.69h.06s0,.05,0,.07c0,.33,0,.66,0,1a1.6,1.6,0,0,1-1.5,1.49Z"/></g></g></svg>