<svg xmlns="http://www.w3.org/2000/svg" viewBox="0 0 32.68 22.72"><defs><style>.cls-1{fill:#ec943c;}.cls-2{fill:red;}.cls-3{fill:#fff;}.cls-4,.cls-5{fill:#0e00ab;}.cls-5{font-size:3.92px;font-family:GothamHTF-Medium2, Gotham HTF;font-weight:500;}</style></defs><g id="Layer_2" data-name="Layer 2"><g id="Layer_1-2" data-name="Layer 1"><path class="cls-1" d="M15.81,3.53s3.73.39,5.84,2c0,0,.87-4.3-1.81-5.27,0,0-2.07-.86-3.45.39C16.39.68,14,1.76,15.81,3.53Z"/><polygon class="cls-2" points="21.6 2.43 23 2.52 21.8 3.74 21.6 2.43"/><circle class="cls-3" cx="19.6" cy="2.05" r="0.74"/><path class="cls-4" d="M14.53,3.74a4.74,4.74,0,0,0-2.25,6.78S10,11.26,8.87,7.63c0,0-.94-4.74,2.64-6.61A.79.79,0,0,1,12,1,2.7,2.7,0,0,1,14.53,3.74Z"/><path id="_Path_" data-name="&lt;Path&gt;" class="cls-4" d="M12.66,7.89h0c0-2.18,2.34-3.35,3.86-3.37,2.2,0,5.55,1.56,5.55,3.37s-3.23,3.41-5.55,3.37C15,11.24,12.66,10.07,12.66,7.89Z"/><text class="cls-5" transform="translate(0 17.36)">MHP Desert Hills<tspan x="1.9" y="4.71">for Poultry Co.</tspan></text></g></g></svg>