<svg xmlns="http://www.w3.org/2000/svg" viewBox="0 0 30.33 30.33"><defs><style>.cls-1{fill:#f1f1ef;}.cls-2{fill:#dfa21c;opacity:0.2;}.cls-3{fill:#036936;}</style></defs><g id="Layer_2" data-name="Layer 2"><g id="Layer_1-2" data-name="Layer 1"><circle class="cls-1" cx="15.17" cy="15.17" r="15.17"/><path class="cls-2" d="M22.73,14.93c0-1.47-3.1-2.66-6.92-2.66s-6.93,1.19-6.93,2.66,3.1,2.65,6.93,2.65,6.92-1.18,6.92-2.65"/><path class="cls-3" d="M23.72,19c-.09.25-.13.4-.19.55l-.72,1.81a.38.38,0,0,1-.42.3H9.58c-.13,0-.34-.08-.38-.18-.32-.73-.6-1.48-.89-2.22a.61.61,0,0,1,0-.15c.25-.06.55,0,.71-.19a2.23,2.23,0,0,0,.31-.76l-.52.33-.09-.1A3.43,3.43,0,0,1,10.19,17l-.74.08a1.24,1.24,0,0,1,.82-.7c.32-.11.66-.19,1-.29a5.59,5.59,0,0,1,.11-4,2,2,0,0,1-.6-.21c-.2-.19-.11-.48.26-1.13l-1-.38c-.25-.09-.26-.29-.12-.42a5,5,0,0,1,.74-.53c.17-.11.35-.2.55-.31a1.53,1.53,0,0,1-.24-.3,1.08,1.08,0,0,1-.1-.45c0-.14.12-.36.2-.36.44,0,.52-.7,1-.55a.5.5,0,0,0,.47,0,.59.59,0,0,1,.45-.06c.39.14.9.22,1.1.5a2.54,2.54,0,0,1,.2,1.26c0,.13-.18.27-.28.41.19.53.4,1.07.58,1.62a2.11,2.11,0,0,0,1.83,1.54,12.25,12.25,0,0,0,2,.08,1.37,1.37,0,0,0,1.31-1A15.79,15.79,0,0,1,21,9.68a1,1,0,0,1,.42-.38.82.82,0,0,1,.63,0c.15.07.21.34.26.54a1.38,1.38,0,0,1,0,.4c.64.29.71.67.33,1.68.5.32.52.46.19,1.66a.61.61,0,0,1,.31.83,2.8,2.8,0,0,1-1.35,1.74c-.2.11-.31.39-.45.58.21.13.53.22.61.41.23.56.79.86,1,1.42C23.1,18.82,23.2,19.13,23.72,19Zm-.34.28H8.58c.25.64.5,1.25.73,1.86a.36.36,0,0,0,.4.27h3.7c2.95,0,5.9,0,8.84,0,.11,0,.29,0,.32-.11C22.85,20.62,23.11,20,23.38,19.26Zm-2.89-2.48v-.14a1.59,1.59,0,0,0,.5-.1,2.55,2.55,0,0,0,.43-.38c-.13-.13-.23-.33-.38-.38a10.94,10.94,0,0,0-1.26-.29,6.42,6.42,0,0,1-3-1.15,1.86,1.86,0,0,0-.59-.27,1.69,1.69,0,0,0-2.22,2,5.79,5.79,0,0,0,1.16,2.42,1.32,1.32,0,0,0,1.63.45v-.38a4.26,4.26,0,0,0,.95.41,5.51,5.51,0,0,0,1.08,0l-.1-.59a1.42,1.42,0,0,0,.38.13c.45.06.89.1,1.34.13a.28.28,0,0,0,.21-.13c0-.07-.05-.17-.1-.23s-.19-.13-.27-.21a1.79,1.79,0,0,1-.2-.26l.06-.07.35.06a1.68,1.68,0,0,0,1.17-.08c.33-.16.35-.42,0-.57a5.26,5.26,0,0,0-.87-.3Zm-9.18-1.36a6.06,6.06,0,0,0,2.5,3.36,2.26,2.26,0,0,0,1.46.2,2,2,0,0,1-.22-.24,6.27,6.27,0,0,1-1.3-2.57,1.88,1.88,0,0,1,1.49-2.37,2.06,2.06,0,0,1,1.67.35,6.1,6.1,0,0,0,2.74,1.08,4.36,4.36,0,0,1,2,.61l.28-.56-.5,0a1.93,1.93,0,0,0,.65-1.5l-.73.58-.07,0c0-.1.05-.21.08-.31.14-.39.3-.77.43-1.16a1.08,1.08,0,0,0,0-.36l-.11,0c-.29.32-.5.76-1.1.82a3.63,3.63,0,0,0,.21-.34,8.75,8.75,0,0,0,.53-1.17c.05-.14-.08-.34-.13-.52-.17,0-.39.06-.5.17-.28.26-.48.61-.77.87a2.22,2.22,0,0,1-.91.61,4.67,4.67,0,0,1-4-.65l-.6.53a.3.3,0,0,0-.07.1c0,.57-.42.73-.91.76a.86.86,0,0,1-1,.82C12.3,15.19,12.06,15.4,11.31,15.42Zm1-4.73a6.94,6.94,0,0,1,.22,1c0,.6-.41.85-.95.54l-.35,1.45c.18,0,.37.05.42,0a8.52,8.52,0,0,0,.52-.8c.55.09.63,0,.76-.63.73,0,.73,0,.82-.6.42-.11.71-.4.62-.67a10.48,10.48,0,0,0-.45-1.22,1.59,1.59,0,0,0-1.14-.9,1.34,1.34,0,0,0-1.47.47l.3.13c.52-.35.91-.31,1.18.11S12.92,10.36,12.32,10.69ZM9.85,17.8,9.17,19h4.5a6.43,6.43,0,0,1-2.22-2.51c0-.05-.1-.12-.14-.11l-1.15.28,0,.07,1,.08,0,.16a3.58,3.58,0,0,0-1.6.78Zm12.39-5.54c.06-.16.11-.29.15-.42a4.84,4.84,0,0,0,.24-1c0-.31-.21-.42-.51-.33a1.3,1.3,0,0,1-.21,0A2.48,2.48,0,0,0,22.1,10a.69.69,0,0,0-.14-.5c-.07-.07-.36,0-.48.11a5.93,5.93,0,0,0-1.19,1.77c.3-.25.61-.53,1-.3s.18.79.17,1.21c.4-.08.57,0,.53.42a5.4,5.4,0,0,1-.18.89c.4,0,.51.09.46.51a.88.88,0,0,1-.07.33,1.72,1.72,0,0,0-.12,1.2c.71-.56,1.05-1.4.72-1.79l-.36.21a2.74,2.74,0,0,1,.07-.37c.09-.29.22-.57.29-.87C22.92,12.29,22.77,12.15,22.24,12.26Zm-7.75-.79c-.17.18-.41.33-.51.54a.8.8,0,0,1-.63.51.35.35,0,0,0-.23.13.75.75,0,0,1-.83.52.86.86,0,0,1-1,.8s0,.06,0,.08c0,.24,0,.48,0,.72s.28.55.57.32a1.6,1.6,0,0,0,.37-.65.89.89,0,0,0,0-.33c.65.11,1,.06,1-.78.88-.05.88-.05.92-.76C14.62,12.46,15,12,14.49,11.47Zm-.6-2.94c0-.25.16-.5.08-.62-.2-.3-.47-.09-.71,0-.22-.53-.37-.55-.79-.11-.56-.29-.58-.28-.71.4,0,0-.09,0-.12,0s-.31-.19-.4,0a.64.64,0,0,0,0,.49c.06.17.22.12.39.08a2.74,2.74,0,0,1,1.13-.11A5.42,5.42,0,0,1,14,9.2C14.28,9,14.27,8.81,13.89,8.53Zm8.28,9.28-1.39.36c.2.51.06.72-.55.74-.39,0-.79-.05-1.18-.07a.31.31,0,0,0,.26.16h3.31L23,19ZM11.73,10.5a2.16,2.16,0,0,0-.31.29,6.41,6.41,0,0,0-.45.7c0,.07,0,.18.06.28l.27-.1.33-.19c0,.13.1.26.16.39s.13.21.19.31c.11-.09.26-.17.3-.28A1.55,1.55,0,0,0,11.73,10.5ZM10.16,10c.32.16.6.31.89.43a.4.4,0,0,0,.32,0c.3-.18.12-.47.11-.71,0-.05-.3-.15-.46-.14A1.06,1.06,0,0,0,10.16,10Zm1.9-.57a.43.43,0,0,0-.31.52.43.43,0,0,0,.44.43.49.49,0,0,0,.48-.32c-.21,0-.46,0-.54-.08S12.07,9.67,12.06,9.47Z"/></g></g></svg>