<svg xmlns="http://www.w3.org/2000/svg" viewBox="0 0 15.4 15.41"><defs><style>.cls-1{fill:#dfa21c;opacity:0.2;}.cls-2{fill:#036936;}</style></defs><g id="Layer_2" data-name="Layer 2"><g id="Layer_1-2" data-name="Layer 1"><path class="cls-1" d="M14.62,8.35c0-1.47-3.1-2.65-6.92-2.65S.78,6.88.78,8.35,3.88,11,7.7,11s6.92-1.19,6.92-2.66"/><path class="cls-2" d="M5,0h5.54c.14.06.28.1.41.17a1.07,1.07,0,0,1,.52.93c0,.31,0,.63,0,.95.26,0,.51,0,.68.2s.07.46.12.71h.53a1.07,1.07,0,0,1,1.08,1.1V5.45s.05.1.08.16a1,1,0,0,1,.15.32,3.32,3.32,0,0,1,0,.63.34.34,0,0,1-.11.25.36.36,0,0,0-.13.37,1.61,1.61,0,0,1,0,.31c0,.07,0,.17-.1.18s-.14.14-.13.25,0,.22,0,.33a.14.14,0,0,0,.06.11c.15.05.18.16.18.3v2.58a.29.29,0,0,0,.08.21.51.51,0,0,1,.15.3,4.28,4.28,0,0,1,0,.62.4.4,0,0,1-.16.32s-.08.07-.08.1v1.26c.3,0,.58,0,.85,0a.67.67,0,0,1,.65.87.66.66,0,0,1-.71.48H3.54a.25.25,0,0,1-.21-.27.22.22,0,0,1,.24-.19H14.14a.12.12,0,0,0,.09,0,.23.23,0,0,0-.2-.37H.83c-.25,0-.35.07-.34.22s.1.21.33.21H2.49a.31.31,0,0,1,.22.14.27.27,0,0,1,0,.24.36.36,0,0,1-.23.08c-.52,0-1,0-1.56,0A.77.77,0,0,1,0,14.86v-.27a.74.74,0,0,1,.85-.54H2c.12-.37.23-.72.34-1.08,0,0,0-.1-.06-.13a1.45,1.45,0,0,1-.67-1.28V7.51A1.45,1.45,0,0,1,3.13,6h.13c0-.24,0-.49.12-.71s.43-.16.67-.19V1.39a2.29,2.29,0,0,1,0-.37A1,1,0,0,1,4.57.18,3.12,3.12,0,0,1,5,0ZM8.61,14c0-.42,0-.82,0-1.23a.16.16,0,0,0-.07-.11.41.41,0,0,1-.16-.34c0-.2,0-.39,0-.59a.42.42,0,0,1,.18-.35.2.2,0,0,0,.06-.13c0-1.42,0-2.85,0-4.27a.34.34,0,0,0-.07-.15,1.37,1.37,0,0,1-.16-.32,3.31,3.31,0,0,1,0-.63.54.54,0,0,1,.15-.29.29.29,0,0,0,.09-.21c0-.43,0-.86,0-1.29A1.08,1.08,0,0,1,9.78,3h.44c0-.26-.05-.51.12-.72s.43-.18.67-.19V1.19a.67.67,0,0,0-.74-.74h-5a.68.68,0,0,0-.76.76v3.9c.71-.11.84.31.77.88h.16A1.43,1.43,0,0,1,6.9,7.49c0,1.38,0,2.75,0,4.12a1.37,1.37,0,0,1-.6,1.18c-.13.09-.16.17-.1.29a.38.38,0,0,1,0,.1c.1.29.19.58.28.86Zm.47-4.9v2c0,.15,0,.2.19.2h3.29c.15,0,.2,0,.19-.2v-4c0-.14,0-.19-.18-.19H9.26c-.14,0-.19,0-.18.18Zm-7,1.38h4.3l0,0V9.14c0-.09-.06-.09-.13-.1H2.11Zm8.8-5h1.67c.13,0,.18,0,.17-.17,0-.42,0-.85,0-1.27a1.78,1.78,0,0,0-.14-.5.23.23,0,0,0-.25-.15H9.73a.58.58,0,0,0-.65.63c0,.43,0,.86,0,1.29,0,.13,0,.17.16.16ZM6.42,7.66a1,1,0,0,0-.76-1.17,2.17,2.17,0,0,0-.36,0c-.76,0-1.52,0-2.28,0a1,1,0,0,0-.89,1.19ZM10.9,14h1.7c.12,0,.15,0,.15-.15v-1c0-.1,0-.14-.14-.14H9.23c-.12,0-.15,0-.15.15v1c0,.11,0,.15.16.15ZM6,14c-.09-.31-.19-.62-.29-.92,0,0-.08-.06-.11-.06H2.92a.16.16,0,0,0-.12.09c-.06.14-.1.29-.15.44s-.09.3-.14.45Zm2.8-7.56h4.82V6H8.83Zm0,5.82h4.82v-.47H8.83ZM2.11,8.56H6.43V8.14H2.11Zm4.33,2.87v-.21c0-.22,0-.22-.22-.22h-4s-.07,0-.07.06v.37ZM5.56,12.6c-.06-.22-.12-.42-.19-.61a.13.13,0,0,0-.11-.08h-2a.14.14,0,0,0-.11.06,6.6,6.6,0,0,0-.2.63Zm5.13-9.66h.82c.3,0,.3,0,.27-.3,0,0-.06-.1-.1-.1h-.89a.11.11,0,0,0-.09.08A1.79,1.79,0,0,0,10.69,2.94ZM3.74,6c.31,0,.6,0,.88,0s.21,0,.18-.18V5.72c0-.11,0-.15-.14-.15H3.74Zm-1,5.93H2.15a.94.94,0,0,0,.39.53Zm3.15,0,.16.51a.9.9,0,0,0,.37-.51Z"/><path class="cls-2" d="M9.84,9.05A2,2,0,0,1,10,8.69c.27-.29.56-.57.84-.85a.51.51,0,0,1,.73,0c.29.28.57.56.85.85a.52.52,0,0,1,0,.73q-.42.44-.84.84a.53.53,0,0,1-.75,0c-.28-.27-.56-.55-.82-.83A1.7,1.7,0,0,1,9.84,9.05Zm1.4.9.09-.07.74-.74c.07-.06.06-.11,0-.18l-.74-.74c-.07-.06-.12-.06-.18,0L10.41,9c-.07.06-.07.11,0,.17l.74.74Z"/><path class="cls-2" d="M10.34,4h.41a.22.22,0,0,1,.24.23.21.21,0,0,1-.22.24c-.3,0-.59,0-.89,0a.21.21,0,0,1-.21-.25A.22.22,0,0,1,9.9,4Z"/><path class="cls-2" d="M10.33,5.19H9.91a.22.22,0,0,1-.24-.24.22.22,0,0,1,.24-.23h.84a.22.22,0,0,1,.24.23.22.22,0,0,1-.24.24Z"/></g></g></svg>