<svg xmlns="http://www.w3.org/2000/svg" viewBox="0 0 12.98 72.83"><defs><style>.cls-1{fill:#dfa21c;opacity:0.2;}.cls-2{fill:#036936;}</style></defs><g id="Layer_2" data-name="Layer 2"><g id="Layer_1-2" data-name="Layer 1"><path class="cls-1" d="M13,5.65c0-1.37-2.91-2.49-6.49-2.49S0,4.28,0,5.65,2.91,8.14,6.49,8.14,13,7,13,5.65"/><path class="cls-2" d="M4.66,1.39a.2.2,0,0,1-.09-.24c0-.14.19-.11.29-.12l-1-1H6.92l-1,1V1a.4.4,0,0,1,.11,0,.18.18,0,0,1,.19.12.18.18,0,0,1-.06.21s0,0,0,0A3.22,3.22,0,0,1,7.8,2.44.88.88,0,0,1,9,2.52a.84.84,0,0,1,1-.17.81.81,0,0,1,.47.87.81.81,0,0,1,.53.38,1.11,1.11,0,0,1,.12.3s0,.06.07.06a.48.48,0,0,1,.42.51v.41a.47.47,0,0,1-.41.49h-.06V8.56a.17.17,0,0,0,0,.14l.57.56.07.07H1.6L2,9l.28-.28a.13.13,0,0,0,0-.12V4.41a3.12,3.12,0,0,1,2.31-3h.05A0,0,0,0,1,4.66,1.39Zm4.1,7.76L8.7,9.08l-.31-.31a.18.18,0,0,1-.06-.13V4.45a2.48,2.48,0,0,0,0-.39,2.75,2.75,0,0,0-.65-1.5,2.85,2.85,0,0,0-2.95-1A2.89,2.89,0,0,0,2.47,4.44v4.2a.15.15,0,0,1-.05.13l-.37.36v0Zm2.54,0v0l-.37-.36a.14.14,0,0,1,0-.13V5.38H8.52V8.59a.16.16,0,0,0,.05.1c.13.14.27.27.4.4a.18.18,0,0,0,.15.07H11.3Zm-2.78-4h2.56a.28.28,0,0,0,.28-.29V4.45a.28.28,0,0,0-.31-.3H8.52ZM4.31.18l0,0,.8.79.08,0a2.41,2.41,0,0,0,.38,0A.21.21,0,0,0,5.7,1C5.86.84,6,.68,6.17.52L6.51.18Zm5.9,3a0,0,0,0,0,0,0,.66.66,0,0,0-.35-.65.65.65,0,0,0-.72.07c-.09.07-.09.07,0,.17a.19.19,0,0,1,0,.07l.06.38.44.24A.82.82,0,0,1,10.21,3.2Zm-1.82.25h0A.8.8,0,0,1,9,3.21S9,3.18,9,3.14a.67.67,0,0,0-.38-.63.65.65,0,0,0-.68.07ZM9.65,4A.67.67,0,0,0,8.5,3.61a1.13,1.13,0,0,1,.09.28c0,.06,0,.07.1.07h1Zm1.22,0a.64.64,0,0,0-.44-.53.66.66,0,0,0-.7.19,1.61,1.61,0,0,1,.09.29c0,.05,0,.06.08.06h1Z"/><path class="cls-2" d="M5.41,2.44a4.25,4.25,0,0,1,.4.46.77.77,0,0,1-.1.94l-.31.3c-.17-.2-.41-.35-.48-.63A.77.77,0,0,1,5,2.85C5.14,2.71,5.28,2.58,5.41,2.44Z"/><path class="cls-2" d="M4.37,6.32a1,1,0,0,1,.79.44.9.9,0,0,1,.15.51v.47a.31.31,0,0,1,0,.09.89.89,0,0,1-.55-.19.91.91,0,0,1-.38-.76Z"/><path class="cls-2" d="M5.5,7.82a3.24,3.24,0,0,1,.06-.88.93.93,0,0,1,.87-.61v.61a.94.94,0,0,1-.89.89Z"/><path class="cls-2" d="M6.45,5a6.34,6.34,0,0,1,0,.76.91.91,0,0,1-.87.74h0s0,0,0-.06c0-.22,0-.44,0-.66A.92.92,0,0,1,6.36,5Z"/><path class="cls-2" d="M5.31,5.18a.94.94,0,0,1-.94-1V3.69a.61.61,0,0,1,.33.05.94.94,0,0,1,.61.87Z"/><path class="cls-2" d="M4.37,5a.88.88,0,0,1,.57.2.89.89,0,0,1,.37.72v.51c0,.07,0,.08-.08.07a.94.94,0,0,1-.86-1Z"/><path class="cls-2" d="M5.49,5.18a5.16,5.16,0,0,1,0-.79.91.91,0,0,1,.86-.71h0s0,0,0,0v.58a1,1,0,0,1-.88.87Z"/><path class="cls-1" d="M13,18.14c0-1.37-2.91-2.49-6.49-2.49S0,16.77,0,18.14s2.91,2.49,6.49,2.49S13,19.52,13,18.14"/><path class="cls-1" d="M13,30.38c0-1.38-2.91-2.49-6.49-2.49S0,29,0,30.38s2.91,2.49,6.49,2.49S13,31.75,13,30.38"/><path class="cls-1" d="M13,42.92c0-1.37-2.91-2.49-6.49-2.49S0,41.55,0,42.92s2.91,2.49,6.49,2.49S13,44.3,13,42.92"/><path class="cls-1" d="M13,55.28c0-1.37-2.91-2.49-6.49-2.49S0,53.91,0,55.28s2.91,2.49,6.49,2.49S13,56.66,13,55.28"/><path class="cls-1" d="M13,68.45C13,67.07,10.07,66,6.49,66S0,67.07,0,68.45s2.91,2.49,6.49,2.49S13,69.82,13,68.45"/><path class="cls-2" d="M10.7,20.55V21c0,.13,0,.16-.16.16h-.35v.89c0,.13,0,.15-.15.15H3c-.24,0-.24,0-.24-.22v-.82H2.32c-.17,0-.19,0-.19-.18V15.76l-.36.11c-.11,0-.17,0-.17-.13s0-.48,0-.71a.17.17,0,0,1,.13-.18c.56-.18,1.11-.37,1.67-.54l7.69-2.45.1,0c.07,0,.13,0,.13.1,0,.3,0,.6,0,.91,0,0-.05.08-.09.1a3.38,3.38,0,0,1-.42.13c-.08,0-.1.06-.1.14v6.93a.21.21,0,0,0,.09.2L12.65,22l.08.07a.11.11,0,0,1,0,.15.1.1,0,0,1-.15,0l-.37-.33-1.43-1.25Zm-1.59-3.3c.08.23.17.44.24.66A1.31,1.31,0,0,1,9,19.29a1.93,1.93,0,0,1-.89.5s-.1,0-.11.05a3.68,3.68,0,0,0-.15.35h2.64v-7l-.08,0L2.45,15.66c-.09,0-.12.05-.12.14q0,2.13,0,4.26v.13h.6V20a.51.51,0,0,1,.55-.55H4a2,2,0,0,1-.15-.18.43.43,0,0,1-.05-.48.44.44,0,0,1,.46-.18.86.86,0,0,1,.57.31.51.51,0,0,1,.11.53h.33a.5.5,0,0,1,.52.52v.22h.12l.61,0A.25.25,0,0,0,6.78,20h0l-.09,0a.78.78,0,0,1-.58-.58,1.8,1.8,0,0,1,0-.92c0-.06,0-.09,0-.12A.81.81,0,0,1,5.77,18a1.32,1.32,0,0,1-.09-.62c0-.13.07-.17.19-.12s.27.15.41.21a1.42,1.42,0,0,0,.79.12c.19,0,.38-.1.59-.16v-.11a1.64,1.64,0,0,1,.2-1A.66.66,0,0,1,8.41,16,.16.16,0,0,0,8.5,16a.37.37,0,0,1,.36-.16c.15.05.33.07.43.23s.05.1,0,.14.06.2.13.27a.74.74,0,0,1,.12.13.18.18,0,0,1,0,.13.17.17,0,0,1-.12.06,1.09,1.09,0,0,1-.18,0A.39.39,0,0,1,9.11,17.25ZM7.7,19.65l.15,0a1.67,1.67,0,0,0,1.22-.78,1,1,0,0,0,.13-.66,2.94,2.94,0,0,0-.45-1.1,2.71,2.71,0,0,1-.18-.34c0-.06,0-.12,0-.14s.11,0,.15.08a1.64,1.64,0,0,0,.16.29s.09.07.1.06a.42.42,0,0,0,.11-.15s0-.07,0-.1a1.54,1.54,0,0,0-.19-.17c-.06,0-.12-.07-.08-.15s.1-.07.17,0l.16.05v0a.14.14,0,0,1-.06-.22.18.18,0,0,0,0-.1A.55.55,0,0,0,8.76,16a.52.52,0,0,0-.11.1.24.24,0,0,1-.22.11.5.5,0,0,0-.29.09.77.77,0,0,0-.19.28,1.53,1.53,0,0,0-.07.9c0,.12,0,.16-.13.17l-.37.08a1.79,1.79,0,0,1-.57.09A2,2,0,0,1,6,17.57l-.1,0a.78.78,0,0,0,.21.59.13.13,0,0,0,.16.05c.08,0,.15.06.11.15a1.52,1.52,0,0,0-.09.84.69.69,0,0,0,.87.64.55.55,0,0,0,.45-.45c0-.06.06-.1.13-.09a.11.11,0,0,1,.07.16C7.76,19.49,7.73,19.56,7.7,19.65Zm-5.89-4,.56-.16L8,13.73l3-.93c.09,0,.13-.06.12-.16s0-.3,0-.45,0-.07,0-.11l-.08,0-1.37.43L3,14.66,1.89,15a.19.19,0,0,0-.08.07ZM3,21.2V22h7V21.2Zm-.65-.8c0,.16,0,.31,0,.47s0,.12.13.12h8V20.4Zm3.24-.21a1.08,1.08,0,0,0,0-.18.71.71,0,0,0,0-.21.31.31,0,0,0-.3-.15H3.48l-.11,0a.28.28,0,0,0-.23.26c0,.05,0,.1,0,.16s0,.11.12.11H5.58Zm-1.09-.76c.12,0,.21,0,.26-.09a.22.22,0,0,0,0-.24.63.63,0,0,0-.55-.29.18.18,0,0,0-.17.28A.63.63,0,0,0,4.49,19.43Zm3.25.45v0l-.34.09a1.42,1.42,0,0,1-.22.07.36.36,0,0,0-.23.17h.68Z"/><path class="cls-2" d="M7,19l-.43-.11a.1.1,0,0,1-.09-.14c0-.07.09-.07.16-.05a1,1,0,0,0,1.3-.53c0-.06.08-.11.15-.07s.07.09,0,.16A1.29,1.29,0,0,1,7,19Z"/><path class="cls-2" d="M12.36,26.53a.62.62,0,0,1,.14.66s0,.09,0,.13a.68.68,0,0,1,0,.82,1.66,1.66,0,0,1-.78.58.25.25,0,0,0-.19.23,1,1,0,0,1-.7.93s-.07.09-.07.14c0,.32,0,.64-.09.94a1.45,1.45,0,0,1-.42.74.22.22,0,0,0-.06.15c.1.54.21,1.07.32,1.63l.32-.11a.17.17,0,0,1,.25.11.18.18,0,0,1-.13.24,2.24,2.24,0,0,1-1.25.2c-.11,0-.18-.07-.18-.18s.07-.19.2-.19h.42L9.9,32c-.15.05-.3.13-.37,0s.08-.24.2-.3a1.42,1.42,0,0,0,.72-1.29,5.07,5.07,0,0,0,0-.55.22.22,0,0,1,.18-.27h.06c.44-.06.57-.39.57-.81a.26.26,0,0,1,.22-.3,1.46,1.46,0,0,0,.73-.42c.21-.23.18-.38-.09-.53a.19.19,0,0,1-.05-.3c.19-.21.16-.33-.09-.45s-.21-.24,0-.38A.79.79,0,0,0,12,25.28l-.17.2a5.26,5.26,0,0,1-2.46,1.8,19.51,19.51,0,0,1-2,.45,8.74,8.74,0,0,0-2.31.6,15,15,0,0,1-1.57.61l-1.1.37a1.33,1.33,0,0,0-.34.16.94.94,0,0,0-.54.84v.54l.17-.13a.48.48,0,0,1,.46-.13.66.66,0,0,0,.28,0A.54.54,0,0,0,3,30c0-.17.07-.24.2-.24s.19.13.17.25-.07.35-.11.55a3,3,0,0,0,1.39.82,7.81,7.81,0,0,0,1.08.16,8.44,8.44,0,0,0,.87,0,.92.92,0,0,1,.61.3,3.71,3.71,0,0,0,.69.55c.19.12.31.08.48-.08A2.44,2.44,0,0,0,9,31.32a.36.36,0,0,1,0-.1.18.18,0,0,1,.22-.14.17.17,0,0,1,.14.22,2.6,2.6,0,0,1-.85,1.47.74.74,0,0,0-.16.19c-.12.26-.23.53-.36.83h.24c.12,0,.2.06.19.19s-.07.19-.2.19c-.42,0-.84,0-1.26,0-.12,0-.21-.05-.21-.18s.08-.2.21-.2h.5a.22.22,0,0,0,.14-.08c.13-.26.24-.54.34-.77l-.84-.58,0,0C6.87,32,6.58,32,6.26,32a6.52,6.52,0,0,1-1.7-.19,3.52,3.52,0,0,1-1.49-.85.2.2,0,0,0-.23,0c-.22,0-.45.05-.67.08a.61.61,0,0,0-.25.08c-.12.08-.21.19-.32.28a.37.37,0,0,1-.26.08c-.06,0-.12-.14-.13-.21,0-.29,0-.58,0-.87a.27.27,0,0,0-.11-.25.87.87,0,0,1-.39-.75.51.51,0,0,1,.3-.46.28.28,0,0,0,.12-.16.53.53,0,0,1,.52-.42.29.29,0,0,0,.16,0c.51-.32.9-.12,1,.47a.41.41,0,0,0,0,.07c.36-.12.73-.23,1.08-.36A7.75,7.75,0,0,0,4.78,28,8.35,8.35,0,0,1,7,27.42a13.93,13.93,0,0,0,2.22-.48,5.06,5.06,0,0,0,2.08-1.45l.41-.49a.3.3,0,0,1,.48,0,1,1,0,0,1,.31,1A5.54,5.54,0,0,1,12.36,26.53ZM1.23,29.78h.06A1.52,1.52,0,0,1,2.17,29c.21-.08.23-.11.17-.32a.32.32,0,0,0-.15-.2.18.18,0,0,0-.22.16.19.19,0,0,1-.3.12.67.67,0,0,0-.15-.06.83.83,0,0,0-.06.21c0,.24,0,.27-.25.29s-.2.09-.16.22A2.42,2.42,0,0,0,1.23,29.78Z"/><path class="cls-2" d="M7.93,30.28l-.56-.06c-.17,0-.23-.11-.2-.24s.15-.15.27-.13a3,3,0,0,0,1.89-.27,2.5,2.5,0,0,0,.91-.74c.1-.13.2-.16.3-.08s.08.21,0,.31A3.19,3.19,0,0,1,7.93,30.28Z"/><path class="cls-2" d="M2.37,33.62a.6.6,0,0,1,.19,0c.07,0,.16.11.17.18a.27.27,0,0,1-.15.18,1.36,1.36,0,0,1-.45,0A.27.27,0,0,1,2,33.79a.16.16,0,0,1,.18-.17Z"/><path class="cls-2" d="M5.32,34.16c-.13,0-.22,0-.23-.17s.07-.19.19-.2l.34,0c.12,0,.22,0,.23.18s-.07.19-.19.2Z"/><path class="cls-2" d="M1.18,33.54A.18.18,0,0,1,1,33.37c0-.14.08-.2.21-.21l.34,0a.18.18,0,0,1,.21.17.18.18,0,0,1-.17.2Z"/><path class="cls-2" d="M3.87,34c-.07-.06-.15-.09-.16-.14a.22.22,0,0,1,0-.2,2.38,2.38,0,0,1,.44-.25.19.19,0,0,1,.18.08s0,.16,0,.19S4.05,33.84,3.87,34Z"/><path class="cls-2" d="M2.37,30c0,.15-.19.31-.3.3a.18.18,0,0,1-.18-.19c0-.12.16-.27.27-.25A.7.7,0,0,1,2.37,30Z"/><path class="cls-2" d="M2.26,40.61s0,0,0-.06.09-.06.13,0,.07.06.1.1a.4.4,0,0,1,0,.11V47.2h1a.08.08,0,0,0,.09-.06A1.42,1.42,0,0,1,3.64,47a.56.56,0,0,1,.54-.35H8.71a.56.56,0,0,1,.53.35c0,.08.06.19.12.23s.17,0,.26,0h.74V45.5a.13.13,0,0,1,.13-.12.12.12,0,0,1,.13.12v1.64c0,.24-.09.33-.34.33H9.4a.28.28,0,0,1-.3-.2A.89.89,0,0,1,9,47.1a.35.35,0,0,0-.34-.22H4.26a.37.37,0,0,0-.41.27.43.43,0,0,1-.5.33c-.24,0-.49,0-.73,0s-.28,0-.36-.24Z"/><path class="cls-2" d="M8.82,38.57a.89.89,0,0,1,.45.28.39.39,0,0,0,.29.11h.69a.33.33,0,0,1,.37.37v5.52a.28.28,0,0,1,0,.09.12.12,0,0,1-.12.09c-.07,0-.11,0-.12-.1a.49.49,0,0,1,0-.12V39.38c0-.16,0-.16-.15-.16H9.58A.7.7,0,0,1,9,39a.43.43,0,0,0-.35-.16c-1.5,0-3,0-4.49,0a.46.46,0,0,0-.36.16.68.68,0,0,1-.54.23H2.64c-.09,0-.12,0-.12.11,0,.23,0,.45,0,.67a.12.12,0,0,1-.1.14.12.12,0,0,1-.15-.09v-.78c.09-.26.16-.31.43-.31h.64a.36.36,0,0,0,.28-.11.89.89,0,0,1,.45-.28Z"/><path class="cls-2" d="M6.43,46.13H3.37c-.25,0-.35-.1-.35-.35v-4c0-.24.1-.34.34-.34H9.53c.23,0,.34.1.34.34v4a.3.3,0,0,1-.34.34Zm-2.57-.27a1.58,1.58,0,0,1-.11-.37,1.14,1.14,0,0,1,.5-1,.38.38,0,0,1,.5,0,1.28,1.28,0,0,1,.44.77.65.65,0,0,1-.09.49l0,0h.78a.72.72,0,0,1-.13-.52,1.32,1.32,0,0,1,.4-.75.43.43,0,0,1,.65,0,1.39,1.39,0,0,1,.39.71.6.6,0,0,1-.09.49l0,.07H7.8c0-.1-.08-.2-.1-.3a1.17,1.17,0,0,1,.52-1.06.34.34,0,0,1,.4,0,1.16,1.16,0,0,1,.52,1,1.82,1.82,0,0,1-.11.38H9.6v-2H3.29v2Zm2-2.23c-.12-.27-.15-.35-.12-.5a1.31,1.31,0,0,1,.42-.78.42.42,0,0,1,.62,0,1.43,1.43,0,0,1,.34.5.77.77,0,0,1-.06.76h.78a.74.74,0,0,1-.14-.47,1.24,1.24,0,0,1,.44-.81.41.41,0,0,1,.6,0,1.31,1.31,0,0,1,.31.43.78.78,0,0,1,0,.83v0H9.6v-2H3.29v2h.57a1.42,1.42,0,0,1-.11-.33,1.15,1.15,0,0,1,.5-1,.37.37,0,0,1,.49,0,1.25,1.25,0,0,1,.45.77.65.65,0,0,1-.09.49l0,.05ZM6.91,45.4a1,1,0,0,0-.34-.63c-.1-.09-.16-.09-.27,0a1.12,1.12,0,0,0-.3.49.43.43,0,0,0,.44.59A.43.43,0,0,0,6.91,45.4Zm2,0a1,1,0,0,0-.34-.63c-.1-.09-.16-.09-.27,0a1.12,1.12,0,0,0-.3.49.43.43,0,0,0,.43.59A.44.44,0,0,0,8.88,45.4Zm-4.42.46a.43.43,0,0,0,.48-.47,1.05,1.05,0,0,0-.33-.62c-.11-.09-.17-.09-.27,0a1.06,1.06,0,0,0-.31.49A.43.43,0,0,0,4.46,45.86Zm2-2.22a.44.44,0,0,0,.47-.49,1,1,0,0,0-.34-.6c-.1-.1-.16-.09-.27,0a1,1,0,0,0-.3.51A.43.43,0,0,0,6.44,43.64Zm2,0a.43.43,0,0,0,.46-.51,1,1,0,0,0-.34-.6.16.16,0,0,0-.24,0,1,1,0,0,0-.32.51A.43.43,0,0,0,8.41,43.64Zm-3.93,0a.43.43,0,0,0,.46-.47.94.94,0,0,0-.34-.62c-.1-.09-.16-.09-.26,0a1.14,1.14,0,0,0-.31.5A.44.44,0,0,0,4.48,43.64Z"/><path class="cls-2" d="M5,41H3.84c-.21,0-.28-.07-.28-.28v-.85c0-.17.08-.26.25-.26H6.13c.16,0,.24.09.24.26s0,.58,0,.86S6.3,41,6.11,41Zm-1.15-.27H6.11v-.85H3.82Z"/><path class="cls-2" d="M7.57,40.76a.44.44,0,0,1-.44-.44.45.45,0,0,1,.45-.45.44.44,0,0,1,.44.45A.43.43,0,0,1,7.57,40.76Zm0-.26a.18.18,0,0,0,.18-.18.18.18,0,0,0-.18-.19.19.19,0,0,0-.19.19A.18.18,0,0,0,7.58,40.5Z"/><path class="cls-2" d="M8.87,40.76a.45.45,0,1,1,.46-.44A.45.45,0,0,1,8.87,40.76Zm0-.26a.18.18,0,0,0,.19-.19.19.19,0,0,0-.19-.18.19.19,0,0,0-.19.19A.18.18,0,0,0,8.88,40.5Z"/><path class="cls-2" d="M4,56H5.83c0-.35,0-.66,0-1,0-.84,0-.84.81-.84h.51c0-.36.08-.68.15-1s.25-.81.37-1.22c.05-.15.16-.33.12-.47-.2-.9.44-1.39.93-2a2.81,2.81,0,0,1,.35-.34c.08-.07.21-.16.27-.13.48.18,1.06.05,1.43.52a2.47,2.47,0,0,0,.28.28A.67.67,0,0,1,11,51a5.71,5.71,0,0,0-.47.39,1,1,0,0,1-.3.19c-.56.13-1.12.27-1.69.35-.28,0-.34.09-.27.39a7.16,7.16,0,0,1,.19,1.39c0,.43.2.53.59.51a7.28,7.28,0,0,1,1.4,0c.16,0,.43.21.43.33,0,1.5,0,3-.08,4.53a2.19,2.19,0,0,1,0-.36c0-1.28,0-2.57,0-3.85,0-.39-.09-.54-.5-.53q-1.9,0-3.81,0c-.34,0-.47.1-.45.44s0,.87,0,1.37l-.5,0c-1,0-2.08,0-3.13,0-.38,0-.49.13-.48.5a16.06,16.06,0,0,1-.1,2.4,2.3,2.3,0,0,1,0-.26c0-.75,0-1.49,0-2.23,0-.35.11-.56.48-.54s.33-.12.36-.35c0-.39.1-.78.17-1.17s0-.82.35-1.17a.84.84,0,0,0,.11-.63c-.12-.87.49-1.33,1-1.87a2,2,0,0,1,.25-.25c.1-.08.24-.24.33-.21a14.24,14.24,0,0,1,1.4.45c.1,0,.15.18.24.26.52.46.46.92-.16,1.24-.09,0-.16.16-.25.23s-.19.22-.3.25c-.57.15-1.15.29-1.72.38-.29,0-.38.07-.3.42a12.76,12.76,0,0,1,.24,1.66C3.94,55.48,4,55.72,4,56Zm3.9-3.9a2.71,2.71,0,0,1,.5-.33c.41-.17,1,.15,1.26-.38,0,0,.11,0,.17,0,.33,0,1.3-.61,1.31-.93A.77.77,0,0,0,11,50a1.21,1.21,0,0,0-.44-.43,9.61,9.61,0,0,0-1.19-.36.22.22,0,0,0-.19.1c-.22.48-.91.61-.93,1.24,0,0-.11,0-.15.07s-.17.16-.17.24C7.9,51.28,7.91,51.69,7.91,52.08ZM3.35,53.3A5.9,5.9,0,0,0,4.06,53c.34-.19.89.18,1-.43.42.17.7.13.85-.29,0-.07.17-.09.24-.15s.35-.24.37-.38a1,1,0,0,0-.19-.55c-.06-.1-.19-.15-.25-.25-.31-.49-.93-.17-1.31-.49a1.36,1.36,0,0,0-.3.24c-.19.2-.37.41-.55.63s-.5.46-.57.74A5.42,5.42,0,0,0,3.35,53.3ZM3.85,56c-.05-.42-.08-.79-.16-1.16a.39.39,0,0,0-.29-.22c-.19,0-.5,0-.53.15A8.09,8.09,0,0,0,2.68,56Zm3.51-1.84h1c-.25-.32.15-.9-.56-.89C7.4,53.26,7.37,53.3,7.36,54.14Zm.78-1.39c0-.26,0-.46-.31-.44s-.29.2-.26.44ZM3.57,54.06c0-.27,0-.52-.31-.44-.13,0-.23.22-.35.33l.11.11Z"/><path class="cls-2" d="M9.68,58.76h-1V57.19h1Zm-.12-.16V57.33H8.81V58.6Z"/><path class="cls-2" d="M9.69,56.57h-1V55h1Zm-.9-.15h.77V55.14H8.79Z"/><path class="cls-2" d="M2.64,57.17h1v1.58h-1Zm.89,1.44V57.33H2.77v1.28Z"/><path class="cls-2" d="M8.05,57.18v1.57H7V57.18ZM7.9,58.6V57.34H7.13V58.6Z"/><path class="cls-2" d="M5.34,57.19v1.56h-1V57.19Zm-.9.12V58.6h.75V57.31Z"/><path class="cls-2" d="M8.05,56.56H7V55h1Zm-.14-.14V55.13H7.13v1.29Z"/><path class="cls-2" d="M8,64.79a.51.51,0,0,1-.47-.19.44.44,0,0,1-.39.18,2.85,2.85,0,0,1-.41-.14c-.27.22-.42.22-.73,0a.48.48,0,0,1-.76,0,.49.49,0,0,1-.47.19h0a.54.54,0,0,1-.36-.6.54.54,0,0,1,.19-.46c.16-.14.28-.36.47-.43a1.75,1.75,0,0,1,.65,0H7.62a.29.29,0,0,1,.18.07c.17.16.34.33.5.5a.4.4,0,0,1,.07.18s0,.11,0,.17a.52.52,0,0,1-.36.59Zm.2-.75h-.6c0,.11,0,.22,0,.33a.31.31,0,0,0,.3.27.3.3,0,0,0,.3-.26C8.23,64.27,8.22,64.16,8.22,64ZM6.86,64c0,.12,0,.23,0,.34a.3.3,0,0,0,.28.26.29.29,0,0,0,.3-.23,2.29,2.29,0,0,0,0-.37Zm-.15,0H6.1v.31a.31.31,0,0,0,.61,0ZM5.35,64c0,.12,0,.22,0,.32a.3.3,0,0,0,.59,0,2.16,2.16,0,0,0,0-.36Zm-.76,0c0,.12,0,.22,0,.32a.3.3,0,0,0,.28.28.3.3,0,0,0,.31-.24,2.16,2.16,0,0,0,0-.36Zm2.67-.59.29.38s0,.05.06.05h.51C7.85,63.64,7.69,63.29,7.26,63.45Zm-2.54.4v0h.45s.05,0,.06,0l.33-.44H5.25a.21.21,0,0,0-.14,0Zm1.85-.42c-.32,0-.32,0-.4.27,0,.06,0,.11,0,.17h.55Zm-1.14.44H6l.11-.45h-.2a.2.2,0,0,0-.15,0Zm2,0a1.88,1.88,0,0,1-.2-.28c-.1-.2-.27-.19-.46-.17l.12.45Z"/><path class="cls-2" d="M10.83,70.4a.53.53,0,0,1-.48-.19.52.52,0,0,1-.38.19.46.46,0,0,1-.37-.18c-.31.25-.47.25-.77,0a.47.47,0,0,1-.76,0,.5.5,0,0,1-.48.19h0a.57.57,0,0,1-.37-.61.58.58,0,0,1,.2-.46c.16-.13.28-.35.46-.43a1.71,1.71,0,0,1,.64,0q.95,0,1.89,0a.27.27,0,0,1,.19.08c.17.16.34.32.5.49a.4.4,0,0,1,.07.18,1.08,1.08,0,0,1,0,.18.52.52,0,0,1-.36.59ZM8,69.65h-.6c0,.12,0,.22,0,.33A.3.3,0,0,0,8,70C8,69.87,8,69.77,8,69.65Zm2.44,0c0,.12,0,.22,0,.33a.29.29,0,0,0,.28.27A.29.29,0,0,0,11,70a2.16,2.16,0,0,0,0-.36Zm-.76,0c0,.12,0,.22,0,.32a.29.29,0,0,0,.29.28.29.29,0,0,0,.3-.25,2,2,0,0,0,0-.35Zm-.16,0h-.6c0,.12,0,.22,0,.33a.3.3,0,0,0,.31.27A.29.29,0,0,0,9.51,70C9.52,69.87,9.51,69.77,9.51,69.65Zm-.76,0h-.6c0,.12,0,.22,0,.33a.3.3,0,0,0,.3.27.3.3,0,0,0,.3-.27C8.76,69.87,8.75,69.77,8.75,69.65Zm1.32-.59.29.39a.13.13,0,0,0,.07,0h.49C10.66,69.25,10.49,68.91,10.07,69.06Zm-2.55.4,0,0H8s.06,0,.07,0,.21-.27.32-.42c-.13,0-.23,0-.33,0a.24.24,0,0,0-.12,0ZM9,69l-.11.44h.56L9.38,69Zm1.15.45L10,69.17a.32.32,0,0,0-.41-.11l.11.43Zm-2,0h.48s.07,0,.07,0,.07-.26.1-.4a.85.85,0,0,0-.16,0c-.06,0-.14,0-.17,0S8.34,69.34,8.23,69.49Z"/><path class="cls-2" d="M5.22,70.4a.53.53,0,0,1-.48-.19.54.54,0,0,1-.39.19A.49.49,0,0,1,4,70.22c-.3.25-.5.25-.73,0a3.39,3.39,0,0,1-.41.15.45.45,0,0,1-.38-.19A.5.5,0,0,1,2,70.4H2a.56.56,0,0,1-.37-.61.54.54,0,0,1,.19-.46c.15-.11.26-.26.4-.38a.26.26,0,0,1,.16-.07c.82,0,1.64,0,2.45,0A.26.26,0,0,1,5,69c.17.16.35.34.51.51a.29.29,0,0,1,.07.16,1.2,1.2,0,0,1,0,.19.53.53,0,0,1-.36.59Zm-2.84-.75h-.6c0,.11,0,.21,0,.31a.3.3,0,0,0,.6,0C2.39,69.86,2.38,69.76,2.38,69.65Zm.16,0c0,.12,0,.22,0,.32a.29.29,0,0,0,.29.28A.31.31,0,0,0,3.14,70c0-.11,0-.22,0-.34Zm.76,0c0,.11,0,.22,0,.32a.29.29,0,0,0,.29.28A.31.31,0,0,0,3.9,70c0-.11,0-.22,0-.34Zm1.36,0h-.6c0,.11,0,.21,0,.31a.3.3,0,0,0,.6,0C4.67,69.86,4.66,69.76,4.66,69.65Zm.15,0v.22a.37.37,0,0,0,0,.11.3.3,0,0,0,.3.27A.29.29,0,0,0,5.41,70c0-.11,0-.22,0-.34ZM4.44,69l.31.42a.09.09,0,0,0,0,0h.52c-.16-.16-.29-.29-.43-.41a.12.12,0,0,0-.1,0C4.69,69,4.58,69,4.44,69Zm-2.53.42v0h.45a.11.11,0,0,0,.08,0L2.76,69c-.13,0-.23,0-.33,0a.2.2,0,0,0-.13,0ZM3.43,69l-.11.45h.56L3.77,69Zm1.15.45a2.32,2.32,0,0,1-.21-.29c-.1-.19-.26-.18-.44-.15l.11.44Zm-1.42,0L3.27,69c-.12,0-.25,0-.32,0a2.36,2.36,0,0,0-.33.42Z"/><path class="cls-2" d="M3.6,72.83H1.91c-.21,0-.28-.08-.28-.3s.07-.31.28-.31H5.29c.21,0,.28.08.28.31s-.07.3-.28.3Zm0-.46H1.93c-.05,0-.12,0-.14.05a.16.16,0,0,0,.15.25H5.27c.05,0,.12,0,.14-.06a.16.16,0,0,0-.16-.25Z"/><path class="cls-2" d="M6.4,67.22H4.71c-.2,0-.28-.08-.28-.3s.07-.31.28-.31H8.1c.21,0,.28.08.28.31s-.08.3-.28.3Zm0-.15H8.07s.12,0,.14,0a.16.16,0,0,0-.15-.25H4.74a.2.2,0,0,0-.14,0,.16.16,0,0,0,.15.26Z"/><path class="cls-2" d="M9.2,72.83H7.53c-.21,0-.29-.08-.29-.29s.07-.32.28-.32H10.9c.22,0,.28.08.28.32s-.07.29-.29.29Zm0-.46H7.54s-.12,0-.14.05a.16.16,0,0,0,.16.25h3.32s.12,0,.14-.06a.16.16,0,0,0-.15-.25Z"/><path class="cls-2" d="M4.21,70.86h.43c.16,0,.24.08.25.25v.29a.21.21,0,0,1-.22.21c-.31,0-.61,0-.92,0a.22.22,0,0,1-.23-.22v-.3a.22.22,0,0,1,.24-.23C3.91,70.85,4.06,70.86,4.21,70.86Zm0,.6h.21c.35,0,.31.06.32-.33,0-.09,0-.12-.13-.12H4c-.35,0-.31-.05-.32.33h0c0,.08,0,.12.12.11Z"/><path class="cls-2" d="M9.83,71.61c-.15,0-.3,0-.46,0a.21.21,0,0,1-.23-.23,1.41,1.41,0,0,1,0-.29.22.22,0,0,1,.23-.23h.9a.22.22,0,0,1,.23.22v.3a.22.22,0,0,1-.23.23C10.12,71.62,10,71.61,9.83,71.61Zm0-.6H9.6c-.35,0-.31-.05-.31.33,0,.09,0,.13.13.13H10c.36,0,.32.06.32-.34,0-.08,0-.11-.12-.11Z"/><path class="cls-2" d="M7,65.25c.14,0,.27,0,.41,0s.26.08.26.25a1.31,1.31,0,0,1,0,.28.21.21,0,0,1-.22.22c-.3,0-.61,0-.91,0a.22.22,0,0,1-.23-.23v-.29a.22.22,0,0,1,.23-.23C6.71,65.24,6.86,65.25,7,65.25Zm0,.6h.21c.35,0,.31.05.31-.33,0-.09,0-.13-.13-.12H6.79c-.35,0-.31-.05-.31.33h0c0,.08,0,.11.12.11Z"/><path class="cls-2" d="M6.48,68c-.1.29.08.49.37.63a3.54,3.54,0,0,1,.41.26s.11.07.06.13a.17.17,0,0,1-.14,0c-.24-.15-.47-.29-.69-.45a.14.14,0,0,0-.17,0L5.66,69s-.11.11-.17,0,0-.11.09-.15l.66-.42a.18.18,0,0,0,.09-.18v-.7a.16.16,0,0,1,.07-.12c.08,0,.08.07.08.13Z"/><path class="cls-2" d="M3.3,71.52c0,.14,0,.29,0,.43s0,.08-.08.12S3.15,72,3.15,72q0-.39,0-.78c0-.12,0-.17-.16-.16H2.61c-.11,0-.15,0-.15.14v.77c0,.06,0,.15-.08.15s-.07-.09-.07-.15v-.8c0-.18.08-.26.26-.26H3c.17,0,.25.08.26.26Z"/><path class="cls-2" d="M8.91,71.53c0,.14,0,.28,0,.41s0,.09-.07.13S8.76,72,8.76,72c0-.26,0-.52,0-.79,0-.11,0-.16-.15-.15H8.23c-.13,0-.16,0-.16.16s0,.51,0,.76c0,0,0,.13-.07.13s-.08-.07-.08-.14v-.79c0-.19.08-.27.27-.27h.46a.23.23,0,0,1,.26.26Z"/><path class="cls-2" d="M5.12,65.91c0-.14,0-.28,0-.42a.22.22,0,0,1,.24-.24,4.17,4.17,0,0,1,.5,0,.21.21,0,0,1,.24.23v.86s0,.08-.08.12S6,66.37,6,66.33v-.78c0-.12,0-.16-.15-.16a2.54,2.54,0,0,1-.39,0c-.11,0-.15,0-.14.15s0,.52,0,.78c0,0,0,.13-.06.13s-.08-.08-.08-.14Z"/><path class="cls-2" d="M8,64.79c.1,0,.13,0,.13.13v1.41s-.05.09-.08.13S8,66.38,8,66.34V64.91a.5.5,0,0,1,0-.12Z"/><path class="cls-2" d="M9.45,67.07h.68s.13,0,.13.07-.06.08-.12.08H8.74c-.06,0-.14,0-.13-.08a.19.19,0,0,1,.13-.07Z"/><path class="cls-2" d="M4.79,64.79a.77.77,0,0,1,0,.15v1.37a.27.27,0,0,1,0,.09s0,0-.08,0-.05,0-.06-.06,0,0,0-.06V64.92c0-.1,0-.15.13-.13Z"/><path class="cls-2" d="M10.82,70.41c.09,0,.14,0,.14.11,0,.48,0,1,0,1.44,0,0,0,.07-.07.11s-.07-.07-.07-.11c0-.48,0-1,0-1.45a.43.43,0,0,1,0-.11Z"/><path class="cls-2" d="M7.59,70.4a.8.8,0,0,1,0,.15v1.37s0,.06,0,.08a.09.09,0,0,1-.07.06s0,0-.07-.07,0,0,0,0V70.53c0-.09,0-.14.13-.12Z"/><path class="cls-2" d="M5.21,70.41c.09,0,.13,0,.13.11V72s0,.07-.07.11S5.2,72,5.2,72c0-.48,0-1,0-1.45a.45.45,0,0,1,0-.11Z"/><path class="cls-2" d="M2,70.4a.8.8,0,0,1,0,.15v1.37A.25.25,0,0,1,2,72a.12.12,0,0,1-.07,0s-.05,0-.07,0,0,0,0-.07c0-.47,0-.94,0-1.41,0-.09,0-.14.14-.12Z"/><path class="cls-2" d="M3.37,67.22H2.68c-.05,0-.13,0-.13-.07s.06-.07.12-.07h1.4c.06,0,.14,0,.13.07a.19.19,0,0,1-.13.07Z"/><path class="cls-2" d="M10.58,67.23a1,1,0,0,1-.13,0s0-.1,0-.1h.25s0,.08,0,.09S10.62,67.21,10.58,67.23Z"/><path class="cls-2" d="M2.26,67s.11.06.12.1-.08.07-.14.08H2.18l-.1-.07.1-.07h.06Z"/></g></g></svg>