<svg xmlns="http://www.w3.org/2000/svg" viewBox="0 0 13.85 11.11"><defs><style>.cls-1{fill:#dfa21c;opacity:0.2;}.cls-2{fill:#036936;}</style></defs><g id="Layer_2" data-name="Layer 2"><g id="Layer_1-2" data-name="Layer 1"><path class="cls-1" d="M13.85,6.11c0-1.46-3.1-2.65-6.93-2.65S0,4.65,0,6.11,3.1,8.77,6.92,8.77s6.93-1.19,6.93-2.66"/><path class="cls-2" d="M6.86,11.11H1.53c-.27,0-.29,0-.29-.29V4.55a.42.42,0,0,1,.17-.36L6.68.13C6.9,0,6.9,0,7.12.13l5.24,4.05a.32.32,0,0,1,.14.29v6.38c0,.24,0,.26-.27.26Zm-4.18-.32c0-.08,0-.14,0-.2V5.26c0-.33,0-.35.34-.35H10.7c.33,0,.35,0,.35.35V10.6c0,.06,0,.12,0,.18h1.13v-.21c0-2,0-3.95,0-5.92A.35.35,0,0,0,12,4.33L8,1.24C7.66.94,7.28.65,6.9.36L6.81.43l-5.14,4a.4.4,0,0,0-.12.27v6.11ZM3,5.24v5.54H4.56V9.09c0-.25,0-.27.28-.27h.85V7.11c0-.24,0-.28.27-.28H8c.24,0,.26,0,.26.27,0,.51,0,1,0,1.54,0,.14,0,.19.17.18h.66c.3,0,.31,0,.31.3v1.47c0,.06,0,.13,0,.19h1.29V5.24ZM6,8.82H7.86C8,8.82,8,8.75,8,8.67V7.57c0-.45,0-.45-.45-.42l0,0c0,.14,0,.29,0,.44s-.07.22-.22.22H6.73c-.16,0-.22-.07-.22-.22V7.15c-.15,0-.28,0-.4,0a.12.12,0,0,0-.09.1C6,7.76,6,8.28,6,8.82Zm.81,2V9.15H6.33v.41c0,.23,0,.26-.25.26H5.62c-.17,0-.25-.07-.24-.24V9.14H4.89v1.65Zm.33,0H9.1V9.15c-.49-.08-.49-.07-.49.38a.27.27,0,0,0,0,.09c0,.15-.08.21-.22.21H7.88c-.17,0-.24-.08-.23-.24V9.15c-.5-.05-.5-.05-.5.4v1.23Zm0-3.27V7.16h-.3v.35ZM5.71,9.12v.41c.11,0,.24,0,.29-.08a.26.26,0,0,0,0-.27C6,9.12,5.82,9.14,5.71,9.12Zm2.57,0H8v.35h.3Z"/><path class="cls-2" d="M7.78,3.28c0,.23,0,.46,0,.68s-.07.22-.21.22H6.17C6,4.18,6,4.11,6,4c0-.46,0-.91,0-1.37,0-.16.08-.22.23-.22H7.55c.17,0,.23.08.23.23S7.78,3.06,7.78,3.28ZM6.3,2.69V3.85H7.45V2.69Z"/></g></g></svg>