<svg xmlns="http://www.w3.org/2000/svg" viewBox="0 0 411.69 17.65"><defs><style>.cls-1{fill:#003a5d;}.cls-2{fill:#991d85;}.cls-3{fill:#19347f;}.cls-3,.cls-4{fill-rule:evenodd;}.cls-4{fill:#d6001c;}.cls-5{fill:#e40b0e;}.cls-6{fill:#fed34c;}.cls-7{fill:#e10c10;}.cls-8{fill:#fff;}</style></defs><g id="Layer_2" data-name="Layer 2"><g id="Layer_1-2" data-name="Layer 1"><path class="cls-1" d="M113.6,17.65h-1.15V15.59h0l-.05.07-.9,1.27c-.08.11-.15.11-.22,0-.3-.42-.6-.85-.91-1.27a.12.12,0,0,0-.07-.07v2.07h-1.15V13.83h1.09a.16.16,0,0,1,.14.07c.31.46.64.91,1,1.37l.05.07.3-.43.71-1a.15.15,0,0,1,.14-.08h1.08Z"/><path class="cls-1" d="M114.16,13.84h1.2v1.39h1.69V13.84h1.21v3.8h-1.2V16.25h-1.69v1.39h-1.21Z"/><path class="cls-1" d="M120.08,16.74v.9h-1.2v-3.8h2.61a1.45,1.45,0,0,1,.14,2.88l-.23,0Zm0-1h1.21a.42.42,0,0,0,.44-.44.41.41,0,0,0-.44-.44h-1.21Z"/><path class="cls-1" d="M113.13,12.38V10.94l-.91.92-2-2,.11-.12L113,7.06a.33.33,0,0,0,.12-.28V5.08a.36.36,0,0,0-.12-.29l-2.69-2.68L110.21,2l2-1.95L115,2.85l1.14-1.15,1.1,1.12L120.06,0l2,2-.11.12-2.7,2.68a.42.42,0,0,0-.12.3c0,.56,0,1.13,0,1.69a.36.36,0,0,0,.13.29l2.68,2.67a.83.83,0,0,0,.16.12l-2,2-1-1v1.5Zm2.32-3.74-1.62,1.59h4.64L116.83,8.6l.77-.74-.72-.72-.76.79-.76-.77-.71.71Zm-1.73,3.13h4.81v-.94h-4.81Zm2.43-9.19L114.69,4l.68.68.77-.78.74.76.7-.69Zm1.91,4.85a5.25,5.25,0,0,0,.4-.42.33.33,0,0,0,.08-.19V5a.21.21,0,0,0,0-.14,5.78,5.78,0,0,0-.42-.43l-.74.74.78.75-.78.76ZM114.9,5.18l-.73-.73c-.11.12-.24.24-.35.38a.39.39,0,0,0-.1.24c0,.57,0,1.15,0,1.73a.25.25,0,0,0,0,.16l.42.45.73-.74-.79-.74ZM121.22,2,120.09.86l-.47.46,1.12,1.14Zm0,7.92-.5-.49-1.09,1.07.49.51Zm-7.16-7.16-1.12,1.1.48.5,1.12-1.12Zm0,6.35.5-.49-1.1-1.09L113,8Zm5.73-.64-1.1,1.1.49.49,1.1-1.1ZM112.19.86,111.06,2l.46.49,1.14-1.12Zm.3,2.53,1.09-1.09-.48-.49L112,2.91Zm7.77-.47L119.14,1.8l-.49.48,1.12,1.12Zm-2.55.28,1.11,1.12.48-.45-1.11-1.14Zm1.15,4.31-1.12,1.12.44.47L119.33,8Zm-5.27,2.08-1.1-1.12-.49.45,1.13,1.13Zm-1,.95-1.1-1.12-.47.45,1.1,1.12Zm4.62-4.6-.33-.37-.37.35.35.38Zm-1.14-.46.37-.32-.36-.37-.37.35Zm-.78.08L115,5.9l.33.37.37-.32Zm.79,1.53.34-.35-.33-.37-.36.33Z"/><path class="cls-2" d="M37.73,11.84H38v1h.52v.26h-.81Zm1.16.9c0,.11.08.17.23.17a.55.55,0,0,0,.29-.09V13a.76.76,0,0,1-.32.08.4.4,0,0,1-.45-.43.41.41,0,0,1,.44-.45.38.38,0,0,1,.39.43v.09h-.58Zm.3-.18c0-.1-.06-.16-.14-.16s-.15.06-.18.16Zm.44-.27A.79.79,0,0,1,40,12.2a.32.32,0,0,1,.28.1.35.35,0,0,1,0,.2v.56l-.38,0c-.23,0-.33-.07-.33-.24s.11-.28.46-.31v0A.07.07,0,0,0,40,12.4a.65.65,0,0,0-.32.09Zm.42.43c-.18,0-.24,0-.24.12s0,.07.11.07H40Zm1-.94h.28v1.28a2.5,2.5,0,0,1-.35,0c-.33,0-.51-.15-.51-.44a.42.42,0,0,1,.47-.44H41Zm0,.67a.12.12,0,0,0-.08,0,.2.2,0,0,0-.22.23.19.19,0,0,0,.22.22H41Zm.48-.63h.28v.28h-.28Zm0,.41h.28v.85h-.28Zm.48,0a1.7,1.7,0,0,1,.42,0,.43.43,0,0,1,.3.08.31.31,0,0,1,.08.26v.52h-.28v-.52c0-.1,0-.13-.13-.13a.22.22,0,0,0-.11,0v.63H42Zm1,1a.5.5,0,0,0,.29.07.23.23,0,0,0,.2-.07s0-.09.06-.19a.34.34,0,0,1-.18,0,.37.37,0,0,1-.39-.4c0-.31.22-.48.62-.48a2.35,2.35,0,0,1,.35,0v.22a.42.42,0,0,1-.14,0v.5a.8.8,0,0,1-.06.37.47.47,0,0,1-.45.22.75.75,0,0,1-.29-.06v-.23Zm.55-.44v-.36a.31.31,0,0,0-.18,0,.21.21,0,0,0-.11.2c0,.13.07.22.19.22h.1Zm.92-.94h.38a.67.67,0,0,1,.36.06.3.3,0,0,1-.05.55.28.28,0,0,1,.24.3.29.29,0,0,1-.2.29,1,1,0,0,1-.41.06,1.94,1.94,0,0,1-.33,0V11.85Zm.28.5h0c.16,0,.21,0,.25,0a.15.15,0,0,0,0-.11c0-.11-.07-.15-.21-.15h-.12Zm0,.52h.14c.15,0,.24-.06.24-.16s-.09-.16-.25-.16h-.12Zm1-.13c0,.11.09.17.24.17a.51.51,0,0,0,.28-.09V13a.71.71,0,0,1-.31.08.4.4,0,0,1-.45-.43.41.41,0,0,1,.43-.45c.25,0,.39.16.39.43v.09h-.58Zm.32-.18c0-.1-.06-.16-.14-.16s-.15.06-.18.16Zm.58-.33c0,.1.06.25.1.35l.06.17,0,.18v-.18l0-.13.13-.39h.28A5.35,5.35,0,0,1,47,13l-.07.16-.08.15c0,.06-.05.11-.1.23h-.26l0-.12.07-.16a.19.19,0,0,1,0-.08.12.12,0,0,0,0-.05,5.33,5.33,0,0,1-.32-.87h.3Zm1.52.42a.42.42,0,0,1-.45.46.41.41,0,0,1-.43-.45.41.41,0,0,1,.45-.44.39.39,0,0,1,.43.43Zm-.59,0c0,.15.06.24.16.24s.16-.09.16-.24-.06-.23-.16-.23S47.54,12.5,47.54,12.66Zm.77-.39a1.7,1.7,0,0,1,.42,0,.43.43,0,0,1,.3.08c.06.06.07.12.07.26v.52h-.27v-.52c0-.1,0-.13-.13-.13a.27.27,0,0,0-.12,0v.63h-.27Zm1.52-.49h.27v1.28a2.38,2.38,0,0,1-.34,0c-.34,0-.51-.15-.51-.44a.42.42,0,0,1,.46-.44h.12Zm0,.67a.15.15,0,0,0-.09,0,.21.21,0,0,0-.22.23.2.2,0,0,0,.22.22h.1Zm1.9.58a1,1,0,0,1-.39.07.63.63,0,0,1-.7-.62.65.65,0,0,1,.71-.66.78.78,0,0,1,.36.08v.27a.63.63,0,0,0-.33-.1c-.28,0-.44.15-.44.39a.37.37,0,0,0,.42.38.64.64,0,0,0,.35-.1V13Zm.2-1.25h.28v.48a.51.51,0,0,1,.2,0,.29.29,0,0,1,.24.08.27.27,0,0,1,.08.22v.58h-.28v-.52c0-.09,0-.13-.13-.13a.31.31,0,0,0-.13,0v.62h-.27Zm1.22,1c0,.11.08.17.23.17a.55.55,0,0,0,.29-.09V13a.76.76,0,0,1-.32.08.4.4,0,0,1-.45-.43.42.42,0,0,1,.44-.45.38.38,0,0,1,.39.43v.09h-.58Zm.3-.18c0-.1-.06-.16-.14-.16s-.15.06-.18.16Zm.42-.29a1.42,1.42,0,0,1,.38,0,.55.55,0,0,1,.26,0,.82.82,0,0,1,.3,0,.41.41,0,0,1,.28.08c.06.06.07.12.07.25v.55h-.27v-.54c0-.08,0-.11-.12-.11a.19.19,0,0,0-.12,0s0,0,0,.08v.54h-.28v-.54a.12.12,0,0,0-.13-.13.22.22,0,0,0-.11,0v.63h-.28Zm1.49-.45h.28v.28h-.28Zm0,.41h.28v.85h-.28Zm.45.61a.48.48,0,0,0,.26.07c.08,0,.12,0,.12-.06s0,0,0-.06l-.1,0c-.16-.07-.22-.14-.22-.26s.13-.27.36-.27a.77.77,0,0,1,.25,0v.22a.41.41,0,0,0-.22-.06c-.07,0-.12,0-.12.06s0,0,0,0l.1.05c.17.08.22.13.22.26s-.12.27-.37.27a.65.65,0,0,1-.27,0v-.22Zm.71-.6h.15V12h.25v.23h.18v.21h-.18v.29c0,.11,0,.14.11.14h.06v.2a.41.41,0,0,1-.15,0A.28.28,0,0,1,56.7,13c-.05,0-.05-.08-.05-.23v-.32h-.14v-.22Zm.74.06a1.06,1.06,0,0,1,.41-.08.65.65,0,0,1,.19,0v.24a.45.45,0,0,0-.16,0,.67.67,0,0,0-.18,0v.62h-.26Zm1-.07c0,.1.06.25.1.35l.06.17v.18l0-.18,0-.13.13-.39h.28a7,7,0,0,1-.29.75l-.07.16-.08.15a1.38,1.38,0,0,0-.1.23h-.26l0-.12.08-.16a.19.19,0,0,1,0-.08.2.2,0,0,0,0-.05,5.29,5.29,0,0,1-.31-.87h.3Zm.48-1.33h-.57a.1.1,0,0,1-.1-.11,1.54,1.54,0,0,0-.35-.92.69.69,0,0,0-.11-.13,1.17,1.17,0,0,0-.86-.38h-.36v1.42a.12.12,0,0,1-.12.12h-.58a.12.12,0,0,1-.11-.12V7.42a.11.11,0,0,1,.11-.12h.58a.12.12,0,0,1,.12.12V8.55h.36A1.16,1.16,0,0,0,57.87,7.4a.11.11,0,0,1,.1-.1h.6a.12.12,0,0,1,.11.1,2,2,0,0,1-.78,1.54,2,2,0,0,1,.33.32,2.49,2.49,0,0,1,.6,1.51.13.13,0,0,1-.1.11ZM54,10.78V7.42a.11.11,0,0,1,.11-.12h.58a.12.12,0,0,1,.12.12v3.36a.12.12,0,0,1-.12.12H54.1A.11.11,0,0,1,54,10.78Zm-1.6-2.64a2.85,2.85,0,0,0-1-.19,2.53,2.53,0,0,0-1,.19v2.64a.11.11,0,0,1-.11.12h-.58a.12.12,0,0,1-.12-.12V7.71a.15.15,0,0,1,0-.09,3.62,3.62,0,0,1,1.74-.46,3.47,3.47,0,0,1,1.74.46.12.12,0,0,1,0,.09v3.07a.12.12,0,0,1-.12.12h-.58a.12.12,0,0,1-.12-.12V8.14ZM48,8.14a2.89,2.89,0,0,0-1-.19,2.53,2.53,0,0,0-1,.19V10a2.72,2.72,0,0,0,1,.19A2.48,2.48,0,0,0,48,10Zm-1,2.9a3.55,3.55,0,0,1-1.74-.45.1.1,0,0,1-.06-.08V7.71a.1.1,0,0,1,.06-.09,3.47,3.47,0,0,1,1.74-.46,3.43,3.43,0,0,1,1.74.46.26.26,0,0,1,.05.09v2.8a.1.1,0,0,1-.05.08A3.58,3.58,0,0,1,47.05,11ZM43.92,7.3h.78a.11.11,0,0,1,.1.12v0l-1.29,3.36a.11.11,0,0,1-.1.08h-1a.13.13,0,0,1-.1-.06L41.09,7.46v0a.11.11,0,0,1,.1-.11H42a.12.12,0,0,1,.11.07l.84,2.69.89-2.71a.35.35,0,0,1,.11-.07Zm-3.26,3.6H37.82a.15.15,0,0,1-.11-.06,3.59,3.59,0,0,1,0-3.48.14.14,0,0,1,.11-.06H40.5s.08,0,.1.1V8a.1.1,0,0,1-.1.1H38.25a2.94,2.94,0,0,0-.16.58h2.26a.1.1,0,0,1,.1.11v.59a.13.13,0,0,1-.1.12H38.1a2.67,2.67,0,0,0,.16.57h2.41a.1.1,0,0,1,.1.11v.59c0,.06-.06.12-.11.12ZM31.51,6.37a2.73,2.73,0,1,0,2.06,4.51H30.63a2,2,0,0,1,0-3.54H32.4a2.08,2.08,0,0,1,.71.61.11.11,0,0,1-.09.17H30.87a1.18,1.18,0,0,0,0,2h3.87a.11.11,0,0,1,.1.15A3.51,3.51,0,1,1,35,9.1c0,.1,0,.2,0,.3a.12.12,0,0,1-.1.11H31.15a.11.11,0,0,1-.1-.08.72.72,0,0,1,0-.66.11.11,0,0,1,.1-.08h3.06a2.76,2.76,0,0,0-2.7-2.32Z"/><path class="cls-3" d="M1.49,12.15a3.21,3.21,0,0,1-1-1A3.3,3.3,0,1,1,6.59,9.4a3.28,3.28,0,0,1-.7,2,3.55,3.55,0,0,1-.78.7V10.23h.32v1.31a3,3,0,0,0,.48-.66A3,3,0,0,0,3.3,6.38a3,3,0,0,0-3,3,3.16,3.16,0,0,0,.84,2.12V10.23h.34v1.92Zm.65.34-.33-.15V10.23h.33v2.26Zm.66.17-.17,0-.16,0V8.08H2.8v4.58Zm.66,0H3.13V8.08h.33v4.61Zm.66-.1-.33.08V8.08h.33v4.51Zm0-4.75L3.3,7.2l-.83.64L2.29,7.6l1-.78,1,.78-.18.24Zm.66,4.5-.33.15V10.23h.33v2.11Z"/><path class="cls-3" d="M8.42,7.49V6.61a.45.45,0,0,1,.21,0A.39.39,0,0,1,9,7c0,.33-.14.48-.44.48Zm-.16-1H7.84v.14l.23,0v2l-.23,0v.14h.89a1.05,1.05,0,0,0,.46-.06.59.59,0,0,0,.37-.57A.63.63,0,0,0,9,7.55c.28-.14.42-.31.42-.55a.59.59,0,0,0-.66-.59l-.22,0Zm.16,1.22h.15c.4,0,.59.16.59.5a.49.49,0,0,1-.53.52.36.36,0,0,1-.21,0v-1Zm2.11-.57c-.42,0-.7.37-.7.91s.27.86.66.86.71-.37.71-.92-.28-.85-.67-.85Zm0,.16c.2,0,.31.23.31.65s-.11.78-.32.78-.3-.25-.3-.69.11-.74.31-.74Zm2.17.7c0-.58-.19-.85-.58-.85s-.65.34-.65.92.24.84.65.84.4-.09.57-.4l-.15-.07c-.1.16-.19.23-.32.23s-.37-.2-.4-.67Zm-.88-.17c0-.36.12-.52.28-.52s.23.15.25.52ZM8.64,12.37v-.15l-.2,0v-2l.21,0V10h-.8v.15l.22,0v2l-.22,0v.14Zm1.81,0v-.15l-.18,0V11.11c0-.29-.15-.45-.41-.45a.67.67,0,0,0-.46.2v-.21H9.3l-.43.11v.14l.2,0v1.26l-.2,0v.14h.71v-.15l-.18,0V11.05a.53.53,0,0,1,.33-.15c.13,0,.19.09.19.28v1l-.18,0v.14Zm1.62-1.49v-.2h-.41l-.15,0a.92.92,0,0,0-.22,0,.57.57,0,0,0-.58.58.51.51,0,0,0,.28.48c-.22.14-.31.25-.31.37s.06.16.2.22c-.21.13-.27.22-.27.36s.24.35.61.35.83-.23.83-.6S11.9,12,11.57,12l-.42,0c-.1,0-.14,0-.14-.07s.05-.09.13-.15a.58.58,0,0,0,.19,0,.56.56,0,0,0,.58-.56.52.52,0,0,0-.12-.34Zm-.77-.1c.17,0,.25.15.25.45s-.08.39-.24.39-.23-.13-.23-.42.07-.42.22-.42Zm-.1,1.53c.53,0,.61.07.61.21s-.22.29-.5.29-.37-.09-.37-.25a.3.3,0,0,1,.12-.25Z"/><path class="cls-3" d="M12.6,11.33c.05-.37.14-.52.3-.52s.22.16.23.52Zm1.84-2.51V8.68l-.18,0V7.59c0-.31-.14-.47-.41-.47a.72.72,0,0,0-.45.2v-1h-.09l-.44.09v.11l.2,0V8.64l-.21,0v.14h.71V8.68l-.17,0V7.53a.48.48,0,0,1,.32-.16c.15,0,.2.09.2.34v.94l-.16,0v.14Zm.76-1.71h-.1l-.42.11v.11l.2,0V8.64l-.2,0v.14h.77V8.68l-.24,0V7.73a.39.39,0,0,1,.21-.29l.18.1a.26.26,0,0,0,.13-.21.18.18,0,0,0-.2-.2c-.12,0-.19.06-.33.3V7.11Zm1-.83A.22.22,0,0,0,16,6.5a.22.22,0,0,0,.22.22.22.22,0,0,0,.23-.22.22.22,0,0,0-.23-.22Zm.39,2.54V8.68l-.19,0V7.12h-.08l-.44.11v.12l.19,0V8.64l-.19,0v.14Zm-3.13,2.67a1.64,1.64,0,0,0-.05-.43.53.53,0,0,0-.54-.42c-.4,0-.64.34-.64.92s.23.84.65.84c.27,0,.42-.1.58-.4l-.16-.06c-.1.16-.19.22-.32.22s-.37-.19-.41-.67Zm.93.88v-.15l-.19,0V9.82h-.09l-.44.09V10l.2,0v2.14l-.21,0v.14Zm1.81,0v-.15l-.19,0V11.11a.39.39,0,0,0-.4-.44.68.68,0,0,0-.46.2v-1h-.09l-.44.09V10l.2,0v2.12l-.21,0v.14h.71v-.15l-.17,0V11.07a.48.48,0,0,1,.32-.16c.14,0,.2.09.2.34v.95l-.17,0v.14Zm1.45-.88a2.56,2.56,0,0,0,0-.43.55.55,0,0,0-.55-.42c-.4,0-.64.34-.64.92s.24.84.65.84.42-.1.58-.4l-.15-.06c-.11.16-.2.22-.33.22s-.37-.19-.4-.67Zm-.88-.16c0-.37.13-.52.29-.52s.23.16.23.52Z"/><path class="cls-3" d="M19.29,7.23c.16,0,.25.15.25.46s-.08.38-.24.38-.23-.13-.23-.42.07-.42.22-.42Zm-.85,1.59V8.68l-.18,0V7.56c0-.28-.14-.45-.41-.45a.69.69,0,0,0-.46.2V7.1H17.3l-.43.11v.14l.2,0V8.64l-.2,0v.14h.71V8.68l-.18,0V7.5a.49.49,0,0,1,.33-.15c.13,0,.19.09.19.29v1l-.18,0v.14Zm1.62-1.48v-.2h-.41l-.15,0-.23,0a.56.56,0,0,0-.57.57.5.5,0,0,0,.28.48c-.22.14-.31.25-.31.37s.06.17.19.22c-.19.13-.27.23-.27.36s.25.36.62.36.83-.24.83-.61-.16-.38-.48-.39l-.42,0c-.1,0-.14,0-.14-.08s.05-.09.13-.14a.58.58,0,0,0,.19,0,.55.55,0,0,0,.58-.55.47.47,0,0,0-.13-.34Zm-1,1.42c.69,0,.74.06.74.22s-.21.28-.5.28-.36-.09-.36-.24a.31.31,0,0,1,.12-.26ZM21.48,8c0-.58-.19-.85-.58-.85s-.65.34-.65.92.24.84.66.84c.27,0,.39-.09.56-.4l-.15-.07c-.1.16-.19.23-.32.23s-.37-.2-.4-.67Zm-.88-.17c0-.36.12-.52.28-.52s.23.15.25.52Zm1.69-.67h-.11l-.41.11v.11l.2,0V8.64l-.2,0v.14h.77V8.68l-.25,0V7.73a.41.41,0,0,1,.22-.29l.18.1a.26.26,0,0,0,.13-.21.19.19,0,0,0-.2-.2c-.13,0-.19.06-.33.3V7.11Zm-4,2.71a.23.23,0,0,0-.24.22.22.22,0,0,0,.22.23.23.23,0,0,0,.23-.23.22.22,0,0,0-.21-.22Zm.37,2.55v-.15l-.19,0V10.67h-.09l-.43.11v.11l.18,0v1.26l-.18,0v.14h3.43v-.15l-.19,0v-1c0-.34-.13-.49-.43-.49a.64.64,0,0,0-.48.23.41.41,0,0,0-.38-.22.69.69,0,0,0-.48.2v-.23h-.09l-.43.11v.12l.2,0v1.28l-.2,0v.14h.7v-.15l-.16,0V11.07a.43.43,0,0,1,.32-.16c.15,0,.22.09.22.31v1l-.2,0v.14h.71v-.15l-.18,0V11.07a.48.48,0,0,1,.33-.16c.14,0,.21.09.21.31v1l-.19,0v.14h-2Z"/><path class="cls-4" d="M397.64,9.09h1.93V2.94l-1.93,1.12Zm8.17-1.82a1.19,1.19,0,0,1-1.18-1.19A1.17,1.17,0,0,1,405.8,4.9h0A1.19,1.19,0,0,1,407,6.08a1.2,1.2,0,0,1-1.2,1.19m0-4.35a3.28,3.28,0,0,0-1.2.23V0l-1.93,1.14V6.08a3.14,3.14,0,1,0,3.13-3.16m-5.95,1.19A1.18,1.18,0,1,1,401,5.29a1.18,1.18,0,0,1-1.18-1.18Zm9.65,5h1.95V2.94l-1.95,1.12Zm-.2-7.33a1.19,1.19,0,1,1,1.19,1.18A1.18,1.18,0,0,1,409.31,1.76Z"/><path class="cls-5" d="M209.59,16.09h0c-7.65,0-12.4-2.79-12.39-7.27s4.75-7.25,12.39-7.25h0a18.6,18.6,0,0,1,8.95,1.89A6.07,6.07,0,0,1,222,8.84a6.08,6.08,0,0,1-3.45,5.37A18.47,18.47,0,0,1,209.59,16.09Zm0-13.52c-7,0-11.39,2.4-11.4,6.25s4.37,6.27,11.4,6.27h0A17.39,17.39,0,0,0,218,13.34,5.12,5.12,0,0,0,221,8.84,5.13,5.13,0,0,0,218,4.33a17.49,17.49,0,0,0-8.46-1.76Z"/><path class="cls-6" d="M209.58,2.07c-7.34,0-11.9,2.59-11.91,6.75s4.56,6.76,11.9,6.77S221.48,13,221.48,8.84s-4.56-6.76-11.9-6.77"/><path class="cls-7" d="M203.43,4.49Z"/><path class="cls-5" d="M209.58,14.65h-.06a.75.75,0,0,1-.68-.44.73.73,0,0,1-.71.39h-.06a.76.76,0,0,1-.65-.5.73.73,0,0,1-.74.35h-.05a.72.72,0,0,1-.61-.54.77.77,0,0,1-.77.29l-.05,0a.72.72,0,0,1-.57-.59.75.75,0,0,1-.8.21h-.05a.78.78,0,0,1-.51-.66.73.73,0,0,1-.82.13l0,0a.77.77,0,0,1-.43-.72.74.74,0,0,1-.84,0l0,0a.75.75,0,0,1-.32-.79.76.76,0,0,1-.85-.15l0,0a.76.76,0,0,1-.12-.89.74.74,0,0,1-.79-.44l0-.06a.76.76,0,0,1,.27-.9.76.76,0,0,1-.49-.81s0,0,0-.06a.75.75,0,0,1,.69-.63.75.75,0,0,1,0-.91l0-.05a.76.76,0,0,1,.84-.27.75.75,0,0,1,.24-.83l.05,0a.74.74,0,0,1,.84,0,.77.77,0,0,1,.39-.75l.05,0a.74.74,0,0,1,.83.08.74.74,0,0,1,.47-.68l.05,0a.74.74,0,0,1,.81.18.74.74,0,0,1,.54-.62l.05,0a.73.73,0,0,1,.78.26.75.75,0,0,1,.6-.57h0a.74.74,0,0,1,.75.32.74.74,0,0,1,.64-.52h0a.75.75,0,0,1,.73.38.74.74,0,0,1,.67-.47h.05a.75.75,0,0,1,.7.42.73.73,0,0,1,.7-.42h0a.77.77,0,0,1,.67.47.73.73,0,0,1,.72-.37h.06a.74.74,0,0,1,.63.52.72.72,0,0,1,.75-.32h.06a.75.75,0,0,1,.59.57.77.77,0,0,1,.78-.26l0,0a.75.75,0,0,1,.54.62.76.76,0,0,1,.81-.17l.05,0a.74.74,0,0,1,.47.68.76.76,0,0,1,.83-.08l0,0a.73.73,0,0,1,.38.75.75.75,0,0,1,.85,0l.05,0a.75.75,0,0,1,.23.84.76.76,0,0,1,.84.27l0,.05a.75.75,0,0,1,0,.92.74.74,0,0,1,.68.63v.06a.76.76,0,0,1-.5.81.75.75,0,0,1,.25.9l0,.06a.73.73,0,0,1-.8.43.74.74,0,0,1-.12.88l0,0a.73.73,0,0,1-.85.15.75.75,0,0,1-.32.79l-.05,0a.74.74,0,0,1-.84,0,.76.76,0,0,1-.43.71l-.05,0a.75.75,0,0,1-.82-.14.74.74,0,0,1-.51.65l-.05,0a.75.75,0,0,1-.8-.22.75.75,0,0,1-.57.6h0a.77.77,0,0,1-.77-.29.72.72,0,0,1-.61.54h0a.73.73,0,0,1-.74-.35.76.76,0,0,1-.66.5H211a.79.79,0,0,0-1.4.05h0Z"/><path class="cls-5" d="M224.38,8.76V7.3a3.59,3.59,0,0,0-1.33-.3,1.84,1.84,0,0,0-1.26.41V5.89l-.42-.43-1.76.41V7a1.71,1.71,0,0,0-1.13.66A1.84,1.84,0,0,0,217,7a1.82,1.82,0,0,0-1.51.71A1.84,1.84,0,0,0,214,7a2.31,2.31,0,0,0-.52.06V5.55h-3.94V6.74l.31.07a.11.11,0,0,1,.09.1v2.5a.11.11,0,0,1-.11.11h-.13a.11.11,0,0,1-.11-.1h0v-1A1.3,1.3,0,0,0,208.18,7a1.39,1.39,0,0,0-.57.12L207.44,7l-1.58.37a1.9,1.9,0,0,0-1.1-.32,2,2,0,0,0-1.13.33A3.18,3.18,0,0,0,202.19,7a2.41,2.41,0,0,0-.65.08h-2.17V5.55H194.8v2h1.35V9.43a.1.1,0,0,1-.08.1l-.33.07v1.2h1.74V12a1.54,1.54,0,0,0,1,.34c.6,0,1.09-.42,1.46-1.27l.61-1.44v1a5.35,5.35,0,0,0,1.47.27,1.69,1.69,0,0,0,1.37-.58,1.87,1.87,0,0,0,1.41.58,1.94,1.94,0,0,0,.94-.22v.14h6.48V9.69A1.81,1.81,0,0,0,214,10.88a1.83,1.83,0,0,0,1.51-.71,2,2,0,0,0,3,.08,1.6,1.6,0,0,0,1.32.65,1.76,1.76,0,0,0,.72-.16h1.21a4,4,0,0,0,1.09.16,1.54,1.54,0,0,0,1.75-1.51A1.28,1.28,0,0,0,224.38,8.76Z"/><path class="cls-8" d="M221.32,9.78V6.09l-.1-.1-1.14.26v.36h.24a.14.14,0,0,1,.16.14V7.6a1,1,0,0,0-.52-.12,1.32,1.32,0,0,0-1.37,1.46c0,.88.31,1.47,1.11,1.47a.9.9,0,0,0,.82-.49v.4h1.14V10l-.22-.06A.14.14,0,0,1,221.32,9.78Zm-.84-.31c-.13.27-.33.44-.51.44-.36,0-.5-.36-.5-1s.17-1.09.52-1.09.49.24.49.84Z"/><path class="cls-8" d="M204.76,7.47a1.37,1.37,0,0,0-1.43,1.47,1.43,1.43,0,1,0,2.85,0A1.37,1.37,0,0,0,204.76,7.47Zm0,2.56c-.37,0-.54-.42-.54-1.09s.17-1.09.54-1.09.54.42.54,1.09S205.12,10,204.76,10Z"/><path class="cls-8" d="M217,7.47a1.36,1.36,0,0,0-1.42,1.47,1.42,1.42,0,1,0,2.84,0A1.36,1.36,0,0,0,217,7.47ZM217,10c-.37,0-.54-.42-.54-1.09s.17-1.09.54-1.09.54.42.54,1.09S217.35,10,217,10Z"/><path class="cls-8" d="M214,7.47a1.37,1.37,0,0,0-1.42,1.47,1.43,1.43,0,1,0,2.85,0A1.37,1.37,0,0,0,214,7.47ZM214,10c-.36,0-.53-.42-.53-1.09s.17-1.09.53-1.09.54.42.54,1.09S214.32,10,214,10Z"/><path class="cls-8" d="M201.71,8.17c0-.15.15-.26.41-.26a1,1,0,0,1,.39.06.13.13,0,0,1,.09.1l.13.33h.32V7.63a2.09,2.09,0,0,0-.86-.16c-.87,0-1.2.45-1.2,1,0,1.13,1.43.66,1.43,1.25,0,.21-.18.29-.44.29a.93.93,0,0,1-.49-.14.16.16,0,0,1-.07-.09l-.1-.38H201v.89a3.43,3.43,0,0,0,1,.17c.8,0,1.21-.47,1.21-1C203.19,8.25,201.71,8.74,201.71,8.17Z"/><path class="cls-8" d="M222.56,8.17c0-.15.15-.26.42-.26a1.06,1.06,0,0,1,.39.06.18.18,0,0,1,.09.1l.12.33h.32V7.63a2,2,0,0,0-.85-.16c-.87,0-1.21.45-1.21,1,0,1.13,1.44.66,1.44,1.25,0,.21-.19.29-.45.29a.9.9,0,0,1-.48-.14.13.13,0,0,1-.07-.09l-.1-.38h-.34v.89a3.51,3.51,0,0,0,1,.17,1.05,1.05,0,0,0,1.2-1C224,8.25,222.56,8.74,222.56,8.17Z"/><path class="cls-8" d="M196.5,9.93l-.28.06v.33H198V10l-.28-.06a.15.15,0,0,1-.13-.16V6.61h.73a.15.15,0,0,1,.15.13l.08.37h.4V6h-3.63V7.11h.4l.08-.37a.15.15,0,0,1,.15-.13h.73V9.77A.15.15,0,0,1,196.5,9.93Z"/><path class="cls-8" d="M213,7.11V6h-3v.34l.28,0a.15.15,0,0,1,.12.16v3.2a.15.15,0,0,1-.12.16L210,10v.33h1.75V10l-.31-.06a.15.15,0,0,1-.13-.16V8.4h.52a.15.15,0,0,1,.15.13l.06.26h.33V7.56H212l-.06.26a.15.15,0,0,1-.15.13h-.52V6.61h1.06a.15.15,0,0,1,.15.13l.08.37Z"/><path class="cls-8" d="M209.06,9.78V8.45c0-.69-.36-1-.88-1a1.05,1.05,0,0,0-.8.41V7.57l-.1-.1-1.1.27v.35h.21a.16.16,0,0,1,.16.15h0V9.78a.15.15,0,0,1-.13.16l-.24.05v.33h1.6V10l-.27-.06a.14.14,0,0,1-.13-.15V8.33a.61.61,0,0,1,.44-.19c.34,0,.41.2.41.55v1.63h1.24V10l-.28-.06A.15.15,0,0,1,209.06,9.78Z"/><path class="cls-8" d="M199.8,7.89l.18,0c.11,0,.14.09.09.22l-.46,1.16-.44-1.16c0-.1,0-.18.09-.21l.18,0V7.56h-1.56v.33l.21.05a.17.17,0,0,1,.12.1l.95,2.4-.13.31a.58.58,0,0,1-1,.28l-.12,0v.64a.83.83,0,0,0,.48.14c.34,0,.7-.22,1-1L200.66,8a.15.15,0,0,1,.12-.1l.2,0V7.56H199.8v.33Z"/><path class="cls-5" d="M224.69,7.37V7.3H225v.07h-.13V7.7h-.08V7.37Zm.52-.07.1.28.1-.28h.11v.4h-.07V7.38l-.11.32h-.06l-.11-.32V7.7h-.08V7.3Z"/></g></g></svg>