<svg xmlns="http://www.w3.org/2000/svg" viewBox="0 0 22.82 6.89"><defs><style>.cls-1{fill:#19347f;fill-rule:evenodd;}</style></defs><g id="Layer_2" data-name="Layer 2"><g id="Layer_1-2" data-name="Layer 1"><path class="cls-1" d="M1.49,6.05a3.21,3.21,0,0,1-1-1A3.35,3.35,0,0,1,0,3.3,3.3,3.3,0,1,1,5.89,5.35a3.55,3.55,0,0,1-.78.7V4.12h.32V5.44a3.31,3.31,0,0,0,.48-.66A3,3,0,0,0,6.29,3.3a3,3,0,1,0-6,0,3.16,3.16,0,0,0,.84,2.12V4.12h.34V6.05Zm.65.34-.33-.15V4.12h.33V6.39Zm.66.17a.5.5,0,0,1-.17,0l-.16,0V2H2.8V6.56Zm.66,0H3.13V2h.33V6.59Zm.66-.11-.33.09V2h.33v4.5Zm0-4.74L3.3,1.1l-.83.64L2.29,1.5l1-.79,1,.79-.18.24Zm.66,4.5-.33.15V4.12h.33V6.24Z"/><path class="cls-1" d="M8.42,1.39V.51a.45.45,0,0,1,.21,0A.39.39,0,0,1,9,.91c0,.33-.14.48-.44.48ZM8.26.33H7.84V.48l.23,0v2l-.23,0v.14h.89a1.23,1.23,0,0,0,.46-.06.59.59,0,0,0,.37-.57A.63.63,0,0,0,9,1.45c.28-.14.42-.31.42-.55A.59.59,0,0,0,8.77.31l-.22,0Zm.16,1.22h.15c.4,0,.59.16.59.5a.49.49,0,0,1-.53.53.36.36,0,0,1-.21-.05v-1ZM10.53,1c-.42,0-.7.37-.7.91s.27.86.66.86.71-.37.71-.92S10.92,1,10.53,1Zm0,.16c.2,0,.31.23.31.65s-.11.78-.32.78-.3-.25-.3-.69.11-.74.31-.74Zm2.17.7c0-.58-.19-.86-.58-.86s-.65.35-.65.93.24.84.65.84.4-.09.57-.41l-.15-.06c-.1.16-.19.22-.32.22s-.37-.19-.4-.66Zm-.88-.17c0-.36.12-.52.28-.52s.23.14.25.52ZM8.64,6.27V6.12l-.2,0v-2l.21,0V3.87h-.8V4l.22,0v2l-.22,0v.14Zm1.81,0V6.12l-.18,0V5a.4.4,0,0,0-.41-.45.67.67,0,0,0-.46.2v-.2H9.3l-.43.11V4.8l.2,0V6.09l-.2,0v.14h.71V6.12l-.18,0V5a.53.53,0,0,1,.33-.15c.13,0,.19.09.19.28v1l-.18,0v.14Zm1.62-1.49v-.2h-.41a.5.5,0,0,1-.15,0,.92.92,0,0,0-.22,0,.57.57,0,0,0-.58.58.52.52,0,0,0,.28.48c-.22.14-.31.25-.31.37s.06.16.2.22c-.21.13-.27.22-.27.36s.24.35.61.35.83-.23.83-.6-.15-.38-.48-.4l-.42,0c-.1,0-.14,0-.14-.07s.05-.09.13-.15a.58.58,0,0,0,.19,0,.56.56,0,0,0,.58-.56.52.52,0,0,0-.12-.34Zm-.77-.1c.17,0,.25.14.25.45s-.08.39-.24.39-.23-.13-.23-.43.07-.41.22-.41Zm-.1,1.53c.53,0,.61.06.61.21s-.22.28-.5.28-.37-.09-.37-.24a.33.33,0,0,1,.12-.26Z"/><path class="cls-1" d="M12.6,5.23c.05-.37.14-.52.3-.52s.22.16.23.52Zm1.84-2.51V2.57l-.18,0v-1c0-.31-.14-.47-.41-.47a.72.72,0,0,0-.45.2v-1h-.09l-.44.09V.38l.2,0V2.54l-.21,0v.14h.71V2.57l-.17,0V1.42a.46.46,0,0,1,.32-.15c.15,0,.2.09.2.34v.94l-.16,0v.14ZM15.2,1h-.1l-.42.11v.11l.2,0V2.54l-.2,0v.14h.77V2.57l-.24,0V1.63a.37.37,0,0,1,.21-.29l.18.1a.28.28,0,0,0,.13-.21.18.18,0,0,0-.2-.2c-.12,0-.19.06-.33.3V1Zm1-.84A.22.22,0,0,0,16,.4a.22.22,0,0,0,.22.22.23.23,0,1,0,0-.45Zm.39,2.55V2.57l-.19,0V1h-.08l-.44.11v.12l.19,0V2.54l-.19,0v.14ZM13.49,5.39A1.64,1.64,0,0,0,13.44,5a.52.52,0,0,0-.54-.42c-.4,0-.64.34-.64.92s.23.84.65.84c.27,0,.42-.1.58-.4l-.16-.06c-.1.16-.19.22-.32.22s-.37-.2-.41-.67Zm.93.88V6.12l-.19,0V3.71h-.09l-.44.1v.12l.2,0V6.09l-.21,0v.14Zm1.81,0V6.12l-.19,0V5a.39.39,0,0,0-.4-.44.68.68,0,0,0-.46.2V3.71h-.09l-.44.1v.12l.2,0V6.09l-.21,0v.14h.71V6.12l-.17,0V5a.48.48,0,0,1,.32-.16c.14,0,.2.09.2.34v.94l-.17,0v.14Zm1.45-.88a2.56,2.56,0,0,0,0-.43.54.54,0,0,0-.55-.42c-.4,0-.64.34-.64.92s.24.84.65.84.42-.1.58-.4l-.15-.06c-.11.16-.2.22-.33.22s-.37-.2-.4-.67Zm-.88-.16c0-.37.13-.52.29-.52s.23.16.23.52Z"/><path class="cls-1" d="M19.29,1.13c.16,0,.25.15.25.45S19.46,2,19.3,2s-.23-.13-.23-.42.07-.42.22-.42Zm-.85,1.59V2.57l-.18,0V1.46c0-.29-.14-.45-.41-.45a.69.69,0,0,0-.46.2V1H17.3l-.43.11v.14l.2,0V2.54l-.2,0v.14h.71V2.57l-.18,0V1.4a.49.49,0,0,1,.33-.15c.13,0,.19.09.19.28v1l-.18,0v.14Zm1.62-1.48V1h-.41L19.5,1a.79.79,0,0,0-.23,0,.56.56,0,0,0-.57.57A.5.5,0,0,0,19,2c-.22.14-.31.25-.31.37s.06.16.19.22c-.19.13-.27.22-.27.36s.25.36.62.36.83-.24.83-.61-.16-.38-.48-.39l-.42,0c-.1,0-.14,0-.14-.08s.05-.09.13-.15a.58.58,0,0,0,.19,0,.56.56,0,0,0,.58-.55.46.46,0,0,0-.13-.34Zm-1,1.42c.69,0,.74,0,.74.21s-.21.29-.5.29-.36-.09-.36-.24a.31.31,0,0,1,.12-.26Zm2.43-.81c0-.58-.19-.86-.58-.86s-.65.35-.65.93.24.84.66.84c.27,0,.39-.09.56-.41l-.15-.06c-.1.16-.19.22-.32.22s-.37-.19-.4-.66Zm-.88-.17c0-.36.12-.52.28-.52s.23.14.25.52ZM22.29,1h-.11l-.41.11v.11l.2,0V2.54l-.2,0v.14h.77V2.57l-.25,0V1.63a.39.39,0,0,1,.22-.29l.18.1a.28.28,0,0,0,.13-.21.18.18,0,0,0-.2-.2c-.13,0-.19.06-.33.3V1Zm-4,2.7a.23.23,0,0,0-.24.23.22.22,0,0,0,.22.22.22.22,0,0,0,.23-.22.23.23,0,0,0-.21-.23Zm.37,2.56V6.12l-.19,0V4.57h-.09L18,4.68v.11l.18,0V6.09l-.18,0v.14h3.43V6.12l-.19,0v-1c0-.35-.13-.49-.43-.49a.64.64,0,0,0-.48.23.4.4,0,0,0-.38-.23.7.7,0,0,0-.48.21V4.55h-.09l-.43.11v.12l.2,0V6.09l-.2,0v.14h.7V6.12l-.16,0V5a.43.43,0,0,1,.32-.16c.15,0,.22.1.22.32v1l-.2,0v.14h.71V6.12l-.18,0V5a.46.46,0,0,1,.33-.17c.14,0,.21.09.21.32v1l-.19,0v.14h-2Z"/></g></g></svg>