<svg xmlns="http://www.w3.org/2000/svg" xmlns:xlink="http://www.w3.org/1999/xlink" viewBox="0 0 24.28 29.97"><defs><style>.cls-1,.cls-6{fill:none;}.cls-2{clip-path:url(#clip-path);}.cls-3{fill:#faa61c;}.cls-4{fill:#fcee17;}.cls-5{fill:#231f20;}.cls-6{stroke:#faa61c;stroke-miterlimit:10;stroke-width:0.91px;}</style><clipPath id="clip-path" transform="translate(0.14 0.14)"><rect class="cls-1" width="24.01" height="29.83"/></clipPath></defs><g id="Layer_2" data-name="Layer 2"><g id="Layer_1-2" data-name="Layer 1"><g class="cls-2"><path class="cls-3" d="M23.64,5l.05,17.65H.32V14.2l0-5a59,59,0,0,0,16-7.74S21.78,7.23,23.64,5" transform="translate(0.14 0.14)"/><path class="cls-4" d="M23.74,13.68,23.63,5c-1.33,1.63-4.56-.87-6.27-2.4A5.13,5.13,0,0,1,17,5.37a25.75,25.75,0,0,1-3.71,5.52c-.83.88-1.65,1.81.31,2.22s9.54,1.19,9.54,1.19l.52.15" transform="translate(0.14 0.14)"/><path class="cls-4" d="M19.66,22.61A2.33,2.33,0,0,0,21.06,20C20.7,18,14.3,15.43.63,14.2H.32v8.41Z" transform="translate(0.14 0.14)"/><path class="cls-5" d="M1.32,24.78v2h.59a.64.64,0,0,0,.64-.45,1.67,1.67,0,0,0,.1-.58A1.45,1.45,0,0,0,2.5,25a.65.65,0,0,0-.59-.25Zm1.18-.46a1,1,0,0,1,.52.39,1.28,1.28,0,0,1,.22.49,2.35,2.35,0,0,1,.06.51,2,2,0,0,1-.25,1,1.1,1.1,0,0,1-1,.57H.69V24.25H2a1.35,1.35,0,0,1,.48.07" transform="translate(0.14 0.14)"/><path class="cls-5" d="M4.32,25.61a.63.63,0,0,0-.15.35h1A.47.47,0,0,0,5,25.6a.51.51,0,0,0-.35-.12.48.48,0,0,0-.36.13m.89-.51a1,1,0,0,1,.4.33,1.21,1.21,0,0,1,.18.47c0,.11,0,.26,0,.45H4.15a.54.54,0,0,0,.24.48.62.62,0,0,0,.66,0,.74.74,0,0,0,.12-.16h.61a.79.79,0,0,1-.22.41,1.12,1.12,0,0,1-.86.33,1.22,1.22,0,0,1-.8-.28,1.1,1.1,0,0,1-.35-.91,1.22,1.22,0,0,1,.32-.9A1,1,0,0,1,4.68,25a1.25,1.25,0,0,1,.53.11" transform="translate(0.14 0.14)"/><path class="cls-5" d="M6.57,26.6a.38.38,0,0,0,.08.22.54.54,0,0,0,.41.12.56.56,0,0,0,.28-.05.16.16,0,0,0,.1-.16.17.17,0,0,0-.08-.15,4.19,4.19,0,0,0-.62-.18,1.23,1.23,0,0,1-.55-.24A.53.53,0,0,1,6,25.75a.72.72,0,0,1,.25-.54A1,1,0,0,1,7,25a1.2,1.2,0,0,1,.69.17.7.7,0,0,1,.31.58H7.39a.36.36,0,0,0-.07-.18A.39.39,0,0,0,7,25.44a.51.51,0,0,0-.28.06.19.19,0,0,0-.08.14.16.16,0,0,0,.09.15,3.88,3.88,0,0,0,.62.17,1.14,1.14,0,0,1,.53.25.57.57,0,0,1,.18.43.71.71,0,0,1-.26.55A1.16,1.16,0,0,1,7,27.4a1.14,1.14,0,0,1-.8-.23A.72.72,0,0,1,6,26.6Z" transform="translate(0.14 0.14)"/><path class="cls-5" d="M9.08,25.61a.57.57,0,0,0-.16.35h1a.47.47,0,0,0-.16-.36.51.51,0,0,0-.35-.12.45.45,0,0,0-.35.13M10,25.1a1,1,0,0,1,.4.33,1.21,1.21,0,0,1,.18.47c0,.11,0,.26,0,.45H8.9a.54.54,0,0,0,.24.48.62.62,0,0,0,.66,0,.52.52,0,0,0,.12-.16h.61a.79.79,0,0,1-.22.41,1.12,1.12,0,0,1-.86.33,1.22,1.22,0,0,1-.8-.28,1.1,1.1,0,0,1-.35-.91,1.22,1.22,0,0,1,.32-.9A1.06,1.06,0,0,1,9.43,25a1.25,1.25,0,0,1,.53.11" transform="translate(0.14 0.14)"/><path class="cls-5" d="M12.12,25h.05v.61H12a.5.5,0,0,0-.48.23.89.89,0,0,0-.07.41v1.08h-.6V25.05h.57v.4a1.1,1.1,0,0,1,.24-.31.62.62,0,0,1,.43-.14h0" transform="translate(0.14 0.14)"/><path class="cls-5" d="M12.29,25.49v-.42h.31v-.63h.59v.63h.37v.42h-.37V26.7a.27.27,0,0,0,0,.17s.09,0,.22,0h.11v.44l-.28,0a.81.81,0,0,1-.58-.15.47.47,0,0,1-.1-.32v-1.4Z" transform="translate(0.14 0.14)"/></g><polygon class="cls-5" points="15.31 27.46 15.31 24.39 15.95 24.39 15.95 25.56 17.14 25.56 17.14 24.39 17.78 24.39 17.78 27.46 17.14 27.46 17.14 26.09 15.95 26.09 15.95 27.46 15.31 27.46"/><path class="cls-5" d="M18.22,27.32h.61V25.05h-.61Zm0-2.54h.61v-.55h-.61Z" transform="translate(0.14 0.14)"/><rect class="cls-5" x="19.55" y="24.39" width="0.59" height="3.07"/><rect class="cls-5" x="20.74" y="24.39" width="0.59" height="3.07"/><g class="cls-2"><path class="cls-5" d="M22.24,26.6a.38.38,0,0,0,.08.22.54.54,0,0,0,.41.12.56.56,0,0,0,.28-.05.16.16,0,0,0,.1-.16.19.19,0,0,0-.08-.15,4.68,4.68,0,0,0-.62-.18,1.23,1.23,0,0,1-.55-.24.53.53,0,0,1-.16-.41.72.72,0,0,1,.25-.54,1,1,0,0,1,.7-.22,1.22,1.22,0,0,1,.69.17.73.73,0,0,1,.31.58h-.59a.36.36,0,0,0-.07-.18.4.4,0,0,0-.33-.12.51.51,0,0,0-.28.06.16.16,0,0,0-.08.14.16.16,0,0,0,.08.15A4.18,4.18,0,0,0,23,26a1.14,1.14,0,0,1,.53.25.6.6,0,0,1,.17.43.7.7,0,0,1-.25.55,1.21,1.21,0,0,1-.78.21,1.11,1.11,0,0,1-.79-.23.73.73,0,0,1-.26-.57Z" transform="translate(0.14 0.14)"/></g><polygon class="cls-5" points="0.84 28.52 0.84 29.64 1.07 29.64 1.07 29.17 1.57 29.17 1.57 28.97 1.07 28.97 1.07 28.72 1.64 28.72 1.64 28.52 0.84 28.52"/><g class="cls-2"><path class="cls-5" d="M2.15,29.28a.39.39,0,0,0,0-.38A.15.15,0,0,0,2,28.83a.17.17,0,0,0-.15.07.39.39,0,0,0,0,.38.17.17,0,0,0,.15.07.15.15,0,0,0,.14-.07m.18.12a.38.38,0,0,1-.32.13.38.38,0,0,1-.32-.13.53.53,0,0,1,0-.62A.38.38,0,0,1,2,28.65a.38.38,0,0,1,.32.13.53.53,0,0,1,0,.62" transform="translate(0.14 0.14)"/><path class="cls-5" d="M3,28.66h0v.22H3a.18.18,0,0,0-.18.09.49.49,0,0,0,0,.15v.39H2.58v-.83h.21v.15a.26.26,0,0,1,.09-.11A.2.2,0,0,1,3,28.66Z" transform="translate(0.14 0.14)"/></g><polygon class="cls-5" points="4.42 28.52 4.18 29.37 3.94 28.52 3.69 28.52 4.07 29.64 4.29 29.64 4.67 28.52 4.42 28.52"/><g class="cls-2"><path class="cls-5" d="M4.78,28.88a.23.23,0,0,0-.06.13H5.1A.2.2,0,0,0,5,28.88a.21.21,0,0,0-.13-.05.19.19,0,0,0-.13.05m.33-.19a.53.53,0,0,1,.14.12.49.49,0,0,1,.06.17.81.81,0,0,1,0,.17h-.6a.18.18,0,0,0,.09.17.2.2,0,0,0,.11,0,.28.28,0,0,0,.13,0l0-.06h.22a.28.28,0,0,1-.08.15.4.4,0,0,1-.31.12.48.48,0,0,1-.29-.1.39.39,0,0,1-.13-.33.42.42,0,0,1,.12-.33.37.37,0,0,1,.29-.12.65.65,0,0,1,.2,0" transform="translate(0.14 0.14)"/><path class="cls-5" d="M5.35,28.84v-.16h.11v-.23h.21v.23h.14v.16H5.67v.43a.1.1,0,0,0,0,.07h.12v.16h-.1c-.11,0-.18,0-.21-.05a.15.15,0,0,1,0-.12v-.5Z" transform="translate(0.14 0.14)"/><path class="cls-5" d="M6.16,28.88A.23.23,0,0,0,6.1,29h.38a.2.2,0,0,0-.06-.13.21.21,0,0,0-.13-.05.17.17,0,0,0-.13.05m.32-.19a.44.44,0,0,1,.15.12.49.49,0,0,1,.06.17.81.81,0,0,1,0,.17H6.1a.18.18,0,0,0,.09.17.2.2,0,0,0,.11,0,.21.21,0,0,0,.12,0l0-.06h.22a.28.28,0,0,1-.08.15.41.41,0,0,1-.31.12.48.48,0,0,1-.29-.1.39.39,0,0,1-.13-.33A.42.42,0,0,1,6,28.77a.37.37,0,0,1,.29-.12.53.53,0,0,1,.19,0" transform="translate(0.14 0.14)"/><path class="cls-5" d="M7.27,28.66h0v.22H7.22a.18.18,0,0,0-.17.09.28.28,0,0,0,0,.15v.39H6.81v-.83H7v.15a.65.65,0,0,1,.09-.11.21.21,0,0,1,.16-.05Z" transform="translate(0.14 0.14)"/></g><path class="cls-5" d="M7.42,29.5h.21v-.82H7.42Zm0-.92h.21v-.2H7.42Z" transform="translate(0.14 0.14)"/><g class="cls-2"><path class="cls-5" d="M8.51,28.72a.29.29,0,0,1,.08.22v.56H8.37V29a.25.25,0,0,0,0-.1.13.13,0,0,0-.12-.07.16.16,0,0,0-.15.1.37.37,0,0,0,0,.12v.45H7.84v-.82h.21v.12a.27.27,0,0,1,.25-.14.37.37,0,0,1,.21.06" transform="translate(0.14 0.14)"/><path class="cls-5" d="M9.25,29.1l0,0H9.1l-.1,0a.11.11,0,0,0-.05.1.11.11,0,0,0,0,.08l.08,0a.22.22,0,0,0,.13,0,.18.18,0,0,0,.06-.15ZM9.12,29l.08,0a.06.06,0,0,0,.05-.06s0-.06,0-.07a.22.22,0,0,0-.1,0,.12.12,0,0,0-.11,0,.09.09,0,0,0,0,.07H8.76a.48.48,0,0,1,.06-.18.38.38,0,0,1,.3-.1.47.47,0,0,1,.24.05c.07,0,.1.1.1.2v.38a.38.38,0,0,0,0,.1.07.07,0,0,0,0,.05l0,0v0H9.28s0,0,0-.05V29.4a.48.48,0,0,1-.11.09.38.38,0,0,1-.16,0,.29.29,0,0,1-.18-.07.21.21,0,0,1-.07-.18.23.23,0,0,1,.11-.22A.74.74,0,0,1,9,29Z" transform="translate(0.14 0.14)"/><path class="cls-5" d="M10.11,28.66h0v.22h-.06a.18.18,0,0,0-.18.09.49.49,0,0,0,0,.15v.39H9.65v-.83h.21v.15a.38.38,0,0,1,.08-.11.22.22,0,0,1,.16-.05Z" transform="translate(0.14 0.14)"/><path class="cls-5" d="M10.29,29.66h.09l0,0,0-.05s0-.05,0-.05l-.3-.86h.24l.18.6.17-.6H11l-.28.81a1.78,1.78,0,0,1-.13.29s-.1,0-.19,0h-.1Z" transform="translate(0.14 0.14)"/><path class="cls-5" d="M11.74,29.16a.18.18,0,0,0,0,.11.23.23,0,0,0,.2.07l.13,0a.12.12,0,0,0,.1-.13.07.07,0,0,0-.05-.08L12,29.05l-.12,0a1,1,0,0,1-.25-.09.28.28,0,0,1-.11-.24.34.34,0,0,1,.11-.25.45.45,0,0,1,.33-.1.51.51,0,0,1,.3.09.36.36,0,0,1,.13.28h-.22a.2.2,0,0,0-.09-.15.32.32,0,0,0-.14,0,.33.33,0,0,0-.15,0,.14.14,0,0,0-.05.1.09.09,0,0,0,.05.09.41.41,0,0,0,.15.05l.2.05a.42.42,0,0,1,.19.08.27.27,0,0,1,.1.22.32.32,0,0,1-.12.26.48.48,0,0,1-.33.1.52.52,0,0,1-.35-.1.32.32,0,0,1-.13-.27Z" transform="translate(0.14 0.14)"/><path class="cls-5" d="M12.8,28.88a.23.23,0,0,0-.06.13h.37a.16.16,0,0,0,0-.13.21.21,0,0,0-.13-.05.17.17,0,0,0-.13.05m.32-.19a.33.33,0,0,1,.14.12.36.36,0,0,1,.07.17.81.81,0,0,1,0,.17h-.6a.19.19,0,0,0,.08.17.24.24,0,0,0,.12,0,.21.21,0,0,0,.12,0l0-.06h.22a.37.37,0,0,1-.08.15.41.41,0,0,1-.31.12.54.54,0,0,1-.3-.1.42.42,0,0,1-.12-.33.45.45,0,0,1,.11-.33.41.41,0,0,1,.3-.12.58.58,0,0,1,.19,0" transform="translate(0.14 0.14)"/><path class="cls-5" d="M13.9,28.66h0v.22h-.06a.17.17,0,0,0-.17.09.28.28,0,0,0,0,.15v.39h-.22v-.83h.21v.15a.26.26,0,0,1,.09-.11.2.2,0,0,1,.15-.05Z" transform="translate(0.14 0.14)"/></g><polygon class="cls-5" points="14.69 28.81 14.52 29.42 14.35 28.81 14.1 28.81 14.4 29.64 14.63 29.64 14.93 28.81 14.69 28.81"/><path class="cls-5" d="M14.92,29.5h.21v-.82h-.21Zm0-.92h.21v-.2h-.21Z" transform="translate(0.14 0.14)"/><g class="cls-2"><path class="cls-5" d="M15.84,29a.2.2,0,0,0,0-.08s-.06-.05-.11-.05a.15.15,0,0,0-.15.11.49.49,0,0,0,0,.15.46.46,0,0,0,0,.14.16.16,0,0,0,.15.11.18.18,0,0,0,.11,0,.2.2,0,0,0,0-.11h.22a.28.28,0,0,1-.07.19.34.34,0,0,1-.3.14.34.34,0,0,1-.29-.12.5.5,0,0,1-.09-.31.48.48,0,0,1,.1-.33.35.35,0,0,1,.29-.11.49.49,0,0,1,.25.06.32.32,0,0,1,.12.25Z" transform="translate(0.14 0.14)"/><path class="cls-5" d="M16.42,28.88a.23.23,0,0,0-.06.13h.37a.16.16,0,0,0-.05-.13.21.21,0,0,0-.13-.05.17.17,0,0,0-.13.05m.32-.19a.44.44,0,0,1,.15.12A.49.49,0,0,1,17,29a.81.81,0,0,1,0,.17h-.6a.19.19,0,0,0,.08.17.27.27,0,0,0,.12,0,.21.21,0,0,0,.12,0l.05-.06H17a.37.37,0,0,1-.08.15.41.41,0,0,1-.31.12.48.48,0,0,1-.29-.1.39.39,0,0,1-.13-.33.45.45,0,0,1,.11-.33.41.41,0,0,1,.3-.12.53.53,0,0,1,.19,0" transform="translate(0.14 0.14)"/><path class="cls-5" d="M17.24,29.24a.19.19,0,0,0,0,.08.21.21,0,0,0,.15,0,.18.18,0,0,0,.11,0,.05.05,0,0,0,0-.05.06.06,0,0,0,0-.06l-.22-.06a.63.63,0,0,1-.2-.09.2.2,0,0,1-.06-.15.27.27,0,0,1,.09-.2.39.39,0,0,1,.25-.08.5.5,0,0,1,.26.06.29.29,0,0,1,.11.22h-.22a.14.14,0,0,0,0-.07.15.15,0,0,0-.12,0c-.05,0-.08,0-.1,0a.06.06,0,0,0,0,.1.6.6,0,0,0,.22.06.38.38,0,0,1,.2.1.2.2,0,0,1,.06.15.25.25,0,0,1-.09.2.44.44,0,0,1-.28.08.46.46,0,0,1-.29-.08.29.29,0,0,1-.09-.21Z" transform="translate(0.14 0.14)"/><path class="cls-5" d="M18.49,28.5a.46.46,0,0,1,.34-.14.44.44,0,0,1,.4.19.37.37,0,0,1,.08.21h-.23a.53.53,0,0,0-.06-.13.26.26,0,0,0-.38,0,.51.51,0,0,0-.07.3.47.47,0,0,0,.07.28.25.25,0,0,0,.2.09.22.22,0,0,0,.18-.08.53.53,0,0,0,.06-.13h.23a.54.54,0,0,1-.15.3.5.5,0,0,1-.32.11.47.47,0,0,1-.37-.15.65.65,0,0,1-.14-.43.61.61,0,0,1,.16-.45" transform="translate(0.14 0.14)"/><path class="cls-5" d="M20,29.28a.39.39,0,0,0,0-.38.18.18,0,0,0-.15-.07.15.15,0,0,0-.14.07.33.33,0,0,0,0,.38.15.15,0,0,0,.14.07.18.18,0,0,0,.15-.07m.17.12a.46.46,0,0,1-.64,0,.53.53,0,0,1,0-.62.46.46,0,0,1,.64,0,.53.53,0,0,1,0,.62" transform="translate(0.14 0.14)"/></g><rect class="cls-5" x="20.56" y="29.41" width="0.23" height="0.23"/><polygon class="cls-5" points="21.44 28.52 21.44 29.64 22.23 29.64 22.23 29.43 21.68 29.43 21.68 28.52 21.44 28.52"/><g class="cls-2"><path class="cls-5" d="M22.15,28.84v-.16h.12v-.23h.21v.23h.13v.16h-.13v.43s0,.06,0,.07h.12v.16h-.1a.25.25,0,0,1-.21-.05.19.19,0,0,1,0-.12v-.5Z" transform="translate(0.14 0.14)"/><path class="cls-5" d="M23.24,29.28a.27.27,0,0,0,.05-.18.26.26,0,0,0-.08-.22.18.18,0,0,0-.1,0,.15.15,0,0,0-.14.08.29.29,0,0,0,0,.17.36.36,0,0,0,0,.19.15.15,0,0,0,.13.06.16.16,0,0,0,.14-.06m0-.59a.28.28,0,0,1,.1.09v-.39h.21V29.5h-.21v-.11a.32.32,0,0,1-.1.1.33.33,0,0,1-.15,0,.31.31,0,0,1-.24-.12.44.44,0,0,1-.1-.3.48.48,0,0,1,.1-.33.31.31,0,0,1,.26-.12.28.28,0,0,1,.13,0" transform="translate(0.14 0.14)"/><rect class="cls-6" x="0.45" y="0.45" width="23.37" height="22.29"/></g></g></g></svg>