<svg xmlns="http://www.w3.org/2000/svg" viewBox="0 0 13.85 11.29"><defs><style>.cls-1{fill:#dfa21c;opacity:0.2;}.cls-2{fill:#036936;}</style></defs><g id="Layer_2" data-name="Layer 2"><g id="Layer_1-2" data-name="Layer 1"><path class="cls-1" d="M13.85,7.09c0-1.47-3.1-2.66-6.93-2.66S0,5.62,0,7.09,3.1,9.75,6.92,9.75s6.93-1.19,6.93-2.66"/><path class="cls-2" d="M5.14,1.66C5.52.48,6.09,0,7,0S8.48.53,8.82,1.66c.7,0,1.43,0,2.15,0,.36,0,.84-.09,1.07.1s.18.66.25,1c.12.74.25,1.48.37,2.22a1.5,1.5,0,0,1,0,.22c0,.32,0,.65-.37.76s-.54-.15-.7-.42c-.06-.12-.13-.23-.26-.44,0,.24,0,.37,0,.5,0,1.74,0,3.47,0,5.21,0,.37-.11.46-.47.46H3.11c-.36,0-.48-.09-.47-.46,0-1.73,0-3.47,0-5.21a.91.91,0,0,0-.08-.41,2.14,2.14,0,0,1-.3.49A1.06,1.06,0,0,1,1.67,6a.45.45,0,0,1-.39-.55c.06-.53.15-1.06.24-1.59S1.72,2.62,1.8,2c0-.29.16-.37.44-.37.84,0,1.67,0,2.51,0Zm0,.26H2.28c-.08,0-.2.14-.22.24-.18,1-.35,2-.5,3.06,0,.15.11.32.17.49.13-.1.3-.16.38-.29.54-.9.85-.91,1.4,0,.25.39.45.4.69,0,.57-.9.84-.9,1.4,0,.24.39.49.41.68,0,.4-.87,1-.84,1.42,0,.17.39.42.38.65,0,.6-.92.85-.92,1.42,0,.23.37.43.37.67,0,.59-.91.86-.91,1.42,0,.08.12.26.18.39.27a1.16,1.16,0,0,0,.16-.45,11.6,11.6,0,0,0-.19-1.18c-.12-.71-.23-1.42-.35-2.14h-3C8.5,3,7.89,3.59,7,3.6S5.49,3.07,5.14,1.92ZM7,11C7,9.8,7,8.64,7,7.48c0-.3.1-.39.38-.39.84,0,1.68,0,2.51,0,.29,0,.4.09.4.38,0,1,0,2,0,2.93V11h.46L11,11V5.15a4,4,0,0,0-.42.55.54.54,0,0,1-1,0c-.11-.15-.19-.32-.3-.47S9,5,8.81,5.21s-.15.25-.23.38c-.32.51-.76.52-1.09,0-.08-.13-.15-.26-.23-.38s-.37-.25-.54,0-.17.28-.26.41a.57.57,0,0,1-1,0c-.52-.78-.52-.78-1,0-.32.48-.74.48-1.07,0L3,5.13,3,5.16V11Zm.27-3.61v3.45c0,.06.1.17.15.17H8.45V7.39ZM9.94,11V7.38H8.77V11ZM8.5,1.82a1.52,1.52,0,1,0-3,0,1.52,1.52,0,0,0,3,0Z"/><path class="cls-2" d="M5.9,8.2c0,1.08,0,1.08-1.07,1.08-.25,0-.5,0-.75,0s-.38-.08-.37-.36q0-.75,0-1.5c0-.23.08-.33.33-.33q.75,0,1.5,0c.31,0,.38.13.37.4S5.9,8,5.9,8.2ZM5.61,9V7.4H4V9Z"/><path class="cls-2" d="M7.43,2.25c-.06.29.12.69-.47.68s-.34-.42-.44-.69c-.3-.06-.71.1-.67-.5s.45-.27.68-.43C6.6,1.05,6.42.66,7,.66s.35.42.45.67.66-.13.67.45S7.71,2.16,7.43,2.25Zm.41-.4V1.74c-.06,0-.13-.1-.2-.09-.38,0-.56-.09-.5-.5C7.13,1.1,7,1,7,1s-.14.15-.13.22c0,.33-.06.5-.43.46-.08,0-.17.09-.26.13.09.06.18.17.27.16.33,0,.45.1.42.43,0,.08.1.18.16.26,0-.08.14-.18.13-.26,0-.32.09-.46.42-.42C7.64,2,7.74,1.88,7.84,1.85Z"/><path class="cls-2" d="M4.49,8.77c0-.09,0-.2,0-.24q.31-.34.66-.66s.13,0,.19,0a.15.15,0,0,1,0,.13l-.73.73S4.58,8.75,4.49,8.77Z"/><path class="cls-2" d="M4.19,8.21l.62-.7A.56.56,0,0,1,4.19,8.21Z"/></g></g></svg>