<svg xmlns="http://www.w3.org/2000/svg" viewBox="0 0 14.69 11.05"><defs><style>.cls-1{fill:#dfa21c;opacity:0.2;}.cls-2{fill:#036936;}</style></defs><g id="Layer_2" data-name="Layer 2"><g id="Layer_1-2" data-name="Layer 1"><path class="cls-1" d="M13.85,4.8c0-1.46-3.1-2.65-6.93-2.65S0,3.34,0,4.8,3.1,7.46,6.92,7.46s6.93-1.19,6.93-2.66"/><path class="cls-2" d="M8.11,1.79A3.73,3.73,0,1,1,4.38,5.53,3.73,3.73,0,0,1,8.11,1.79ZM4.85,5.53A3.28,3.28,0,1,0,8.11,2.24,3.29,3.29,0,0,0,4.85,5.53Z"/><path class="cls-2" d="M3.39,4.22c0,.3.08.56.08.82,0,1.59,0,3.18,0,4.77a.83.83,0,0,1-1.62.26,2.33,2.33,0,0,1,0-.37c0-1.61,0-3.22,0-4.83a5.43,5.43,0,0,1,.08-.63s0,0,0,0A1.62,1.62,0,0,1,1,2.55C1,2,1,1.35,1,.75,1,.57,1,.36,1.23.4a.43.43,0,0,1,.21.34c0,.7,0,1.39,0,2.09A1.07,1.07,0,0,0,2.6,3.9a1.08,1.08,0,0,0,1.23-1c0-.66,0-1.32,0-2a.65.65,0,0,1,0-.28c0-.08.14-.2.22-.2a.28.28,0,0,1,.2.21c0,.84,0,1.68,0,2.52A1.33,1.33,0,0,1,3.39,4.22ZM3,7.33C3,6.52,3,5.71,3,4.9c0-.35-.12-.52-.36-.53s-.38.18-.38.52v4.8c0,.34.13.52.37.52S3,10,3,9.7C3,8.91,3,8.12,3,7.33Z"/><path class="cls-2" d="M13,6.27c-.38-.13-.46-.45-.44-.84a19.44,19.44,0,0,1,1-4.65A.57.57,0,0,1,14.67,1c0,1.57.06,3.14,0,4.7,0,.7.09,1.38,0,2.07s0,1.38,0,2.08a.81.81,0,0,1-1,.84A.76.76,0,0,1,13,10C13,8.73,13,7.51,13,6.27ZM14.17.85h-.09C14,.9,14,1,14,1A18.91,18.91,0,0,0,13,5.48c0,.23.06.36.32.34a4.86,4.86,0,0,1,.54,0c.24,0,.33-.07.33-.32,0-1.44,0-2.89,0-4.33A1.77,1.77,0,0,0,14.17.85Zm.05,7.41V6.77c0-.26-.07-.47-.37-.49s-.37.17-.38.48v3c0,.31.16.5.39.48s.36-.22.36-.47Z"/><path class="cls-2" d="M8.11,11.05a5.51,5.51,0,0,1-4-1.74L4,9.19c-.11-.14-.23-.28-.05-.44s.28,0,.39.13a5,5,0,0,0,3.89,1.7A4.93,4.93,0,0,0,12.1,8.65c0-.05.07-.12.12-.14a2,2,0,0,1,.35-.09c0,.12.06.26,0,.34a3.61,3.61,0,0,1-.5.61A5.52,5.52,0,0,1,8.11,11.05Z"/><path class="cls-2" d="M8.28,0a5.4,5.4,0,0,1,4.28,2.25c.11.13.24.29.06.43s-.31,0-.42-.16a5,5,0,0,0-7-1.11c-.15.1-.32.25-.46,0s.06-.31.2-.42A5.7,5.7,0,0,1,8.28,0Z"/><path class="cls-2" d="M3.34,1.54a8,8,0,0,1,0,.85c0,.1-.15.18-.23.27-.07-.08-.21-.17-.21-.26,0-.59,0-1.17,0-1.76,0-.09.15-.17.22-.26.08.1.21.18.22.28A8.61,8.61,0,0,1,3.34,1.54Z"/><path class="cls-2" d="M1.94,1.48A7.27,7.27,0,0,1,2,.67c0-.11.14-.19.22-.29.08.1.21.19.22.28,0,.58,0,1.16,0,1.73,0,.1-.13.18-.2.27C2.11,2.58,2,2.49,2,2.39,1.92,2.09,1.94,1.79,1.94,1.48Z"/></g></g></svg>