<svg xmlns="http://www.w3.org/2000/svg" viewBox="0 0 30.33 30.33"><defs><style>.cls-1{fill:#f1f1ef;}.cls-2{fill:#dfa21c;opacity:0.2;}.cls-3{fill:#036936;}</style></defs><g id="Layer_2" data-name="Layer 2"><g id="Layer_1-2" data-name="Layer 1"><circle class="cls-1" cx="15.17" cy="15.17" r="15.17"/><path class="cls-2" d="M22.43,14.43c0-1.47-3.09-2.66-6.92-2.66S8.59,13,8.59,14.43s3.1,2.65,6.92,2.65,6.92-1.19,6.92-2.65"/><path class="cls-3" d="M16.08,5.57l.07,0a.71.71,0,0,1,.52.7.69.69,0,0,1-.54.68l-1.47.39-.27.07V8.78h3.73c.5,0,.72.21.72.71v.33a.59.59,0,0,1-.48.62.16.16,0,0,0-.09.09c0,.27-.07.54-.11.82l.78,0a5.46,5.46,0,0,1,3,1.16,3.25,3.25,0,0,1,1.24,2.55v.34a.56.56,0,0,1-.53.58c-.13,0-.18,0-.18.16a1.36,1.36,0,0,1-.07.25l.12.06a.86.86,0,0,1,.51.81.83.83,0,0,1-.52.8.19.19,0,0,0-.13.21c0,.14,0,.28,0,.44h.36a.38.38,0,0,1,.44.44,5.08,5.08,0,0,1,0,.68.92.92,0,0,1-.89.75H10.88A.76.76,0,0,1,10,19.9c-.15-1-.29-2.11-.43-3.16s-.31-2.23-.46-3.35-.27-1.94-.4-2.93A.64.64,0,0,1,8.16,10V9.25a.68.68,0,0,1,.73-.47H13V8.61c0-.57,0-1.13,0-1.7a.69.69,0,0,1,.55-.72l1.12-.29,1.18-.33Zm1.75,4.89H14.3c-.2,0-.3-.08-.3-.22s.1-.22.31-.22h3.87c.17,0,.22,0,.22-.22V9.52c0-.27,0-.29-.29-.29H8.77c-.11,0-.17.06-.16.17s0,.24,0,.37,0,.25.26.25h4.35a.23.23,0,0,1,.18.23.22.22,0,0,1-.2.21h-4l.59,4.32h.07l3.88-1.31a.19.19,0,0,0,.12-.09,4.07,4.07,0,0,1,1.79-1.47,6.16,6.16,0,0,1,2-.51c.07,0,.13,0,.14-.1C17.75,11,17.79,10.75,17.83,10.46Zm.44,5.13H22.5c.05,0,.11,0,.15,0s.13-.09.13-.14a3.24,3.24,0,0,0-.14-1.2,3,3,0,0,0-1.59-1.79,6,6,0,0,0-5.31-.11,3,3,0,0,0-2,3c0,.24,0,.25.26.25Zm-3.7,3.17H18.1a.22.22,0,0,1,0,.43H14.14c-.38,0-.38,0-.38.38s.19.61.61.61h8a.48.48,0,0,0,.45-.41,5.42,5.42,0,0,0,0-.57h-3.7a.2.2,0,0,1-.18-.2.19.19,0,0,1,.17-.22.49.49,0,0,1,.17,0H22V18.2H14.57Zm-4.29-.14h0l3.09-1.07c.08,0,.08-.06.07-.13a.88.88,0,0,1,.52-.93l.1,0-.1-.39c-.54-.07-.68-.23-.68-.77a3.84,3.84,0,0,1,.2-1.28l-3.7,1.24ZM17.51,17A1.14,1.14,0,0,1,16,17s-.11,0-.15,0a1.25,1.25,0,0,1-1.45-.1.27.27,0,0,0-.2,0,.44.44,0,0,0-.29.59.46.46,0,0,0,.47.28h7.72a.33.33,0,0,0,.1,0,.45.45,0,0,0,.11-.87.33.33,0,0,0-.22,0,1.23,1.23,0,0,1-1.45.09c-.08-.05-.12,0-.19,0a1.05,1.05,0,0,1-.89.2A4.48,4.48,0,0,1,19,17,1.13,1.13,0,0,1,17.51,17Zm-7.17,2.13c0,.28.07.54.11.8a.33.33,0,0,0,.38.32h2.6c0-.14-.08-.28-.1-.41a5.86,5.86,0,0,1,0-.59.39.39,0,0,1,.44-.42h.36c0-.14,0-.26,0-.38s0-.25-.17-.29-.11-.08-.17-.11a.34.34,0,0,0-.17,0l-.72.25Zm11.75-3H14.47a.72.72,0,0,0,.84.69,1.37,1.37,0,0,0,.46-.21.32.32,0,0,1,.44,0,.7.7,0,0,0,1.07,0,.3.3,0,0,1,.47,0,.69.69,0,0,0,1.05,0,.3.3,0,0,1,.47,0,.71.71,0,0,0,1.09,0,.28.28,0,0,1,.41,0l.09.07a.79.79,0,0,0,.81.08A.74.74,0,0,0,22.09,16.05ZM13.94,8.78V7.41c0-.29,0-.32.3-.39L16,6.57l.06,0a.27.27,0,0,0,.2-.34A.28.28,0,0,0,15.87,6l-2.23.58a.28.28,0,0,0-.24.32V8.68a.38.38,0,0,0,0,.1Z"/><path class="cls-3" d="M15.72,13.66a.22.22,0,1,1-.23-.23A.24.24,0,0,1,15.72,13.66Z"/><path class="cls-3" d="M17.11,13.65a.21.21,0,0,1-.21.22.21.21,0,0,1-.23-.21.23.23,0,0,1,.21-.23A.24.24,0,0,1,17.11,13.65Z"/><path class="cls-3" d="M18.49,13.66a.21.21,0,0,1-.21.21.22.22,0,0,1-.23-.22.24.24,0,0,1,.22-.22A.22.22,0,0,1,18.49,13.66Z"/><path class="cls-3" d="M19.19,14.71a.22.22,0,0,1-.23.22.21.21,0,0,1-.21-.22.22.22,0,0,1,.44,0Z"/><path class="cls-3" d="M21.74,14.93a.22.22,0,0,1-.21-.23.22.22,0,0,1,.22-.21.22.22,0,0,1,.21.23A.21.21,0,0,1,21.74,14.93Z"/><path class="cls-3" d="M19.88,13.66a.2.2,0,0,1-.22.21.22.22,0,0,1-.22-.22.22.22,0,1,1,.44,0Z"/><path class="cls-3" d="M15,14.73a.21.21,0,0,1-.23.2.22.22,0,0,1-.2-.24.22.22,0,0,1,.23-.2A.22.22,0,0,1,15,14.73Z"/><path class="cls-3" d="M17.8,14.71a.22.22,0,1,1-.22-.22A.22.22,0,0,1,17.8,14.71Z"/><path class="cls-3" d="M20.36,14.93a.21.21,0,0,1-.22-.23.22.22,0,0,1,.22-.21.23.23,0,0,1,.22.23A.23.23,0,0,1,20.36,14.93Z"/><path class="cls-3" d="M17.57,12.82a.21.21,0,0,1-.21-.22.23.23,0,0,1,.23-.22.22.22,0,0,1,.21.22A.22.22,0,0,1,17.57,12.82Z"/><path class="cls-3" d="M19,12.82a.21.21,0,0,1-.21-.22.22.22,0,0,1,.22-.22.23.23,0,0,1,.22.22A.22.22,0,0,1,19,12.82Z"/><path class="cls-3" d="M16.2,14.49a.22.22,0,0,1,.21.23.21.21,0,0,1-.22.21A.21.21,0,0,1,16,14.7.21.21,0,0,1,16.2,14.49Z"/><path class="cls-3" d="M21.27,13.65a.2.2,0,0,1-.2.22.22.22,0,0,1-.24-.21.22.22,0,1,1,.44,0Z"/></g></g></svg>