<svg xmlns="http://www.w3.org/2000/svg" viewBox="0 0 30.33 30.33"><defs><style>.cls-1{fill:#f1f1ef;}.cls-2{fill:#dfa21c;opacity:0.2;}.cls-3{fill:#036936;}</style></defs><g id="Layer_2" data-name="Layer 2"><g id="Layer_1-2" data-name="Layer 1"><circle class="cls-1" cx="15.17" cy="15.17" r="15.17"/><path class="cls-2" d="M22.43,14.43c0-1.47-3.09-2.66-6.92-2.66S8.59,13,8.59,14.43s3.1,2.65,6.92,2.65,6.92-1.19,6.92-2.65"/><path class="cls-3" d="M21.42,20.59a2.19,2.19,0,0,1,1.53.89c.24.31.15.56-.24.63-1,.18-1.92.38-2.89.5a18.25,18.25,0,0,1-2,.06h-2a.48.48,0,0,1-.17,0,.7.7,0,0,1-.16-.14s.1-.11.16-.11a4.34,4.34,0,0,1,.51,0c1.17,0,2.34,0,3.5-.06s2.06-.34,3.08-.52l.06,0a1.72,1.72,0,0,0-1.41-.93.5.5,0,0,0-.2.08,2.92,2.92,0,0,1-1.39.37c-.07,0-.15-.07-.23-.11a.9.9,0,0,1,.22-.14l1.09-.28c.21-.05.28-.18.28-.41q0-4.45,0-8.9V11l-.72.79c-.17.18-.34.38-.52.55s-.17.06-.25.09,0-.21.06-.27c.36-.41.75-.78,1.09-1.21.68-.84,1.33-1.71,2-2.57a.9.9,0,0,0,.11-.22H19.44a.42.42,0,0,0-.38.2c-.34.51-.69,1-1,1.49,0,0,0,0,0,0s-.23.19-.27.16,0-.21,0-.3c.29-.43.59-.85.89-1.27l.21-.31c-1,.08-1.92.2-2.85.2s-1.88-.12-2.88-.2l.27.39c.28.4.57.8.84,1.21,0,.07,0,.2,0,.29s-.19-.06-.24-.13c-.39-.53-.76-1.07-1.15-1.6a.35.35,0,0,0-.25-.16H9.22l-.13,0c.08.12.14.23.22.34a29.77,29.77,0,0,0,3,3.66l0,0c0,.09,0,.18.07.27s-.21,0-.26-.09c-.36-.37-.71-.76-1.06-1.14a.45.45,0,0,0-.21-.16v1a1.74,1.74,0,0,1,0,.32c0,.06-.08.11-.13.17s-.12-.12-.12-.18a4.94,4.94,0,0,1,0-.86,2,2,0,0,0-.53-1.59C9.7,9.52,9.4,9,9.06,8.6a1.32,1.32,0,0,1-.28-.83c0-.34,0-.69,0-1s.07-.31.27-.3c1.61,0,3.21,0,4.81,0,.92,0,1.85.12,2.77.14.48,0,.95-.12,1.43-.13,1.2,0,2.41,0,3.62-.06h1.23a.26.26,0,0,1,.3.3c0,.39,0,.78,0,1.16a1.41,1.41,0,0,1-.25.68c-.45.65-.94,1.28-1.41,1.93a.58.58,0,0,0-.12.33v9.56C21.41,20.45,21.42,20.51,21.42,20.59ZM13,7.76a17,17,0,0,0,6,0V6.7c-1,.08-2,.21-3,.21s-2-.13-3-.21Zm-.29-1H9.08V7.81h3.63Zm10.21,0H19.29V7.8h3.63Z"/><path class="cls-3" d="M11,18.9a3.06,3.06,0,0,0-.73-1.39s-.13,0-.2-.05a7.84,7.84,0,0,1-1.21-.22A3,3,0,0,1,7,14.93c-.05-.2.06-.23.21-.23a3,3,0,0,1,3.07,1.93A5.1,5.1,0,0,0,11.05,18a2.32,2.32,0,0,0-.26-1.4,3,3,0,0,1,.2-3.73c.17-.21.22-.22.39,0a2.94,2.94,0,0,1,.21,3.71,1.42,1.42,0,0,0-.27,1c0,.13,0,.26,0,.38l.09,0A9.32,9.32,0,0,0,12,16.88a3,3,0,0,1,3.1-2.19c.3,0,.34.06.26.35a3,3,0,0,1-3,2.41.43.43,0,0,0-.38.2,3.07,3.07,0,0,0-.6,1.26,2,2,0,0,1,1.33.7.23.23,0,0,0,.17.05,1.48,1.48,0,0,1,1.4,1.19.45.45,0,0,0,.17.24,2,2,0,0,1,.69.82.5.5,0,0,1-.49.76H7.77a.5.5,0,0,1-.49-.75A2,2,0,0,1,8,21.09a.46.46,0,0,0,.18-.26,1.52,1.52,0,0,1,1.34-1.17.56.56,0,0,0,.31-.14A2,2,0,0,1,11,18.9Zm.14,3.5c1.11,0,2.22,0,3.33,0,.37,0,.48-.16.27-.47a5.68,5.68,0,0,0-.63-.67A.56.56,0,0,1,14,21a1.23,1.23,0,0,0-1.26-1.06.36.36,0,0,1-.24-.11,1.61,1.61,0,0,0-2.58,0,.45.45,0,0,1-.25.12,1.21,1.21,0,0,0-1.26,1,.77.77,0,0,1-.19.29,5.42,5.42,0,0,0-.61.66c-.22.32-.1.47.29.47C9,22.41,10.08,22.4,11.18,22.4Zm1.12-5.47c.34-.25.62-.47.92-.67a.65.65,0,0,1,.29-.05,1.1,1.1,0,0,1-.15.26,2.33,2.33,0,0,1-.35.27l-.54.42A2.65,2.65,0,0,0,15.07,15,2.63,2.63,0,0,0,12.3,16.93ZM7.3,15c.12,1.14,1.56,2.35,2.55,2.13L9.71,17c-.25-.19-.52-.38-.76-.58-.06,0-.06-.14-.09-.22a.71.71,0,0,1,.25,0,.71.71,0,0,1,.18.12l.77.58A2.63,2.63,0,0,0,7.3,15Zm4,1.46a2.53,2.53,0,0,0-.15-3.31A2.64,2.64,0,0,0,11,16.47a2.29,2.29,0,0,0,0-.25c0-.31,0-.62,0-.93,0-.06.09-.12.13-.18a.64.64,0,0,1,.13.17.44.44,0,0,1,0,.2Z"/><path class="cls-3" d="M16.71,19.56a6.59,6.59,0,0,0-.17-1,.62.62,0,0,0-.29-.29c-.44-.23-.9-.43-1.35-.66a1.31,1.31,0,0,1-.33-.25c-.07-.08-.16-.24-.13-.28s.2,0,.3.07A12.62,12.62,0,0,0,16,17.9c.45.19.92.32.9,1l.07,0a5.4,5.4,0,0,1,.18-.57.58.58,0,0,1,.24-.27,3.13,3.13,0,0,0,1.21-.86,2.58,2.58,0,0,1,.5-.43,2.54,2.54,0,0,0,1-1.82c0-.16,0-.33.06-.53a.61.61,0,0,1-.66-.18s-.13,0-.19.06-.2.11-.27.09a.42.42,0,0,0-.55.19,1,1,0,0,1-.4.27,3.13,3.13,0,0,1-2,.15.5.5,0,0,1-.43-.48,3.93,3.93,0,0,0-.85-1.92.69.69,0,0,0-1.18,0l-.41.44.72.07c.2,0,.28.1.21.33s-.17.65-.26,1c0,.08-.13.14-.19.2s-.09-.17-.07-.25c.06-.32.15-.63.24-1H13a1.36,1.36,0,0,1-.29-.06.77.77,0,0,1,.14-.25q.3-.33.63-.63a.2.2,0,0,0,0-.3l-.27-.49c-.09-.19-.05-.26.15-.27h.23a.61.61,0,0,0,.67-.29c.09-.15.23-.19.32,0a.66.66,0,0,0,.75.31c.32,0,.36,0,.25.32a3,3,0,0,0-.3.87c0,.28.26.54.36.81A11.12,11.12,0,0,1,16,14.39c0,.17.1.26.27.3a3,3,0,0,0,1.65-.11.93.93,0,0,0,.59-.49.18.18,0,0,1,.27-.11.51.51,0,0,0,.59-.08.28.28,0,0,1,.28,0,.55.55,0,0,0,.59.17c.16,0,.23,0,.23.2A4,4,0,0,1,20,16.12a2.32,2.32,0,0,1-.87.89,1.7,1.7,0,0,0-.39.37,3.26,3.26,0,0,1-1.15.83.45.45,0,0,0-.22.25c-.12.35-.22.7-.34,1.1a4.32,4.32,0,0,1,.51,0c.06,0,.12.09.17.13s-.11.13-.17.13H16.19c-.06,0-.12-.08-.17-.12s.12-.13.19-.14A4.12,4.12,0,0,1,16.71,19.56Zm-1.4-8c-.37,0-.71,0-.9-.38-.17.48-.55.36-.88.39l.26.48A1,1,0,0,1,15,12.3Z"/><path class="cls-3" d="M17.93,16.53a2.5,2.5,0,0,0-1.4-.68,1.07,1.07,0,0,1-.25,0c-.06,0-.1-.1-.15-.15a.51.51,0,0,1,.16-.11,2.12,2.12,0,0,1,.44,0,2.88,2.88,0,0,1,1.37.69c.19.18.2.27,0,.44a2.08,2.08,0,0,1-1.9.41,3.52,3.52,0,0,1-.82-.36c-.08,0-.16-.22-.13-.27s.19,0,.28.05a2.09,2.09,0,0,0,2.19.12Z"/><path class="cls-3" d="M11.19,20.68a.74.74,0,0,1-.75-.64c0-.08.07-.16.1-.24s.13.11.15.17a.52.52,0,0,0,.49.44.5.5,0,0,0,.49-.43.84.84,0,0,1,.15-.18c0,.08.11.16.11.23A.75.75,0,0,1,11.19,20.68Z"/><path class="cls-3" d="M11.19,21.23a.65.65,0,0,1,.65.59c0,.06-.07.14-.1.21s-.14-.1-.15-.15a.41.41,0,0,0-.81,0c0,.07-.11.11-.16.16s-.1-.15-.09-.22A.65.65,0,0,1,11.19,21.23Z"/><path class="cls-3" d="M10,21.27a.69.69,0,0,1-.35.64.6.6,0,0,1-.68,0c-.06,0-.08-.15-.12-.23s.18,0,.25,0a.37.37,0,0,0,.51,0,.39.39,0,0,0,0-.5c0-.06,0-.15,0-.23s.2,0,.24.09A1.15,1.15,0,0,1,10,21.27Z"/><path class="cls-3" d="M13.15,22a.67.67,0,0,1-.65-.37.6.6,0,0,1,.06-.68c0-.05.15-.06.22-.09s0,.17,0,.23a.37.37,0,0,0,0,.51.36.36,0,0,0,.51,0c.06,0,.15,0,.23,0s0,.18-.08.22A2,2,0,0,1,13.15,22Z"/></g></g></svg>