<svg xmlns="http://www.w3.org/2000/svg" viewBox="0 0 13.85 9.96"><defs><style>.cls-1{fill:#dfa21c;opacity:0.2;}.cls-2{fill:#036936;}</style></defs><g id="Layer_2" data-name="Layer 2"><g id="Layer_1-2" data-name="Layer 1"><path class="cls-1" d="M13.85,6c0-1.47-3.1-2.66-6.93-2.66S0,4.56,0,6,3.1,8.68,6.92,8.68,13.85,7.5,13.85,6"/><path class="cls-2" d="M5,1.48a.2.2,0,0,1-.09-.25c0-.15.2-.12.31-.13L4.11,0H7.39L6.32,1.08v0h.13a.21.21,0,0,1,.2.14.18.18,0,0,1-.07.22l0,0A3.45,3.45,0,0,1,8.33,2.6a.9.9,0,0,1,1.21.09.91.91,0,0,1,1.56.75.9.9,0,0,1,.57.4,1.75,1.75,0,0,1,.12.32s0,.06.07.07a.49.49,0,0,1,.45.54v.44a.48.48,0,0,1-.43.51l-.07,0v3.4a.15.15,0,0,0,.06.14l.6.6.08.08H1.72v0l.38-.37.3-.3a.15.15,0,0,0,.06-.13c0-1.48,0-3,0-4.44a3.19,3.19,0,0,1,.93-2.28,3.29,3.29,0,0,1,1.52-.9L5,1.5A0,0,0,0,0,5,1.48ZM9.35,9.76l-.07-.07L9,9.36a.18.18,0,0,1-.06-.14V4.74a2.82,2.82,0,0,0,0-.41,3,3,0,0,0-.7-1.6A3.05,3.05,0,0,0,5,1.69,3.11,3.11,0,0,0,2.64,4.74V9.22a.17.17,0,0,1-.05.14l-.41.38,0,0Zm2.7,0,0,0-.4-.38a.17.17,0,0,1-.05-.14V5.74H9.09V9.16a.22.22,0,0,0,.05.11c.14.15.29.29.43.43a.2.2,0,0,0,.16.07h2.32Zm-3-4.23h2.73a.29.29,0,0,0,.3-.3V4.75a.31.31,0,0,0-.33-.33H9.09ZM4.6.19l0,0,.86.84a.11.11,0,0,0,.08,0A2.81,2.81,0,0,0,6,1.1a.25.25,0,0,0,.11,0c.17-.17.33-.34.5-.5L7,.19Zm6.3,3.23s0,0,0,0a.71.71,0,0,0-.38-.7.72.72,0,0,0-.77.07c-.09.08-.09.08,0,.19a.14.14,0,0,1,0,.07c0,.13,0,.27.07.4l.46.26A.88.88,0,0,1,10.9,3.42ZM9,3.68H9a.86.86,0,0,1,.58-.26c.05,0,.06,0,.06-.07a.7.7,0,0,0-.41-.67.68.68,0,0,0-.72.07Zm1.34.54a.7.7,0,0,0-1.22-.37,2.11,2.11,0,0,1,.1.3c0,.07,0,.08.1.08h1Zm1.31,0a.68.68,0,0,0-.48-.57.7.7,0,0,0-.74.2,2.22,2.22,0,0,1,.1.31s0,.07.08.07h1Z"/><path class="cls-2" d="M5.77,2.6a6.28,6.28,0,0,1,.43.49.85.85,0,0,1-.11,1c-.1.11-.21.21-.33.32-.18-.21-.43-.37-.51-.67A.81.81,0,0,1,5.37,3C5.48,2.89,5.63,2.76,5.77,2.6Z"/><path class="cls-2" d="M4.66,6.74a1,1,0,0,1,.84.47,1,1,0,0,1,.16.55v.59a.94.94,0,0,1-.59-.2,1,1,0,0,1-.41-.81Z"/><path class="cls-2" d="M5.87,8.35a3.36,3.36,0,0,1,.06-.95,1,1,0,0,1,.93-.65s0,0,0,0v.61a1,1,0,0,1-1,.94Z"/><path class="cls-2" d="M6.88,5.34a5.36,5.36,0,0,1,0,.81,1,1,0,0,1-.93.79h0a.2.2,0,0,1,0-.07c0-.24,0-.47,0-.7a1,1,0,0,1,.9-.83Z"/><path class="cls-2" d="M5.66,5.53a1,1,0,0,1-.79-.39,1,1,0,0,1-.21-.65V3.93A.85.85,0,0,1,5,4a1,1,0,0,1,.64.93Z"/><path class="cls-2" d="M4.66,5.34a1,1,0,0,1,.61.2,1,1,0,0,1,.39.78c0,.18,0,.36,0,.54s0,.08-.08.08a1,1,0,0,1-.92-1Z"/><path class="cls-2" d="M5.86,5.52a5.92,5.92,0,0,1,0-.84,1,1,0,0,1,.91-.75h0s0,0,0,0V4.6a1,1,0,0,1-.94.93Z"/></g></g></svg>