<svg xmlns="http://www.w3.org/2000/svg" viewBox="0 0 25.73 24.42"><defs><style>.cls-1{fill:#196735;}.cls-2{font-size:2.12px;fill:#221f1f;font-family:GothamHTF-Book, Gotham HTF;}.cls-3{fill:#fff;}</style></defs><g id="Layer_2" data-name="Layer 2"><g id="Layer_1-2" data-name="Layer 1"><rect class="cls-1" x="0.21" width="25.52" height="19.24"/><text class="cls-2" transform="translate(0 21.52)">Tanmiah Restaurant For<tspan x="1.96" y="2.55">Fast Food Company</tspan></text><rect class="cls-3" x="1.59" y="3.1" width="4.82" height="2.17"/><path class="cls-3" d="M22.73,6.91l1.43-1.62C21.83,1.87,17,3.49,17,3.49l1.54,1.86C20.67,4.78,22.73,6.91,22.73,6.91Z"/><path class="cls-3" d="M22.7,12.08c-4.2,4.75-7.47-.94-7.47-.94a4,4,0,0,0,3-3.81c.23-3.91-4-4.23-4-4.23h-7V15.93H9.75V5h3.92a2.15,2.15,0,0,1,2.15,2.15,2.1,2.1,0,0,1-.16.79V8a2.15,2.15,0,0,1-2,1.32H10.38V11.5h2.53c1.87,5.63,7.59,4.56,7.59,4.56a7.18,7.18,0,0,0,3.85-2.27Z"/></g></g></svg>