<svg xmlns="http://www.w3.org/2000/svg" viewBox="0 0 13.85 11.1"><defs><style>.cls-1{fill:#dfa21c;opacity:0.2;}.cls-2{fill:#036936;}</style></defs><g id="Layer_2" data-name="Layer 2"><g id="Layer_1-2" data-name="Layer 1"><path class="cls-1" d="M13.85,6.63C13.85,5.16,10.75,4,6.92,4S0,5.16,0,6.63,3.1,9.29,6.92,9.29s6.93-1.19,6.93-2.66"/><path class="cls-2" d="M10.76,9.3v.52c0,.14,0,.17-.18.17h-.37v.95c0,.13,0,.16-.17.16H2.56c-.25,0-.25,0-.25-.24V10h-.5c-.18,0-.2,0-.2-.19V4.19l-.38.12c-.13,0-.18,0-.18-.14s0-.5,0-.76a.18.18,0,0,1,.14-.19L3,2.64,11.17,0l.1,0c.08,0,.14,0,.14.11,0,.32,0,.64,0,1,0,0-.06.09-.1.11l-.45.14c-.09,0-.11.06-.11.15,0,1.33,0,2.67,0,4,0,1.13,0,2.26,0,3.39a.27.27,0,0,0,.1.22l2,1.74.08.08a.09.09,0,0,1,0,.15.1.1,0,0,1-.16,0l-.4-.35L10.85,9.38ZM9.05,5.78c.09.25.18.47.26.71A1.4,1.4,0,0,1,8.93,8,2,2,0,0,1,8,8.49s-.11,0-.12,0-.11.25-.16.38h2.82V1.44l-.09,0L2,4.08c-.09,0-.12.06-.12.16V8.93h.63V8.71a.54.54,0,0,1,.59-.58H3.6l-.16-.19a.43.43,0,0,1,.44-.7.91.91,0,0,1,.61.33.52.52,0,0,1,.11.56H5a.55.55,0,0,1,.56.56v.23h.12l.65,0a.28.28,0,0,0,.29-.16h0l-.09,0a.85.85,0,0,1-.62-.63,1.81,1.81,0,0,1,0-1c0-.06,0-.09,0-.13a.83.83,0,0,1-.3-.34A1.37,1.37,0,0,1,5.39,6c0-.15.08-.19.21-.13L6,6a1.38,1.38,0,0,0,.85.12c.21,0,.41-.1.63-.16a.49.49,0,0,1,0-.12,1.8,1.8,0,0,1,.21-1.09.72.72,0,0,1,.6-.34.19.19,0,0,0,.1,0,.38.38,0,0,1,.38-.17c.16,0,.35.07.46.25a.25.25,0,0,1,0,.14c0,.15.06.21.14.29a.57.57,0,0,1,.13.14.18.18,0,0,1,0,.13.16.16,0,0,1-.13.07,1.28,1.28,0,0,1-.19,0A.41.41,0,0,1,9.05,5.78ZM7.55,8.35l.17,0A1.73,1.73,0,0,0,9,7.49a1,1,0,0,0,.14-.7,2.93,2.93,0,0,0-.48-1.17c-.07-.12-.13-.24-.19-.36s0-.13.06-.16.12,0,.15.08a3.24,3.24,0,0,0,.17.32s.1.07.11.06a.48.48,0,0,0,.12-.16.1.1,0,0,0,0-.1,1.14,1.14,0,0,0-.19-.19c-.07,0-.13-.07-.09-.16s.11-.07.18,0l.17,0v0a.16.16,0,0,1-.07-.23.14.14,0,0,0,0-.11.67.67,0,0,0-.38-.13.63.63,0,0,0-.12.11.25.25,0,0,1-.23.11.54.54,0,0,0-.3.1.78.78,0,0,0-.21.3,1.66,1.66,0,0,0-.08,1c0,.12,0,.17-.13.19a2.45,2.45,0,0,0-.39.08,2.11,2.11,0,0,1-.62.09,2.3,2.3,0,0,1-.89-.27l-.1,0a.79.79,0,0,0,.23.63s.08.09.16.06.16.06.12.16a1.63,1.63,0,0,0-.09.9A.74.74,0,0,0,7,8.51c.27,0,.4-.24.48-.48,0-.07.06-.12.14-.1a.11.11,0,0,1,.07.16ZM1.27,4.06l.59-.18L7.86,2l3.22-1c.09,0,.13-.06.12-.16s0-.32,0-.49,0-.07,0-.11l-.08,0L9.64.75,2.5,3,1.35,3.4s-.08.05-.08.07ZM2.53,10v.87H10V10Zm-.7-.85c0,.16,0,.33,0,.49s0,.14.13.14h8.56V9.15Zm3.46-.23a1.2,1.2,0,0,0,0-.19.51.51,0,0,0,0-.22.32.32,0,0,0-.31-.16h-2a.31.31,0,0,0-.24.28c0,.06,0,.11,0,.17s0,.12.12.12H5.29ZM4.13,8.11c.13,0,.22,0,.27-.1a.23.23,0,0,0,0-.25.68.68,0,0,0-.59-.31c-.19,0-.26.13-.18.3A.65.65,0,0,0,4.13,8.11Zm3.47.48,0,0-.35.1A2.17,2.17,0,0,1,7,8.72a.38.38,0,0,0-.25.18h.72Z"/><path class="cls-2" d="M6.8,7.61,6.33,7.5c-.07,0-.12-.08-.09-.15s.1-.08.17-.06A1.07,1.07,0,0,0,7.8,6.72c0-.07.08-.11.16-.08s.07.1,0,.18A1.37,1.37,0,0,1,6.8,7.61Z"/></g></g></svg>