<svg xmlns="http://www.w3.org/2000/svg" viewBox="0 0 30.33 30.33"><defs><style>.cls-1{fill:#f1f1ef;}.cls-2{fill:#dfa21c;opacity:0.2;}.cls-3{fill:#036936;}</style></defs><g id="Layer_2" data-name="Layer 2"><g id="Layer_1-2" data-name="Layer 1"><circle class="cls-1" cx="15.17" cy="15.17" r="15.17"/><path class="cls-2" d="M23.37,15.65c0-1.46-3.1-2.65-6.93-2.65s-6.92,1.19-6.92,2.65,3.1,2.66,6.92,2.66,6.93-1.19,6.93-2.66"/><path class="cls-3" d="M22.73,21.8H20.1V18.19c0-.15,0-.15-.15-.15H11.1V21.8H8.47V18c-.19,0-.37,0-.55,0A.92.92,0,0,1,7,17.35,1,1,0,0,1,8,16c.19,0,.38,0,.58,0V13.87h-1a1.63,1.63,0,0,1-1.52-1.61V10.43A1.63,1.63,0,0,1,7.56,8.86a5.42,5.42,0,0,1,.57,0H12a1.21,1.21,0,0,1,1.28,1.28v.62h.86s.06,0,.07-.07a.51.51,0,0,1,.56-.42h.68a.53.53,0,0,1,.54.54v.41a4,4,0,0,1,.52.11,1.93,1.93,0,0,1,1.11,1.4.89.89,0,0,1,0,.51.38.38,0,0,1-.35.28.42.42,0,0,1-.4-.27c0-.12-.06-.26-.09-.39s0-.18,0-.27A.75.75,0,0,0,16,12v.13a.5.5,0,0,1-.49.49h-.82a.48.48,0,0,1-.46-.38c0-.08,0-.1-.13-.1h-.8a.81.81,0,0,0,0,.15c0,1.2,0,2.39,0,3.58,0,.12,0,.15.16.15h9.86a.91.91,0,0,1,.87.52,1,1,0,0,1-.05,1.06.91.91,0,0,1-.78.43,3.38,3.38,0,0,1-.45,0c-.08,0-.12,0-.11.11V21.8ZM12.93,16v-.11c0-1.94,0-3.88,0-5.83A.91.91,0,0,0,12,9.15H8.87v6.71c0,.16,0,.16.15.16h3.91Zm2.67,1.72h7.63a.7.7,0,0,0,.63-1,.67.67,0,0,0-.66-.37H7.93a.65.65,0,0,0-.47.2.76.76,0,0,0-.14.8.66.66,0,0,0,.65.41Zm-7-8.59H7.68a1.34,1.34,0,0,0-1.3,1.3c0,.6,0,1.2,0,1.81a1.29,1.29,0,0,0,1.07,1.27,9.56,9.56,0,0,0,1.07,0l0,0ZM10.79,21.5s0-.07,0-.1V18.15c0-.08,0-.11-.11-.11q-.88,0-1.77,0c-.12,0-.15,0-.15.15v3.18s0,.08,0,.13Zm11.63,0s0-.05,0-.07c0-1.09,0-2.19,0-3.28,0-.1-.05-.11-.12-.11-.59,0-1.19,0-1.78,0h-.11V21.5Zm-8-10v.64c0,.16.08.24.24.24h.71c.16,0,.23-.08.23-.24,0-.43,0-.85,0-1.27,0-.17-.07-.25-.24-.25h-.7c-.16,0-.23.08-.24.25Zm-.31-.4h-.86s0,0,0,.08,0,.26,0,.39c0,.32,0,.32.31.32h.6ZM17.3,13a1.68,1.68,0,0,0-1-1.41.85.85,0,0,0-.23,0s-.07,0-.08.08,0,.06.06.07a1.17,1.17,0,0,0,.2.06.94.94,0,0,1,.68.59c.05.14.08.29.12.43a3,3,0,0,0,.06.32.29.29,0,0,0,.11.11.48.48,0,0,0,.09-.11A.26.26,0,0,0,17.3,13Z"/><path class="cls-3" d="M21.71,14.38a.39.39,0,0,1-.48.37,3.3,3.3,0,0,1-.37-.13,3,3,0,0,0-.51-.16.59.59,0,0,0-.53.18l-.21.17a.35.35,0,0,1-.45,0,.37.37,0,0,1-.09-.48,1.18,1.18,0,0,1,.71-.52,2.11,2.11,0,0,1,1.52.1.63.63,0,0,1,.4.45A.15.15,0,0,1,21.71,14.38Zm-.43.08s.1,0,.11-.05a.14.14,0,0,0,0-.11.87.87,0,0,0-.22-.17,2,2,0,0,0-1-.12,1,1,0,0,0-.75.42.12.12,0,0,0,0,.1.11.11,0,0,0,.1,0l.14-.12a.93.93,0,0,1,.83-.26,4.22,4.22,0,0,1,.6.2Z"/><path class="cls-3" d="M23.29,15.49a2.08,2.08,0,0,1-1.08-.26,1.12,1.12,0,0,1-.34-.31.36.36,0,0,1,0-.44.41.41,0,0,1,.43-.14c.12,0,.23.11.35.16a4.5,4.5,0,0,0,.51.2.61.61,0,0,0,.54-.13,1.3,1.3,0,0,1,.23-.15.34.34,0,0,1,.44.07.36.36,0,0,1,.05.48,1.21,1.21,0,0,1-.77.47C23.52,15.47,23.37,15.48,23.29,15.49Zm-.05-.31A1.28,1.28,0,0,0,24,15a.85.85,0,0,0,.17-.16s0-.08,0-.1a.09.09,0,0,0-.1,0l-.2.14a.86.86,0,0,1-.74.16,3.9,3.9,0,0,1-.57-.21c-.09,0-.18-.1-.28-.14a.41.41,0,0,0-.15,0s0,.1,0,.13a.65.65,0,0,0,.22.18A1.79,1.79,0,0,0,23.24,15.18Z"/><path class="cls-3" d="M18.45,15.4a1.67,1.67,0,0,1-.66-.15,2.2,2.2,0,0,1-.91-.8.9.9,0,0,1-.15-.47.4.4,0,0,1,.23-.39.41.41,0,0,1,.47.12,1.13,1.13,0,0,1,.15.21l.18.31a.77.77,0,0,0,.82.37.7.7,0,0,1,.25,0,.32.32,0,0,1,.27.27c0,.19,0,.34-.16.4a2.67,2.67,0,0,1-.48.15Zm0-.3.16,0s.07,0,.09,0a.61.61,0,0,0,.07-.1.24.24,0,0,0-.1,0,.38.38,0,0,0-.15,0,1,1,0,0,1-1-.48A4,4,0,0,1,17.3,14a.45.45,0,0,0-.1-.13.13.13,0,0,0-.12,0,.12.12,0,0,0,0,.1,1.2,1.2,0,0,0,.08.27,1.84,1.84,0,0,0,.6.61A1.43,1.43,0,0,0,18.48,15.1Z"/></g></g></svg>